<?xml version="1.0" standalone="no"?><!DOCTYPE svg PUBLIC "-//W3C//DTD SVG 1.1//EN" "http://www.w3.org/Graphics/SVG/1.1/DTD/svg11.dtd"><svg t="1782806124674" class="icon" viewBox="0 0 1024 1024" version="1.1" xmlns="http://www.w3.org/2000/svg" p-id="12499" xmlns:xlink="http://www.w3.org/1999/xlink" width="200" height="200"><path d="M512 0C230.4 0 0 230.4 0 512s230.4 512 512 512 512-230.4 512-512S793.6 0 512 0z m0 972.8c-253.44 0-460.8-207.36-460.8-460.8S258.56 51.2 512 51.2s460.8 207.36 460.8 460.8-207.36 460.8-460.8 460.8z" p-id="12500"></path><path d="M506.88 701.44c-12.8 0-25.6 5.12-33.28 12.8-10.24 7.68-15.36 20.48-12.8 33.28 0 12.8 5.12 23.04 12.8 33.28 7.68 7.68 20.48 12.8 33.28 12.8s23.04-5.12 33.28-12.8c7.68-7.68 12.8-20.48 12.8-33.28s-5.12-23.04-12.8-33.28c-7.68-7.68-20.48-12.8-33.28-12.8zM519.68 230.4c-53.76 0-97.28 17.92-130.56 51.2-30.72 33.28-46.08 76.8-46.08 130.56h61.44c0-38.4 7.68-66.56 25.6-89.6 17.92-25.6 48.64-38.4 87.04-38.4 33.28 0 58.88 10.24 76.8 28.16 17.92 17.92 25.6 40.96 25.6 71.68 0 20.48-7.68 40.96-23.04 61.44-7.68 10.24-17.92 17.92-25.6 28.16-43.52 38.4-69.12 66.56-79.36 89.6-10.24 20.48-15.36 43.52-15.36 66.56v17.92H537.6v-17.92c0-20.48 5.12-40.96 15.36-56.32 7.68-15.36 20.48-28.16 35.84-40.96 35.84-30.72 56.32-51.2 64-58.88 17.92-25.6 28.16-56.32 28.16-89.6 0-46.08-15.36-81.92-43.52-110.08C609.28 243.2 568.32 230.4 519.68 230.4z" p-id="12501"></path></svg>