<?xml version="1.0" standalone="no"?><!DOCTYPE svg PUBLIC "-//W3C//DTD SVG 1.1//EN" "http://www.w3.org/Graphics/SVG/1.1/DTD/svg11.dtd"><svg height="1024" node-id="1" sillyvg="true" template-height="1024" template-width="1024" version="1.1" viewBox="0 0 1024 1024" width="1024" xmlns="http://www.w3.org/2000/svg" xmlns:xlink="http://www.w3.org/1999/xlink"><defs node-id="60"></defs><path d="M 0.00 0.00 L 1024.00 0.00 L 1024.00 1024.00 L 0.00 1024.00 Z" fill="#ffffff" fill-rule="nonzero" node-id="62" stroke="none" target-height="1024" target-width="1024" target-x="0" target-y="0"></path><path d="M 612.51 125.52 C 613.89 125.18 616.64 124.51 617.99 124.19 L 617.51 125.89 C 616.00 131.48 613.63 136.92 609.78 141.32 C 599.39 153.50 589.44 166.07 580.58 179.42 C 604.53 195.41 624.76 217.24 637.08 243.43 C 641.48 254.33 646.09 265.18 650.24 276.21 C 647.79 281.71 648.27 287.72 649.00 293.57 C 650.31 303.05 647.51 312.36 646.11 321.67 C 636.39 326.42 623.27 327.40 616.75 336.65 C 622.44 334.81 628.06 332.73 633.84 331.21 C 629.02 335.32 620.31 336.99 620.40 344.65 C 625.86 345.09 631.34 345.62 636.85 345.89 C 630.90 347.17 625.01 348.62 619.25 350.55 C 617.88 348.16 616.52 345.80 615.19 343.46 C 599.35 340.04 581.32 341.65 568.50 352.38 C 564.18 355.73 564.89 362.15 567.49 366.37 C 571.48 372.86 579.07 375.87 586.13 377.75 C 594.30 379.79 603.91 379.72 610.56 373.85 C 617.85 368.89 617.26 359.10 619.85 351.60 L 620.26 353.67 C 620.77 356.53 621.43 359.38 622.24 362.22 C 633.06 365.68 644.92 361.37 655.68 365.57 C 643.84 366.72 631.82 364.79 620.08 366.88 L 620.65 369.31 C 630.24 371.99 640.65 370.02 650.51 371.53 C 640.93 372.82 631.25 372.84 621.62 373.16 C 621.94 376.99 622.30 380.91 622.65 384.81 C 617.99 383.64 613.40 382.36 608.70 381.69 C 613.22 389.28 623.15 389.26 630.58 392.27 C 619.48 411.03 596.04 414.74 578.45 424.90 C 579.00 431.92 581.57 438.53 583.13 445.36 C 587.85 479.56 575.86 513.12 560.35 543.07 C 555.49 554.49 553.50 566.97 549.14 578.51 C 546.18 581.83 543.43 585.41 542.16 589.77 C 535.01 610.69 532.99 633.95 519.85 652.41 C 516.89 657.59 510.40 657.20 505.24 657.11 C 498.45 656.81 490.65 655.46 486.77 649.20 C 475.31 632.07 472.85 610.71 461.93 593.26 C 457.35 582.54 454.11 571.28 449.46 560.60 C 438.40 534.86 429.66 507.57 428.91 479.36 C 428.93 465.41 431.04 451.46 434.82 438.07 L 435.21 436.67 C 442.10 437.25 448.98 437.54 455.86 437.96 C 472.42 439.88 489.25 439.61 505.74 437.11 C 494.25 432.89 481.98 431.92 469.99 429.91 C 434.96 423.69 399.85 412.43 371.70 389.90 C 377.32 388.02 383.26 386.46 387.76 382.38 C 382.99 382.86 378.29 383.76 373.61 384.68 C 368.29 381.10 363.40 376.92 359.32 372.01 C 365.60 371.90 371.89 372.01 378.17 372.54 C 387.81 379.93 401.11 381.95 412.46 377.61 C 419.78 374.88 428.33 370.73 430.17 362.38 C 431.34 356.58 426.70 351.74 422.28 348.85 C 411.48 341.97 398.10 343.02 385.90 343.92 C 384.34 343.85 381.22 343.69 379.66 343.60 C 379.92 341.17 380.17 338.78 380.44 336.42 L 380.05 336.37 C 371.15 330.84 361.15 327.61 351.59 323.48 C 353.58 286.90 363.95 251.21 377.92 217.49 C 390.07 201.69 404.55 187.24 422.60 178.30 C 411.82 162.13 399.34 146.87 385.05 133.66 C 385.99 130.54 386.84 127.40 387.71 124.33 C 406.57 137.70 421.73 155.31 438.65 170.86 C 444.39 171.74 450.03 169.44 455.65 168.48 L 455.79 169.53 C 458.61 193.32 466.20 216.19 471.54 239.49 C 476.09 255.64 478.36 272.70 486.11 287.75 C 489.85 295.96 501.38 297.47 508.08 292.06 C 515.35 286.05 518.01 276.49 520.77 267.86 C 529.94 235.09 540.90 202.47 543.75 168.34 C 549.53 169.63 555.28 171.14 560.90 173.04 C 578.47 157.63 593.04 138.78 612.51 125.52 Z M 404.39 249.90 C 412.35 246.07 420.14 240.68 429.46 241.69 C 442.07 241.21 452.25 249.14 461.43 256.74 C 460.01 246.03 451.11 237.54 441.18 234.28 C 427.32 229.65 410.26 236.21 404.39 249.90 Z M 529.16 258.87 C 537.35 252.95 544.66 244.60 555.38 243.50 C 566.04 240.61 575.95 245.96 585.51 249.81 C 582.65 245.13 579.25 240.57 574.32 237.98 C 557.62 228.07 531.29 238.87 529.16 258.87 Z M 387.90 288.34 C 392.00 294.08 399.41 294.86 405.49 297.33 C 398.79 298.34 392.02 298.69 385.28 299.17 C 387.21 305.34 395.01 301.94 399.57 302.59 C 396.68 304.35 393.68 306.03 390.97 308.11 C 390.79 313.92 397.67 309.86 399.59 307.33 C 403.29 302.38 409.39 302.84 414.92 302.86 C 406.48 314.49 410.44 331.72 421.27 340.41 C 432.85 349.24 451.98 344.65 458.15 331.39 C 461.70 325.48 460.65 318.34 460.97 311.83 C 466.57 317.95 466.73 326.42 467.25 334.22 C 473.45 327.43 468.65 318.07 466.48 310.61 C 468.26 310.32 471.89 309.70 473.68 309.40 C 473.01 308.69 471.66 307.22 470.99 306.51 C 452.46 301.17 433.33 298.30 414.48 294.24 C 405.60 292.38 397.12 288.37 387.90 288.34 Z M 520.97 308.05 C 524.48 310.11 528.50 310.43 532.51 310.34 C 528.45 317.61 523.70 328.18 529.50 335.68 C 530.74 328.23 530.86 320.20 535.88 314.06 C 536.29 320.25 536.52 326.78 539.80 332.29 C 546.11 344.47 564.05 349.61 575.12 340.87 C 584.50 333.48 587.95 320.98 588.75 309.56 C 587.62 309.33 585.38 308.87 584.25 308.64 C 584.16 310.89 583.98 315.41 583.89 317.66 C 577.76 319.01 576.18 309.77 574.39 305.45 C 577.72 304.49 583.73 302.79 583.40 309.08 C 584.69 306.94 585.93 304.81 587.17 302.70 C 593.29 304.95 599.16 307.77 605.17 310.36 C 604.25 307.40 602.60 304.93 600.22 302.93 C 602.56 301.99 607.26 300.11 609.62 299.17 C 604.62 297.59 597.35 302.31 593.40 297.33 C 597.99 295.20 608.17 295.96 607.12 288.44 C 579.07 297.77 549.23 299.67 520.97 308.05 Z M 483.49 345.82 C 479.80 356.60 498.50 358.02 494.48 368.21 C 490.63 376.10 479.57 380.06 472.05 374.90 C 468.56 372.75 468.93 367.11 465.17 365.43 C 461.98 373.67 469.66 381.35 477.62 381.65 C 485.26 383.16 491.64 378.14 497.19 373.71 C 504.21 382.31 518.08 385.25 526.59 377.15 C 529.57 374.19 534.07 367.84 529.43 364.47 C 527.03 368.44 525.42 373.55 520.86 375.62 C 512.60 379.97 500.67 373.96 499.66 364.65 C 502.44 357.52 512.23 354.83 512.37 346.17 C 502.81 344.63 493.08 344.56 483.49 345.82 Z" fill="#fdfdfd" fill-rule="nonzero" node-id="64" stroke="none" target-height="533.404" target-width="304.087" target-x="351.58902" target-y="124.189"></path><path d="M 375.33 568.26 C 384.23 573.83 393.01 579.61 401.52 585.76 C 409.66 605.96 414.25 627.38 417.39 648.90 C 416.68 649.79 415.28 651.56 414.57 652.45 C 405.81 651.08 396.86 650.99 388.24 648.97 C 384.89 648.35 382.23 646.05 380.65 643.14 C 373.79 631.81 370.17 618.95 366.34 606.38 C 362.37 606.24 358.42 606.12 354.50 606.05 C 354.18 607.61 353.54 610.76 353.22 612.32 C 352.80 609.52 352.41 606.67 352.05 603.92 C 357.25 604.43 362.53 604.93 367.74 604.08 C 372.28 601.81 377.69 599.47 379.57 594.33 C 378.75 585.55 376.52 576.97 375.33 568.26 Z" fill="#f8f9fa" fill-rule="nonzero" node-id="66" stroke="none" target-height="84.198" target-width="65.34503" target-x="352.04697" target-y="568.256"></path><path d="M 617.51 125.89 C 625.42 138.36 629.74 152.75 632.42 167.19 C 635.65 185.41 637.47 203.94 636.71 222.47 C 636.36 229.44 636.36 236.44 637.08 243.43 C 624.76 217.24 604.53 195.41 580.58 179.42 C 589.44 166.07 599.39 153.50 609.78 141.32 C 613.63 136.92 616.00 131.48 617.51 125.89 Z" fill="#fbc6d7" fill-rule="nonzero" node-id="68" stroke="none" target-height="117.548004" target-width="56.88202" target-x="580.583" target-y="125.886"></path><path d="M 606.89 588.23 C 615.28 581.65 624.51 576.24 633.98 571.40 C 630.31 578.46 625.31 585.92 626.66 594.29 C 627.56 600.71 633.66 604.33 639.16 606.54 C 643.86 629.82 627.14 648.53 618.27 668.26 C 616.66 665.87 615.03 663.55 613.36 661.33 C 612.00 662.16 610.81 663.16 609.60 664.24 C 611.02 667.75 612.10 671.40 612.30 675.28 C 601.18 676.38 602.97 661.84 596.23 656.33 C 594.80 659.95 593.70 663.69 593.36 667.66 C 595.42 669.96 597.46 672.34 599.41 674.82 C 591.94 674.40 588.20 667.16 588.43 660.41 C 587.95 639.24 594.28 618.58 601.66 598.97 C 603.31 595.39 603.75 590.85 606.89 588.23 Z" fill="#fcfcfc" fill-rule="nonzero" node-id="70" stroke="none" target-height="104.979004" target-width="55.919006" target-x="587.945" target-y="571.398"></path><path d="M 366.57 125.86 C 369.91 119.12 375.26 111.69 383.70 112.01 C 393.54 113.45 401.57 119.85 409.18 125.77 C 422.53 136.67 434.25 149.40 445.40 162.51 C 481.36 152.35 519.99 153.32 556.04 162.65 C 569.09 147.65 582.83 133.06 598.79 121.14 C 605.33 116.67 613.01 111.37 621.36 113.55 C 626.98 115.89 629.62 121.99 632.35 127.06 C 646.75 157.40 649.30 191.67 649.25 224.79 C 649.58 234.33 647.49 244.65 652.56 253.37 C 662.49 272.43 670.24 292.59 675.42 313.46 C 685.13 310.71 695.01 308.41 705.03 307.13 C 705.95 307.77 707.81 309.08 708.75 309.72 C 698.11 313.78 686.87 315.71 675.93 318.69 C 676.48 325.57 676.87 332.52 676.98 339.47 C 692.49 338.73 707.79 335.48 723.36 335.34 C 723.08 336.35 722.51 338.34 722.24 339.35 C 707.28 342.22 691.91 342.47 676.87 344.83 C 675.95 352.38 674.28 359.81 672.58 367.22 C 686.16 368.11 699.83 367.84 713.38 369.26 L 713.59 372.29 C 699.44 374.24 684.80 371.26 670.45 371.92 C 667.12 380.36 662.76 388.41 657.14 395.57 C 668.11 399.40 679.25 402.89 689.92 407.52 C 690.63 408.44 692.05 410.25 692.74 411.17 C 679.25 409.68 667.01 403.23 654.14 399.35 C 647.65 406.95 638.98 411.88 631.09 417.70 C 624.55 442.89 621.96 469.56 625.90 495.25 C 635.93 515.23 651.27 532.54 657.76 554.24 C 665.29 577.18 663.91 601.58 662.08 625.27 C 672.56 620.41 679.09 609.93 679.51 598.46 C 680.86 569.04 669.37 540.85 668.79 511.56 C 668.22 484.08 674.67 454.90 693.57 434.03 C 704.62 421.72 723.15 413.76 739.16 420.82 C 751.89 426.28 756.66 443.71 749.21 455.16 C 743.59 463.99 735.95 471.63 732.21 481.58 C 723.71 502.82 725.63 526.21 726.87 548.53 C 729.58 576.38 734.37 606.67 720.13 632.34 C 709.02 654.22 684.51 665.23 661.23 668.03 C 653.68 668.37 643.82 663.67 637.97 670.32 C 645.95 670.87 653.96 670.87 661.94 671.19 C 660.93 674.06 660.86 678.60 657.14 679.59 C 645.26 683.97 632.42 681.19 620.19 680.46 C 609.85 684.79 598.63 682.78 587.95 681.33 C 578.04 700.90 550.01 698.88 534.89 686.86 C 513.38 687.78 491.80 688.44 470.28 686.93 C 455.67 698.90 429.80 699.40 418.70 682.66 C 406.02 684.75 393.52 681.51 381.11 679.63 C 368.29 682.36 353.90 684.15 342.28 676.63 C 347.80 667.75 360.62 672.02 369.41 670.85 C 366.91 668.53 364.39 666.22 362.05 663.83 C 359.48 660.94 357.23 657.78 355.26 654.52 C 352.12 648.03 349.36 641.40 347.00 634.63 C 342.46 621.38 340.07 607.20 341.91 593.23 C 342.85 586.33 343.93 579.50 345.14 572.68 C 345.85 569.61 346.66 566.63 347.55 563.69 C 350.88 554.03 354.78 544.59 360.01 535.80 C 366.29 525.48 374.18 516.19 380.05 505.59 C 384.92 498.55 382.99 489.61 383.19 481.63 C 383.17 460.20 373.93 440.46 369.96 419.74 C 359.55 414.54 351.13 406.33 342.09 399.35 C 329.27 402.45 317.30 408.78 304.16 410.50 C 306.27 406.53 310.67 405.39 314.50 403.85 C 322.69 400.55 331.11 397.82 339.64 395.45 C 333.40 388.48 328.45 380.48 324.80 371.88 C 309.68 371.35 294.68 373.92 279.62 373.62 C 280.05 372.79 280.94 371.14 281.40 370.29 C 295.12 368.64 308.97 367.84 322.80 367.33 C 320.44 360.16 318.61 352.79 317.64 345.32 C 302.89 342.38 287.80 341.65 272.87 339.97 C 272.64 339.03 272.21 337.11 272.00 336.17 C 287.23 336.19 302.30 338.55 317.41 340.18 C 317.39 333.44 317.69 326.71 318.68 320.09 C 308.81 316.35 298.26 314.77 288.47 310.91 C 288.06 310.00 287.25 308.16 286.84 307.24 C 298.06 307.56 308.74 311.35 319.55 314.10 C 322.92 295.06 329.39 276.69 338.12 259.47 C 341.82 251.28 347.57 243.39 347.37 234.03 C 347.14 197.33 349.66 159.17 366.57 125.86 Z M 368.58 153.66 C 361.70 179.35 359.64 206.53 362.48 232.95 C 360.12 239.83 358.29 246.94 354.82 253.39 C 344.41 273.55 336.95 295.15 331.68 317.17 C 338.38 319.10 345.03 321.17 351.59 323.48 C 361.15 327.61 371.15 330.84 380.05 336.37 C 372.46 336.42 365.51 332.98 358.26 331.21 L 358.06 330.68 C 349.16 328.09 340.42 324.97 331.34 323.11 C 330.95 329.33 330.60 335.55 330.39 341.78 C 339.57 343.27 348.72 344.86 357.83 346.81 C 364.55 348.32 371.73 349.15 377.55 353.14 L 377.55 354.97 C 367.25 352.66 356.84 351.05 346.43 349.47 C 341.43 347.70 335.97 347.70 330.79 346.88 C 331.89 351.53 333.06 356.26 334.02 361.00 C 334.57 362.13 335.67 364.35 336.22 365.48 C 349.20 366.44 362.60 364.33 375.30 368.37 C 363.17 370.66 350.72 370.78 338.40 370.84 C 338.38 371.35 338.33 372.31 338.31 372.82 L 339.16 372.77 C 342.62 379.15 346.68 385.22 351.08 391.03 C 358.79 389.26 366.43 387.20 374.02 384.95 L 373.61 384.68 C 378.29 383.76 382.99 382.86 387.76 382.38 C 383.26 386.46 377.32 388.02 371.70 389.90 C 366.08 391.72 360.49 393.64 354.91 395.57 C 367.87 409.93 386.15 417.95 404.02 424.38 C 420.79 430.87 438.79 432.70 455.86 437.96 C 448.98 437.54 442.09 437.25 435.21 436.67 L 434.82 438.07 C 430.01 436.81 425.19 435.20 420.19 435.07 C 410.17 434.10 400.35 431.99 390.69 429.19 C 391.47 439.01 392.67 448.83 392.67 458.74 C 392.83 476.35 390.51 494.24 394.41 511.65 C 401.02 541.33 409.02 570.69 417.28 599.98 L 415.99 599.56 C 421.18 614.15 425.21 629.22 427.25 644.61 C 429.00 657.16 427.92 669.93 430.01 682.46 C 431.93 683.26 435.76 684.86 437.69 685.69 C 441.13 679.54 440.74 672.25 442.71 665.67 C 444.50 672.11 445.08 678.76 445.24 685.48 C 454.50 686.56 455.47 676.42 460.12 671.31 C 460.24 673.26 460.51 677.16 460.65 679.11 C 464.02 673.51 466.48 667.27 466.50 660.67 C 466.73 640.48 461.20 620.92 456.64 601.47 C 454.62 590.62 451.93 579.95 449.09 569.31 C 448.22 566.40 448.31 563.35 449.46 560.60 C 454.11 571.28 457.35 582.54 461.93 593.26 C 468.15 620.57 480.56 647.71 475.56 676.35 C 494.27 678.99 513.40 678.88 532.10 675.99 C 528.33 642.36 542.28 610.69 549.14 578.51 C 553.50 566.97 555.49 554.49 560.35 543.07 L 563.11 543.37 C 558.66 561.88 554.50 580.62 552.30 599.50 C 547.37 617.98 542.97 636.81 542.23 656.01 C 542.16 663.14 542.03 670.94 546.27 677.11 C 549.55 681.49 555.10 683.14 559.73 685.76 C 557.99 679.82 554.99 673.14 558.63 667.36 C 559.62 669.77 560.58 672.20 561.48 674.70 C 562.76 678.92 563.79 683.44 566.68 686.97 C 576.52 687.29 571.20 675.76 571.55 670.05 C 572.85 671.79 575.49 675.25 576.82 677.00 C 575.70 650.55 581.84 624.36 591.36 599.84 C 590.65 600.02 589.25 600.37 588.54 600.55 C 595.97 588.55 598.31 574.43 602.74 561.22 C 608.54 541.03 614.07 520.71 617.49 499.98 C 621.23 477.91 617.30 455.59 617.69 433.44 C 617.10 430.18 618.57 423.35 613.17 424.17 C 605.67 423.28 597.56 429.51 590.79 424.65 C 610.26 419.58 630.01 411.24 643.25 395.48 C 639.02 394.35 634.80 393.28 630.58 392.27 C 623.15 389.26 613.22 389.28 608.70 381.69 C 613.40 382.36 617.99 383.64 622.65 384.81 L 622.67 385.32 C 630.77 387.15 638.82 389.24 646.96 391.01 C 650.84 384.40 654.55 377.70 657.83 370.80 C 656.00 370.98 652.35 371.35 650.51 371.53 C 640.65 370.02 630.24 371.99 620.65 369.31 L 620.08 366.88 C 631.82 364.79 643.84 366.72 655.68 365.57 C 656.59 365.84 658.45 366.37 659.39 366.65 C 660.86 360.09 662.26 353.53 663.68 346.99 C 649.07 348.37 634.74 351.51 620.26 353.67 L 619.85 351.60 L 619.25 350.55 C 625.01 348.62 630.90 347.17 636.85 345.89 C 645.86 345.13 654.69 342.84 663.61 341.30 C 663.52 334.90 663.29 328.53 663.18 322.15 C 653.27 324.49 642.95 326.42 633.84 331.21 C 628.06 332.73 622.44 334.81 616.75 336.65 C 623.27 327.40 636.39 326.42 646.11 321.67 C 650.95 319.28 658.84 319.83 661.68 315.20 C 659.05 301.90 655.58 288.69 650.24 276.21 C 646.09 265.18 641.48 254.33 637.08 243.43 C 636.36 236.44 636.36 229.44 636.71 222.47 C 637.47 203.94 635.65 185.41 632.42 167.19 C 629.74 152.75 625.42 138.36 617.51 125.89 L 617.99 124.19 C 616.64 124.51 613.89 125.17 612.51 125.52 C 593.04 138.78 578.47 157.63 560.90 173.04 C 555.28 171.14 549.53 169.63 543.75 168.34 C 514.85 162.61 484.46 162.38 455.79 169.53 L 455.65 168.48 C 450.03 169.44 444.39 171.74 438.65 170.86 C 421.73 155.31 406.57 137.70 387.71 124.33 C 386.61 123.71 384.41 122.49 383.31 121.90 C 376.02 131.19 371.98 142.47 368.58 153.66 Z M 707.60 439.40 C 699.87 447.27 691.04 455.73 689.62 467.27 C 686.32 467.89 683.31 469.65 682.83 473.25 C 673.31 505.55 681.87 538.94 686.75 571.24 C 689.00 587.93 691.71 606.74 681.75 621.63 C 677.17 629.36 668.11 632.09 659.87 633.97 C 658.61 641.90 656.25 649.61 653.20 657.07 C 661.98 659.08 670.58 655.80 678.75 652.91 C 694.41 647.11 708.89 635.57 714.48 619.40 C 723.68 595.02 717.92 568.60 716.14 543.46 C 713.96 515.57 715.84 485.20 733.06 461.92 C 736.82 455.25 745.15 448.80 742.08 440.34 C 740.13 432.04 730.70 427.86 722.83 429.24 C 716.55 430.16 708.31 431.74 707.60 439.40 Z M 613.75 555.25 C 611.59 566.26 606.16 576.76 606.89 588.23 C 603.75 590.85 603.31 595.39 601.66 598.97 C 594.28 618.58 587.95 639.24 588.43 660.41 C 588.20 667.16 591.94 674.40 599.41 674.82 C 597.46 672.34 595.42 669.96 593.36 667.66 C 593.70 663.69 594.80 659.96 596.23 656.33 C 602.97 661.84 601.18 676.38 612.30 675.28 C 612.10 671.40 611.02 667.75 609.60 664.24 C 610.81 663.17 612.00 662.16 613.36 661.33 C 615.03 663.55 616.66 665.87 618.27 668.26 L 617.53 670.02 C 624.96 670.48 630.40 664.27 634.28 658.72 C 644.46 643.19 649.74 624.77 650.81 606.33 L 649.74 606.35 C 650.06 599.98 650.36 593.62 650.38 587.27 C 651.64 561.19 637.72 537.75 624.12 516.58 C 619.67 529.20 617.67 542.48 613.75 555.25 Z M 359.80 566.01 C 354.66 579.24 363.17 592.00 367.74 604.08 C 362.53 604.93 357.25 604.43 352.05 603.92 C 352.41 606.67 352.80 609.52 353.22 612.32 C 353.86 620.23 356.70 627.73 359.02 635.27 C 364.16 649.36 370.79 664.98 384.96 672.09 C 386.29 667.25 387.53 662.39 388.91 657.59 C 394.92 661.38 391.29 668.99 391.20 674.66 C 394.69 673.99 399.48 675.60 401.66 671.81 C 403.61 667.36 403.49 662.34 404.30 657.68 C 412.97 660.23 408.79 670.14 409.13 676.70 C 419.43 671.61 418.54 658.51 417.39 648.90 C 414.25 627.38 409.66 605.96 401.52 585.76 C 404.20 581.10 402.32 575.92 401.15 571.17 C 396.50 553.94 391.93 536.67 385.53 520.00 C 372.41 532.13 365.60 549.47 359.80 566.01 Z" fill="#361a25" fill-rule="nonzero" node-id="72" stroke="none" target-height="589.528" target-width="484.664" target-x="272" target-y="111.368"></path><path d="M 418.52 305.68 C 421.77 305.09 424.36 307.20 426.82 308.94 C 424.96 313.85 424.50 321.46 418.56 323.30 C 413.72 318.76 413.10 309.97 418.52 305.68 Z" fill="#fcfdfc" fill-rule="nonzero" node-id="74" stroke="none" target-height="18.210999" target-width="13.716034" target-x="413.10297" target-y="305.087"></path><path d="M 613.75 555.25 C 617.67 542.48 619.67 529.20 624.12 516.58 C 637.72 537.75 651.64 561.19 650.38 587.27 C 650.36 593.62 650.06 599.98 649.74 606.35 C 646.20 606.44 642.67 606.56 639.16 606.54 C 633.66 604.33 627.56 600.71 626.66 594.29 C 625.31 585.92 630.31 578.46 633.98 571.40 C 624.51 576.24 615.28 581.65 606.89 588.23 C 606.16 576.76 611.59 566.26 613.75 555.25 Z" fill="#523645" fill-rule="nonzero" node-id="76" stroke="none" target-height="89.97803" target-width="45.481995" target-x="606.157" target-y="516.581"></path><path d="M 486.50 349.51 C 493.52 348.50 500.63 348.50 507.67 349.31 C 501.89 354.63 492.78 353.25 486.50 349.51 Z" fill="#b3a4b6" fill-rule="nonzero" node-id="78" stroke="none" target-height="6.1240234" target-width="21.170013" target-x="486.499" target-y="348.505"></path><path d="M 368.58 153.66 C 371.98 142.47 376.02 131.19 383.31 121.89 C 384.41 122.49 386.61 123.71 387.71 124.33 C 386.84 127.40 385.99 130.54 385.05 133.66 C 374.71 160.77 371.84 190.59 374.96 219.33 C 370.24 223.32 366.29 228.11 362.48 232.95 C 359.64 206.53 361.70 179.35 368.58 153.66 Z" fill="#e1b3c3" fill-rule="nonzero" node-id="80" stroke="none" target-height="111.057" target-width="28.074005" target-x="359.639" target-y="121.895"></path><path d="M 374.96 219.33 C 371.84 190.59 374.71 160.77 385.05 133.66 C 399.34 146.87 411.82 162.13 422.60 178.30 C 404.55 187.24 390.07 201.69 377.92 217.49 L 374.96 219.33 Z" fill="#fecbdd" fill-rule="nonzero" node-id="82" stroke="none" target-height="85.666" target-width="50.757996" target-x="371.84097" target-y="133.662"></path><path d="M 455.79 169.53 C 484.46 162.38 514.85 162.61 543.75 168.34 C 540.90 202.47 529.94 235.09 520.77 267.86 C 518.01 276.49 515.35 286.05 508.08 292.06 C 501.38 297.47 489.85 295.96 486.11 287.75 C 478.36 272.70 476.09 255.64 471.54 239.49 C 466.20 216.19 458.61 193.32 455.79 169.53 Z" fill="#563a4a" fill-rule="nonzero" node-id="84" stroke="none" target-height="135.09398" target-width="87.96002" target-x="455.787" target-y="162.378"></path><path d="M 374.96 219.33 L 377.92 217.49 C 363.95 251.21 353.58 286.90 351.59 323.48 C 345.03 321.17 338.38 319.10 331.68 317.17 C 336.95 295.15 344.41 273.55 354.82 253.39 C 358.29 246.94 360.12 239.83 362.48 232.95 C 366.29 228.11 370.24 223.32 374.96 219.33 Z" fill="#dacedc" fill-rule="nonzero" node-id="86" stroke="none" target-height="105.98799" target-width="46.239014" target-x="331.68" target-y="217.493"></path><path d="M 404.39 249.90 C 410.26 236.21 427.32 229.65 441.18 234.28 C 451.11 237.54 460.01 246.03 461.43 256.74 C 452.25 249.14 442.07 241.21 429.46 241.69 C 420.14 240.68 412.35 246.07 404.39 249.90 Z" fill="#35121a" fill-rule="nonzero" node-id="88" stroke="none" target-height="27.08699" target-width="57.043" target-x="404.387" target-y="229.65001"></path><path d="M 529.16 258.87 C 531.29 238.87 557.62 228.07 574.32 237.97 C 579.25 240.57 582.65 245.13 585.51 249.81 C 575.95 245.96 566.04 240.61 555.38 243.50 C 544.66 244.60 537.35 252.95 529.16 258.87 Z" fill="#391821" fill-rule="nonzero" node-id="90" stroke="none" target-height="30.802994" target-width="56.354004" target-x="529.16" target-y="228.067"></path><path d="M 650.24 276.21 C 655.58 288.69 659.05 301.90 661.68 315.20 C 658.84 319.83 650.95 319.28 646.11 321.67 C 647.51 312.36 650.31 303.05 649.00 293.57 C 648.27 287.72 647.79 281.71 650.24 276.21 Z" fill="#e7e3e9" fill-rule="nonzero" node-id="92" stroke="none" target-height="45.459015" target-width="15.573975" target-x="646.111" target-y="276.21"></path><path d="M 387.90 288.34 C 397.12 288.37 405.60 292.38 414.48 294.24 C 433.33 298.30 452.46 301.16 470.99 306.51 C 471.66 307.22 473.01 308.69 473.68 309.40 C 471.89 309.70 468.26 310.32 466.48 310.61 C 468.65 318.07 473.45 327.43 467.26 334.21 C 466.73 326.42 466.57 317.95 460.97 311.83 C 460.65 318.34 461.70 325.48 458.15 331.39 C 451.98 344.65 432.85 349.24 421.27 340.41 C 410.44 331.71 406.48 314.49 414.92 302.86 C 409.39 302.84 403.29 302.38 399.59 307.33 C 397.67 309.86 390.79 313.92 390.97 308.11 C 393.68 306.03 396.68 304.35 399.57 302.59 C 395.01 301.94 387.21 305.34 385.28 299.17 C 392.02 298.69 398.79 298.34 405.49 297.33 C 399.41 294.86 392.00 294.08 387.90 288.34 Z M 418.52 305.68 C 413.10 309.97 413.72 318.76 418.56 323.30 C 424.50 321.46 424.96 313.85 426.82 308.94 C 424.36 307.20 421.77 305.09 418.52 305.68 Z" fill="#3b1b29" fill-rule="nonzero" node-id="94" stroke="none" target-height="60.896027" target-width="88.39603" target-x="385.282" target-y="288.343"></path><path d="M 520.97 308.05 C 549.23 299.67 579.07 297.77 607.12 288.44 C 608.17 295.96 597.99 295.20 593.40 297.33 C 597.35 302.31 604.62 297.59 609.62 299.17 C 607.26 300.11 602.56 301.99 600.22 302.93 C 602.60 304.93 604.25 307.40 605.17 310.36 C 599.16 307.77 593.29 304.95 587.16 302.70 C 585.93 304.81 584.69 306.94 583.40 309.08 C 583.73 302.79 577.72 304.49 574.39 305.45 C 576.18 309.76 577.76 319.01 583.89 317.65 C 583.98 315.41 584.16 310.89 584.25 308.64 C 585.38 308.87 587.62 309.33 588.75 309.56 C 587.95 320.98 584.50 333.48 575.12 340.87 C 564.05 349.61 546.11 344.47 539.80 332.29 C 536.52 326.78 536.29 320.25 535.88 314.05 C 530.86 320.20 530.74 328.23 529.50 335.68 C 523.70 328.18 528.45 317.61 532.51 310.34 C 528.50 310.43 524.48 310.11 520.97 308.05 Z" fill="#3d1b29" fill-rule="nonzero" node-id="96" stroke="none" target-height="61.170044" target-width="88.64801" target-x="520.972" target-y="288.435"></path><path d="M 331.34 323.11 C 340.42 324.97 349.16 328.09 358.06 330.68 L 358.26 331.21 C 360.86 336.44 363.38 342.43 357.83 346.81 C 348.72 344.86 339.57 343.27 330.39 341.78 C 330.60 335.55 330.95 329.33 331.34 323.11 Z" fill="#cbc3cf" fill-rule="nonzero" node-id="98" stroke="none" target-height="23.692993" target-width="32.983" target-x="330.395" target-y="323.114"></path><path d="M 633.84 331.21 C 642.95 326.42 653.27 324.49 663.18 322.15 C 663.29 328.53 663.52 334.90 663.61 341.30 C 654.69 342.84 645.86 345.13 636.85 345.89 C 631.34 345.62 625.86 345.09 620.40 344.65 C 620.31 336.99 629.02 335.32 633.84 331.21 Z" fill="#d5d0d7" fill-rule="nonzero" node-id="100" stroke="none" target-height="23.738983" target-width="43.304016" target-x="620.308" target-y="322.151"></path><path d="M 358.26 331.21 C 365.51 332.98 372.46 336.42 380.05 336.37 L 380.44 336.42 C 380.17 338.78 379.92 341.17 379.66 343.60 C 381.22 343.69 384.34 343.85 385.90 343.92 C 383.03 346.90 380.35 350.09 377.55 353.14 C 371.73 349.15 364.55 348.32 357.83 346.81 C 363.38 342.43 360.86 336.44 358.26 331.21 Z" fill="#ebe7ea" fill-rule="nonzero" node-id="102" stroke="none" target-height="21.927002" target-width="28.074005" target-x="357.827" target-y="331.211"></path><path d="M 568.50 352.38 C 581.32 341.65 599.35 340.04 615.19 343.46 C 616.52 345.80 617.88 348.16 619.25 350.55 L 619.85 351.60 C 617.26 359.10 617.85 368.89 610.56 373.85 C 603.91 379.72 594.30 379.79 586.13 377.75 C 579.07 375.87 571.48 372.86 567.49 366.37 C 564.89 362.15 564.18 355.73 568.50 352.38 Z M 592.88 353.99 C 592.10 354.38 590.49 355.16 589.69 355.57 C 589.71 363.00 601.94 361.67 605.67 357.33 C 604.62 351.30 597.12 351.88 592.88 353.99 Z" fill="#facbdb" fill-rule="nonzero" node-id="104" stroke="none" target-height="39.747986" target-width="55.665955" target-x="564.184" target-y="340.041"></path><path d="M 385.90 343.92 C 398.10 343.02 411.48 341.97 422.28 348.85 C 426.70 351.74 431.34 356.58 430.17 362.38 C 428.33 370.73 419.78 374.88 412.46 377.61 C 401.11 381.95 387.81 379.93 378.17 372.54 C 377.92 366.67 377.55 360.82 377.55 354.97 L 377.55 353.14 C 380.35 350.09 383.03 346.90 385.90 343.92 Z M 396.27 357.75 C 400.40 363.57 408.19 362.15 414.34 362.54 C 411.96 355.48 402.16 355.48 396.27 357.75 Z" fill="#f7cbda" fill-rule="nonzero" node-id="106" stroke="none" target-height="39.978027" target-width="53.785034" target-x="377.552" target-y="341.968"></path><path d="M 483.49 345.82 C 493.08 344.56 502.81 344.63 512.37 346.17 C 512.23 354.83 502.44 357.52 499.66 364.65 C 500.67 373.96 512.60 379.97 520.86 375.62 C 525.42 373.55 527.03 368.44 529.43 364.47 C 534.07 367.84 529.57 374.19 526.59 377.15 C 518.08 385.25 504.21 382.31 497.19 373.71 C 491.64 378.14 485.26 383.16 477.62 381.65 C 469.66 381.35 461.98 373.67 465.17 365.43 C 468.93 367.11 468.56 372.75 472.05 374.90 C 479.57 380.06 490.63 376.10 494.48 368.21 C 498.50 358.02 479.80 356.60 483.49 345.82 Z M 486.50 349.51 C 492.78 353.25 501.89 354.63 507.67 349.31 C 500.63 348.50 493.52 348.50 486.50 349.51 Z" fill="#4d2a31" fill-rule="nonzero" node-id="108" stroke="none" target-height="40.687958" target-width="72.08896" target-x="461.98" target-y="344.56"></path><path d="M 330.79 346.88 C 335.97 347.70 341.43 347.70 346.43 349.47 C 349.32 351.37 352.16 353.41 355.01 355.48 C 354.85 357.38 354.52 361.21 354.36 363.12 C 347.48 363.87 340.44 363.92 334.02 361.00 C 333.06 356.26 331.89 351.53 330.79 346.88 Z" fill="#c4bbcb" fill-rule="nonzero" node-id="110" stroke="none" target-height="17.041962" target-width="24.221008" target-x="330.785" target-y="346.87604"></path><path d="M 620.26 353.67 C 634.74 351.51 649.07 348.37 663.68 346.99 C 662.26 353.53 660.86 360.09 659.39 366.65 C 658.45 366.37 656.59 365.84 655.68 365.57 C 644.92 361.37 633.06 365.68 622.24 362.22 C 621.43 359.38 620.77 356.53 620.26 353.67 Z" fill="#d2cad2" fill-rule="nonzero" node-id="112" stroke="none" target-height="19.656006" target-width="43.41803" target-x="620.263" target-y="346.991"></path><path d="M 346.43 349.47 C 356.84 351.05 367.25 352.66 377.55 354.97 C 377.55 360.82 377.92 366.67 378.17 372.54 C 371.89 372.01 365.60 371.90 359.32 372.01 C 352.57 372.06 345.86 372.36 339.16 372.77 L 338.31 372.82 C 338.33 372.31 338.38 371.35 338.40 370.84 C 350.72 370.78 363.17 370.66 375.30 368.37 C 362.60 364.33 349.20 366.44 336.22 365.48 C 335.67 364.35 334.57 362.13 334.02 361.00 C 340.44 363.92 347.48 363.87 354.36 363.12 C 354.52 361.21 354.85 357.38 355.01 355.48 C 352.16 353.41 349.32 351.37 346.43 349.47 Z" fill="#eee8ea" fill-rule="nonzero" node-id="114" stroke="none" target-height="23.348999" target-width="44.151978" target-x="334.019" target-y="349.468"></path><path d="M 592.88 353.99 C 597.12 351.88 604.62 351.30 605.67 357.33 C 601.94 361.67 589.71 363.00 589.69 355.57 C 590.49 355.16 592.10 354.38 592.88 353.99 Z" fill="#efe9e9" fill-rule="nonzero" node-id="116" stroke="none" target-height="11.69696" target-width="15.985962" target-x="589.689" target-y="351.30304"></path><path d="M 396.27 357.75 C 402.16 355.48 411.96 355.48 414.34 362.54 C 408.19 362.15 400.40 363.57 396.27 357.75 Z" fill="#f7eaed" fill-rule="nonzero" node-id="118" stroke="none" target-height="8.097015" target-width="18.074005" target-x="396.268" target-y="355.47696"></path><path d="M 339.16 372.77 C 345.85 372.36 352.57 372.06 359.32 372.01 C 363.40 376.92 368.29 381.10 373.61 384.68 L 374.02 384.95 C 366.43 387.20 358.79 389.26 351.08 391.03 C 346.68 385.22 342.62 379.15 339.16 372.77 Z" fill="#c3b3c4" fill-rule="nonzero" node-id="120" stroke="none" target-height="19.013977" target-width="34.862946" target-x="339.157" target-y="372.014"></path><path d="M 650.51 371.53 C 652.35 371.35 656.00 370.98 657.83 370.80 C 654.55 377.70 650.84 384.40 646.96 391.01 C 638.82 389.24 630.77 387.15 622.67 385.32 L 622.65 384.81 C 622.30 380.91 621.94 376.99 621.62 373.16 C 631.25 372.84 640.93 372.82 650.51 371.53 Z" fill="#cfc6cf" fill-rule="nonzero" node-id="122" stroke="none" target-height="20.206024" target-width="36.215942" target-x="621.616" target-y="370.799"></path><path d="M 354.91 395.57 C 360.49 393.64 366.08 391.72 371.70 389.90 C 399.85 412.43 434.96 423.69 469.99 429.91 C 481.98 431.92 494.25 432.89 505.74 437.11 C 489.25 439.61 472.42 439.88 455.86 437.96 C 438.79 432.70 420.79 430.87 404.02 424.38 C 386.15 417.95 367.87 409.93 354.91 395.57 Z" fill="#cfc8da" fill-rule="nonzero" node-id="124" stroke="none" target-height="49.978027" target-width="150.82797" target-x="354.91403" target-y="389.90396"></path><path d="M 630.58 392.27 C 634.80 393.28 639.02 394.35 643.25 395.48 C 630.01 411.24 610.26 419.58 590.79 424.65 C 588.22 425.30 585.65 425.84 583.08 426.46 L 580.51 426.97 C 581.64 433.05 582.49 439.17 583.13 445.36 C 581.57 438.53 579.00 431.92 578.45 424.90 C 596.04 414.74 619.48 411.03 630.58 392.27 Z" fill="#c8c2ce" fill-rule="nonzero" node-id="126" stroke="none" target-height="53.097015" target-width="64.79498" target-x="578.45" target-y="392.267"></path><path d="M 583.08 426.46 C 585.65 425.84 588.22 425.30 590.79 424.65 C 597.56 429.51 605.67 423.28 613.17 424.17 C 618.57 423.35 617.10 430.18 617.69 433.44 C 617.30 455.59 621.23 477.91 617.49 499.98 C 614.07 520.71 608.54 541.03 602.74 561.22 C 598.31 574.43 595.97 588.55 588.54 600.55 C 577.88 603.35 566.59 603.62 555.81 601.31 L 553.56 600.16 C 561.50 599.59 569.46 598.90 577.44 598.30 C 587.23 568.42 601.46 538.94 601.16 506.81 C 600.19 483.07 597.37 459.10 589.14 436.69 C 587.69 432.96 585.47 429.61 583.08 426.46 Z" fill="#492b3b" fill-rule="nonzero" node-id="128" stroke="none" target-height="180.34598" target-width="67.66199" target-x="553.564" target-y="423.277"></path><path d="M 580.51 426.97 L 583.08 426.46 C 585.47 429.61 587.69 432.96 589.14 436.69 C 597.37 459.10 600.19 483.07 601.16 506.81 C 601.46 538.94 587.23 568.42 577.44 598.30 C 569.46 598.90 561.50 599.59 553.56 600.16 C 553.24 600.00 552.62 599.68 552.30 599.50 C 554.50 580.62 558.66 561.88 563.11 543.37 L 560.35 543.07 C 575.86 513.12 587.85 479.56 583.13 445.36 C 582.49 439.17 581.64 433.05 580.51 426.97 Z" fill="#593c4b" fill-rule="nonzero" node-id="130" stroke="none" target-height="173.69498" target-width="49.15204" target-x="552.303" target-y="426.465"></path><path d="M 390.69 429.19 C 400.35 431.99 410.17 434.10 420.19 435.07 C 418.61 435.23 415.47 435.55 413.88 435.71 C 408.40 462.84 404.34 490.94 409.18 518.53 C 414.00 546.67 422.32 574.13 431.54 601.12 C 430.31 601.49 427.81 602.20 426.54 602.57 C 423.40 601.83 420.33 600.89 417.28 599.98 C 409.02 570.69 401.02 541.33 394.41 511.65 C 390.51 494.24 392.83 476.35 392.67 458.74 C 392.67 448.83 391.47 439.01 390.69 429.19 Z" fill="#4c2c3c" fill-rule="nonzero" node-id="132" stroke="none" target-height="173.374" target-width="41.03299" target-x="390.51102" target-y="429.194"></path><path d="M 707.60 439.40 C 708.31 431.74 716.55 430.16 722.83 429.24 C 730.70 427.86 740.13 432.04 742.08 440.34 C 745.15 448.80 736.82 455.25 733.06 461.92 C 715.84 485.20 713.96 515.57 716.14 543.46 C 717.92 568.60 723.68 595.02 714.48 619.40 C 708.89 635.57 694.41 647.11 678.75 652.91 C 670.58 655.80 661.98 659.08 653.20 657.07 C 656.25 649.61 658.61 641.90 659.87 633.97 C 668.11 632.09 677.17 629.36 681.75 621.63 C 691.71 606.74 689.00 587.93 686.75 571.24 C 681.87 538.94 673.31 505.55 682.83 473.25 C 683.31 469.65 686.32 467.89 689.62 467.27 C 690.88 468.62 690.95 474.15 693.75 471.63 C 698.77 461.24 705.15 451.60 712.74 442.91 C 711.46 442.04 708.89 440.30 707.60 439.40 Z" fill="#543644" fill-rule="nonzero" node-id="134" stroke="none" target-height="231.219" target-width="91.95105" target-x="653.199" target-y="427.864"></path><path d="M 413.88 435.71 C 415.47 435.55 418.61 435.23 420.19 435.07 C 425.19 435.20 430.01 436.81 434.82 438.07 C 431.04 451.46 428.93 465.41 428.91 479.36 C 429.66 507.57 438.40 534.86 449.46 560.60 C 448.31 563.35 448.22 566.40 449.09 569.31 C 451.93 579.95 454.62 590.62 456.64 601.47 C 447.67 602.50 438.68 604.13 429.62 603.23 C 428.86 603.07 427.32 602.73 426.54 602.57 C 427.81 602.20 430.31 601.49 431.54 601.12 C 422.32 574.13 414.00 546.67 409.18 518.53 C 404.34 490.94 408.40 462.84 413.88 435.71 Z" fill="#593c4c" fill-rule="nonzero" node-id="136" stroke="none" target-height="169.06198" target-width="52.294006" target-x="404.342" target-y="435.066"></path><path d="M 689.62 467.27 C 691.04 455.73 699.87 447.27 707.60 439.40 C 708.89 440.30 711.46 442.04 712.74 442.91 C 705.15 451.60 698.77 461.24 693.75 471.63 C 690.95 474.15 690.88 468.62 689.62 467.27 Z" fill="#efeeed" fill-rule="nonzero" node-id="138" stroke="none" target-height="34.747955" target-width="23.120056" target-x="689.621" target-y="439.40103"></path><path d="M 295.39 481.67 C 295.07 474.56 304.80 474.20 307.71 479.45 C 314.29 490.94 317.85 503.92 322.41 516.33 L 321.95 518.16 C 321.54 519.65 320.69 522.61 320.28 524.08 C 318.35 519.79 316.15 515.62 314.02 511.47 C 312.64 512.80 311.29 514.13 309.94 515.50 C 313.74 522.80 316.36 530.64 317.46 538.83 C 314.00 536.60 310.58 534.06 306.40 533.42 L 305.33 533.14 C 297.41 523.81 290.35 513.76 283.54 503.60 C 281.17 500.30 279.06 494.54 283.42 491.95 C 286.18 489.79 288.83 492.45 290.76 494.31 C 297.37 500.73 302.14 508.71 307.53 516.12 C 303.44 504.68 297.41 493.71 295.39 481.67 Z" fill="#88a97d" fill-rule="nonzero" node-id="140" stroke="none" target-height="64.63394" target-width="43.350006" target-x="279.064" target-y="474.19504"></path><path d="M 325.81 504.49 C 326.40 498.87 334.29 494.08 338.45 499.38 C 342.39 505.52 342.69 513.16 343.45 520.25 C 344.94 534.63 339.71 550.66 347.55 563.69 C 346.66 566.63 345.85 569.61 345.14 572.68 C 337.00 552.36 339.20 529.86 334.64 508.71 C 333.65 510.37 332.67 512.06 331.70 513.78 C 330.39 514.61 329.13 515.50 327.92 516.49 C 327.67 524.88 329.29 533.23 329.34 541.67 C 324.36 536.97 322.30 530.39 320.28 524.08 C 320.69 522.61 321.54 519.65 321.95 518.16 C 323.12 519.68 324.29 521.21 325.46 522.80 C 325.14 516.70 324.62 510.50 325.81 504.49 Z" fill="#9abe7c" fill-rule="nonzero" node-id="142" stroke="none" target-height="78.603" target-width="27.270996" target-x="320.281" target-y="494.08"></path><path d="M 331.70 513.78 C 332.67 512.06 333.65 510.37 334.64 508.71 C 339.20 529.86 337.00 552.36 345.14 572.68 C 343.93 579.50 342.85 586.33 341.91 593.23 C 325.90 593.35 308.42 593.74 294.55 584.47 C 289.23 581.17 286.13 574.29 289.00 568.39 C 292.14 565.21 297.07 567.68 300.81 568.37 C 310.51 571.56 320.69 573.05 330.92 572.64 C 329.78 568.72 325.62 567.43 322.50 565.57 C 310.51 559.13 298.44 551.65 290.49 540.30 C 287.46 536.03 284.45 530.60 286.61 525.32 C 288.24 522.82 292.16 523.30 294.00 525.32 C 303.97 533.74 312.55 543.62 321.79 552.80 C 317.32 545.82 311.40 539.98 306.40 533.42 C 310.58 534.06 314.00 536.60 317.46 538.83 C 316.36 530.64 313.74 522.80 309.94 515.50 C 311.29 514.13 312.64 512.80 314.02 511.47 C 316.15 515.62 318.35 519.79 320.28 524.08 C 322.30 530.39 324.36 536.97 329.34 541.67 C 329.29 533.23 327.67 524.88 327.92 516.49 C 329.13 515.50 330.39 514.61 331.70 513.78 Z" fill="#6e9372" fill-rule="nonzero" node-id="144" stroke="none" target-height="85.02399" target-width="60.688995" target-x="284.454" target-y="508.714"></path><path d="M 344.69 516.05 C 354.32 517.41 355.81 528.78 360.01 535.80 C 354.78 544.59 350.88 554.03 347.55 563.69 C 339.71 550.66 344.94 534.63 343.45 520.25 L 344.69 516.05 Z" fill="#a4cd88" fill-rule="nonzero" node-id="146" stroke="none" target-height="47.639038" target-width="20.298004" target-x="339.708" target-y="516.053"></path><path d="M 359.80 566.01 C 365.60 549.47 372.41 532.13 385.53 520.00 C 391.93 536.67 396.50 553.94 401.15 571.17 C 402.32 575.92 404.20 581.10 401.52 585.76 C 393.01 579.61 384.23 573.83 375.33 568.26 C 376.52 576.97 378.75 585.55 379.57 594.33 C 377.69 599.47 372.28 601.81 367.74 604.08 C 363.17 592.00 354.66 579.24 359.80 566.01 Z" fill="#533246" fill-rule="nonzero" node-id="148" stroke="none" target-height="84.083984" target-width="49.542023" target-x="354.662" target-y="519.998"></path><path d="M 542.16 589.77 C 543.43 585.41 546.18 581.83 549.14 578.51 C 542.28 610.69 528.33 642.36 532.10 675.99 C 513.40 678.88 494.27 678.99 475.56 676.35 C 480.56 647.71 468.15 620.57 461.93 593.26 C 472.85 610.71 475.31 632.06 486.77 649.20 C 490.65 655.46 498.45 656.81 505.24 657.11 C 510.40 657.20 516.89 657.59 519.85 652.41 C 532.99 633.95 535.01 610.69 542.16 589.77 Z" fill="#d6d0dd" fill-rule="nonzero" node-id="150" stroke="none" target-height="100.48401" target-width="87.20303" target-x="461.934" target-y="578.508"></path><path d="M 415.99 599.56 L 417.28 599.98 C 420.33 600.89 423.40 601.83 426.54 602.57 C 427.32 602.73 428.86 603.07 429.62 603.23 C 434.73 623.88 441.27 644.29 442.71 665.67 C 440.74 672.25 441.13 679.54 437.69 685.69 C 435.76 684.86 431.93 683.26 430.01 682.46 C 427.92 669.93 429.00 657.16 427.25 644.61 C 425.21 629.22 421.18 614.15 415.99 599.56 Z" fill="#cfcbda" fill-rule="nonzero" node-id="152" stroke="none" target-height="86.125" target-width="26.721008" target-x="415.99298" target-y="599.564"></path><path d="M 552.30 599.50 C 552.62 599.68 553.24 600.00 553.56 600.16 L 555.81 601.31 C 565.45 606.40 576.75 603.58 587.12 603.23 C 584.37 605.69 580.88 607.75 579.71 611.49 C 574.73 624.86 572.16 639.06 570.63 653.23 C 569.94 659.22 569.12 665.23 568.36 671.28 C 566.06 672.39 563.77 673.53 561.48 674.70 C 560.58 672.20 559.62 669.77 558.63 667.36 C 554.99 673.14 557.99 679.82 559.73 685.76 C 555.10 683.14 549.55 681.49 546.27 677.11 C 542.03 670.94 542.16 663.14 542.23 656.01 C 542.97 636.81 547.37 617.98 552.30 599.50 Z" fill="#fbfbfc" fill-rule="nonzero" node-id="154" stroke="none" target-height="86.263" target-width="45.093018" target-x="542.027" target-y="599.495"></path><path d="M 588.54 600.55 C 589.25 600.37 590.65 600.02 591.36 599.84 C 581.85 624.36 575.70 650.55 576.82 677.00 C 575.49 675.25 572.85 671.79 571.55 670.05 C 570.93 664.43 570.65 658.81 570.63 653.23 C 572.16 639.06 574.73 624.86 579.71 611.49 C 580.88 607.75 584.37 605.69 587.12 603.23 C 576.75 603.58 565.45 606.40 555.81 601.31 C 566.59 603.62 577.88 603.35 588.54 600.55 Z" fill="#ded8e0" fill-rule="nonzero" node-id="156" stroke="none" target-height="77.15698" target-width="35.550964" target-x="555.812" target-y="599.839"></path><path d="M 429.62 603.23 C 438.68 604.13 447.67 602.50 456.64 601.47 C 461.20 620.92 466.73 640.48 466.50 660.67 C 466.48 667.27 464.02 673.51 460.65 679.11 C 460.51 677.16 460.24 673.26 460.12 671.31 C 455.47 676.42 454.50 686.56 445.24 685.48 C 445.08 678.76 444.50 672.11 442.71 665.67 C 441.27 644.29 434.73 623.88 429.62 603.23 Z" fill="#fbfcfc" fill-rule="nonzero" node-id="158" stroke="none" target-height="85.09302" target-width="37.110992" target-x="429.61697" target-y="601.467"></path><path d="M 354.50 606.05 C 358.42 606.12 362.37 606.24 366.34 606.38 C 370.17 618.95 373.79 631.81 380.65 643.14 C 382.23 646.05 384.89 648.35 388.24 648.97 C 396.86 650.99 405.81 651.08 414.57 652.45 C 415.28 651.56 416.68 649.79 417.39 648.90 C 418.54 658.51 419.43 671.61 409.13 676.70 C 408.79 670.14 412.97 660.23 404.30 657.68 C 403.49 662.34 403.61 667.36 401.66 671.81 C 399.48 675.60 394.69 673.99 391.20 674.66 C 391.29 668.99 394.92 661.38 388.90 657.59 C 387.53 662.39 386.29 667.25 384.96 672.09 C 370.79 664.98 364.16 649.36 359.02 635.27 C 356.70 627.73 353.86 620.23 353.22 612.32 C 353.54 610.76 354.18 607.61 354.50 606.05 Z" fill="#d5cfd9" fill-rule="nonzero" node-id="160" stroke="none" target-height="70.643005" target-width="66.216" target-x="353.217" target-y="606.055"></path><path d="M 639.16 606.54 C 642.67 606.56 646.20 606.44 649.74 606.35 L 650.81 606.33 C 649.74 624.77 644.46 643.19 634.28 658.72 C 630.40 664.27 624.97 670.48 617.53 670.02 L 618.27 668.26 C 627.14 648.53 643.86 629.82 639.16 606.54 Z" fill="#cbc4d0" fill-rule="nonzero" node-id="162" stroke="none" target-height="64.15198" target-width="33.281006" target-x="617.533" target-y="606.33"></path><path d="M 301.08 618.46 C 314.80 614.70 323.01 628.81 331.45 636.88 C 336.61 636.05 341.82 635.32 347.00 634.63 C 349.36 641.40 352.12 648.03 355.26 654.52 C 346.63 656.77 336.31 656.86 329.82 649.77 C 321.04 638.60 307.18 632.00 301.08 618.46 Z" fill="#6e986f" fill-rule="nonzero" node-id="164" stroke="none" target-height="42.156982" target-width="54.174988" target-x="301.083" target-y="614.701"></path><path d="M 283.22 622.55 C 295.17 621.79 307.37 628.97 314.39 638.26 C 307.73 638.78 300.94 638.62 294.78 635.78 C 290.14 631.81 281.82 630.21 283.22 622.55 Z" fill="#7e9f72" fill-rule="nonzero" node-id="166" stroke="none" target-height="16.994995" target-width="32.569" target-x="281.817" target-y="621.789"></path><path d="M 285.51 641.40 C 285.79 638.95 286.08 636.51 286.38 634.13 C 288.49 634.54 292.69 635.37 294.78 635.78 C 300.95 638.62 307.74 638.78 314.39 638.26 C 321.11 638.97 324.78 646.01 329.82 649.77 C 336.31 656.86 346.63 656.77 355.26 654.52 C 357.23 657.78 359.48 660.94 362.05 663.83 C 355.46 664.36 349.00 665.71 342.46 666.54 C 339.39 666.15 336.34 665.76 333.29 665.34 C 331.29 662.34 329.32 659.36 327.14 656.54 C 324.68 655.28 322.05 654.79 319.20 655.05 C 320.81 652.98 322.44 650.96 324.06 648.97 C 320.26 648.65 316.50 648.42 312.69 648.19 C 314.50 647.62 318.10 646.49 319.91 645.92 C 309.78 640.73 297.57 636.26 286.47 641.10 L 285.51 641.40 Z" fill="#58775c" fill-rule="nonzero" node-id="168" stroke="none" target-height="32.408997" target-width="76.53699" target-x="285.51" target-y="634.128"></path><path d="M 286.47 641.10 C 297.57 636.26 309.78 640.73 319.91 645.92 C 318.10 646.49 314.50 647.62 312.69 648.19 C 316.50 648.42 320.26 648.65 324.06 648.97 C 322.44 650.96 320.81 652.98 319.20 655.05 C 309.57 652.82 299.66 653.21 289.94 651.93 C 290.23 650.37 290.85 647.25 291.18 645.69 C 289.98 644.54 287.64 642.25 286.47 641.10 Z" fill="#749a6c" fill-rule="nonzero" node-id="170" stroke="none" target-height="18.783997" target-width="37.59201" target-x="286.473" target-y="636.262"></path><path d="M 568.36 671.28 C 569.12 665.23 569.94 659.22 570.63 653.23 C 570.65 658.81 570.93 664.43 571.55 670.05 C 571.20 675.76 576.52 687.29 566.68 686.97 C 563.79 683.44 562.76 678.92 561.48 674.70 C 563.77 673.53 566.06 672.39 568.36 671.28 Z" fill="#e1e0e4" fill-rule="nonzero" node-id="172" stroke="none" target-height="34.059937" target-width="15.0460205" target-x="561.477" target-y="653.234"></path><path d="M 327.14 656.54 C 329.32 659.36 331.29 662.34 333.29 665.35 C 336.34 665.76 339.39 666.15 342.46 666.54 C 331.47 669.24 320.00 667.46 309.89 662.59 C 313.24 655.80 320.67 656.61 327.14 656.54 Z" fill="#719770" fill-rule="nonzero" node-id="174" stroke="none" target-height="13.44104" target-width="32.569" target-x="309.891" target-y="655.803"></path></svg>