<svg xmlns="http://www.w3.org/2000/svg" fill="none" viewBox="0 0 1024 1024" height="1024" width="1024">
<rect fill="white" height="1024" width="1024"></rect>
<path fill="#FDFDFD" d="M413.022 279.64C426.658 275.442 441.365 277.208 454.393 282.593C444.492 290.381 433.172 298.632 429.901 311.515C427.874 321.387 428.887 333.055 436.415 340.495C443.884 347.675 455.233 350.165 465.192 347.762C476.136 344.548 483.779 335.081 488.729 325.267C491.248 335.429 497.849 343.738 506.187 349.846C506.274 359.921 512.904 367.651 518.983 374.947C515.451 381.982 511.89 390.783 503.176 392.434C490.09 397.037 472.603 387.83 474.572 372.544C473.472 373.21 471.272 374.513 470.171 375.179C469.737 386.035 478.017 394.981 488.121 397.847C496.922 401.322 506.1 397.674 514.177 394.026C519.186 409.428 537.367 417.563 552.451 412.439C559.138 410.673 564.002 405.491 568.895 400.916C568.316 399.729 567.158 397.384 566.608 396.197C559.428 404.39 548.89 410.586 537.657 407.141C528.074 405.375 518.694 397.037 520.778 386.441C520.894 381.287 524.05 376.018 529.579 375.497C537.599 373.731 544.981 370.112 551.698 365.422C559.949 367.362 570.748 370.199 577.117 362.585C585.368 352.973 588.437 339.685 598.512 331.434C600.104 330.42 603.318 328.365 604.91 327.351C593.156 340.93 590.493 362.614 602.739 376.713C613.19 389.799 635.656 389.596 645.789 376.192C657.485 360.356 655.054 337.195 642.547 322.517C665.852 321.04 688.029 336.442 697.322 357.432C701.954 367.854 703.576 379.29 704.994 390.523C698.22 391.073 690.721 390.494 685.394 395.589C690.055 397.934 695.006 399.642 700.044 401.148C697.12 402.856 694.282 404.622 691.474 406.446C693.819 412.642 697.062 418.605 703.199 421.79C701.144 422.022 697.004 422.514 694.948 422.745C693.587 429.288 699.986 430.939 704.589 432.618L703.431 436.352C702.012 441.158 700.188 445.877 697.438 450.104L695.469 453.26C695.585 454.997 695.817 458.413 695.933 460.15C685.192 478.187 669.037 492.315 651.319 503.259C637.943 511.539 625.466 523.843 623.555 540.229C619.096 567.877 639.362 591.038 641.186 617.905C644.11 643.556 637.48 670.191 621.962 690.949C607.516 711.215 584.413 723.75 560.557 729.367C525.497 738.487 487.166 729.946 457.317 710.086C434.156 694.481 421.997 667.556 415.685 641.211C407.116 604.443 407.927 565.156 419.42 529.141C424.689 512.697 433.809 497.671 446.142 485.598C437.486 482.674 428.945 479.374 421.013 474.886C416.149 471.76 411.401 468.575 406.769 465.217C379.033 443.388 358.71 411.599 352.109 376.742C354.946 376.018 357.812 375.295 360.707 374.571C357.754 373.876 354.859 373.181 351.993 372.486C351.761 365.77 351.559 359.082 351.182 352.394C355.67 352.857 360.215 353.292 364.76 353.697C374.749 373.529 403.468 382.793 421.997 369.273C430.48 362.846 429.929 349.673 423.039 342.261C412.385 328.394 393.654 327.38 377.731 325.527C374.893 322.951 371.998 320.345 369.19 317.855C371.911 314.555 374.314 311.052 376.833 307.607C385.808 295.071 397.909 283.983 413.022 279.64ZM624.134 406.996C620.631 412.699 624.076 419.387 627.984 423.846C638.436 435.976 655.343 440.029 670.774 439.74C679.459 439.711 690.084 433.892 689.621 424.048C691.069 417.303 683.773 414.813 679.807 411.107C682.007 407.459 684.265 403.869 686.552 400.279C678.938 393.91 668.516 393.389 659.165 391.768C645.934 389.51 630.329 394.258 624.134 406.996Z"></path>
<path fill="#FDFDFD" d="M526.047 890.885C528.653 887.556 537.744 890.133 533.777 894.794C531.143 898.21 521.994 895.547 526.047 890.885Z"></path>
<path fill="#553948" d="M400.921 240.99C432.883 215.455 472.806 196.203 514.554 197.94C508.3 214.095 503.06 230.799 501.063 248.083C499.934 256.045 501.642 265.628 509.401 269.768C515.538 269.16 520.084 264.499 523.789 259.982C537.252 243.075 547.587 223.851 555.549 203.788C559.37 203.701 563.192 203.701 567.042 203.73C576.625 205.612 586.005 208.391 595.472 210.852C593.272 230.163 589.595 249.589 591.216 269.044C591.998 274.342 593.359 284.069 600.973 282.072C611.106 280.103 617.244 270.752 621.47 262.125C627.521 250.197 630.301 236.995 631.748 223.793C657.804 236.271 681.573 255.118 696.425 280.219C719.47 312.876 728.3 353.292 729.661 392.694C722.51 391.826 715.359 390.928 708.208 390.031C705.979 367.217 703.836 341.364 686.987 324.08C668.748 307.607 641.186 306.449 618.865 314.352C610.527 317.363 599.033 320.722 598.512 331.434C588.437 339.685 585.368 352.973 577.117 362.585C570.748 370.199 559.949 367.362 551.698 365.422C537.657 357.142 521.531 354.537 506.187 349.846C497.849 343.738 491.248 335.429 488.73 325.267C492.812 312.152 487.745 298.342 481.028 287.08C470.635 270.289 449.732 262.559 430.596 264.122C408.969 265.309 389.311 278.887 378.599 297.416C376.399 300.369 376.862 304.133 376.833 307.607C374.315 311.052 371.912 314.555 369.19 317.856C364.645 319.274 358.797 315.105 353.904 314.323C360.708 285.517 379.989 261.169 400.921 240.99Z"></path>
<path fill="#341922" d="M334.651 215.253C336.07 207.841 343.192 213.458 345.508 217.106C349.445 222.954 357.407 227.702 356.712 235.576C347.998 230.452 341.165 222.838 334.651 215.253Z"></path>
<path fill="#FBC6D7" d="M411.546 152.805C413.949 162.214 409.519 171.276 408.998 180.627C408.708 188.473 406.682 196.087 403.96 203.412C402.744 203.267 400.284 202.977 399.039 202.862C401.297 185.78 404.8 168.728 411.546 152.805Z"></path>
<path fill="#FCFCFC" d="M630.445 890.828C635.28 888.83 636.988 890.162 635.57 894.852C630.735 896.792 629.027 895.46 630.445 890.828Z"></path>
<path fill="#311922" d="M438.412 869.259C443.247 870.562 453.293 865.35 453.235 873.92C450.514 873.833 445.1 873.688 442.378 873.601C442.263 875.541 442.031 879.392 441.915 881.303C444.665 881.447 450.195 881.737 452.974 881.881C451.266 887.324 445.476 885.674 441.307 886.485C441.568 888.424 442.089 892.304 442.349 894.244C445.939 894.765 449.558 895.199 453.177 895.575C450.774 902.495 442.726 899.078 437.486 898.21C437.312 888.54 437.573 878.9 438.412 869.259Z"></path>
<path fill="#311922" d="M594.43 884.979C594.459 872.878 608.297 868.361 618.17 872.067C615.072 878.523 607.053 872.907 602.71 877.481C597.991 880.897 598.078 888.598 601.986 892.622C605.981 897.631 612.64 894.128 617.793 894.157C611.337 905.882 593.04 896.936 594.43 884.979Z"></path>
<path fill="#311922" d="M649.987 870.504C652.795 874.846 657.804 877.626 659.599 882.663C657.949 882.461 654.619 882.055 652.969 881.853C652.998 886.08 653.085 890.364 653.23 894.649C655.401 894.997 659.715 895.72 661.857 896.068C658.18 900.179 653.664 899.802 649.09 897.11C648.511 891.493 648.945 885.385 645.5 880.608C647.208 877.336 648.655 873.92 649.987 870.504Z"></path>
<path fill="#311922" d="M570.835 872.415C573.238 874.876 575.235 877.597 577.262 880.463C572.195 885.732 574.714 892.42 577.696 898.036C575.785 898.152 571.993 898.384 570.082 898.5C568.924 892.304 573.672 880.955 563.742 881.476C563.944 880.521 564.292 878.552 564.494 877.568C565.768 877.771 568.316 878.176 569.561 878.379L570.835 872.415Z"></path>
<path fill="#311922" d="M627.087 878.089C630.648 878.205 634.933 876.873 637.625 880.116C643.039 884.024 640.463 891.407 640.897 897.11C635.367 899.455 628.824 901.366 624.424 895.952C620.631 887.759 632.501 887.759 637.162 885.182C634.412 880.695 629.664 882.982 625.726 882.837C626.074 881.65 626.74 879.276 627.087 878.089ZM630.445 890.828C629.027 895.46 630.735 896.792 635.57 894.852C636.988 890.162 635.28 888.83 630.445 890.828Z"></path>
<path fill="#311922" d="M486.645 887.122C482.997 883.706 478.625 881.303 474.572 878.494C482.823 876.96 489.801 881.65 491.596 889.525C485.689 889.93 479.726 890.133 473.848 890.335C475.296 891.783 478.162 894.736 479.61 896.212C483.142 895.257 486.703 894.36 490.322 893.549C487.89 899.426 480.362 901.945 475.122 898.181C469.187 895.547 470.403 888.28 470.288 883.155C474.688 887.585 480.768 887.614 486.645 887.122Z"></path>
<path fill="#311922" d="M495.533 909.182C496.546 899.339 496.43 889.438 496.459 879.565C503.118 879.565 509.864 879.739 516.349 877.886C515.567 880.058 514.061 884.371 513.309 886.543C509.574 885.472 505.955 883.821 502.365 882.576C501.844 885.066 500.802 890.046 500.281 892.564L503.465 891.088C503.581 894.475 503.668 897.863 503.726 901.308L499.499 899.165C499.123 905.795 502.684 909.038 508.937 907.706C510.5 904.811 511.543 901.684 512.035 898.384L506.534 898.818C507.287 896.82 508.792 892.796 509.545 890.799L510.587 893.404L514.38 891.175C515.393 897.052 518.057 904.666 512.932 909.414C508.271 914.596 500.976 910.63 495.533 909.182Z"></path>
<path fill="#311922" d="M520.46 884.285C522.863 875.831 531.838 878.35 538.149 878.35C538.902 885.124 539.481 891.899 540.031 898.702C532.822 899.05 522.834 902.64 519.36 893.838C519.997 892.015 521.299 888.367 521.936 886.543C526.366 886.543 530.824 886.485 535.283 886.456C535.341 877.51 525.034 882.895 520.46 884.285ZM526.047 890.886C521.994 895.547 531.143 898.21 533.777 894.794C537.744 890.133 528.653 887.556 526.047 890.886Z"></path>
<path fill="#361A25" d="M408.303 130.542C412.559 122.927 417.828 113.895 427.179 112.158C439.686 110.768 450.369 118.816 459.431 126.402C477.699 142.73 492.203 163.083 503.089 184.999C551.959 183.435 601.755 191.86 645.558 214.239C674.596 198.837 706.095 182.219 740.025 185.665C749.348 186.475 751.895 196.782 752.966 204.425C756.701 240.266 751.316 277.845 732.614 309.083C734.669 321.822 740.633 333.75 742.978 346.546C748.827 344.143 754.761 341.856 760.957 340.437C761.131 349.383 750.014 348.544 744.079 351.641C746.221 366.464 747.408 381.374 747.495 396.342C763.418 400.771 781.715 402.161 794.338 413.828C800.649 420.053 798.478 428.767 794.511 435.513C795.901 443.503 795.206 452.362 789.04 458.326C774.188 472.57 752.359 478.911 732.093 475.668C722.886 498.134 709.598 518.574 696.309 538.811C684.266 556.992 693.153 579.458 698.886 598.305C710.061 628.53 713.883 661.39 709.308 693.323C706.645 708.812 699.291 723.113 689.564 735.302C688.203 737.907 684.092 740.253 686.234 743.582C701.376 745.464 716.98 746.159 732.035 743.119C751.924 738.979 766.487 719.466 766.11 699.345C767.789 675.691 752.59 656.063 743.036 635.681C728.532 607.946 725.723 572.365 741.936 544.774C754.414 523.785 784.957 516.605 805.107 530.53C816.775 538.579 815.617 555.313 809.595 566.517C803.023 578.879 798.941 593.441 803.515 607.251C811.013 628.935 820.973 650.128 823.434 673.231C828.645 703.832 819.757 737.155 797.928 759.592C780.557 777.194 755.891 784.837 732.006 788.34C701.231 793.436 670.137 788.427 639.333 786.632C634.759 793.783 630.995 801.513 629.2 809.851C625.668 823.313 626.016 838.021 618.749 850.296C618.315 851.135 617.446 852.786 617.012 853.596C601.378 856.433 584.731 858.257 569.59 852.293C554.796 845.924 540.957 831.825 542.897 814.541C543.36 812.399 544.287 808.056 544.779 805.914C507.287 799.139 469.593 793.32 432.535 784.548C432.043 793.812 431.088 803.047 429.553 812.196C427.382 821.692 423.821 831.796 414.991 837.036C399.618 846.561 380.51 843.405 363.516 841.697C362.3 841.379 359.868 840.713 358.681 840.366C348.548 834.778 343.829 823.574 343.597 812.428C345.363 784.316 329.093 759.245 329.932 731.278C330.28 704.266 342.208 679.339 346.869 653.081C355.207 616.95 352.746 579.574 349.417 542.98C347.622 527.925 332.741 520.34 320.871 513.797C301.647 504.011 282.887 492.604 268.151 476.595C248.869 458.066 238.331 431.807 216.039 416.231C205.385 409.515 196.236 396.081 201.563 383.285C205.877 375.005 204.69 363.511 213.375 357.982C221.308 353.755 230.427 350.947 239.46 351.236C257.989 353.118 271.972 366.754 285.319 378.421C305.613 398.282 325.677 418.75 350.314 433.313C340.876 417.187 331.322 400.743 326.95 382.388C322.289 382.098 317.57 381.78 312.938 381.403C315.457 376.684 321.247 375.96 325.213 372.949C324.663 364.467 323.882 355.984 324.316 347.53C308.074 343.506 291.225 343.535 274.694 341.943C275.62 339.25 275.186 334.097 279.644 335.052C294.844 335.023 310.101 336.442 324.982 339.511C326.314 330.941 327.993 322.401 330.511 314.092C312.62 307.086 293.396 303.206 276.691 293.392C278.139 289.512 281.092 285.372 285.898 288.267C302.284 292.465 318.207 298.284 333.841 304.798C340.789 291.51 348.345 278.54 355.728 265.483C348.693 257.695 341.802 249.618 336.417 240.585C334.622 237.979 335.607 232.536 339.689 234.563C347.361 241.685 351.183 251.905 358.565 259.316C367.8 253.179 374.459 242.93 382.681 235.2C383.579 199.04 391.888 162.88 408.303 130.542ZM411.546 152.805C404.8 168.728 401.297 185.78 399.039 202.862C400.284 202.977 402.745 203.267 403.96 203.412C406.682 196.087 408.708 188.473 408.998 180.627C409.114 182.451 409.345 186.099 409.461 187.923C405.727 197.737 406.045 208.507 404.018 218.727C404.684 213.139 402.426 208.507 398.662 204.599C398.199 212.068 397.968 219.624 397.736 227.123C418.986 212.415 442.118 199.851 466.871 192.121L466.727 191.86C472.025 190.528 477.352 189.197 482.708 187.923C481.434 178.89 476.078 171.276 471.388 163.72C460.85 148.115 448.372 131.526 429.409 126.141C420.984 133.089 415.541 142.788 411.546 152.805ZM400.921 240.99C379.989 261.169 360.708 285.517 353.904 314.323C358.797 315.105 364.645 319.274 369.19 317.855C371.998 320.345 374.894 322.951 377.731 325.527C376.804 326.975 374.98 329.899 374.083 331.347C368.148 329.494 362.271 327.496 356.365 325.585C355.438 331.115 354.483 336.645 353.47 342.174C356.915 344.288 360.331 346.401 363.776 348.602C364.008 349.875 364.5 352.423 364.761 353.697C360.215 353.292 355.67 352.857 351.183 352.394C351.559 359.082 351.762 365.77 351.993 372.486C354.859 373.181 357.754 373.876 360.707 374.571C357.812 375.294 354.946 376.018 352.109 376.742C358.71 411.599 379.034 443.388 406.769 465.217C405.437 466.085 402.744 467.822 401.413 468.691C390.122 466.722 379.844 461.308 369.682 456.271C357.957 450.365 347.535 441.158 334.13 439.334C325.648 430.446 315.746 423.093 306.887 414.61C288.822 398.108 273.883 377.929 252.72 365.046C246.843 361.369 239.75 361.166 233.149 360.124C232.917 363.193 236.739 367.738 234.162 370.199C228.256 367.68 221.8 361.572 216.82 368.925C218.905 373.528 220.758 378.277 222.35 383.111C219.223 382.619 216.097 382.127 212.999 381.606C211.377 385.862 209.814 390.146 208.251 394.402C216.473 408.009 233.265 411.947 242.847 424.222C255.412 439.508 266.587 456.01 280.368 470.283C293.657 484.73 310.564 495.326 328.282 503.461C337.72 507.92 347.969 512.262 354.222 521.064C361.634 530.531 363.458 542.806 364.355 554.444C367.685 594.455 368.119 635.536 356.509 674.36C350.024 697.636 339.312 721.289 344.205 745.985C349.619 772.649 359.26 798.734 359.376 826.266C372.954 830.667 388.066 830.609 401.76 826.874C418.436 821.345 419.913 801.253 421.389 786.459C423.329 777.571 416.96 770.709 412.877 763.645C423.416 767.264 433.867 771.288 444.955 772.852C480.218 778.902 515.046 787.211 550.164 793.899C558.82 775.573 571.009 755.973 590.58 748.185C586.961 758.463 578.131 765.469 572.659 774.675C564.495 787.009 559.428 801.166 557.344 815.786C558.357 831.565 574.425 839.729 588.003 842.971C596.486 845.113 604.708 841.755 612.061 837.818C613.625 829.364 615.072 820.91 615.97 812.399C621.586 797.663 625.784 781.45 637.741 770.333C655.083 751.109 678.302 735.852 687.769 710.751C700.854 677.4 695.817 640.024 685.018 606.73C680.386 588.78 671.845 570.773 674.683 551.838C684.468 521.382 708.092 497.266 716.922 466.404C710.206 463.451 703.344 460.498 695.933 460.15C695.817 458.413 695.585 454.997 695.469 453.26L697.438 450.104C704.3 454.736 711.798 458.442 720.02 460.034C723.378 452.247 725.926 444.14 727.113 435.744C719.18 433.805 709.829 428.333 703.431 436.352L704.589 432.618C699.986 430.939 693.588 429.288 694.948 422.745C705.863 424.019 716.807 425.322 727.692 426.943C728.966 419.329 730.182 411.657 729.777 403.927C722.134 402.798 714.461 401.93 706.818 400.887C705.11 400.974 701.723 401.09 700.044 401.148C695.006 399.642 690.056 397.934 685.395 395.589C690.722 390.494 698.22 391.073 704.995 390.523C703.576 379.29 701.955 367.854 697.322 357.432C688.029 336.442 665.853 321.04 642.547 322.517C655.054 337.195 657.486 360.356 645.789 376.192C635.656 389.596 613.19 389.799 602.739 376.713C590.493 362.614 593.156 340.93 604.91 327.351C603.318 328.365 600.104 330.42 598.512 331.434C599.033 320.722 610.527 317.363 618.865 314.352C641.186 306.449 668.748 307.607 686.987 324.08C703.836 341.364 705.979 367.217 708.208 390.031C715.359 390.928 722.51 391.826 729.661 392.694C728.3 353.292 719.47 312.876 696.425 280.219C681.573 255.118 657.804 236.271 631.748 223.793C620.428 217.482 607.805 214.384 595.472 210.852C586.005 208.391 576.625 205.612 567.042 203.73C549.816 199.966 532.214 197.448 514.554 197.94C472.806 196.203 432.883 215.455 400.921 240.99ZM718.312 199.88C697.207 203.585 677.809 213.371 659.367 223.822C665.158 227.875 671.18 231.581 677.433 234.939L676.275 235.808C691.561 250.081 705.313 266.236 714.461 285.17C716.112 288.296 717.791 291.365 719.586 294.492C738.694 270.173 745.294 237.487 740.952 207.262C739.823 201.906 734.119 201.674 729.777 202.369C726.274 200.314 722.336 198.808 718.312 199.88ZM631.314 333.518C626.711 337.34 626.942 346.199 633.311 348.051C640.462 350.512 645.529 339.858 641.215 334.647C639.565 331.173 633.804 330.739 631.314 333.518ZM746.018 406.793C744.455 415.218 743.413 423.73 742.776 432.299C747.379 434.847 751.808 437.8 755.63 441.535C750.679 441.593 745.758 441.535 740.865 441.419C738.983 449.207 736.985 456.966 734.901 464.696C751.114 469.415 766.545 460.382 779.717 451.957C783.51 449.873 783.828 445.24 785.421 441.708C782.641 439.74 779.862 437.8 777.141 435.889C780.846 431.72 784.234 427.262 786.984 422.427C774.622 414.263 760.291 410.123 746.018 406.793ZM761.015 545.643C746.424 552.099 742.631 570.773 745.526 585.074C744.773 585.451 743.21 586.146 742.428 586.522C742.226 625.867 777.893 654.268 777.691 693.496C777.865 714.891 770.742 739.268 751.056 750.53C727.692 764.456 699.088 759.823 673.553 756.32C667.879 760.808 662.726 765.932 658.528 771.838C678.678 776.384 699.494 776.123 720.02 775.428C744.918 773.807 770.771 765.816 788.866 747.982C808.64 726.703 812.953 695.465 808.871 667.672C804.673 639.01 786.839 613.244 788.808 583.569C789.04 570.686 797.87 560.582 801.836 548.885C794.83 533.744 771.379 533.918 761.015 545.643Z"></path>
<path fill="#E0B1C0" d="M411.546 152.805C415.541 142.788 420.984 133.089 429.409 126.141C430.625 128.254 433.085 132.481 434.301 134.595C430.509 137.895 425.529 140.472 423.734 145.48C418.262 159.377 416.062 174.403 409.461 187.923C409.345 186.099 409.114 182.451 408.998 180.627C409.519 171.276 413.949 162.214 411.546 152.805Z"></path>
<path fill="#FCFDFC" d="M429.409 126.141C448.372 131.526 460.85 148.115 471.388 163.72C476.078 171.276 481.434 178.89 482.708 187.923C477.352 189.197 472.025 190.528 466.726 191.86C456.188 172.608 446.692 152.776 434.301 134.595C433.085 132.481 430.625 128.254 429.409 126.141Z"></path>
<path fill="#F8C1D2" d="M434.301 134.595C446.692 152.776 456.188 172.608 466.726 191.86L466.871 192.121C442.118 199.851 418.986 212.415 397.736 227.123C397.968 219.624 398.199 212.068 398.662 204.599C402.426 208.507 404.684 213.139 404.018 218.727C406.045 208.507 405.726 197.737 409.461 187.923C416.062 174.403 418.262 159.377 423.734 145.48C425.529 140.472 430.509 137.895 434.301 134.595Z"></path>
<path fill="#432535" d="M514.554 197.94C532.214 197.448 549.816 199.966 567.042 203.73C563.192 203.701 559.37 203.701 555.549 203.788C547.587 223.851 537.251 243.075 523.789 259.982C520.083 264.499 515.538 269.16 509.4 269.768C501.642 265.628 499.934 256.045 501.063 248.083C503.06 230.799 508.3 214.095 514.554 197.94Z"></path>
<path fill="#533D4B" d="M718.312 199.88C722.336 198.808 726.273 200.314 729.777 202.369C728.792 202.89 726.766 203.962 725.781 204.483C709.279 214.008 692.632 223.388 677.433 234.939C671.179 231.581 665.158 227.875 659.367 223.822C677.809 213.371 697.206 203.585 718.312 199.88Z"></path>
<path fill="#F9F9F9" d="M729.777 202.369C734.119 201.675 739.823 201.906 740.952 207.262C745.294 237.487 738.693 270.173 719.586 294.492C717.791 291.365 716.112 288.296 714.461 285.17C723.697 266.265 729.371 245.478 730.153 224.401C730.442 217.482 727.866 210.939 725.781 204.483C726.766 203.962 728.792 202.891 729.777 202.369Z"></path>
<path fill="#F7B0CB" d="M677.433 234.939C692.632 223.388 709.279 214.008 725.781 204.483C727.866 210.939 730.442 217.482 730.153 224.401C729.371 245.478 723.697 266.265 714.461 285.17C705.313 266.236 691.561 250.081 676.275 235.808L677.433 234.939Z"></path>
<path fill="#442638" d="M595.472 210.852C607.805 214.384 620.428 217.482 631.748 223.793C630.3 236.995 627.521 250.197 621.47 262.125C617.243 270.752 611.106 280.103 600.973 282.072C593.359 284.069 591.998 274.342 591.216 269.044C589.595 249.589 593.272 230.163 595.472 210.852Z"></path>
<path fill="#391C2A" d="M378.599 297.416C389.311 278.887 408.969 265.309 430.596 264.122C449.732 262.559 470.635 270.289 481.028 287.08C487.745 298.342 492.812 312.152 488.73 325.267C483.779 335.081 476.136 344.548 465.192 347.762C455.233 350.165 443.884 347.675 436.415 340.495C428.888 333.055 427.874 321.388 429.901 311.515C433.172 298.632 444.492 290.381 454.393 282.593C441.365 277.208 426.658 275.442 413.022 279.64C397.91 283.983 385.808 295.071 376.833 307.607C376.862 304.133 376.399 300.369 378.599 297.416ZM452.743 290.12C446.403 292.9 447.706 308.273 456.189 303.727C464.874 301.498 461.718 284.446 452.743 290.12Z"></path>
<path fill="#FFFFFE" d="M452.743 290.12C461.718 284.446 464.874 301.498 456.188 303.727C447.706 308.273 446.403 292.9 452.743 290.12Z"></path>
<path fill="#300912" d="M756.354 298.893C762.984 296.663 769.816 295.129 776.823 294.579C776.591 295.997 776.128 298.893 775.896 300.34C769.295 301.73 762.723 303.061 756.064 303.901C756.151 302.656 756.267 300.137 756.354 298.893Z"></path>
<path fill="#33131B" d="M770.8 310.878C774.795 310.704 780.499 308.794 782.12 314.15C776.706 320.548 766.573 318.203 759.075 318.695C757.164 311.544 766.197 312.036 770.8 310.878Z"></path>
<path fill="#F7CCD9" d="M356.365 325.586C362.271 327.496 368.148 329.494 374.083 331.347C374.98 329.899 376.804 326.975 377.731 325.528C393.654 327.38 412.385 328.394 423.039 342.261C429.93 349.673 430.48 362.846 421.997 369.273C403.468 382.793 374.749 373.529 364.761 353.697C364.5 352.423 364.008 349.876 363.776 348.602C360.331 346.401 356.915 344.288 353.47 342.174C354.483 336.645 355.438 331.115 356.365 325.586ZM389.803 343.448C393.943 350.107 401.702 351.96 408.737 354.016C411.169 344.085 396.288 344.375 389.803 343.448Z"></path>
<path fill="#FBFDFD" d="M631.314 333.518C633.804 330.739 639.565 331.173 641.215 334.647C645.529 339.858 640.463 350.512 633.312 348.052C626.942 346.199 626.711 337.34 631.314 333.518Z"></path>
<path fill="#FAE9EC" d="M389.803 343.448C396.288 344.375 411.169 344.085 408.737 354.015C401.702 351.96 393.943 350.107 389.803 343.448Z"></path>
<path fill="#2C0914" d="M506.187 349.846C521.531 354.537 537.657 357.142 551.698 365.422C544.981 370.112 537.599 373.731 529.579 375.497C524.05 376.018 520.894 381.287 520.778 386.441C518.694 397.037 528.074 405.375 537.657 407.141C548.89 410.586 559.428 404.39 566.608 396.197C567.158 397.384 568.316 399.729 568.895 400.916C564.002 405.491 559.139 410.673 552.451 412.439C537.367 417.563 519.186 409.428 514.177 394.026C506.1 397.674 496.923 401.322 488.121 397.847C478.017 394.981 469.737 386.035 470.172 375.179C471.272 374.513 473.472 373.21 474.572 372.544C472.604 387.83 490.09 397.037 503.176 392.434C511.89 390.783 515.451 381.982 518.983 374.947C512.904 367.651 506.274 359.921 506.187 349.846ZM516.58 364.843C523.21 373.5 536.18 371.097 543.852 365.162C534.154 361.774 524.339 358.416 514.148 357.113C510.066 359.227 515.104 362.846 516.58 364.843Z"></path>
<path fill="#56384E" d="M516.58 364.843C515.104 362.846 510.066 359.227 514.148 357.113C524.339 358.416 534.154 361.774 543.852 365.162C536.18 371.097 523.21 373.5 516.58 364.843Z"></path>
<path fill="#563A49" d="M233.149 360.124C239.749 361.166 246.842 361.369 252.72 365.046C273.883 377.929 288.822 398.108 306.887 414.61C315.746 423.093 325.647 430.447 334.13 439.335C348.721 456.879 368.582 469.56 390.122 476.797C400.197 480.069 411.632 480.387 421.013 474.887C428.945 479.374 437.486 482.674 446.142 485.598C433.809 497.671 424.689 512.697 419.42 529.141C407.927 565.156 407.116 604.443 415.685 641.211C421.997 667.556 434.156 694.481 457.317 710.086C487.166 729.946 525.497 738.487 560.557 729.367C584.413 723.75 607.516 711.215 621.962 690.949C637.48 670.191 644.11 643.556 641.186 617.905C639.362 591.038 619.096 567.878 623.555 540.229C625.466 523.843 637.943 511.539 651.319 503.259C669.037 492.315 685.192 478.187 695.933 460.15C703.344 460.498 710.206 463.451 716.922 466.404C708.092 497.266 684.468 521.382 674.682 551.839C671.845 570.773 680.386 588.78 685.018 606.73C695.817 640.024 700.854 677.4 687.768 710.751C678.301 735.852 655.082 751.109 637.741 770.333C625.784 781.45 621.586 797.663 615.97 812.399C600.249 826.469 575.583 822.821 557.344 815.786C559.428 801.166 564.494 787.009 572.659 774.676C578.13 765.469 586.96 758.463 590.579 748.185C571.008 755.973 558.82 775.573 550.164 793.899C515.046 787.211 480.218 778.902 444.955 772.852C433.867 771.288 423.415 767.264 412.877 763.645C416.959 770.709 423.329 777.571 421.389 786.459C419.912 801.253 418.436 821.345 401.76 826.874C388.066 830.609 372.954 830.667 359.376 826.267C359.26 798.734 349.619 772.649 344.205 745.985C339.312 721.29 350.024 697.637 356.509 674.36C368.119 635.536 367.684 594.455 364.355 554.444C363.458 542.806 361.634 530.531 354.222 521.064C347.969 512.262 337.72 507.92 328.282 503.461C310.564 495.326 293.656 484.73 280.368 470.283C266.587 456.01 255.412 439.508 242.847 424.222C233.264 411.947 216.473 408.009 208.251 394.402C209.814 390.147 211.377 385.862 212.999 381.606C216.096 382.127 219.223 382.619 222.35 383.111C220.757 378.277 218.905 373.529 216.82 368.925C221.8 361.572 228.256 367.68 234.162 370.199C236.738 367.738 232.917 363.193 233.149 360.124Z"></path>
<path fill="#F7CAD6" d="M624.134 406.996C630.329 394.258 645.934 389.51 659.165 391.768C668.516 393.389 678.938 393.91 686.553 400.279C684.265 403.869 682.007 407.459 679.807 411.107C683.773 414.813 691.069 417.303 689.621 424.048C690.085 433.892 679.46 439.711 670.774 439.74C655.343 440.029 638.436 435.976 627.984 423.846C624.076 419.387 620.631 412.699 624.134 406.996ZM646.832 406.88C649.929 413.51 664.26 416.173 665.592 407.401C659.338 406.649 653.056 406.359 646.832 406.88Z"></path>
<path fill="#DFCED6" d="M700.044 401.148C701.723 401.09 705.11 400.974 706.818 400.887C706.442 407.807 706.037 414.726 705.602 421.674L703.199 421.79C697.062 418.605 693.819 412.642 691.474 406.446C694.282 404.622 697.12 402.856 700.044 401.148Z"></path>
<path fill="#4F3244" d="M706.818 400.887C714.461 401.93 722.134 402.798 729.777 403.927C730.182 411.657 728.966 419.329 727.692 426.943C716.806 425.322 705.863 424.019 694.948 422.746C697.004 422.514 701.144 422.022 703.199 421.79L705.602 421.674C706.037 414.726 706.442 407.807 706.818 400.887Z"></path>
<path fill="#F4EBE9" d="M646.832 406.88C653.056 406.359 659.339 406.649 665.592 407.401C664.26 416.174 649.93 413.51 646.832 406.88Z"></path>
<path fill="#503443" d="M746.018 406.793C760.291 410.123 774.622 414.263 786.984 422.427C784.234 427.262 780.846 431.72 777.141 435.889C779.862 437.8 782.641 439.74 785.421 441.708C783.828 445.241 783.51 449.873 779.717 451.957C766.545 460.382 751.114 469.415 734.901 464.696C736.985 456.966 738.983 449.207 740.865 441.419C745.758 441.535 750.679 441.593 755.63 441.535C751.808 437.8 747.379 434.847 742.776 432.299C743.413 423.73 744.455 415.218 746.018 406.793Z"></path>
<path fill="#4D2F3F" d="M703.431 436.352C709.829 428.333 719.181 433.805 727.113 435.745C725.926 444.14 723.379 452.247 720.02 460.035C711.798 458.442 704.3 454.736 697.438 450.104C700.189 445.877 702.013 441.158 703.431 436.352Z"></path>
<path fill="#452838" d="M334.13 439.335C347.535 441.158 357.957 450.365 369.682 456.271C379.844 461.308 390.122 466.722 401.413 468.691C402.745 467.822 405.437 466.085 406.769 465.217C411.401 468.575 416.149 471.76 421.013 474.887C411.633 480.387 400.197 480.069 390.122 476.797C368.582 469.56 348.722 456.879 334.13 439.335Z"></path>
<path fill="#321922" d="M260.768 512.32C266.24 510.062 268.701 516.518 271.799 519.732C280.455 531.399 293.396 538.724 306.424 544.572C309.869 545.672 311.867 548.046 312.475 551.723C294.728 550.854 278.689 540.2 267.224 527.201C264.184 522.801 258.915 518.14 260.768 512.32Z"></path>
<path fill="#523645" d="M761.015 545.643C771.379 533.918 794.83 533.744 801.836 548.886C797.869 560.582 789.039 570.686 788.808 583.569C786.839 613.244 804.673 639.01 808.871 667.672C812.953 695.465 808.639 726.703 788.866 747.982C770.771 765.816 744.918 773.807 720.02 775.428C699.493 776.123 678.678 776.384 658.528 771.838C662.726 765.932 667.879 760.808 673.553 756.32C699.088 759.824 727.692 764.456 751.056 750.53C770.742 739.268 777.864 714.891 777.691 693.496C777.893 654.268 742.225 625.867 742.428 586.522C743.21 586.146 744.773 585.451 745.526 585.075C746.713 584.496 749.116 583.366 750.303 582.787C753.951 569.267 757.917 555.515 767.355 544.717C765.792 544.948 762.607 545.411 761.015 545.643Z"></path>
<path fill="#E9E8E8" d="M745.526 585.075C742.631 570.773 746.423 552.099 761.015 545.643C762.607 545.412 765.792 544.948 767.355 544.717C757.917 555.515 753.951 569.267 750.303 582.787C749.116 583.366 746.713 584.496 745.526 585.075Z"></path>
<path fill="#FCFBFA" d="M432.535 784.548C469.593 793.32 507.287 799.139 544.779 805.914C544.287 808.056 543.36 812.399 542.897 814.541C505.347 812.573 467.711 813.817 430.161 814.802L429.553 812.196C431.088 803.048 432.043 793.812 432.535 784.548Z"></path>
<path fill="#A899B0" d="M629.2 809.851C657.659 811.414 685.974 814.889 714.317 817.929C727.837 820.303 742.979 820.592 754.125 829.712C748.711 839.497 736.696 840.597 726.998 843.029C691.648 849.775 655.691 852.612 619.82 854.697C619.56 853.596 619.039 851.396 618.749 850.296C626.016 838.021 625.668 823.313 629.2 809.851Z"></path>
<path fill="#B3A3B3" d="M307.872 826.44C314.183 813.181 331.206 814.281 343.597 812.428C343.829 823.574 348.548 834.778 358.681 840.366C341.107 839.526 322.781 836.255 307.872 826.44Z"></path>
<path fill="#B3A4B6" d="M414.991 837.036C423.821 831.796 427.382 821.692 429.553 812.196L430.161 814.802C467.711 813.818 505.347 812.573 542.897 814.541C540.957 831.825 554.796 845.924 569.59 852.294C516.494 849.427 463.108 852.786 410.214 846.416C394.667 844.303 378.628 846.619 363.516 841.697C380.51 843.406 399.618 846.561 414.991 837.036Z"></path>
<path fill="#492E3D" d="M557.344 815.786C575.583 822.821 600.249 826.469 615.97 812.399C615.072 820.91 613.625 829.364 612.061 837.818C604.708 841.755 596.486 845.114 588.003 842.971C574.425 839.729 558.357 831.565 557.344 815.786Z"></path>
<path fill="#513141" d="M460.444 867.146C461.486 866.451 463.571 865.003 464.584 864.308C464.758 875.715 464.787 887.18 464.266 898.615C463.05 899.021 460.647 899.86 459.431 900.295C459.46 889.235 459.17 878.147 460.444 867.146Z"></path>
<path fill="#1D0C0F" d="M545.329 876.989C547.24 877.944 549.15 878.928 551.09 879.942C554.651 875.339 560.991 879.652 561.484 884.111C562.063 888.801 561.744 893.52 561.802 898.268C560.76 897.949 558.646 897.37 557.604 897.052C555.954 891.667 560.152 880 550.337 882.142C548.253 887.498 553.753 898.413 545.416 899.484C545.097 891.985 545.068 884.487 545.329 876.989Z"></path>
</svg>
