<svg xmlns="http://www.w3.org/2000/svg" fill="none" viewBox="0 0 1024 1024" height="1024" width="1024">
<rect fill="white" height="1024" width="1024"></rect>
<path fill="#EACE91" d="M488.937 121.992C491.008 118.819 492.661 115.357 494.444 112C498.326 115.278 499.401 120.419 501.316 124.903C505.092 125.035 508.869 125.166 512.671 125.323C510.364 127.683 508.029 129.991 505.695 132.299C504.961 135.551 504.253 138.83 503.571 142.082C500.398 141.033 497.224 139.957 494.077 138.908C491.035 140.639 487.992 142.344 484.95 144.049C484.635 139.538 484.767 135.001 484.452 130.49C481.724 127.395 478.498 124.798 475.482 122.045C479.941 122.123 484.452 122.307 488.937 121.992Z"></path>
<path fill="#37141D" d="M640.63 175.075C644.119 173.37 647.685 171.534 651.645 171.088C658.333 173.685 660.51 181.448 664.051 187.06C682.645 222.597 681.858 264.559 673.623 302.876C683.511 309.643 685.346 323.018 681.753 333.745C685.661 344.078 691.641 353.467 696.807 363.223C713.146 352.444 729.8 341.875 747.975 334.426C748.395 339.567 742.704 340.59 739.32 342.793C725.237 349.953 712.15 358.765 698.932 367.314C700.217 371.484 701.528 375.654 702.787 379.851C708.819 377.648 714.93 375.812 721.119 374.002C723.27 375.366 725.447 376.73 727.65 378.12C719.703 379.484 712.019 381.687 704.387 384.126C704.833 388.4 705.331 392.702 705.803 397.003C724.712 397.081 743.464 401.042 761.062 407.834C761.062 409.198 761.036 411.926 761.01 413.289C743.726 405.631 724.817 402.746 706.118 401.147C706.092 406.969 705.803 412.791 705.357 418.613C717.448 422.757 729.617 426.848 741.025 432.723C743.543 434.008 745.326 436.028 746.375 438.808C732.134 435.084 719.179 427.268 704.833 423.413C700.243 435.949 695.732 448.643 687.497 459.369C693.424 467.971 700.217 476.18 704.361 485.884C705.593 489.294 707.141 493.542 704.57 496.821C696.755 504.662 685.268 505.738 675.302 509.199C664.26 512.924 656.156 521.709 648.105 529.682C641.181 537.131 633.523 544.474 629.72 554.125C628.356 558.19 631.32 562.046 632.185 565.927C642.571 594.803 650.229 625.461 646.4 656.33C644.302 669.128 642.781 682.032 641.837 694.961C656.025 694.909 669.873 690.608 682.75 684.943C693.346 680.458 694.552 667.764 698.696 658.428C699.509 656.12 700.348 653.838 701.187 651.53C707.744 638.365 712.596 623.494 723.978 613.502C733.315 604.769 746.48 602.356 756.394 594.435C754.846 591.419 753.378 588.377 751.909 585.335C749.182 580.116 746.952 573.297 740.474 571.776C730.875 570.543 720.621 571.854 712.097 576.575C695.785 584.469 682.566 598.999 678.318 616.833C674.908 627.743 679.944 640.463 672.076 649.983C667.932 649.668 663.841 649.065 659.776 648.409C667.329 642.508 667.198 633.041 667.722 624.36C670.45 596.874 690.723 572.09 716.792 563.383C728.594 560.577 743.517 558.112 753.194 567.396C761.246 576.969 767.724 592.573 758.912 603.667C748.578 611.876 734.993 615.784 726.286 626.143C716.923 637.42 714.196 652.212 709.79 665.798L713.776 665.457C713.776 665.824 713.776 666.584 713.776 666.978C712.727 667.292 710.629 667.896 709.58 668.21C704.728 678.071 699.823 688.824 689.752 694.411C673.702 703.406 655.002 707.419 636.644 706.737C632.448 717.805 624.659 727.875 624.895 740.202C623.767 762.206 622.665 784.446 616.45 805.742C613.407 815.105 611.309 825.176 605.408 833.279C597.068 841.908 584.139 843.219 572.783 843.403C562.056 843.35 549.756 841.934 542.045 833.647C535.803 824.861 533.626 814.029 530.348 803.958C528.355 797.507 526.414 791.081 524.526 784.629C498.116 789.586 470.132 793.179 444.299 783.476C442.804 790.399 441.205 797.323 439.578 804.221C436.3 817.701 434.123 835.089 419.568 841.147C404.671 845.842 387.86 845.239 373.226 839.836C360.244 834.906 362.84 818.75 357.385 808.417C347.445 787.96 342.515 765.458 339.656 743.008C337.741 722.289 327.67 703.485 325.284 682.845C320.353 643.269 329.401 603.877 335.04 564.852C313.797 555.856 291.819 547.438 273.303 533.38C264.884 527.532 260.347 516.753 262.707 506.682C267.113 486.881 280.646 470.856 293.996 456.275C287.701 446.02 281.669 435.372 279.335 423.439C264.674 426.455 250.827 432.199 237.74 439.358C237.084 438.598 235.747 437.077 235.091 436.29C248.204 428.501 262.314 422.521 277.237 419.138C279.388 414.391 276.765 408.359 277.106 403.192C256.859 401.802 237.137 406.89 217.467 410.483C219.591 407.441 222.607 405.107 226.331 404.425C242.88 399.783 260.111 397.842 277.289 398.891C277.735 394.459 278.233 390.053 278.81 385.647C261.213 377.753 242.041 374.238 222.817 373.845C219.276 371.694 224.941 370.016 226.646 370.016C245.241 369.045 263.547 373.871 280.804 380.506C282.063 376.179 283.4 371.904 284.764 367.603C267.743 356.168 250.276 345.415 231.944 336.236C237.792 331.83 243.641 337.836 248.991 340.065C262.262 346.727 273.828 356.299 287.072 362.935C292.553 353.388 298.297 343.842 302.388 333.613C302.624 328.237 298.874 323.438 299.32 318.009C299.32 311.321 303.752 305.709 309.181 302.273C304.591 277.227 302.231 251.394 306.269 226.085C308.368 207.464 315.003 189.84 321.035 172.216C336.692 170.957 351.117 178.668 365.2 184.464C384.215 194.299 402.258 206.415 418.047 220.918C465.438 204.789 517.917 204.134 565.282 220.761C589.358 203.924 614.404 188.398 640.63 175.075ZM327.775 180.084C317.39 212.106 311.803 246.279 317.678 279.797C319.514 286.616 318.36 296.346 325.52 300.07C325.153 297.132 324.392 291.284 323.999 288.347C326.569 288.216 329.139 288.111 331.735 288.006C333.571 276.597 329.769 265.031 332.811 253.78C334.122 263.432 336.561 272.899 339.341 282.21C334.725 288.976 329.664 295.638 326.7 303.322C329.664 302.771 332.627 302.168 335.643 301.591C350.802 303.191 366.092 303.138 381.303 303.846C394.758 305.918 404.566 292.149 418.178 294.851C423.108 295.244 433.468 298.182 429.062 304.896C421.797 305.682 414.48 305.709 407.241 306.364C418.256 307.387 429.77 304.738 440.339 309.039C449.335 312.344 457.78 317.143 465.149 323.28C474.276 327.188 484.504 324.119 494.129 324.854C501.263 324.015 509.813 327.319 515.661 321.864C526.309 314.704 538.321 309.59 547.736 300.673C558.358 290.209 575.563 293.277 587.338 300.149C576.245 301.932 564.888 300.358 553.873 302.378L551.985 306.154C587.81 304.319 623.741 302.719 659.566 305.263C672.627 266.474 670.896 221.338 649.81 185.67C648.682 181.867 645.089 182.759 642.073 183.021C641.234 183.913 639.529 185.696 638.69 186.588C620.62 196.161 602.182 205.786 586.63 219.188C579.47 222.02 574.645 228.734 567.537 231.698C561.138 231.619 554.949 229.835 548.864 228.105C545.009 226.819 541.154 225.587 537.351 224.275C532.105 223.489 526.808 223.069 521.51 223.043L521.903 221.679C518.336 221.6 514.796 221.522 511.282 221.469C498.85 220.446 486.393 220.446 474.014 221.469C470.709 221.627 467.431 221.81 464.179 222.02C458.698 223.095 453.138 223.803 447.604 224.302C444.221 225.718 440.811 227.134 437.454 228.524C429.088 228.288 420.879 232.275 412.67 231.042C399.006 223.62 388.201 211.529 374.38 204.527C365.384 198.416 356.257 191.964 345.976 188.214C339.866 185.591 333.755 182.969 327.775 180.084ZM304.617 312.868C307.135 322.546 310.781 331.883 313.77 341.429C313.429 342.347 312.721 344.156 312.38 345.074C303.28 356.457 297.274 369.911 293.156 383.811C294.625 384.545 297.536 385.988 299.005 386.722C300.578 387.142 303.726 387.955 305.299 388.374C315.396 391.626 325.572 394.721 335.591 398.34L333.335 395.351C336.954 395.455 340.154 394.328 342.908 391.967C347.261 395.56 352.507 397.842 357.464 400.465L358.775 399.547C378.786 403.822 400.081 404.844 420.066 400.071C424.315 401.173 428.59 402.432 432.76 403.9C429.796 405.762 426.78 407.441 423.764 409.119C417.312 410.378 410.808 411.427 404.33 412.424C391.82 411.506 379.232 412.686 366.722 411.244C349.753 409.093 334.253 401.251 317.547 398.131L318.36 397.213C313.901 395.954 309.443 394.774 304.906 393.961C300.395 392.623 295.989 391.076 291.583 389.45C291.006 398.393 291.084 407.362 291.294 416.332C293.733 416.384 296.199 416.437 298.664 416.489L298.48 414.627C307.03 415.099 315.58 415.151 324.156 414.627C332.889 416.332 343.668 412.791 350.697 419.715C335.092 420.921 319.409 418.823 303.857 420.869C302.808 420.659 300.736 420.187 299.687 419.977C297.877 420.213 294.31 420.711 292.527 420.974C296.303 430.468 299.162 440.539 304.984 449.062C306.348 448.695 309.076 447.961 310.44 447.594C316.236 445.915 322.005 443.974 327.277 440.906C336.036 441.089 344.691 439.122 353.477 439.149C343.904 443.345 333.388 444.473 324.602 450.452L326.91 447.803C321.009 448.905 315.501 451.344 310.308 454.255C311.148 457.428 314.059 459.527 315.947 462.097L315.921 464.169L317.363 463.933C337.558 484.992 365.017 498.263 393.053 505.344C409.261 509.645 425.993 511.56 442.201 515.809C443.355 510.93 446.712 506.262 451.957 505.397C461.819 503.692 473.725 504.007 480.911 512.058C490.064 503.246 504.095 502.748 515.294 507.731C517.445 510.983 519.622 514.235 521.851 517.513C536.826 513.632 552.116 511.35 567.275 508.255C586.761 504.531 605.539 497.791 623.662 489.739C641.155 481.845 658.045 471.276 669.978 455.907C665.624 454.019 661.297 452.157 656.969 450.295C645.194 445.784 634.362 439.254 622.954 433.982C628.173 435.424 633.339 437.68 638.873 437.523L638.086 437.916C650.439 440.932 661.769 446.728 673.623 451.108C674.357 449.98 675.826 447.725 676.561 446.597C682.042 439.935 685.897 432.199 688.048 423.832C680.993 422.993 673.938 422.206 666.857 421.551C662.031 421.131 657.205 420.502 652.38 420.449C645.22 418.089 635.595 421.262 629.877 415.728C641.784 414.863 653.691 416.279 665.624 415.597L667.617 416.148C675.197 417.223 682.855 417.879 690.539 418.115C690.644 410.221 690.434 402.327 689.91 394.433C677.846 394.459 665.991 396.688 654.006 397.501L651.934 394.957C657.284 393.305 662.792 392.02 668.404 391.548C670.45 390.84 672.495 390 674.489 389.109C679.183 388.374 683.904 387.614 688.599 386.722C686.527 378.146 684.428 369.544 681.307 361.309C680.678 353.86 677.006 346.858 672.705 340.852C666.306 342.74 666.542 350.739 665.703 356.168C659.854 369.229 655.501 383.181 646.453 394.537C642.099 396.95 638.663 400.543 635.569 404.399C611.073 412.712 584.401 414.784 558.988 409.801C555.158 408.359 551.277 406.995 547.763 404.923C555.788 403.376 564.993 409.093 571.943 403.481C589.043 405.29 606.562 404.976 623.269 400.648C634.179 397.973 642.099 388.899 646.82 379.143C655.868 360.207 659.513 339.2 661.428 318.455C652.091 316.593 642.519 316.252 633.051 316.278C610.234 316.356 587.417 316.199 564.679 316.068C563.839 315.229 562.135 313.498 561.295 312.632C583.299 309.302 605.592 311.4 627.727 310.823C642.387 311.4 658.753 307.807 671.578 316.986C671.473 321.759 671.446 326.506 671.446 331.279C672.836 324.985 675.931 317.668 671.787 311.819C661.376 312.501 651.331 308.725 640.919 309.433C614.745 309.957 588.466 307.859 562.449 311.242C542.491 310.98 525.051 323.018 510.81 335.843C503.361 331.332 494.418 333.168 486.209 332.8C479.941 333.141 472.939 331.778 467.615 335.974C459.72 329.26 451.826 322.467 442.568 317.72L441.913 316.409C441.677 316.435 441.205 316.488 440.969 316.514C408.789 307.754 375.009 308.331 341.911 308.462C329.401 308.646 316.157 306.836 304.617 312.868ZM271.519 499.155L271.677 499.837C267.507 509.199 269.972 519.952 277.893 526.509L278.181 528.187C278.601 527.82 279.44 527.06 279.86 526.692C303.411 538.416 327.592 548.906 350.671 561.626C349.753 566.478 348.835 571.33 347.917 576.182C346.501 572.956 344.849 569.861 343.144 566.793C341.544 593.255 337.636 619.508 335.565 645.918C333.781 674.19 339.472 703.091 353.294 727.902C360.532 742.195 373.96 752.24 381.303 766.297C377.186 764.881 373.121 763.098 368.846 762.363C361.188 757.459 355.759 750.168 350.304 743.061C352.848 752.948 355.523 762.835 358.119 772.696C359.116 781.718 363.496 789.953 365.909 798.661C368.033 802.227 369.475 806.424 373.803 808.155L373.776 808.312C373.488 816.363 370.367 825.779 377.71 831.758C377.632 824.363 378.681 816.914 383.165 810.803C381.67 817.885 381.618 825.123 381.697 832.309C387.309 833.856 393.079 834.643 398.901 835.142C398.691 827.877 397.721 820.14 401.393 813.505C402.232 820.455 402.599 827.484 403.045 834.486C409.838 833.804 419.069 833.411 421.587 825.595C426.675 809.02 432.733 792.576 435.461 775.398C431.474 772.618 427.567 769.733 423.239 767.556C469.005 787.777 522.507 779.069 566.042 757.223L566.803 755.623L566.069 758.613C556.837 767.399 544.825 772.015 534.203 778.702C535.148 782.112 536.144 785.521 537.115 788.957C538.4 792.707 539.685 796.51 540.944 800.339C543.461 809.151 545.507 818.199 549.441 826.539C552.798 832.886 561.033 832.466 567.091 833.83C567.013 827.431 566.567 821.032 566.147 814.659C567.275 816.416 569.504 819.956 570.632 821.714C570.947 825.831 571.34 829.949 571.707 834.092C577.005 833.673 582.329 833.227 587.653 832.676C587.076 825.674 586.237 818.671 586.42 811.643C591.456 816.757 591.141 824.52 592.977 831.05C594.996 828.192 599.271 825.595 597.619 821.425C595.154 811.564 593.082 801.65 591.849 791.553C594.918 795.959 596.255 803.303 602.917 803.067C606.116 790.189 610.26 777.339 610.811 763.989C611.021 757.643 611.991 751.348 613.381 745.185C604.097 751.637 596.727 760.711 586.079 765.169C585.266 764.015 583.64 761.681 582.827 760.527C592.505 750.063 602.471 739.677 609.683 727.246C627.91 699.367 634.388 665.483 634.179 632.595C633.838 610.932 626.389 590.318 619.78 569.94C615.637 579.434 610.103 589.085 609.998 599.628C606.588 612.112 602.104 625.015 591.587 633.355C577.215 641.538 556.68 638.417 548.077 623.442C554.45 623.783 559.591 627.769 564.81 631.047C565.99 628.136 567.275 625.278 568.508 622.393C571.025 627.061 572.651 633.355 579.208 633.408C578.474 628.635 577.608 623.914 576.69 619.219C579.208 622.13 581.647 625.094 584.086 628.084L585.214 626.091C587.705 626.038 590.249 626.012 592.767 625.986C595.967 619.691 598.93 613.161 600.111 606.159C602.917 587.485 610.601 570.045 618.6 553.103C624.396 540.566 633.995 530.469 641.837 519.27L642.755 520.031C644.643 517.461 646.584 514.891 648.551 512.347C658.831 509.75 666.595 502.092 676.141 497.922C682.986 495.483 690.12 493.962 697.096 491.89C690.985 482.842 686.605 471.328 677.557 465.034C673.072 468.942 669.165 473.427 665.178 477.806C659.907 481.058 655.107 484.94 650.229 488.69L649.862 489.687C629.72 501.358 607.769 509.829 584.716 513.448L584.139 514.891C562.869 516.045 541.967 520.372 520.776 522.313C520.723 528.502 520.618 534.692 520.382 540.907C517.104 549.037 506.089 551.004 499.244 546.362C492.005 541.746 486.943 534.639 481.095 528.528C474.302 540.54 460.743 553.758 446.004 546.048C441.965 538.835 442.201 530.39 440.732 522.496C434.858 520.975 428.695 520.923 422.689 520.923L422.767 518.248C414.191 517.172 405.773 515.336 397.223 514.182C392.24 512.242 387.126 510.563 381.828 509.75C373.226 503.325 362.158 502.774 352.454 498.866C342.803 495.063 333.388 490.552 324.812 484.704C315.659 478.515 308.892 469.44 299.398 463.697C288.121 473.741 278.732 485.91 271.519 499.155ZM449.571 512.294C445.794 520.188 445.768 529.472 447.787 537.839C448.574 541.117 451.092 543.687 454.396 544.579C464.835 543.504 470.972 533.8 474.984 525.171C479.941 521.29 476.086 515.756 473.175 512.058C465.857 509.042 456.18 506.472 449.571 512.294ZM482.249 519.926C485.501 524.253 488.701 528.633 491.795 533.066L492.713 533.223C496.962 537.681 501.027 542.9 507.19 544.815C517.786 541.196 517.209 527.584 515.609 518.615C513.406 510.301 504.279 508.282 496.831 508.334C490.799 510.563 486.078 514.891 482.249 519.926Z"></path>
<path fill="#FDFCFC" d="M327.775 180.084C333.755 182.969 339.865 185.591 345.976 188.214C341.623 187.873 337.243 187.663 332.889 187.427C332.391 189.079 331.342 192.358 330.817 193.984C330.398 195.243 329.532 197.76 329.086 198.993C317.363 227.239 318.307 258.815 323.998 288.346C324.392 291.284 325.152 297.132 325.52 300.07C318.36 296.346 319.514 286.616 317.678 279.797C311.803 246.279 317.389 212.106 327.775 180.084Z"></path>
<path fill="#FDFCFC" d="M586.63 219.187C602.183 205.786 620.62 196.16 638.69 186.588C629.458 196.134 617.814 202.822 607.402 210.952C601.474 215.804 593.948 217.666 586.63 219.187Z"></path>
<path fill="#FDFCFC" d="M348.965 267.444C348.1 279.98 340.809 290.523 335.642 301.591C332.626 302.168 329.663 302.771 326.699 303.322C329.663 295.637 334.725 288.976 339.34 282.209C342.802 277.462 346.081 272.584 348.965 267.444Z"></path>
<path fill="#FDFCFC" d="M312.38 345.074C312.485 348.799 312.406 352.575 311.384 356.194C306.191 365.898 301.89 376.074 299.005 386.722C297.536 385.988 294.625 384.545 293.156 383.811C297.274 369.911 303.28 356.457 312.38 345.074Z"></path>
<path fill="#FDFCFC" d="M292.527 420.973C294.31 420.711 297.877 420.213 299.687 419.977C301.287 429.838 305.352 439.043 310.44 447.593C309.076 447.96 306.348 448.695 304.984 449.062C299.162 440.538 296.303 430.467 292.527 420.973Z"></path>
<path fill="#4E2F36" d="M642.072 183.021C645.088 182.759 648.681 181.867 649.809 185.67C670.895 221.338 672.626 266.474 659.565 305.263C623.74 302.719 587.81 304.318 551.984 306.154L553.873 302.378C564.888 300.358 576.244 301.932 587.338 300.148C592.557 302.535 598.274 303.505 604.018 303.479C619.386 303.61 634.755 303.217 650.124 302.719C648.419 298.313 646.793 293.907 644.905 289.605C650.701 261.36 650.806 231.96 642.964 204.081C642.833 202.717 642.544 200.016 642.387 198.652C642.177 193.433 642.177 188.214 642.072 183.021Z"></path>
<path fill="#786A6E" d="M638.689 186.588C639.529 185.696 641.233 183.913 642.073 183.021C642.177 188.214 642.177 193.433 642.387 198.652C627.019 212.133 610.548 226.819 605.356 247.433C606.352 246.568 608.319 244.837 609.316 243.971C624.16 256.534 634.231 273.607 644.905 289.605C646.793 293.907 648.419 298.313 650.124 302.719C634.755 303.217 619.387 303.61 604.018 303.479C598.274 303.505 592.557 302.535 587.338 300.148C575.562 293.277 558.358 290.209 547.736 300.673C538.321 309.59 526.309 314.704 515.661 321.864C510.049 301.565 509.734 279.849 512.724 259.078C514.927 258.37 517.156 257.662 519.385 256.98C520.067 257.583 521.431 258.789 522.113 259.393C522.585 257.635 523.555 254.121 524.054 252.364C525.208 258.134 526.388 263.93 527.673 269.7C528.04 269.044 528.774 267.759 529.142 267.103C537.613 255.144 542.91 241.401 548.864 228.104C554.948 229.835 561.138 231.619 567.537 231.698C574.644 228.734 579.47 222.02 586.63 219.187C593.947 217.666 601.474 215.804 607.401 210.952C617.813 202.822 629.458 196.134 638.689 186.588Z"></path>
<path fill="#A39B9D" d="M345.976 188.214C356.256 191.964 365.383 198.416 374.379 204.527C369.684 204.081 365.016 203.766 360.348 203.452C359.404 204.763 357.542 207.386 356.624 208.697C348.729 202.639 339.786 198.206 330.817 193.984C331.341 192.358 332.39 189.08 332.889 187.427C337.242 187.663 341.622 187.873 345.976 188.214Z"></path>
<path fill="#321219" d="M329.086 198.993C329.532 197.76 330.397 195.243 330.817 193.984C339.786 198.206 348.73 202.638 356.624 208.697C365.016 217.404 369.973 228.629 372.779 240.273C371.573 240.719 369.134 241.611 367.927 242.083C363.784 222.57 348.493 208.067 332.364 197.708L329.086 198.993Z"></path>
<path fill="#321219" d="M605.356 247.433C610.549 226.819 627.019 212.132 642.388 198.652C642.545 200.016 642.833 202.717 642.965 204.081C630.297 216.04 616.056 227.344 609.316 243.971C608.32 244.837 606.353 246.568 605.356 247.433Z"></path>
<path fill="#321219" d="M414.847 892.131C416.709 886.886 422.636 888.093 426.911 888.591C427.147 889.955 427.619 892.682 427.829 894.02C425.442 893.836 420.669 893.417 418.282 893.207C421.351 898.085 427.016 900.55 430.189 905.402C427.094 911.723 416.446 915.552 413.299 907.212C415.922 907.159 421.141 907.028 423.738 906.949C421.535 901.337 410.624 899.291 414.847 892.131Z"></path>
<path fill="#321219" d="M437.323 893.233C444.325 893.784 451.354 892.158 458.277 893.653C457.517 899.554 462.447 908.917 455.157 911.749C453.373 907.028 456.599 898.741 450.331 897.01C450.252 901.39 450.278 905.743 450.383 910.149L446.948 909.992C446.056 905.455 447.289 899.58 442.306 897.141C440.05 901.993 444.115 912.431 435.88 911.618C436.142 905.507 435.146 899.108 437.323 893.233Z"></path>
<path fill="#321219" d="M495.807 896.537C497.591 891.895 502.626 892.839 506.613 892.997C506.193 898.557 505.8 904.143 505.616 909.755C497.224 913.401 490.798 903.435 495.807 896.537ZM501.158 905.244C501.158 903.566 501.184 900.209 501.21 898.53C497.407 897.508 497.328 906.451 501.158 905.244Z"></path>
<path fill="#6A4D5B" d="M329.086 198.993L332.365 197.708C332.181 203.189 332.47 208.933 330.005 214.021C324.523 227.029 323.841 241.401 324.864 255.301C326.884 247.879 328.562 240.378 330.686 232.982C331.945 239.854 332.837 246.777 332.811 253.78C329.768 265.031 333.571 276.597 331.735 288.005C329.139 288.11 326.569 288.215 323.999 288.346C318.307 258.815 317.363 227.239 329.086 198.993Z"></path>
<path fill="#6E5D63" d="M332.364 197.708C348.494 208.067 363.784 222.57 367.927 242.083C367.219 244.129 366.564 246.174 365.882 248.22C358.617 252.967 352.113 259.13 348.966 267.444C346.081 272.584 342.803 277.462 339.341 282.209C336.561 272.899 334.122 263.431 332.81 253.78C332.837 246.777 331.945 239.854 330.686 232.982C328.561 240.378 326.883 247.879 324.864 255.301C323.841 241.401 324.523 227.029 330.004 214.021C332.469 208.933 332.181 203.189 332.364 197.708Z"></path>
<path fill="#77686B" d="M360.348 203.452C365.017 203.766 369.685 204.081 374.38 204.527C388.201 211.529 399.006 223.62 412.67 231.042C420.879 232.275 429.088 228.288 437.454 228.524C442.017 242.634 445.925 258.37 456.809 269.07C459.432 253.334 452.141 238.884 447.604 224.302C453.137 223.803 458.698 223.095 464.179 222.02C468.008 239.749 471.627 257.845 470.342 276.073C469.529 291.913 466.382 307.492 465.149 323.28C457.78 317.143 449.335 312.344 440.339 309.039C429.77 304.738 418.256 307.387 407.241 306.364C414.48 305.709 421.797 305.682 429.062 304.895C433.468 298.182 423.108 295.244 418.178 294.851C404.566 292.149 394.758 305.918 381.303 303.846C366.092 303.138 350.802 303.191 335.643 301.591C340.81 290.523 348.101 279.98 348.966 267.444C352.113 259.13 358.617 252.967 365.882 248.22C366.564 246.175 367.22 244.129 367.928 242.083C369.134 241.611 371.573 240.719 372.78 240.274C369.974 228.629 365.017 217.404 356.624 208.697C357.542 207.386 359.404 204.763 360.348 203.452Z"></path>
<path fill="#5D414D" d="M609.316 243.971C616.056 227.344 630.297 216.04 642.964 204.081C650.806 231.96 650.701 261.359 644.905 289.605C634.231 273.607 624.16 256.534 609.316 243.971Z"></path>
<path fill="#FCFCFC" d="M464.178 222.02C467.43 221.81 470.708 221.626 474.013 221.469C478.733 238.752 483.821 256.009 489.513 272.978C490.221 272.742 491.663 272.296 492.397 272.06C501 256.193 504.96 238.306 511.28 221.469C514.795 221.522 518.335 221.6 521.902 221.679L521.509 223.043C518.309 235.002 515.241 246.961 512.723 259.078C509.733 279.849 510.048 301.565 515.66 321.864C509.812 327.319 501.262 324.014 494.128 324.854C484.503 324.119 474.275 327.188 465.148 323.28C466.381 307.492 469.528 291.913 470.341 276.073C471.626 257.845 468.007 239.749 464.178 222.02Z"></path>
<path fill="#FCFCFC" d="M458.854 353.283C463.889 348.274 470.97 345.546 478.051 345.101C492.686 344.104 509.864 342.662 520.669 354.752C524.236 373.609 531.475 393.436 547.761 404.923C551.276 406.995 555.157 408.359 558.986 409.801C558.593 410.955 557.806 413.289 557.439 414.443C560.822 417.984 564.205 421.524 567.641 425.091C566.225 425.616 563.392 426.665 561.976 427.189C581.305 446.99 609.787 451.396 634.807 460.156C612.462 476.547 586.104 486.802 559.799 494.958C546.371 498.814 532.812 502.826 518.781 503.482C517.916 504.531 516.158 506.655 515.293 507.731C504.094 502.748 490.063 503.246 480.91 512.058C473.724 504.007 461.817 503.692 451.956 505.397C446.711 506.262 443.354 510.93 442.2 515.808C425.992 511.56 409.26 509.645 393.052 505.344C385.472 496.453 373.906 493.254 364.57 486.802C352.847 478.908 341.989 469.86 330.685 461.441C339.287 459.212 347.182 455.068 355.312 451.632C365.592 447.672 375.9 443.686 385.682 438.572C401.077 433.09 415.685 423.727 423.763 409.119C426.779 407.441 429.795 405.762 432.758 403.9C449.832 392.885 454.028 371.537 458.854 353.283ZM469.895 398.786C468.872 408.228 480.91 412.634 487.257 417.826C487.204 424.645 488.542 432.723 482.379 437.47C471.836 445.994 455.313 446.99 444.036 439.253C438.187 435.503 437.033 428.291 434.542 422.39C430.608 428.422 434.175 436.395 438.791 440.932C453.241 452.681 475.848 450.741 489.198 438.178C503.281 451.003 529.665 452.996 541.493 436.237C545.375 430.887 549.282 421.551 542.673 416.725C542.673 422.521 542.332 428.763 538.582 433.536C528.616 446.308 507.687 446.676 495.623 436.788C489.067 431.438 490.221 421.839 492.581 414.679C499.138 411.322 507.137 406.811 506.114 398.052C494.469 395.35 481.015 393.567 469.895 398.786Z"></path>
<path fill="#70626B" d="M474.014 221.469C486.393 220.446 498.85 220.446 511.281 221.469C504.961 238.307 501.001 256.193 492.398 272.06C491.664 272.296 490.222 272.742 489.514 272.978C483.822 256.009 478.734 238.752 474.014 221.469Z"></path>
<path fill="#412A33" d="M437.454 228.524C440.811 227.134 444.22 225.718 447.603 224.301C452.14 238.883 459.431 253.334 456.809 269.07C445.925 258.37 442.017 242.634 437.454 228.524Z"></path>
<path fill="#705F64" d="M521.509 223.043C526.807 223.069 532.105 223.489 537.35 224.275C535.252 238.7 525.758 252.207 529.141 267.103C528.774 267.759 528.039 269.044 527.672 269.7C526.387 263.93 525.207 258.134 524.053 252.364C523.555 254.121 522.584 257.635 522.112 259.393C521.43 258.789 520.066 257.583 519.385 256.98C517.155 257.662 514.926 258.37 512.723 259.078C515.241 246.961 518.309 235.002 521.509 223.043Z"></path>
<path fill="#452A33" d="M537.351 224.276C541.153 225.587 545.009 226.819 548.864 228.105C542.91 241.401 537.613 255.144 529.142 267.103C525.758 252.207 535.252 238.7 537.351 224.276Z"></path>
<path fill="#A5BCD4" d="M723.165 287.848C724.502 284.124 725.892 280.426 727.335 276.755C729.433 280.531 731.478 284.334 733.472 288.189C736.986 288.399 740.553 288.583 744.12 288.792C742.126 290.812 740.159 292.858 738.219 294.877C738.796 298.103 739.425 301.329 740.081 304.581C737.537 303.951 735.045 303.322 732.554 302.719C730.456 304.161 728.41 305.604 726.364 307.02C724.371 303.768 720.988 302.325 717.552 301.198C717.657 299.572 717.841 296.267 717.946 294.615C716.084 292.569 709.894 291.546 713.172 288.032C716.477 287.743 719.834 287.822 723.165 287.848Z"></path>
<path fill="#95838A" d="M304.617 312.868C316.157 306.836 329.401 308.646 341.911 308.462C375.009 308.331 408.789 307.754 440.968 316.514C425.154 318.114 409.942 311.4 394.154 311.347C366.144 310.928 338.108 311.033 310.098 311.138C310.151 324.198 314.164 336.708 315.711 349.586C318.124 365.82 323.028 382.29 333.335 395.351L335.591 398.34C325.572 394.721 315.396 391.626 305.299 388.374C306.4 386.224 307.502 384.073 308.63 381.923C310.518 383.732 312.406 385.516 314.347 387.299C317.704 376.861 314.321 366.266 311.383 356.195C312.406 352.575 312.485 348.799 312.38 345.075C312.721 344.157 313.429 342.347 313.77 341.429C310.78 331.883 307.135 322.546 304.617 312.868Z"></path>
<path fill="#EAE1E8" d="M562.449 311.242C588.466 307.859 614.744 309.957 640.918 309.433C651.33 308.725 661.375 312.501 671.787 311.819C675.931 317.668 672.836 324.985 671.446 331.279C671.446 326.506 671.472 321.759 671.577 316.986C658.752 307.807 642.387 311.4 627.726 310.823C605.591 311.4 583.299 309.302 561.295 312.632C557.886 312.449 554.502 312.37 551.145 312.606C536.642 317.274 525.233 329.522 523.45 344.943C519.778 342.294 516.238 339.383 512.068 337.6C497.407 335.659 482.589 336.97 467.876 337.233C463.811 339.619 459.799 342.032 455.76 344.471C453.189 334.715 447.131 326.559 442.568 317.72C451.826 322.467 459.72 329.26 467.614 335.974C472.938 331.778 479.941 333.141 486.209 332.801C494.418 333.168 503.361 331.332 510.809 335.843C525.05 323.018 542.491 310.98 562.449 311.242Z"></path>
<path fill="#3C1D2C" d="M310.098 311.138C338.108 311.033 366.144 310.928 394.154 311.347C409.942 311.4 425.154 318.114 440.968 316.514C441.204 316.488 441.676 316.435 441.912 316.409L442.568 317.72C447.131 326.559 453.19 334.715 455.76 344.471C459.799 342.032 463.811 339.619 467.876 337.233C482.589 336.971 497.407 335.659 512.068 337.6C516.238 339.383 519.778 342.295 523.45 344.943C525.234 329.522 536.642 317.275 551.145 312.606C553.086 313.393 556.968 314.993 558.908 315.78C558.961 319.399 554.083 318.979 551.801 320.579C545.087 322.756 539.055 327.136 535.724 333.482C528.827 345.337 530.925 359.945 535.2 372.324C540.209 383.391 547.342 395.272 559.354 399.626C563.472 401.094 567.668 402.353 571.943 403.481C564.993 409.093 555.787 403.376 547.762 404.923C531.475 393.436 524.237 373.609 520.67 354.752C509.865 342.662 492.687 344.104 478.052 345.101C470.971 345.547 463.89 348.274 458.855 353.283C454.029 371.537 449.833 392.885 432.759 403.9C428.589 402.432 424.314 401.173 420.066 400.071C435.382 395.298 442.384 379.248 446.817 365.164C451.091 352.444 448.049 338.02 440.181 327.345C437.742 324.277 433.782 323.097 430.189 322.048C400.002 314.599 368.714 316.173 337.924 316.435C337.636 318.612 337.085 322.966 336.797 325.142C336.325 323.333 335.433 319.687 334.961 317.851L335.984 316.199C330.922 316.068 325.86 315.911 320.825 315.78C321.874 327.555 324.234 339.147 326.437 350.766C328.588 365.479 333.177 380.375 342.907 391.967C340.154 394.328 336.954 395.456 333.335 395.351C323.028 382.29 318.123 365.82 315.711 349.585C314.163 336.708 310.151 324.198 310.098 311.138Z"></path>
<path fill="#6A5969" d="M551.146 312.606C554.502 312.37 557.886 312.449 561.295 312.632C562.134 313.498 563.839 315.229 564.678 316.068C587.417 316.199 610.234 316.356 633.051 316.278C642.518 316.251 652.091 316.592 661.428 318.455C659.513 339.2 655.868 360.207 646.819 379.142C642.099 388.899 634.178 397.973 623.268 400.648C606.562 404.976 589.043 405.29 571.943 403.481C567.668 402.353 563.472 401.094 559.354 399.625C578.972 401.566 599.428 401.33 618.311 395.114C633.496 390.105 640.682 374.055 643.043 359.394C644.905 346.045 646.662 331.358 640.158 318.979C619.387 316.251 598.143 317.091 577.293 318.612C568.77 319.189 560.246 319.346 551.801 320.579C554.083 318.979 558.961 319.399 558.908 315.779C556.968 314.993 553.086 313.393 551.146 312.606Z"></path>
<path fill="#C7CED6" d="M320.825 315.78C325.861 315.911 330.922 316.068 335.984 316.199L334.961 317.851C326.569 326.795 328.221 339.541 326.438 350.766C324.235 339.147 321.874 327.555 320.825 315.78Z"></path>
<path fill="#BFC0D4" d="M337.924 316.435C368.714 316.173 400.002 314.599 430.189 322.047C433.782 323.096 437.742 324.277 440.181 327.345C448.049 338.019 451.091 352.444 446.817 365.164C442.384 379.247 435.382 395.298 420.066 400.071C400.081 404.844 378.785 403.821 358.774 399.546C360.61 398.209 362.446 396.898 364.308 395.586C355.968 389.161 347.55 382.447 341.255 373.949C335.59 358.45 333.859 341.455 336.797 325.142C337.085 322.965 337.636 318.612 337.924 316.435ZM402.914 324.329C387.781 329.496 377.264 349.034 386.102 363.616C392.895 372.271 405.484 372.953 415.633 372.192C423.842 371.904 428.773 363.485 429.665 356.115C430.425 348.536 431.5 339.645 425.993 333.456C420.38 327.083 411.647 321.942 402.914 324.329Z"></path>
<path fill="#ABAEC5" d="M577.293 318.612C598.143 317.091 619.386 316.251 640.158 318.979C646.662 331.358 644.905 346.045 643.043 359.394C640.682 374.054 633.496 390.105 618.311 395.114C599.428 401.33 578.972 401.566 559.354 399.625C547.342 395.272 540.209 383.391 535.2 372.323C541.966 368.914 543.356 376.861 545.821 381.24C547.946 390.603 556.653 393.908 565.36 394.091C570.028 382.866 558.594 376.1 551.801 369.307C558.83 368.232 565.15 371.878 571.418 374.474C571.943 373.451 573.044 371.353 573.569 370.304C576.742 370.645 579.942 371.038 583.168 371.379C582.302 370.881 580.545 369.858 579.68 369.36C580.965 369.307 583.535 369.176 584.82 369.124C595.835 370.829 601.92 358.738 600.818 349.27C601.657 337.836 592.74 329.338 583.666 324.119C582.066 322.729 578.867 319.975 577.293 318.612Z"></path>
<path fill="#A49BB0" d="M326.437 350.765C328.22 339.54 326.568 326.794 334.961 317.851C335.433 319.687 336.324 323.333 336.796 325.142C333.859 341.455 335.59 358.45 341.255 373.95C347.549 382.447 355.968 389.161 364.308 395.586C362.446 396.898 360.61 398.209 358.774 399.547L357.463 400.464C352.506 397.842 347.261 395.56 342.907 391.967C333.177 380.375 328.588 365.478 326.437 350.765Z"></path>
<path fill="#CED2E2" d="M535.724 333.482C539.055 327.136 545.087 322.756 551.801 320.579C560.246 319.346 568.77 319.189 577.293 318.612C578.867 319.976 582.066 322.729 583.666 324.119C576.27 324.041 567.93 323.254 561.925 328.421C552.037 335.948 551.827 350.503 555.866 361.204C558.699 368.232 567.039 369.308 573.569 370.304C573.045 371.353 571.943 373.451 571.419 374.474C565.15 371.878 558.83 368.232 551.801 369.308C549.729 367.655 547.552 366.082 545.507 364.482C544.93 370.068 544.746 375.707 545.822 381.241C543.356 376.861 541.966 368.914 535.2 372.324C530.925 359.945 528.827 345.337 535.724 333.482Z"></path>
<path fill="#4A3638" d="M402.913 324.329C411.646 321.942 420.38 327.083 425.992 333.456C431.5 339.645 430.425 348.536 429.664 356.115C428.772 363.485 423.842 371.904 415.633 372.192C405.483 372.953 392.894 372.271 386.102 363.616C377.264 349.034 387.78 329.496 402.913 324.329ZM388.2 363.511C392.423 368.153 398.9 369.045 404.88 368.468C404.801 358.502 399.897 346.805 405.746 337.888C411.568 331.725 413.482 341.848 416.42 345.31C418.413 345.756 422.452 346.621 424.471 347.067C423.789 339.016 419.803 330.938 412.617 326.847C393.996 322.021 376.582 348.143 388.2 363.511Z"></path>
<path fill="#351C33" d="M561.924 328.421C567.93 323.254 576.27 324.041 583.666 324.12C592.74 329.339 601.657 337.836 600.818 349.271C601.919 358.739 595.835 370.829 584.82 369.124C592.163 367.944 598.457 362.463 599.034 354.805C602.837 337.521 581.515 317.694 565.36 328.578C558.2 332.381 556.338 340.721 555.735 348.117C557.833 347.461 562.055 346.15 564.18 345.52C567.956 341.508 569.32 330.571 576.821 334.768C585.869 344.052 578.788 358.135 576.008 368.731L579.679 369.36C580.545 369.859 582.302 370.881 583.168 371.38C579.942 371.039 576.742 370.645 573.569 370.304C567.038 369.308 558.698 368.233 555.866 361.204C551.827 350.503 552.037 335.948 561.924 328.421Z"></path>
<path fill="#FFFDFF" d="M565.36 328.578C581.515 317.694 602.837 337.521 599.035 354.804C598.458 362.462 592.163 367.944 584.82 369.124C583.535 369.176 580.965 369.307 579.679 369.36L576.008 368.73C578.788 358.135 585.869 344.051 576.821 334.767C569.32 330.571 567.956 341.507 564.18 345.52C562.055 346.149 557.833 347.461 555.735 348.116C556.338 340.721 558.2 332.381 565.36 328.578Z"></path>
<path fill="#FFFDFB" d="M388.201 363.511C376.582 348.143 393.997 322.021 412.618 326.847C419.804 330.938 423.79 339.016 424.472 347.067C422.452 346.621 418.413 345.756 416.42 345.31C413.483 341.848 411.568 331.725 405.746 337.888C399.898 346.805 404.802 358.502 404.881 368.468C398.901 369.045 392.423 368.153 388.201 363.511Z"></path>
<path fill="#4E3A42" d="M665.702 356.168C666.541 350.739 666.305 342.74 672.705 340.852C677.006 346.858 680.677 353.86 681.307 361.309C681.412 371.012 682.199 381.739 674.488 389.109C672.495 390 670.449 390.839 668.403 391.548C668.561 379.693 667.118 367.918 665.702 356.168Z"></path>
<path fill="#756F70" d="M311.383 356.194C314.32 366.265 317.703 376.861 314.346 387.299C312.406 385.516 310.517 383.732 308.629 381.923C307.501 384.073 306.4 386.224 305.298 388.374C303.725 387.955 300.577 387.142 299.004 386.722C301.889 376.074 306.19 365.898 311.383 356.194Z"></path>
<path fill="#B8A3A8" d="M665.702 356.168C667.118 367.917 668.561 379.693 668.403 391.547C662.791 392.02 657.283 393.305 651.933 394.957C649.547 395.586 647.186 396.242 644.852 396.898L646.452 394.537C655.5 383.181 659.854 369.229 665.702 356.168Z"></path>
<path fill="#614953" d="M674.488 389.108C682.199 381.739 681.412 371.012 681.307 361.308C684.428 369.543 686.526 378.146 688.598 386.722C683.904 387.613 679.183 388.374 674.488 389.108Z"></path>
<path fill="#F9FFFE" d="M545.506 364.482C547.552 366.082 549.729 367.655 551.801 369.308C558.593 376.1 570.028 382.867 565.36 394.092C556.652 393.908 547.945 390.604 545.821 381.241C544.746 375.707 544.929 370.068 545.506 364.482Z"></path>
<path fill="#180C10" d="M724.974 373.058C735.701 371.93 746.532 371.589 757.338 372.297C757.547 373.451 757.967 375.785 758.177 376.939C749.05 375.916 739.792 375.864 730.718 377.306C728.777 375.89 726.862 374.474 724.974 373.058Z"></path>
<path fill="#FFFCFE" d="M291.583 389.449C295.989 391.075 300.395 392.623 304.906 393.96C303.306 393.672 300.159 393.121 298.559 392.859C297.248 400.045 297.667 407.388 298.48 414.627L298.664 416.489C296.199 416.436 293.733 416.384 291.294 416.331C291.085 407.362 291.006 398.392 291.583 389.449Z"></path>
<path fill="#7C6671" d="M298.558 392.859C300.158 393.121 303.305 393.672 304.905 393.96C309.442 394.773 313.901 395.953 318.359 397.212L317.546 398.13C316.786 398.996 315.291 400.753 314.53 401.618C317.336 402.064 320.195 402.536 323.054 402.982C316.838 403.376 312.039 406.313 309.888 412.24C314.609 413.106 319.356 413.997 324.155 414.627C315.579 415.151 307.029 415.099 298.48 414.627C297.667 407.388 297.247 400.045 298.558 392.859Z"></path>
<path fill="#6C6066" d="M635.568 404.399C638.663 400.543 642.099 396.95 646.452 394.537L644.853 396.898C647.187 396.242 649.547 395.586 651.934 394.957L654.006 397.501C665.991 396.688 677.845 394.459 689.91 394.432C690.434 402.327 690.644 410.221 690.539 418.115C682.855 417.879 675.197 417.223 667.617 416.148C667.748 410.903 667.879 405.657 668.089 400.386L668.168 397.108C657.179 398.891 646.216 401.094 635.568 404.399Z"></path>
<path fill="#261114" d="M469.896 398.786C481.016 393.567 494.47 395.351 506.114 398.052C507.137 406.812 499.138 411.323 492.582 414.68C490.221 421.839 489.067 431.438 495.624 436.788C507.688 446.676 528.617 446.309 538.583 433.536C542.333 428.763 542.674 422.521 542.674 416.725C549.283 421.551 545.375 430.887 541.494 436.238C529.666 452.996 503.282 451.003 489.198 438.178C475.849 450.741 453.242 452.682 438.791 440.932C434.175 436.395 430.609 428.422 434.543 422.39C437.034 428.291 438.188 435.503 444.037 439.254C455.314 446.99 471.837 445.994 482.38 437.47C488.543 432.723 487.205 424.646 487.258 417.827C480.911 412.634 468.873 408.228 469.896 398.786Z"></path>
<path fill="#8F7C83" d="M314.531 401.618C315.291 400.753 316.786 398.996 317.547 398.13C334.253 401.251 349.753 409.093 366.721 411.243C371.39 425.773 359.719 438.466 355.313 451.632C347.182 455.068 339.288 459.212 330.686 461.441C326.254 462.385 321.795 463.145 317.363 463.932L315.921 464.168L315.947 462.096C315.999 460.077 316.052 456.064 316.104 454.045C318.937 452.865 321.769 451.737 324.602 450.452C333.387 444.472 343.904 443.345 353.477 439.148C344.691 439.122 336.036 441.089 327.277 440.905C324.234 440.066 321.245 439.174 318.281 438.257C319.356 437.26 321.507 435.267 322.582 434.27C321.926 432.146 321.323 430.048 320.72 427.976C318.989 429.733 317.284 431.49 315.58 433.247C311.777 428.999 308.026 424.724 303.856 420.868C319.409 418.823 335.092 420.921 350.697 419.714C343.668 412.791 332.889 416.331 324.156 414.627C319.356 413.997 314.609 413.105 309.888 412.24C312.039 406.313 316.839 403.375 323.054 402.982C320.196 402.536 317.337 402.064 314.531 401.618Z"></path>
<path fill="#E8B3BE" d="M635.568 404.399C646.216 401.094 657.179 398.891 668.168 397.108L668.089 400.386C657.441 401.225 647.16 404.163 637.692 409.041C647.003 411.191 656.418 412.975 665.623 415.597C653.69 416.279 641.784 414.863 629.877 415.729C635.594 421.262 645.219 418.089 652.379 420.449C645.823 422.6 639.633 425.59 633.522 428.684C636.774 430.887 640.026 433.117 643.305 435.372C642.203 435.897 640 436.972 638.872 437.523C633.339 437.68 628.172 435.425 622.953 433.982C634.362 439.254 645.193 445.784 656.969 450.295C657.834 452.026 659.539 455.462 660.378 457.193C658.359 459.055 656.339 460.917 654.372 462.805C653.874 460.313 653.428 457.848 653.035 455.383C650.543 463.12 641.023 460.995 634.807 460.156C609.787 451.397 581.305 446.99 561.977 427.189C563.393 426.665 566.225 425.616 567.642 425.091C564.206 421.525 560.823 417.984 557.439 414.443C557.807 413.289 558.593 410.955 558.987 409.801C584.4 414.784 611.072 412.713 635.568 404.399Z"></path>
<path fill="#BBADAF" d="M637.693 409.04C647.161 404.162 657.441 401.225 668.089 400.386C667.879 405.657 667.748 410.903 667.617 416.148L665.624 415.597C656.418 412.974 647.003 411.191 637.693 409.04Z"></path>
<path fill="#EACDD3" d="M404.33 412.424C410.808 411.427 417.312 410.378 423.764 409.119C415.686 423.727 401.078 433.09 385.683 438.571C394.076 430.756 402.993 423.544 410.939 415.256C409.287 414.548 405.982 413.132 404.33 412.424Z"></path>
<path fill="#E3A3B3" d="M366.722 411.244C379.232 412.686 391.82 411.506 404.33 412.424C405.982 413.132 409.287 414.548 410.939 415.256C402.993 423.544 394.076 430.756 385.683 438.571C375.901 443.686 365.594 447.672 355.313 451.632C359.719 438.467 371.39 425.773 366.722 411.244Z"></path>
<path fill="#77676F" d="M299.686 419.977C300.735 420.187 302.807 420.659 303.856 420.869C308.026 424.724 311.776 428.999 315.579 433.247C317.284 431.49 318.989 429.733 320.72 427.976C321.323 430.048 321.926 432.146 322.582 434.27C321.506 435.267 319.356 437.26 318.28 438.257C321.244 439.175 324.234 440.066 327.276 440.906C322.005 443.974 316.235 445.915 310.439 447.593C305.351 439.043 301.286 429.838 299.686 419.977Z"></path>
<path fill="#C9ABB1" d="M652.38 420.449C657.205 420.501 662.031 421.131 666.857 421.55C666.07 424.776 665.204 427.95 664.339 431.149C660.51 434.716 652.065 434.323 652.196 440.827C656.025 441.692 659.933 442.479 663.867 443.135C668.116 444.158 672.338 445.39 676.56 446.597C675.826 447.724 674.357 449.98 673.623 451.108C661.769 446.728 650.439 440.932 638.086 437.916L638.873 437.522C640.001 436.971 642.204 435.896 643.305 435.372C640.027 433.116 636.775 430.887 633.523 428.684C639.634 425.589 645.823 422.599 652.38 420.449Z"></path>
<path fill="#826777" d="M666.857 421.551C673.938 422.206 680.992 422.993 688.047 423.832C685.897 432.198 682.042 439.935 676.56 446.597C672.338 445.39 668.115 444.158 663.867 443.135C667.25 442.532 670.686 441.902 674.121 441.247C672.364 436.867 670.633 432.487 668.955 428.133C667.801 428.868 665.493 430.389 664.339 431.149C665.204 427.95 666.07 424.776 666.857 421.551Z"></path>
<path fill="#6F5A61" d="M664.339 431.149C665.493 430.389 667.801 428.868 668.955 428.133C670.634 432.487 672.364 436.867 674.122 441.247C670.686 441.902 667.25 442.532 663.867 443.135C659.933 442.479 656.025 441.692 652.196 440.827C652.065 434.323 660.51 434.716 664.339 431.149Z"></path>
<path fill="#E6DCE1" d="M609.998 599.628C611.152 605.319 612.568 611.037 612.621 616.911C612.28 651.268 606.641 686.123 591.587 717.201C584.742 730.944 573.255 741.723 566.803 755.623L566.043 757.223C522.507 779.069 469.005 787.777 423.24 767.556C414.559 763.989 406.035 760.055 397.879 755.413C396.856 752.056 395.859 748.673 394.548 745.447C409.392 748.568 424.079 752.738 439.133 754.915C467.982 757.59 497.513 754.522 524.92 745.054C543.042 738.864 559.171 726.564 568.744 709.858C583.745 687.146 587.758 659.713 591.587 633.355C602.104 625.015 606.588 612.112 609.998 599.628Z"></path>
<path fill="#D5C8CF" d="M310.309 454.255C315.501 451.344 321.009 448.905 326.91 447.803L324.602 450.452C321.77 451.737 318.937 452.865 316.105 454.045C316.052 456.065 316 460.077 315.947 462.097C314.059 459.526 311.148 457.428 310.309 454.255Z"></path>
<path fill="#D5C8CF" d="M350.303 743.06C355.758 750.168 361.187 757.459 368.845 762.363C365.436 762.101 362.079 761.917 358.722 761.786C358.433 765.405 358.25 769.051 358.119 772.696C355.522 762.835 352.847 752.948 350.303 743.06Z"></path>
<path fill="#DDDEDF" d="M656.969 450.295C661.296 452.157 665.623 454.019 669.977 455.907C658.044 471.276 641.154 481.845 623.661 489.739C605.539 497.791 586.761 504.531 567.274 508.255C552.115 511.35 536.825 513.631 521.85 517.513C519.621 514.235 517.444 510.983 515.293 507.73C516.159 506.655 517.916 504.531 518.782 503.482C532.813 502.826 546.372 498.813 559.8 494.958C586.105 486.802 612.462 476.547 634.807 460.156C641.023 460.995 650.543 463.119 653.035 455.382C653.428 457.848 653.874 460.313 654.372 462.805C656.339 460.916 658.359 459.054 660.378 457.192C659.539 455.461 657.834 452.026 656.969 450.295Z"></path>
<path fill="#E9E0E1" d="M317.363 463.932C321.795 463.146 326.253 462.385 330.686 461.441C341.989 469.86 352.847 478.908 364.57 486.802C373.907 493.254 385.473 496.453 393.052 505.344C365.016 498.263 337.557 484.992 317.363 463.932Z"></path>
<path fill="#705F67" d="M271.519 499.155C278.731 485.91 288.12 473.741 299.398 463.697C303.987 473.086 309.679 482.16 317.94 488.743C335.302 504.479 359.981 505.344 381.827 509.75C387.125 510.563 392.239 512.242 397.222 514.182C395.832 514.209 393.052 514.235 391.662 514.261C393.603 516.385 395.544 518.51 397.511 520.634L393.787 520.66C391.636 520.083 387.335 518.903 385.184 518.326C394.652 538.153 407.87 555.909 417.574 575.605C425.337 591.498 425.94 611.587 415.869 626.668C413.562 627.192 408.919 628.241 406.585 628.766C406.244 626.746 405.93 624.727 405.641 622.734C404.513 622.865 402.31 623.127 401.183 623.258C400.684 626.772 400.186 630.287 399.662 633.801C393.761 629.264 392.266 621.632 389.25 615.233C386.207 616.203 383.191 617.174 380.175 618.144C377.684 616.859 375.218 615.6 372.753 614.341C365.016 598.736 369.658 578.857 357.857 564.721C353.424 557.823 348.284 551.004 340.731 547.333C326.175 539.701 310.99 533.328 296.224 526.142C290.953 523.624 283.846 520.241 279.859 526.692C279.44 527.06 278.6 527.82 278.181 528.187L277.892 526.509C276.292 517.487 273.617 508.754 271.676 499.837L271.519 499.155Z"></path>
<path fill="#543C46" d="M299.398 463.697C308.892 469.44 315.658 478.514 324.811 484.704C333.387 490.552 342.803 495.063 352.454 498.866C362.158 502.774 373.225 503.325 381.828 509.75C359.981 505.344 335.302 504.479 317.94 488.743C309.679 482.16 303.988 473.086 299.398 463.697Z"></path>
<path fill="#50353C" d="M665.178 477.806C669.165 473.426 673.072 468.942 677.557 465.034C686.605 471.328 690.985 482.842 697.096 491.89C690.12 493.962 682.986 495.483 676.141 497.922C666.595 502.092 658.832 509.75 648.551 512.346C655.947 501.358 667.093 492.205 669.873 478.672C668.693 478.462 666.359 478.016 665.178 477.806Z"></path>
<path fill="#5A454C" d="M650.229 488.69C655.107 484.94 659.907 481.058 665.178 477.806C666.358 478.016 668.693 478.462 669.873 478.672C667.093 492.205 655.947 501.358 648.551 512.347C646.584 514.891 644.643 517.461 642.755 520.031L641.837 519.27C639.791 517.566 637.746 515.861 635.726 514.182C640.788 506.262 647.03 498.814 649.862 489.687L650.229 488.69Z"></path>
<path fill="#6B5961" d="M584.715 513.448C607.768 509.829 629.72 501.358 649.862 489.687C647.029 498.814 640.788 506.262 635.726 514.183C627.91 525.775 617.97 535.95 611.833 548.644C603.966 564.485 596.596 580.929 593.764 598.527C592.111 607.994 590.511 617.829 585.214 626.091L584.086 628.084C581.647 625.094 579.208 622.131 576.69 619.219C577.608 623.914 578.473 628.635 579.208 633.408C572.651 633.355 571.025 627.061 568.508 622.393C567.275 625.278 565.99 628.136 564.81 631.048C559.59 627.769 554.45 623.783 548.077 623.442C539.396 611.561 541.547 595.616 545.559 582.424C552.85 559.213 570.422 541.563 581.752 520.529C582.565 518.667 583.352 516.779 584.138 514.891L584.715 513.448Z"></path>
<path fill="#E5DADF" d="M271.676 499.836C273.617 508.753 276.292 517.487 277.892 526.509C269.972 519.952 267.506 509.199 271.676 499.836Z"></path>
<path fill="#9C6276" d="M719.545 514.995C720.988 511.087 722.719 507.285 724.712 503.613C726.521 508.019 728.252 512.477 729.983 516.962C734.599 517.382 739.215 518.011 743.752 519.139C740.448 521.342 737.196 523.519 733.917 525.696C733.13 530.049 731.662 534.219 729.642 538.153C727.492 536.029 725.341 533.878 723.243 531.754C719.362 532.541 715.48 533.301 711.625 534.062C713.565 530.521 715.533 526.954 717.395 523.335C713.906 520.686 710.55 517.906 707.324 515.021C711.389 514.995 715.454 514.995 719.545 514.995Z"></path>
<path fill="#F3DB8C" d="M449.57 512.294C456.179 506.472 465.857 509.042 473.174 512.058C468.689 514.13 463.864 515.284 459.064 516.228C457.648 519.375 456.284 522.549 454.92 525.722C457.491 527.322 460.035 529 462.788 530.364C467.299 530.181 471.05 527.06 474.984 525.171C470.971 533.8 464.834 543.504 454.396 544.579C451.091 543.687 448.574 541.117 447.787 537.839C445.767 529.472 445.794 520.188 449.57 512.294Z"></path>
<path fill="#DF9E65" d="M482.249 519.926C486.078 514.891 490.798 510.563 496.83 508.334C499.374 516.91 500.922 525.775 501.656 534.692C498.666 534.193 495.676 533.721 492.713 533.223L491.795 533.066C488.7 528.633 485.501 524.253 482.249 519.926Z"></path>
<path fill="#FBEB9B" d="M496.83 508.334C504.278 508.282 513.405 510.301 515.608 518.615C517.208 527.584 517.785 541.196 507.189 544.815C501.026 542.9 496.961 537.681 492.712 533.223C495.676 533.721 498.666 534.193 501.656 534.692C500.921 525.775 499.374 516.91 496.83 508.334Z"></path>
<path fill="#F0C372" d="M473.173 512.058C476.085 515.756 479.94 521.29 474.983 525.171C471.049 527.06 467.299 530.181 462.788 530.364C460.034 529 457.49 527.322 454.92 525.722C456.284 522.549 457.647 519.375 459.064 516.228C463.863 515.284 468.689 514.13 473.173 512.058Z"></path>
<path fill="#9F888E" d="M391.663 514.261C393.053 514.235 395.833 514.208 397.223 514.182C405.773 515.336 414.191 517.172 422.767 518.247L422.689 520.922C420.879 520.949 417.26 521.027 415.45 521.053C422.846 521.971 430.32 522.417 437.664 523.781C438.005 524.751 438.66 526.718 439.001 527.689C437.874 528.108 435.618 529 434.49 529.42C420.617 528.187 406.874 525.459 393.787 520.66L397.511 520.634C395.544 518.509 393.603 516.385 391.663 514.261Z"></path>
<path fill="#807472" d="M520.775 522.312C541.966 520.372 562.869 516.044 584.138 514.89C583.351 516.779 582.565 518.667 581.752 520.529C564.783 521.814 548.837 529.289 531.659 529.525C529.456 529.656 525.076 529.892 522.873 530.023C522.034 533.642 521.326 537.314 520.382 540.907C520.618 534.691 520.723 528.502 520.775 522.312Z"></path>
<path fill="#573943" d="M635.726 514.182C637.745 515.861 639.79 517.565 641.836 519.27C633.994 530.469 624.396 540.566 618.6 553.102C610.601 570.044 602.916 587.485 600.11 606.158C598.93 613.161 595.966 619.691 592.767 625.985C590.249 626.012 587.705 626.038 585.213 626.09C590.511 617.829 592.111 607.994 593.763 598.526C596.596 580.928 603.965 564.484 611.833 548.644C617.97 535.95 627.91 525.774 635.726 514.182Z"></path>
<path fill="#5B444C" d="M279.859 526.692C283.845 520.24 290.953 523.624 296.224 526.141C310.99 533.327 326.175 539.7 340.73 547.332C348.284 551.004 353.424 557.823 357.856 564.72C355.417 563.724 353.031 562.675 350.67 561.626C327.591 548.906 303.41 538.415 279.859 526.692Z"></path>
<path fill="#DDD0D3" d="M481.095 528.528C486.943 534.639 492.005 541.746 499.243 546.362C506.088 551.004 517.103 549.037 520.382 540.907C521.326 537.314 522.034 533.642 522.873 530.023C525.076 529.892 529.456 529.656 531.659 529.525C534.99 539.465 530.977 550.401 521.247 554.86C508.816 562.518 494.759 555.41 482.826 550.453C469.45 553.627 455.786 556.066 441.965 555.41C443.276 552.263 444.64 549.142 446.004 546.047C460.743 553.758 474.302 540.54 481.095 528.528Z"></path>
<path fill="#8C6269" d="M222.24 540.409C228.954 542.507 226.987 550.06 227.826 555.568C234.304 556.197 241.123 556.407 246.971 559.659C244.559 565.927 235.537 565.481 230.737 569.599C230.318 574.608 233.885 580.535 231.105 584.994C227.354 581.637 224.259 577.65 221.165 573.743C215.788 576.103 210.412 578.49 204.904 580.509C205.901 574.844 209.546 570.333 212.798 565.822C208.287 561.495 203.541 557.377 200 552.211C205.717 552.421 211.408 553.024 217.1 553.889C218.831 549.405 220.561 544.894 222.24 540.409Z"></path>
<path fill="#391A21" d="M350.67 561.626C353.031 562.675 355.417 563.724 357.856 564.721C369.658 578.857 365.016 598.736 372.753 614.341C376.267 620.688 380.254 627.113 386.732 630.838C385.945 625.959 383.821 621.501 380.175 618.144C383.191 617.174 386.207 616.203 389.249 615.233C392.265 621.632 393.76 629.264 399.661 633.801C400.186 630.287 400.684 626.772 401.182 623.258C402.31 623.127 404.513 622.865 405.641 622.734C405.929 624.727 406.244 626.746 406.585 628.766C408.919 628.241 413.561 627.192 415.869 626.668C411.385 631.31 406.402 636.161 399.845 637.473C386.207 641.328 371.048 633.355 365.042 620.819C358.197 606.394 354.473 590.737 347.917 576.182C348.834 571.33 349.752 566.478 350.67 561.626Z"></path>
<path fill="#D5C9D3" d="M619.78 569.939C626.389 590.317 633.837 610.931 634.178 632.594C634.388 665.482 627.91 699.367 609.682 727.246C602.47 739.677 592.504 750.063 582.827 760.527C583.64 761.681 585.266 764.015 586.079 765.169C586.472 766.034 587.259 767.765 587.679 768.631C584.899 770.336 582.145 772.067 579.391 773.771C579.391 768.71 579.575 763.674 579.889 758.612C575.3 757.904 570.579 757.091 566.068 758.612L566.802 755.623C573.254 741.723 584.741 730.944 591.586 717.201C606.64 686.123 612.279 651.268 612.62 616.911C612.567 611.036 611.151 605.319 609.997 599.628C610.102 589.085 615.636 579.433 619.78 569.939Z"></path>
<path fill="#665157" d="M712.097 576.575C720.621 571.854 730.875 570.543 740.474 571.776C746.952 573.297 749.182 580.116 751.909 585.335C739.216 592.967 724.843 598.658 714.851 609.988C704.938 621.396 700.794 636.634 701.187 651.53C700.348 653.838 699.509 656.12 698.696 658.428C690.041 658.27 679.76 657.3 676.849 647.57C685.006 641.617 681.307 630.707 682.776 622.157C683.93 602.802 699.299 589.295 712.097 576.575Z"></path>
<path fill="#E8DBE1" d="M678.318 616.833C682.566 598.999 695.784 584.469 712.097 576.575C699.299 589.295 683.93 602.802 682.776 622.157C681.307 630.707 685.005 641.617 676.849 647.57C675.275 648.409 673.675 649.222 672.076 649.983C679.944 640.463 674.908 627.743 678.318 616.833Z"></path>
<path fill="#502F38" d="M714.851 609.987C724.843 598.658 739.215 592.966 751.909 585.334C753.378 588.377 754.846 591.419 756.394 594.435C746.48 602.355 733.314 604.768 723.978 613.502C712.596 623.494 707.744 638.364 701.187 651.53C700.794 636.633 704.938 621.396 714.851 609.987Z"></path>
<path fill="#E0D9DD" d="M343.327 648.436C343.222 636.476 346.763 624.937 351.484 614.079C354.316 627.166 350.776 640.332 351.484 653.497C351.589 665.299 354.578 676.734 356.781 688.247C355.418 696.299 354.211 704.377 353.634 712.507C350.277 708.337 346.842 703.931 346.029 698.476C342.514 682.058 343.275 665.116 343.327 648.436Z"></path>
<path fill="#DDD2D4" d="M372.753 614.341C375.219 615.6 377.684 616.859 380.176 618.144C383.821 621.501 385.945 625.96 386.732 630.838C380.254 627.113 376.268 620.688 372.753 614.341Z"></path>
<path fill="#A1B6C9" d="M288.357 632.778C289.537 628.897 290.822 624.963 293.445 621.763C294.966 625.959 296.408 630.182 297.824 634.43C301.837 634.378 305.902 634.352 309.941 634.325C309.653 639.544 305.824 642.613 301.916 645.341C301.916 649.091 301.968 652.841 302.073 656.592C298.821 654.1 295.7 651.399 292.186 649.379C288.96 649.668 285.288 654.1 282.508 651.137C283.243 648.225 284.134 645.341 285.157 642.508C281.931 640.357 278.6 638.312 275.296 636.371C278.548 632.542 283.898 633.512 288.357 632.778Z"></path>
<path fill="#4D313D" d="M646.4 656.33C649.416 652.317 654.687 650.848 658.884 648.278L659.775 648.409C663.84 649.065 667.932 649.668 672.076 649.983C673.675 649.222 675.275 648.409 676.849 647.57C679.76 657.3 690.041 658.27 698.695 658.428C694.552 667.764 693.345 680.458 682.75 684.943C669.873 690.608 656.025 694.909 641.836 694.961C642.781 682.032 644.302 669.128 646.4 656.33ZM657.494 664.198C659.094 671.279 665.073 677.468 672.757 677.022C670.056 672.459 666.699 668.394 663.657 664.093C663.001 660.211 665.099 656.618 665.912 652.92C662.713 656.356 658.857 659.556 657.494 664.198Z"></path>
<path fill="#71616A" d="M657.493 664.198C658.857 659.555 662.712 656.356 665.912 652.92C665.099 656.618 663.001 660.211 663.656 664.093C666.699 668.394 670.056 672.459 672.757 677.022C665.073 677.468 659.093 671.279 657.493 664.198Z"></path>
<path fill="#765F6A" d="M353.634 712.507C354.211 704.376 355.417 696.299 356.781 688.247C361.79 711.117 376.057 731.337 394.547 745.447C395.858 748.673 396.855 752.056 397.878 755.413C391.505 759.452 385.368 764.54 383.715 772.303C383.112 770.808 381.906 767.792 381.303 766.297C373.959 752.24 360.531 742.195 353.293 727.901C353.188 722.761 353.345 717.621 353.634 712.507Z"></path>
<path fill="#A19E75" d="M280.174 694.961C292.238 712.821 292.815 735.271 296.198 755.911C295.071 746.942 297.588 737.684 304.302 731.416C307.135 728.793 312.59 729.501 313.639 733.54C317.232 745.735 319.487 758.298 320.641 770.965C293.025 771.018 265.408 774.139 237.792 772.696C240.257 764.409 246.604 758.455 254.944 756.278C246.814 750.273 238.028 745.237 229.609 739.651C241.752 728.4 260.793 737.92 268.372 750.168C261.947 734.668 254.682 719.116 241.647 708.022C259.271 710.408 269.316 727.797 275.506 742.798C273.827 726.8 274.666 710.199 280.174 694.961Z"></path>
<path fill="#A29E78" d="M688.939 703.406C691.798 704.377 694.604 705.95 694.945 709.333C698.249 720.008 698.249 731.337 697.908 742.405C700.662 732.098 702.026 721.476 705.462 711.353C711.258 721.529 709.71 733.96 707.245 744.923C713.434 730.498 725.368 718.303 740.736 713.976C733.157 727.876 723.558 740.674 717.211 755.335C722.509 748.83 728.646 741.618 737.615 740.884C743.778 740.595 751.856 739.625 755.974 745.447C749.863 751.427 742.021 755.099 734.993 759.846C739.871 765.117 745.772 770.179 746.926 777.732C717.132 778.44 687.444 775.503 657.651 775.581C659.618 763.202 659.88 750.456 663.709 738.445C675.354 739.835 679.393 751.558 681.937 761.288C680.94 741.802 681.255 721.686 688.939 703.406Z"></path>
<path fill="#5D4E5D" d="M586.079 765.169C596.727 760.711 604.097 751.637 613.381 745.185C611.991 751.348 611.021 757.642 610.811 763.989C610.26 777.338 606.116 790.189 602.917 803.067C596.255 803.303 594.917 795.959 591.849 791.553C590.328 783.921 589.226 776.237 587.679 768.631C587.259 767.766 586.472 766.035 586.079 765.169Z"></path>
<path fill="#FBFCFB" d="M397.878 755.413C406.034 760.055 414.558 763.989 423.239 767.556C427.566 769.733 431.474 772.618 435.46 775.398C423.37 784.472 422.164 801.939 409.89 810.803C401.34 813.741 391.295 816.127 383.689 809.754L383.165 810.803C378.68 816.914 377.631 824.362 377.71 831.758C370.366 825.779 373.487 816.363 373.776 808.312L373.802 808.154C376.215 799.841 378.497 791.474 380.464 783.03C381.434 779.41 382.509 775.843 383.716 772.303C385.368 764.54 391.505 759.452 397.878 755.413Z"></path>
<path fill="#E1D6D7" d="M566.068 758.613C570.579 757.091 575.299 757.904 579.889 758.613C579.574 763.674 579.391 768.71 579.391 773.771C566.146 780.616 552.587 789.534 537.114 788.957C536.143 785.521 535.147 782.111 534.203 778.702C544.824 772.014 556.836 767.398 566.068 758.613Z"></path>
<path fill="#82707E" d="M368.846 762.363C373.121 763.097 377.186 764.881 381.303 766.297C381.907 767.792 383.113 770.808 383.716 772.303C382.51 775.843 381.434 779.41 380.464 783.029C379.704 782.269 378.182 780.774 377.422 780.013C376.11 783.344 374.825 786.701 373.567 790.084C371.967 790.714 370.419 791.343 368.872 791.999C367.849 794.202 366.879 796.431 365.908 798.66C363.496 789.953 359.116 781.718 358.119 772.696C358.25 769.051 358.434 765.405 358.722 761.786C362.079 761.917 365.436 762.101 368.846 762.363Z"></path>
<path fill="#F7F7F7" d="M579.392 773.771C582.146 772.067 584.899 770.336 587.679 768.631C589.227 776.237 590.328 783.921 591.849 791.553C593.082 801.65 595.154 811.564 597.619 821.425C599.271 825.595 594.996 828.191 592.977 831.05C591.141 824.52 591.456 816.757 586.42 811.642C582.277 813.164 578.08 814.554 573.884 815.839C572.783 817.779 571.681 819.746 570.632 821.713C569.504 819.956 567.275 816.416 566.147 814.659C558.148 809.177 549.52 804.797 540.944 800.339C539.685 796.51 538.4 792.707 537.115 788.957C552.588 789.534 566.147 780.617 579.392 773.771Z"></path>
<path fill="#D8C8CD" d="M409.89 810.803C422.164 801.939 423.37 784.472 435.46 775.397C432.733 792.576 426.675 809.02 421.587 825.595C419.069 833.41 409.837 833.804 403.045 834.486C402.599 827.483 402.231 820.454 401.392 813.504C397.721 820.14 398.691 827.877 398.901 835.141C393.078 834.643 387.309 833.856 381.696 832.309C381.617 825.123 381.67 817.884 383.165 810.803L383.689 809.754C391.295 816.127 401.34 813.741 409.89 810.803Z"></path>
<path fill="#76616C" d="M377.421 780.013C378.182 780.774 379.703 782.269 380.464 783.029C378.497 791.474 376.215 799.841 373.802 808.154C369.475 806.423 368.033 802.227 365.908 798.66C366.879 796.431 367.849 794.202 368.872 791.999C370.419 791.343 371.966 790.714 373.566 790.084C374.825 786.701 376.11 783.344 377.421 780.013Z"></path>
<path fill="#F9FBFA" d="M444.299 783.475C470.132 793.179 498.116 789.586 524.526 784.629C526.414 791.081 528.355 797.506 530.348 803.958C506.954 807.315 483.298 804.666 459.799 806.161C452.98 806.686 446.135 806.266 439.578 804.22C441.204 797.323 442.804 790.399 444.299 783.475Z"></path>
<path fill="#CEC5C8" d="M540.943 800.339C549.519 804.797 558.147 809.177 566.146 814.658C566.566 821.031 567.012 827.431 567.091 833.83C561.032 832.466 552.797 832.886 549.44 826.539C545.506 818.199 543.461 809.151 540.943 800.339Z"></path>
<path fill="#DBD0D4" d="M419.567 841.147C434.123 835.089 436.3 817.701 439.578 804.22C446.135 806.266 452.98 806.686 459.799 806.161C483.298 804.666 506.954 807.315 530.348 803.958C533.626 814.029 535.803 824.861 542.045 833.646C549.755 841.934 562.056 843.35 572.782 843.403C584.138 843.219 597.068 841.908 605.408 833.279C611.309 825.175 613.407 815.104 616.449 805.742C645.272 809.544 674.593 810.331 702.997 817.176C712.831 819.615 723.427 821.32 731.715 827.614C736.96 836.348 726.391 842.039 719.414 844.111C688.624 852.425 656.681 855.126 625.052 858.457C582.329 861.945 539.448 864.462 496.594 863.099C468.663 862.784 440.732 863.099 412.827 862.128C375.795 859.191 338.685 856.595 301.889 851.218C285.498 848.491 268.556 846.497 253.58 838.866C248.335 836.059 248.388 827.955 253.659 825.123C266.799 817.255 282.508 815.629 297.326 813.006C317.206 810.436 337.321 807.184 357.385 808.417C362.84 818.75 360.243 834.905 373.225 839.836C387.86 845.239 404.671 845.842 419.567 841.147Z"></path>
<path fill="#E1D3D9" d="M573.884 815.839C578.081 814.554 582.277 813.164 586.421 811.643C586.237 818.671 587.076 825.674 587.653 832.676C582.329 833.227 577.005 833.673 571.708 834.092C571.34 829.949 570.947 825.831 570.632 821.714C571.681 819.747 572.783 817.78 573.884 815.839Z"></path>
<path fill="#1F0A0F" d="M540.812 886.65C544.51 888.827 547.945 891.371 551.643 893.653C549.23 894.544 546.844 895.488 544.484 896.433C544.667 901.285 545.769 906.084 550.175 908.916C547.211 909.441 542.49 911.854 540.55 908.444C539.579 904.484 539.999 900.34 539.894 896.328C539.002 895.62 537.219 894.203 536.327 893.495C537.455 891.791 539.71 888.355 540.812 886.65Z"></path>
<path fill="#160908" d="M515.766 893.39C520.723 892.026 526.204 889.928 530.243 894.701C527.148 896.249 524.185 898.006 521.352 899.894C520.303 903.566 523.529 912.352 516.684 910.175C516.291 904.589 516.186 898.976 515.766 893.39Z"></path>
<path fill="#211614" d="M469.633 893.888C474.223 892.603 479.022 893.18 483.769 893.233C484.792 898.976 485.395 904.956 484.058 910.726C477.921 911.172 469.738 912.955 466.801 905.874C467.955 901.914 468.479 897.822 469.633 893.888ZM470.21 900.183C472.361 903.251 474.144 906.713 477.239 909.021C477.318 906.949 477.475 902.858 477.554 900.812C479.73 893.285 472.518 898.006 470.21 900.183Z"></path>
</svg>
