<?xml version="1.0" standalone="no"?><!DOCTYPE svg PUBLIC "-//W3C//DTD SVG 1.1//EN" "http://www.w3.org/Graphics/SVG/1.1/DTD/svg11.dtd"><svg height="1024" node-id="1" sillyvg="true" template-height="1024" template-width="1024" version="1.1" viewBox="0 0 1024 1024" width="1024" xmlns="http://www.w3.org/2000/svg" xmlns:xlink="http://www.w3.org/1999/xlink"><defs node-id="85"></defs><path d="M 0.00 0.00 L 1024.00 0.00 L 1024.00 1024.00 L 0.00 1024.00 Z" fill="#ffffff" fill-rule="nonzero" node-id="87" stroke="none" target-height="1024" target-width="1024" target-x="0" target-y="0"></path><path d="M 587.85 348.17 C 594.94 340.78 597.55 361.69 589.08 360.32 C 582.62 360.32 584.97 351.31 587.85 348.17 Z" fill="#f8f9fa" fill-rule="nonzero" node-id="89" stroke="none" target-height="20.914001" target-width="14.929993" target-x="582.624" target-y="340.78"></path><path d="M 498.15 206.00 C 510.44 209.52 509.47 225.62 519.76 231.69 C 520.47 223.10 519.91 214.56 518.83 206.06 C 519.85 206.32 521.93 206.82 522.96 207.08 C 521.52 213.39 520.50 219.78 520.47 226.33 C 523.72 223.33 526.98 220.40 530.21 217.41 C 534.40 213.62 538.10 208.26 544.35 208.29 C 539.95 217.44 535.31 226.85 526.86 233.04 C 528.39 229.55 531.38 222.54 532.91 219.02 C 527.65 221.96 523.40 226.09 520.21 231.43 L 526.57 230.61 C 526.60 231.28 526.66 232.60 526.69 233.28 C 511.02 235.80 501.64 218.90 498.15 206.00 Z" fill="#351a22" fill-rule="nonzero" node-id="91" stroke="none" target-height="29.802002" target-width="46.197968" target-x="498.147" target-y="205.998"></path><path d="M 457.08 232.69 C 454.82 219.14 469.43 213.16 480.61 214.80 C 491.66 214.62 497.03 225.59 502.49 233.39 C 508.76 242.63 521.03 243.54 531.17 242.46 C 524.75 248.62 514.66 246.59 507.36 243.16 C 495.83 239.17 495.33 223.07 483.48 219.49 C 476.56 217.79 467.85 217.38 462.39 222.75 C 460.40 225.92 458.84 229.35 457.08 232.69 Z" fill="#351a22" fill-rule="nonzero" node-id="93" stroke="none" target-height="35.462006" target-width="76.35199" target-x="454.823" target-y="213.156"></path><path d="M 551.91 218.23 C 563.29 212.86 580.75 215.88 584.21 229.88 C 577.84 224.63 571.74 217.44 562.59 218.20 C 550.01 221.49 549.51 237.88 538.18 243.02 C 538.18 233.22 545.14 224.68 551.91 218.23 Z" fill="#351a22" fill-rule="nonzero" node-id="95" stroke="none" target-height="30.154007" target-width="46.021973" target-x="538.185" target-y="212.862"></path><path d="M 554.35 239.38 C 555.61 235.04 558.92 231.90 562.12 228.94 C 564.20 229.64 568.34 231.02 570.42 231.72 C 569.51 239.82 560.92 240.88 554.35 239.38 Z M 563.00 234.13 C 564.61 235.80 564.61 235.80 563.00 234.13 L 563.00 234.13 Z" fill="#351a22" fill-rule="nonzero" node-id="97" stroke="none" target-height="11.939011" target-width="16.074036" target-x="554.347" target-y="228.936"></path><path d="M 501.52 250.38 C 506.60 253.46 511.05 257.39 516.01 260.67 C 526.13 263.20 532.93 253.40 541.50 250.00 C 538.39 256.89 532.73 262.38 526.22 266.10 C 515.16 269.24 505.83 259.53 501.52 250.38 Z" fill="#351a22" fill-rule="nonzero" node-id="99" stroke="none" target-height="19.242035" target-width="39.98001" target-x="501.52" target-y="249.99698"></path><path d="M 520.38 871.34 C 520.47 866.06 529.56 866.12 529.88 871.25 C 529.36 875.95 521.29 875.68 520.38 871.34 Z" fill="#351a22" fill-rule="nonzero" node-id="101" stroke="none" target-height="9.885071" target-width="9.502991" target-x="520.381" target-y="866.063"></path><path d="M 519.94 878.88 C 521.67 878.67 525.10 878.26 526.83 878.06 C 526.86 885.13 527.30 892.26 526.36 899.33 C 525.37 899.76 523.34 900.62 522.35 901.06 C 522.14 893.58 521.85 886.10 519.94 878.88 Z" fill="#351a22" fill-rule="nonzero" node-id="103" stroke="none" target-height="22.99701" target-width="7.3619995" target-x="519.941" target-y="878.059"></path><path d="M 778.15 529.24 C 788.71 525.60 788.51 513.08 794.17 505.16 C 797.86 513.52 800.45 523.32 808.72 528.54 C 814.79 533.38 824.29 533.20 828.63 540.12 C 821.21 542.79 813.12 544.55 806.84 549.63 C 801.12 554.29 799.36 561.86 796.31 568.25 C 790.77 562.27 788.71 553.70 782.52 548.34 C 775.45 543.82 766.98 542.62 759.41 539.27 C 762.72 533.05 772.46 533.08 778.15 529.24 Z M 793.17 518.27 C 791.26 528.62 782.35 534.32 773.46 538.25 C 782.52 541.62 791.82 546.22 794.67 556.37 C 800.18 547.28 808.69 540.24 819.54 538.98 C 808.28 535.78 798.74 528.62 793.17 518.27 Z" fill="#341922" fill-rule="nonzero" node-id="105" stroke="none" target-height="63.093018" target-width="69.224976" target-x="759.409" target-y="505.159"></path><path d="M 257.04 531.50 C 262.55 525.93 263.22 517.62 265.95 510.67 C 271.58 517.45 272.58 527.74 280.65 532.53 C 287.48 536.51 295.17 538.86 301.94 543.00 C 294.96 546.16 287.39 548.16 280.74 552.06 C 273.90 556.75 274.96 568.11 268.06 571.92 C 264.28 565.00 261.99 556.23 254.48 552.30 C 247.62 548.78 240.26 546.40 233.36 543.00 C 240.58 537.78 249.73 536.46 257.04 531.50 Z M 266.74 524.81 C 263.14 534.61 254.10 540.03 244.19 541.91 C 254.04 545.55 263.75 550.57 268.53 560.54 C 272.73 549.95 283.05 546.14 292.44 541.65 C 281.56 540.45 272.70 533.64 266.74 524.81 Z" fill="#341922" fill-rule="nonzero" node-id="107" stroke="none" target-height="61.246002" target-width="68.57901" target-x="233.36398" target-y="510.673"></path><path d="M 381.73 326.03 C 399.62 322.10 417.89 316.17 436.34 320.04 C 463.27 324.27 483.95 352.22 479.52 379.21 C 474.39 370.49 470.84 360.87 464.59 352.84 C 466.82 365.33 464.62 379.56 455.12 388.68 C 441.30 400.71 418.10 399.42 405.72 385.86 C 391.96 371.96 385.31 348.08 398.86 331.75 C 387.21 336.09 375.98 342.69 363.19 342.89 C 366.09 333.59 380.70 338.35 386.30 330.51 C 384.78 328.99 383.25 327.49 381.73 326.03 Z M 401.53 337.67 C 396.51 342.07 394.69 351.37 399.30 356.83 C 412.53 362.34 413.70 332.22 401.53 337.67 Z M 451.74 347.15 C 450.66 352.22 445.23 363.57 453.50 363.81 C 457.76 358.62 457.46 350.99 451.74 347.15 Z" fill="#3b1c2c" fill-rule="nonzero" node-id="109" stroke="none" target-height="84.53601" target-width="120.76102" target-x="363.189" target-y="316.171"></path><path d="M 451.74 347.15 C 457.46 350.99 457.76 358.62 453.50 363.81 C 445.23 363.57 450.66 352.22 451.74 347.15 Z" fill="#fcfcfc" fill-rule="nonzero" node-id="111" stroke="none" target-height="16.66101" target-width="12.525024" target-x="445.231" target-y="347.146"></path><path d="M 357.32 326.52 C 364.57 327.29 371.87 327.87 379.18 327.08 C 379.32 328.14 379.64 330.25 379.79 331.31 C 371.64 335.32 363.48 332.60 357.32 326.52 Z" fill="#311922" fill-rule="nonzero" node-id="113" stroke="none" target-height="8.799011" target-width="22.469025" target-x="357.32196" target-y="326.525"></path><path d="M 457.49 868.85 C 460.92 869.35 464.91 869.50 465.76 873.66 L 461.10 874.51 C 463.56 884.84 461.75 895.45 460.48 905.87 C 462.39 906.78 466.14 908.65 468.02 909.56 C 471.69 907.28 474.77 904.37 477.26 900.88 C 467.64 897.86 463.83 880.52 475.97 878.41 C 473.33 884.51 470.63 895.84 480.96 895.63 C 481.87 889.73 481.63 883.75 478.67 878.47 C 480.81 879.38 485.09 881.26 487.23 882.20 C 486.77 886.74 485.04 891.46 487.09 895.98 C 482.83 899.68 479.93 904.46 476.70 909.01 C 471.45 914.34 462.74 911.79 457.87 907.22 C 458.17 894.40 457.49 881.64 457.49 868.85 Z" fill="#311922" fill-rule="nonzero" node-id="115" stroke="none" target-height="45.49402" target-width="29.742981" target-x="457.49197" target-y="868.85"></path><path d="M 494.83 880.93 C 498.88 876.65 504.98 876.71 510.38 876.33 C 511.14 878.32 512.67 882.34 513.43 884.37 C 508.41 882.55 503.13 879.88 498.26 883.54 C 499.76 885.89 500.29 888.71 498.94 891.32 C 494.01 888.97 491.25 885.13 494.83 880.93 Z" fill="#311922" fill-rule="nonzero" node-id="117" stroke="none" target-height="14.989075" target-width="22.176025" target-x="491.253" target-y="876.329"></path><path d="M 432.97 885.28 C 434.97 878.53 444.88 877.62 449.40 881.82 C 450.77 887.33 450.10 893.17 450.31 898.89 C 444.59 898.42 438.28 901.29 433.06 898.18 C 431.12 894.72 431.59 890.61 434.47 887.83 C 436.64 888.91 438.51 890.38 440.13 892.26 L 435.64 895.19 C 437.90 895.39 442.42 895.75 444.67 895.95 C 444.62 891.26 444.76 886.68 444.70 882.08 C 441.77 882.87 435.90 884.45 432.97 885.28 Z" fill="#311922" fill-rule="nonzero" node-id="119" stroke="none" target-height="23.671082" target-width="19.652985" target-x="431.122" target-y="877.62"></path><path d="M 605.50 883.37 C 608.79 876.36 618.76 877.47 623.19 882.66 C 622.75 888.03 622.40 893.49 622.08 898.91 C 615.42 901.94 604.10 900.73 605.24 891.14 C 607.67 889.94 612.51 887.53 614.92 886.33 C 613.19 889.50 611.40 892.67 609.55 895.81 C 612.37 896.22 620.81 897.30 617.38 891.58 C 616.94 884.81 612.40 881.14 605.50 883.37 Z" fill="#311922" fill-rule="nonzero" node-id="121" stroke="none" target-height="25.578003" target-width="19.095032" target-x="604.095" target-y="876.359"></path><path d="M 500.64 891.38 C 505.10 889.06 513.13 887.21 512.31 895.01 C 510.20 902.46 500.26 899.06 494.63 898.56 C 494.22 897.04 493.34 893.99 492.93 892.46 C 497.88 893.75 503.19 897.83 508.24 894.31 L 500.64 891.38 Z" fill="#311922" fill-rule="nonzero" node-id="123" stroke="none" target-height="15.253052" target-width="20.209015" target-x="492.926" target-y="887.21094"></path><path d="M 577.26 883.28 C 577.99 873.07 596.00 867.85 598.99 878.29 C 594.30 878.65 589.22 876.95 584.79 878.91 C 580.98 882.81 580.07 889.73 584.50 893.64 C 588.87 897.71 594.77 894.34 599.84 894.25 C 594.09 908.30 571.36 896.27 577.26 883.28 Z" fill="#321922" fill-rule="nonzero" node-id="125" stroke="none" target-height="40.450012" target-width="28.481995" target-x="571.36" target-y="867.852"></path><path d="M 536.25 889.09 C 535.46 877.56 554.73 872.99 559.10 883.87 C 555.08 884.89 544.64 889.12 549.45 879.23 C 544.96 882.08 541.47 886.24 542.26 891.96 C 545.61 897.65 553.14 894.16 558.34 894.81 C 553.20 904.34 535.87 900.06 536.25 889.09 Z" fill="#321922" fill-rule="nonzero" node-id="127" stroke="none" target-height="31.356018" target-width="23.642029" target-x="535.457" target-y="872.985"></path><path d="M 674.52 115.36 C 678.34 111.96 684.88 110.14 688.51 114.83 C 702.21 132.08 710.51 153.03 717.23 173.85 C 727.41 204.85 727.82 237.79 728.08 270.09 C 732.69 285.64 743.92 298.22 750.96 312.74 C 764.28 339.81 772.08 369.76 773.11 399.94 C 787.54 400.50 802.50 397.60 816.58 401.44 C 816.87 409.24 807.46 405.55 802.88 406.63 C 793.00 406.54 783.08 406.69 773.20 407.22 C 772.73 422.03 769.79 436.64 764.81 450.60 C 780.53 455.41 796.98 457.99 812.21 464.30 L 814.64 468.49 C 796.51 466.15 779.03 460.49 761.43 455.79 C 755.68 467.23 746.77 476.41 738.14 485.68 C 743.54 489.64 749.85 492.75 753.78 498.38 C 744.92 498.82 738.11 492.66 730.11 490.38 C 709.13 505.36 684.52 513.14 660.33 521.06 C 665.11 535.28 663.55 553.62 676.81 563.27 C 696.70 580.63 714.38 600.66 728.35 623.04 C 738.11 642.46 749.47 661.53 754.36 682.91 C 763.05 714.47 758.09 748.38 744.68 777.86 C 771.41 779.33 798.60 780.68 824.32 788.66 C 829.13 789.18 830.98 795.75 826.32 798.04 C 818.98 801.77 810.71 802.97 802.76 804.61 C 749.47 812.94 695.44 815.52 641.55 814.76 C 629.38 824.97 613.60 831.77 597.44 829.40 C 584.24 829.40 572.71 820.27 559.39 822.42 C 529.15 824.26 498.79 824.41 468.52 822.56 C 455.03 825.88 441.54 831.42 427.34 830.07 C 418.33 828.55 408.98 826.70 401.29 821.45 C 396.69 818.69 392.55 813.91 386.65 814.79 C 343.30 815.58 299.86 812.59 257.04 805.90 C 243.22 802.94 228.08 802.74 215.94 794.73 C 216.41 787.98 224.18 787.31 229.26 785.61 C 252.40 780.88 276.04 779.06 299.63 778.24 C 285.31 745.19 279.59 707.40 288.57 672.15 C 296.43 638.45 313.68 607.21 337.29 581.98 C 344.94 573.24 354.07 565.82 361.02 556.52 C 365.86 544.23 367.91 531.09 370.96 518.30 C 350.87 511.20 330.69 503.60 313.30 491.02 C 305.61 495.01 297.81 499.50 288.86 499.47 C 293.23 493.22 300.07 489.64 306.34 485.65 C 296.75 477.12 289.27 466.64 281.73 456.38 C 265.86 461.22 249.50 464.48 233.22 467.41 C 231.81 467.14 229.05 466.64 227.64 466.38 C 243.31 457.82 261.96 456.70 279.09 452.21 C 272.76 438.49 270.12 423.56 268.30 408.69 C 254.22 408.48 240.05 408.71 226.09 406.34 L 228.41 402.11 C 241.58 400.27 254.98 401.38 268.24 400.79 C 269.74 367.74 277.39 334.97 291.62 305.08 C 295.37 296.08 301.21 288.13 304.70 279.06 C 305.40 257.59 304.23 236.01 307.22 214.65 C 311.59 182.21 322.59 150.09 342.13 123.58 C 345.65 119.17 351.13 112.02 357.35 116.33 C 381.99 133.46 402.02 156.31 421.47 178.95 C 464.53 159.27 513.40 155.99 559.83 162.50 C 577.96 164.82 595.71 169.74 612.66 176.55 C 631.49 154.46 651.82 133.52 674.52 115.36 Z M 668.68 142.44 L 668.27 142.32 C 654.08 156.87 638.12 169.63 624.89 185.11 C 633.13 189.43 640.23 196.61 649.06 199.37 C 661.64 188.55 671.68 174.14 686.75 166.66 L 686.31 169.95 C 694.29 189.22 696.70 209.93 697.17 230.64 C 693.71 241.61 707.43 247.65 712.62 255.63 C 712.39 244.86 711.98 234.10 711.60 223.36 L 711.07 224.01 C 709.02 190.60 699.01 157.54 681.53 128.94 C 677.04 133.22 672.76 137.71 668.68 142.44 Z M 345.38 143.29 C 342.13 150.35 338.78 157.40 335.56 164.52 C 328.99 180.19 325.53 197.02 323.00 213.77 C 319.84 230.29 320.95 247.12 320.54 263.84 C 325.70 256.13 333.21 249.88 337.00 241.37 C 336.79 231.93 337.44 222.45 336.56 213.10 C 339.19 198.37 343.33 184.03 347.12 169.57 C 360.78 178.78 371.58 191.51 383.28 203.01 C 391.58 197.40 400.18 192.21 408.77 187.08 C 395.81 173.56 381.90 161.00 369.11 147.31 C 364.27 141.41 359.11 135.75 353.89 130.20 C 351.02 134.52 348.17 138.89 345.38 143.29 Z M 417.22 194.97 C 393.05 205.91 367.21 217.53 351.10 239.53 C 344.00 245.69 338.29 253.19 332.86 260.82 C 304.76 301.89 285.90 350.61 286.72 400.88 L 286.98 404.78 C 294.32 404.99 301.53 406.19 308.54 408.30 C 301.24 408.33 293.94 408.48 286.63 408.45 C 288.42 421.62 292.00 434.53 298.01 446.44 C 305.02 444.91 312.09 443.53 319.13 442.18 C 327.40 441.01 335.70 439.87 344.06 440.19 C 338.11 445.15 330.10 445.50 322.97 447.67 C 315.88 449.55 308.75 451.31 301.56 452.89 C 307.55 461.92 314.47 470.28 322.18 477.94 C 327.49 475.62 332.74 473.30 337.93 470.78 C 345.44 467.35 353.04 463.98 360.93 461.42 C 358.06 465.32 353.89 467.82 349.87 470.40 C 342.69 473.39 335.85 477.06 329.19 481.08 C 358.20 503.75 395.43 510.88 430.71 517.77 C 426.87 520.41 423.06 523.11 419.24 525.78 C 415.46 525.25 411.65 524.72 407.86 524.20 C 401.73 523.52 395.22 520.47 389.21 522.29 C 379.62 550.92 370.52 580.07 367.88 610.34 C 365.45 634.81 367.79 659.50 372.55 683.53 C 377.39 702.77 380.96 722.34 386.77 741.34 C 392.64 760.97 396.54 781.38 405.63 799.89 C 407.16 803.32 410.27 805.64 413.00 808.16 C 414.40 796.99 413.14 785.75 411.29 774.72 C 418.22 784.96 420.80 797.04 423.12 808.98 C 423.52 814.79 434.52 815.11 433.70 808.75 C 435.17 797.46 434.32 786.10 432.76 774.90 C 442.56 784.75 443.35 799.77 445.03 812.83 C 462.01 801.97 461.07 780.06 457.55 762.67 C 444.23 704.56 432.18 643.87 443.71 584.38 C 443.18 601.46 443.09 618.64 445.41 635.60 C 447.28 678.84 458.70 721.10 468.90 763.02 C 472.13 775.22 472.51 787.89 472.77 800.51 C 472.28 801.94 471.28 804.85 470.78 806.28 C 500.26 812.83 530.56 810.13 559.95 804.67 C 561.01 804.14 563.12 803.12 564.17 802.62 C 564.79 788.36 564.32 773.90 568.49 760.11 C 581.95 715.41 589.61 669.01 589.84 622.28 C 590.04 611.40 590.04 600.55 590.22 589.72 C 598.90 648.83 593.18 709.22 580.83 767.39 C 577.61 782.55 575.73 803.64 592.13 812.03 C 595.00 798.22 597.73 784.11 605.12 771.88 C 603.51 785.34 600.96 798.86 602.89 812.47 C 605.15 812.36 609.67 812.12 611.93 812.00 C 614.95 801.88 618.20 791.85 621.66 781.91 C 624.54 791.30 623.01 801.12 622.93 810.77 C 630.41 805.08 633.51 795.93 636.98 787.60 C 642.26 773.73 646.60 759.53 650.91 745.36 C 657.95 725.65 657.80 704.38 661.53 683.97 C 668.77 630.70 659.33 576.32 640.94 526.19 C 635.04 522.93 627.24 526.72 620.61 526.81 C 612.01 527.57 603.45 528.54 594.83 529.01 C 594.50 526.84 593.86 522.43 593.51 520.24 C 620.81 516.92 648.00 511.52 673.82 501.81 C 688.60 496.12 703.74 490.17 715.97 479.79 C 710.42 476.65 704.88 473.51 699.28 470.55 C 694.17 467.67 689.13 464.68 684.76 460.78 C 690.42 460.46 695.44 463.18 700.54 465.09 C 707.61 468.70 714.62 475.15 722.72 475.18 C 730.66 468.00 737.23 459.34 742.57 450.07 C 736.68 449.02 730.81 448.02 724.94 446.96 C 716.12 443.68 703.47 445.82 697.87 436.76 C 707.73 437.20 717.41 439.04 727.00 441.10 C 733.07 442.56 739.14 444.03 745.18 445.58 C 752.14 434.12 755.10 420.95 756.59 407.77 C 749.08 407.77 741.58 407.89 734.10 408.30 C 721.01 408.04 707.93 407.66 694.88 406.98 C 695.41 405.75 696.43 403.26 696.93 402.03 C 709.54 401.15 722.25 401.82 734.86 400.97 C 742.16 400.50 749.50 400.03 756.80 399.53 C 755.62 367.80 747.27 336.41 732.80 308.16 C 720.51 283.38 706.61 258.56 686.20 239.50 C 668.42 218.08 642.37 205.85 617.44 194.65 C 554.43 167.51 480.08 167.25 417.22 194.97 Z M 656.42 204.97 C 668.30 214.74 680.92 223.60 692.06 234.28 C 691.89 213.92 690.39 193.50 685.08 173.76 C 674.40 183.06 665.22 193.94 656.42 204.97 Z M 347.73 176.14 C 342.92 197.32 339.69 218.73 339.81 240.49 C 351.13 228.09 364.36 217.70 377.12 206.85 C 367.47 196.47 358.08 185.82 347.73 176.14 Z M 672.53 587.76 C 675.17 612.90 678.98 638.15 676.28 663.47 C 671.68 710.43 664.43 757.74 648.18 802.24 C 668.07 802.38 690.33 805.96 707.84 794.20 C 730.46 777.63 739.64 749.06 742.22 722.25 C 742.07 703.24 741.46 682.36 729.37 666.60 L 725.71 667.72 C 728.82 647.57 712.68 632.34 701.65 617.59 C 693.18 606.53 683.09 596.82 672.53 587.76 Z M 306.69 664.05 C 303.29 675.26 301.15 686.81 300.01 698.52 C 300.04 707.64 300.18 716.79 301.09 725.91 C 303.32 750.88 313.15 776.54 333.80 791.94 C 349.61 803.91 370.67 801.88 389.24 800.48 C 385.34 790.15 381.70 779.74 378.50 769.21 C 375.07 757.36 371.69 745.45 369.17 733.39 C 361.93 704.77 356.62 675.70 353.89 646.31 C 353.24 628.38 354.07 610.49 355.56 592.69 C 333.33 611.61 317.58 637.15 306.69 664.05 Z M 227.67 793.91 C 241.78 798.22 257.01 800.89 271.56 797.04 C 283.64 793.91 296.40 794.40 308.28 790.39 C 301.83 783.20 291.94 786.07 283.55 786.22 C 264.90 788.10 245.45 787.01 227.67 793.91 Z M 735.45 790.18 C 739.40 791.71 743.51 792.85 747.74 793.61 C 770.85 796.84 795.34 804.35 817.81 794.08 C 798.80 787.92 778.74 786.89 758.97 785.81 C 750.96 785.87 741.75 783.76 735.45 790.18 Z" fill="#341a24" fill-rule="nonzero" node-id="129" stroke="none" target-height="721.633" target-width="615.03906" target-x="215.941" target-y="110.141"></path><path d="M 668.68 142.44 C 672.76 137.71 677.04 133.22 681.53 128.94 C 699.01 157.54 709.02 190.60 711.07 224.01 C 710.07 225.15 708.08 227.44 707.11 228.58 C 706.41 218.61 705.67 208.46 701.62 199.22 C 700.66 209.75 700.13 220.40 697.17 230.64 C 696.70 209.93 694.29 189.22 686.31 169.95 L 686.75 166.66 C 688.25 159.77 686.17 153.00 684.08 146.54 C 678.92 145.19 673.82 143.81 668.68 142.44 Z" fill="#e7cab1" fill-rule="nonzero" node-id="131" stroke="none" target-height="101.69501" target-width="42.38501" target-x="668.685" target-y="128.943"></path><path d="M 345.38 143.29 C 348.17 138.89 351.02 134.52 353.89 130.20 C 359.11 135.75 364.27 141.41 369.11 147.31 C 367.62 147.92 364.63 149.12 363.13 149.71 C 357.20 147.54 351.31 145.43 345.38 143.29 Z" fill="#c39887" fill-rule="nonzero" node-id="133" stroke="none" target-height="19.506012" target-width="23.730042" target-x="345.384" target-y="130.204"></path><path d="M 668.27 142.32 L 668.68 142.44 C 673.82 143.81 678.92 145.19 684.08 146.54 C 686.17 153.00 688.25 159.77 686.75 166.66 C 671.68 174.14 661.64 188.55 649.06 199.37 C 640.23 196.61 633.13 189.43 624.89 185.11 C 638.12 169.63 654.08 156.87 668.27 142.32 Z" fill="#f5debf" fill-rule="nonzero" node-id="135" stroke="none" target-height="57.052002" target-width="63.358032" target-x="624.891" target-y="142.318"></path><path d="M 345.38 143.29 C 351.31 145.43 357.20 147.54 363.13 149.71 C 364.63 149.12 367.62 147.92 369.11 147.31 C 381.90 161.00 395.81 173.56 408.77 187.08 C 400.18 192.21 391.58 197.40 383.28 203.01 C 371.58 191.51 360.78 178.78 347.12 169.57 C 343.39 167.60 339.52 165.93 335.56 164.52 C 338.78 157.40 342.13 150.35 345.38 143.29 Z" fill="#f2debe" fill-rule="nonzero" node-id="137" stroke="none" target-height="59.72101" target-width="73.21298" target-x="335.558" target-y="143.286"></path><path d="M 323.00 213.77 C 325.53 197.02 328.99 180.19 335.56 164.52 C 339.52 165.93 343.39 167.60 347.11 169.57 C 343.33 184.03 339.19 198.37 336.56 213.10 C 335.18 207.82 333.56 202.57 332.01 197.38 C 330.22 203.86 328.37 210.34 326.46 216.82 C 325.61 216.06 323.88 214.53 323.00 213.77 Z" fill="#e2c3a8" fill-rule="nonzero" node-id="139" stroke="none" target-height="52.29901" target-width="24.111023" target-x="323.003" target-y="164.523"></path><path d="M 417.22 194.97 C 480.08 167.25 554.43 167.51 617.44 194.65 C 642.37 205.85 668.42 218.08 686.20 239.50 C 690.74 257.83 701.68 273.52 709.10 290.68 C 724.94 325.29 733.01 363.04 734.86 400.97 C 722.25 401.82 709.54 401.15 696.93 402.03 C 696.43 403.26 695.41 405.75 694.88 406.98 C 707.93 407.66 721.01 408.04 734.10 408.30 C 733.48 419.54 731.16 430.62 727.00 441.10 C 717.41 439.04 707.73 437.20 697.87 436.76 C 703.47 445.82 716.12 443.68 724.94 446.96 C 722.60 452.39 720.66 458.14 717.17 463.04 C 711.77 464.56 706.11 464.88 700.54 465.09 C 695.43 463.18 690.42 460.46 684.76 460.78 C 689.13 464.68 694.17 467.67 699.28 470.55 C 646.48 494.78 587.90 502.25 530.35 504.16 C 469.05 505.28 404.72 500.26 349.87 470.40 C 353.89 467.82 358.06 465.32 360.93 461.42 C 353.04 463.98 345.44 467.35 337.93 470.78 C 332.45 463.39 327.43 455.70 322.97 447.67 C 330.10 445.50 338.11 445.15 344.06 440.19 C 335.70 439.87 327.40 441.01 319.13 442.18 C 315.96 431.62 313.06 420.98 310.36 410.30 C 322.77 409.95 335.18 409.95 347.58 410.09 C 347.61 408.42 347.73 405.08 347.79 403.40 C 334.91 403.32 322.04 402.47 309.36 400.09 C 306.14 362.13 314.23 323.86 329.22 289.07 C 336.17 272.38 347.41 257.48 351.10 239.53 C 367.21 217.53 393.05 205.91 417.22 194.97 Z M 498.15 206.00 C 501.64 218.91 511.02 235.80 526.69 233.28 C 526.66 232.60 526.60 231.28 526.57 230.61 L 520.20 231.43 C 523.40 226.09 527.65 221.96 532.90 219.02 C 531.38 222.54 528.39 229.55 526.86 233.04 C 535.31 226.85 539.95 217.44 544.35 208.29 C 538.10 208.26 534.40 213.62 530.21 217.41 C 526.98 220.40 523.72 223.33 520.47 226.33 C 520.50 219.78 521.52 213.39 522.96 207.08 C 521.93 206.82 519.85 206.32 518.83 206.06 C 519.91 214.56 520.47 223.10 519.76 231.69 C 509.47 225.62 510.44 209.52 498.15 206.00 Z M 457.08 232.69 C 458.84 229.35 460.40 225.92 462.39 222.75 C 467.85 217.38 476.56 217.79 483.48 219.49 C 495.33 223.07 495.83 239.17 507.36 243.16 C 514.66 246.60 524.75 248.62 531.17 242.46 C 521.02 243.54 508.76 242.63 502.49 233.39 C 497.03 225.59 491.66 214.62 480.61 214.80 C 469.43 213.16 454.82 219.14 457.08 232.69 Z M 551.91 218.23 C 545.14 224.68 538.18 233.22 538.18 243.02 C 549.51 237.88 550.01 221.49 562.59 218.20 C 571.74 217.44 577.84 224.63 584.21 229.88 C 580.75 215.88 563.29 212.86 551.91 218.23 Z M 466.56 231.84 C 469.84 237.50 486.24 243.16 483.22 232.13 C 480.43 223.39 471.57 228.35 466.56 231.84 Z M 554.35 239.38 C 560.92 240.88 569.51 239.82 570.42 231.72 C 568.34 231.02 564.20 229.64 562.12 228.94 C 558.92 231.90 555.61 235.04 554.35 239.38 Z M 501.52 250.38 C 505.83 259.53 515.16 269.24 526.22 266.10 C 532.73 262.38 538.39 256.89 541.50 250.00 C 532.93 253.40 526.13 263.20 516.01 260.67 C 511.05 257.39 506.59 253.46 501.52 250.38 Z M 381.73 326.03 C 383.25 327.49 384.78 328.99 386.30 330.51 C 380.70 338.35 366.09 333.59 363.19 342.89 C 375.98 342.69 387.21 336.09 398.86 331.75 C 385.31 348.08 391.96 371.96 405.72 385.86 C 418.10 399.42 441.30 400.71 455.12 388.68 C 464.62 379.56 466.82 365.33 464.59 352.84 C 470.84 360.87 474.39 370.49 479.52 379.21 C 483.95 352.22 463.27 324.27 436.34 320.04 C 417.89 316.17 399.62 322.10 381.73 326.03 Z M 564.88 375.48 C 568.51 367.74 571.80 359.82 576.55 352.69 C 576.82 362.60 577.14 373.25 583.18 381.70 C 595.62 400.91 628.97 400.18 639.50 379.26 C 649.85 365.45 649.18 346.97 641.20 332.25 C 651.20 336.53 661.06 341.10 671.29 344.86 C 673.26 343.10 675.23 341.37 677.22 339.64 C 669.74 337.70 662.73 334.44 656.45 329.99 C 665.99 333.10 676.60 334.06 684.70 326.99 C 658.10 328.64 632.58 313.36 606.00 320.57 C 581.33 325.82 562.85 350.28 564.88 375.48 Z M 357.32 326.52 C 363.48 332.60 371.64 335.32 379.79 331.31 C 379.64 330.25 379.32 328.14 379.17 327.08 C 371.87 327.87 364.57 327.29 357.32 326.52 Z M 499.76 396.42 C 503.89 404.78 512.40 409.42 517.77 416.78 C 520.53 432.38 496.62 443.12 486.21 431.45 C 483.42 428.13 482.13 423.79 480.14 420.07 C 473.27 425.40 479.05 435.00 484.56 438.93 C 496.47 447.02 513.11 441.89 521.29 430.80 C 527.04 437.49 535.28 442.92 544.52 441.77 C 556.63 441.42 567.96 430.54 565.58 417.92 C 559.27 423.29 556.96 433.30 547.95 435.17 C 537.39 438.28 522.40 428.98 526.66 416.99 C 531.09 408.92 539.59 404.11 544.55 396.34 C 530.03 391.91 514.28 391.94 499.76 396.42 Z M 381.67 400.65 C 375.80 401.59 370.05 403.96 365.30 407.57 C 358.38 417.34 360.90 431.86 369.41 439.81 C 384.10 450.43 405.66 446.38 417.57 433.38 C 421.27 428.69 423.73 421.21 419.42 416.11 C 411.12 403.93 395.39 401.00 381.67 400.65 Z M 615.07 419.77 C 620.58 435.52 638.27 440.77 653.23 442.68 C 669.30 444.18 681.41 430.95 687.54 417.57 C 684.05 406.60 673.05 400.68 662.23 399.39 C 644.66 396.19 621.78 401.06 615.07 419.77 Z" fill="#f7dfbe" fill-rule="nonzero" node-id="141" stroke="none" target-height="338.025" target-width="428.72098" target-x="306.137" target-y="167.251"></path><path d="M 407.86 524.20 C 411.64 524.72 415.46 525.25 419.24 525.78 C 477.53 532.20 536.34 530.56 594.83 529.01 C 603.45 528.54 612.01 527.57 620.61 526.81 C 643.40 575.59 648.71 630.79 642.67 683.85 C 625.10 690.22 609.87 701.60 597.70 715.71 C 609.58 723.48 621.31 731.81 634.48 737.29 L 637.12 738.00 C 633.16 753.05 626.80 767.24 621.66 781.91 C 618.20 791.85 614.95 801.88 611.93 812.00 C 609.67 812.12 605.15 812.36 602.89 812.47 C 600.96 798.86 603.51 785.34 605.12 771.88 C 597.73 784.11 595.00 798.22 592.13 812.03 C 575.73 803.64 577.61 782.55 580.83 767.39 C 593.18 709.22 598.90 648.83 590.22 589.72 C 590.04 600.55 590.04 611.40 589.84 622.28 C 586.70 621.73 583.59 621.20 580.48 620.73 C 566.40 672.35 562.50 727.53 536.48 775.28 C 533.81 779.30 529.41 781.67 525.66 784.61 C 530.18 752.20 538.04 719.75 534.99 686.81 C 529.09 712.60 525.84 738.88 520.14 764.72 C 518.83 770.50 516.36 775.95 513.78 781.29 C 507.86 754.04 506.30 726.12 502.22 698.61 C 498.32 720.87 498.44 743.66 501.40 766.04 C 502.52 773.70 502.57 781.47 501.75 789.18 C 491.46 780.79 488.96 767.18 485.09 755.22 C 480.49 737.88 475.50 720.63 471.72 703.12 C 464.71 670.18 458.17 637.10 449.54 604.57 C 449.34 615.01 448.13 625.45 445.41 635.60 C 443.09 618.64 443.18 601.46 443.71 584.38 C 432.18 643.87 444.23 704.56 457.55 762.67 C 461.07 780.06 462.01 801.97 445.03 812.83 C 443.35 799.77 442.56 784.75 432.76 774.90 C 434.32 786.10 435.17 797.46 433.70 808.75 C 423.35 784.02 416.75 758.03 408.80 732.51 C 418.22 727.12 428.57 722.98 436.64 715.59 C 429.57 699.08 409.97 693.30 395.34 685.14 C 394.28 684.32 392.14 682.74 391.08 681.94 C 383.84 641.32 387.01 599.43 396.89 559.51 C 400.24 547.63 404.69 536.10 407.86 524.20 Z" fill="#f7dfbe" fill-rule="nonzero" node-id="143" stroke="none" target-height="288.63" target-width="264.87097" target-x="383.838" target-y="524.195"></path><path d="M 656.42 204.97 C 665.22 193.94 674.40 183.06 685.08 173.76 C 690.39 193.50 691.89 213.92 692.06 234.28 C 680.92 223.60 668.30 214.74 656.42 204.97 Z" fill="#e0c2aa" fill-rule="nonzero" node-id="145" stroke="none" target-height="60.513" target-width="35.6391" target-x="656.423" target-y="173.762"></path><path d="M 347.73 176.14 C 358.08 185.82 367.47 196.47 377.12 206.85 C 364.36 217.70 351.13 228.09 339.81 240.49 C 339.69 218.73 342.92 197.32 347.73 176.14 Z" fill="#e5cbac" fill-rule="nonzero" node-id="147" stroke="none" target-height="64.354996" target-width="37.42801" target-x="339.693" target-y="176.138"></path><path d="M 770.94 183.24 C 776.33 185.94 776.27 192.83 779.09 197.55 C 784.90 209.81 799.45 212.48 810.51 218.08 C 804.38 224.36 793.93 222.13 787.60 228.41 C 779.38 233.51 778.03 243.95 771.64 250.64 C 768.33 242.96 766.62 233.86 759.91 228.32 C 752.43 223.28 743.60 220.81 735.77 216.44 C 744.13 212.19 754.51 212.10 761.35 205.06 C 767.59 199.52 769.06 190.92 770.94 183.24 Z M 771.96 194.76 C 770.38 206.61 760.05 213.45 749.90 217.70 C 760.47 220.66 769.62 228.00 772.29 239.03 C 777.98 228.67 787.45 220.72 799.33 218.76 C 787.22 214.77 777.04 206.61 771.96 194.76 Z" fill="#39130c" fill-rule="nonzero" node-id="149" stroke="none" target-height="67.406006" target-width="74.73895" target-x="735.767" target-y="183.236"></path><path d="M 326.46 216.82 C 328.37 210.34 330.22 203.86 332.01 197.38 C 333.56 202.57 335.18 207.82 336.56 213.10 C 337.44 222.45 336.79 231.93 337.00 241.37 C 333.21 249.88 325.70 256.13 320.54 263.84 C 320.95 247.12 319.84 230.29 323.00 213.77 C 323.88 214.53 325.61 216.06 326.46 216.82 Z" fill="#d1b19b" fill-rule="nonzero" node-id="151" stroke="none" target-height="66.46701" target-width="17.598999" target-x="319.836" target-y="197.375"></path><path d="M 771.96 194.76 C 777.04 206.62 787.22 214.77 799.33 218.76 C 787.45 220.72 777.98 228.67 772.29 239.03 C 769.62 228.00 760.47 220.66 749.91 217.70 C 760.05 213.45 770.38 206.62 771.96 194.76 Z" fill="#e3aa52" fill-rule="nonzero" node-id="153" stroke="none" target-height="44.261993" target-width="49.42395" target-x="749.906" target-y="194.765"></path><path d="M 701.62 199.22 C 705.67 208.46 706.41 218.61 707.11 228.58 C 708.08 227.44 710.07 225.15 711.07 224.01 L 711.60 223.36 C 711.98 234.10 712.39 244.86 712.62 255.63 C 707.43 247.65 693.71 241.61 697.17 230.64 C 700.13 220.40 700.66 209.75 701.62 199.22 Z" fill="#d1b89e" fill-rule="nonzero" node-id="155" stroke="none" target-height="56.406998" target-width="18.919006" target-x="693.705" target-y="199.222"></path><path d="M 466.56 231.84 C 471.57 228.35 480.43 223.39 483.22 232.13 C 486.24 243.16 469.84 237.50 466.56 231.84 Z" fill="#7b413c" fill-rule="nonzero" node-id="157" stroke="none" target-height="19.77002" target-width="19.682007" target-x="466.556" target-y="223.39198"></path><path d="M 563.00 234.13 C 564.61 235.80 564.61 235.80 563.00 234.13 L 563.00 234.13 Z" fill="#d69f7e" fill-rule="nonzero" node-id="159" stroke="none" target-height="1.6719818" target-width="1.6140137" target-x="563" target-y="234.12802"></path><path d="M 332.86 260.82 C 338.29 253.19 344.00 245.69 351.10 239.53 C 347.41 257.48 336.17 272.38 329.22 289.07 C 314.23 323.86 306.14 362.13 309.36 400.09 C 322.04 402.47 334.91 403.32 347.79 403.40 C 347.73 405.08 347.61 408.42 347.58 410.09 C 335.18 409.95 322.77 409.95 310.36 410.30 C 313.06 420.98 315.96 431.62 319.13 442.18 C 312.09 443.53 305.02 444.91 298.01 446.44 C 292.00 434.53 288.42 421.62 286.63 408.45 C 293.94 408.48 301.24 408.33 308.54 408.30 C 321.48 408.83 334.44 408.92 347.41 408.83 L 347.32 404.61 C 327.14 403.29 306.96 401.85 286.72 400.88 C 285.90 350.61 304.76 301.89 332.86 260.82 Z" fill="#d1b3a3" fill-rule="nonzero" node-id="161" stroke="none" target-height="206.91002" target-width="65.20599" target-x="285.898" target-y="239.52602"></path><path d="M 686.20 239.50 C 706.61 258.56 720.51 283.38 732.80 308.16 C 747.27 336.41 755.63 367.80 756.80 399.53 C 749.50 400.03 742.16 400.50 734.86 400.97 C 733.01 363.04 724.94 325.29 709.11 290.68 C 701.68 273.52 690.74 257.83 686.20 239.50 Z" fill="#cdb1a2" fill-rule="nonzero" node-id="163" stroke="none" target-height="161.474" target-width="70.60303" target-x="686.196" target-y="239.496"></path><path d="M 222.36 293.76 C 227.23 288.07 226.62 279.01 232.34 274.20 C 236.12 282.85 238.73 292.56 246.03 299.07 C 253.40 305.44 263.37 306.93 271.85 311.30 C 263.19 317.34 250.58 315.41 243.69 324.30 C 237.56 330.34 237.82 340.13 231.49 346.00 C 228.82 338.46 226.71 330.31 221.13 324.30 C 214.27 316.23 203.21 314.73 194.00 310.71 C 202.71 303.73 215.53 303.26 222.36 293.76 Z M 207.67 309.66 C 218.58 313.82 227.94 321.39 232.43 332.45 C 236.47 321.10 246.68 313.88 258.36 312.09 C 247.62 306.05 236.03 299.92 231.93 287.28 C 227.23 297.87 218.70 305.96 207.67 309.66 Z" fill="#452016" fill-rule="nonzero" node-id="165" stroke="none" target-height="71.80499" target-width="77.84799" target-x="194" target-y="274.196"></path><path d="M 207.67 309.66 C 218.70 305.96 227.23 297.87 231.93 287.28 C 236.03 299.92 247.62 306.05 258.36 312.09 C 246.68 313.88 236.47 321.10 232.43 332.45 C 227.94 321.39 218.58 313.82 207.67 309.66 Z" fill="#e1aa56" fill-rule="nonzero" node-id="167" stroke="none" target-height="45.171997" target-width="50.686005" target-x="207.669" target-y="287.278"></path><path d="M 564.88 375.48 C 562.85 350.28 581.33 325.82 606.00 320.57 C 632.58 313.35 658.10 328.64 684.70 326.99 C 676.60 334.06 665.99 333.10 656.45 329.99 C 662.73 334.44 669.74 337.70 677.22 339.64 C 675.23 341.37 673.26 343.10 671.29 344.86 C 661.06 341.10 651.20 336.53 641.20 332.25 C 649.18 346.97 649.85 365.45 639.50 379.26 C 628.97 400.18 595.62 400.91 583.18 381.70 C 577.14 373.25 576.82 362.60 576.55 352.69 C 571.80 359.82 568.51 367.74 564.88 375.48 Z M 631.32 341.37 C 631.52 347.44 629.88 355.42 636.07 359.29 C 646.16 356.06 642.84 337.41 631.32 341.37 Z M 587.85 348.17 C 584.97 351.31 582.62 360.32 589.08 360.32 C 597.55 361.69 594.94 340.78 587.85 348.17 Z" fill="#3a1b2b" fill-rule="nonzero" node-id="169" stroke="none" target-height="87.55698" target-width="121.84601" target-x="562.854" target-y="313.354"></path><path d="M 401.53 337.67 C 413.70 332.22 412.53 362.34 399.30 356.83 C 394.69 351.37 396.51 342.07 401.53 337.67 Z" fill="#fefef7" fill-rule="nonzero" node-id="171" stroke="none" target-height="30.123993" target-width="19.007019" target-x="394.692" target-y="332.216"></path><path d="M 631.32 341.37 C 642.84 337.41 646.16 356.06 636.07 359.29 C 629.88 355.42 631.52 347.44 631.32 341.37 Z" fill="#fbfaf6" fill-rule="nonzero" node-id="173" stroke="none" target-height="21.881989" target-width="16.278992" target-x="629.878" target-y="337.407"></path><path d="M 499.76 396.42 C 514.28 391.94 530.03 391.91 544.55 396.34 C 539.59 404.11 531.09 408.92 526.66 416.99 C 522.40 428.98 537.39 438.28 547.95 435.17 C 556.96 433.29 559.27 423.29 565.58 417.92 C 567.96 430.54 556.63 441.42 544.52 441.77 C 535.28 442.92 527.04 437.49 521.29 430.80 C 513.11 441.89 496.48 447.02 484.57 438.93 C 479.05 435.00 473.27 425.40 480.14 420.07 C 482.13 423.79 483.42 428.13 486.21 431.45 C 496.62 443.12 520.53 432.38 517.77 416.78 C 512.40 409.42 503.90 404.78 499.76 396.42 Z M 505.71 401.15 C 515.01 401.91 531.35 408.39 535.69 397.42 C 525.66 397.74 514.98 396.39 505.71 401.15 Z" fill="#361c28" fill-rule="nonzero" node-id="175" stroke="none" target-height="55.115997" target-width="94.68396" target-x="473.273" target-y="391.906"></path><path d="M 381.67 400.65 C 395.40 401.00 411.12 403.93 419.42 416.11 C 423.73 421.21 421.27 428.69 417.57 433.38 C 405.66 446.38 384.10 450.43 369.41 439.81 C 360.90 431.86 358.38 417.34 365.30 407.57 C 370.05 403.96 375.80 401.59 381.67 400.65 Z" fill="#f8cec4" fill-rule="nonzero" node-id="177" stroke="none" target-height="49.776947" target-width="65.353" target-x="358.378" target-y="400.64804"></path><path d="M 505.71 401.15 C 514.98 396.39 525.66 397.74 535.69 397.42 C 531.35 408.39 515.01 401.91 505.71 401.15 Z" fill="#a88079" fill-rule="nonzero" node-id="179" stroke="none" target-height="11.996979" target-width="29.978027" target-x="505.714" target-y="396.394"></path><path d="M 615.07 419.77 C 621.78 401.06 644.66 396.19 662.23 399.39 C 673.05 400.68 684.05 406.60 687.54 417.57 C 681.41 430.95 669.30 444.18 653.23 442.68 C 638.27 440.77 620.58 435.52 615.07 419.77 Z" fill="#f8cdc1" fill-rule="nonzero" node-id="181" stroke="none" target-height="47.988007" target-width="72.47998" target-x="615.065" target-y="396.189"></path><path d="M 286.72 400.88 C 306.96 401.85 327.14 403.29 347.32 404.61 L 347.41 408.83 C 334.44 408.92 321.48 408.83 308.54 408.30 C 301.53 406.19 294.32 404.99 286.98 404.78 L 286.72 400.88 Z" fill="#270f14" fill-rule="nonzero" node-id="183" stroke="none" target-height="8.037018" target-width="60.688995" target-x="286.719" target-y="400.882"></path><path d="M 734.10 408.30 C 741.58 407.89 749.08 407.78 756.59 407.78 C 755.10 420.95 752.14 434.12 745.18 445.58 C 739.14 444.03 733.07 442.56 727.00 441.10 C 731.16 430.62 733.48 419.54 734.10 408.30 Z" fill="#b6988e" fill-rule="nonzero" node-id="185" stroke="none" target-height="37.80899" target-width="29.59607" target-x="726.997" target-y="407.776"></path><path d="M 301.56 452.89 C 308.75 451.31 315.88 449.55 322.97 447.67 C 327.43 455.70 332.45 463.39 337.93 470.78 C 332.74 473.30 327.49 475.62 322.18 477.94 C 314.47 470.28 307.55 461.92 301.56 452.89 Z" fill="#bf9c8e" fill-rule="nonzero" node-id="187" stroke="none" target-height="30.270996" target-width="36.37198" target-x="301.562" target-y="447.667"></path><path d="M 724.94 446.96 C 730.81 448.02 736.68 449.02 742.57 450.07 C 737.23 459.34 730.66 468.00 722.72 475.18 C 714.62 475.15 707.61 468.70 700.54 465.09 C 706.11 464.88 711.77 464.56 717.17 463.04 C 720.66 458.14 722.60 452.39 724.94 446.96 Z" fill="#b5958a" fill-rule="nonzero" node-id="189" stroke="none" target-height="28.218018" target-width="42.03308" target-x="700.5399" target-y="446.963"></path><path d="M 329.19 481.08 C 335.85 477.06 342.69 473.39 349.87 470.40 C 404.72 500.26 469.05 505.28 530.35 504.16 C 587.90 502.25 646.48 494.78 699.28 470.55 C 704.88 473.51 710.42 476.65 715.97 479.79 C 703.74 490.17 688.60 496.12 673.82 501.81 C 648.00 511.52 620.81 516.92 593.51 520.24 C 539.50 527.13 484.51 526.01 430.71 517.77 C 395.43 510.88 358.20 503.75 329.19 481.08 Z" fill="#d8b9ac" fill-rule="nonzero" node-id="191" stroke="none" target-height="56.727997" target-width="386.77502" target-x="329.193" target-y="470.4"></path><path d="M 419.24 525.78 C 423.06 523.11 426.87 520.41 430.71 517.77 C 484.51 526.01 539.50 527.13 593.51 520.24 C 593.86 522.43 594.50 526.84 594.83 529.01 C 536.34 530.56 477.53 532.20 419.24 525.78 Z" fill="#280e19" fill-rule="nonzero" node-id="193" stroke="none" target-height="14.43103" target-width="175.58298" target-x="419.243" target-y="517.772"></path><path d="M 793.17 518.27 C 798.74 528.62 808.28 535.78 819.54 538.98 C 808.69 540.24 800.18 547.28 794.67 556.37 C 791.82 546.22 782.52 541.62 773.46 538.25 C 782.35 534.32 791.26 528.62 793.17 518.27 Z" fill="#e5ab43" fill-rule="nonzero" node-id="195" stroke="none" target-height="38.102966" target-width="46.080994" target-x="773.459" target-y="518.27"></path><path d="M 367.88 610.34 C 370.52 580.07 379.62 550.92 389.21 522.29 C 395.22 520.47 401.73 523.52 407.86 524.20 C 404.69 536.10 400.24 547.63 396.89 559.51 C 387.01 599.43 383.84 641.32 391.08 681.94 C 384.87 681.86 378.68 682.41 372.55 683.53 C 367.79 659.50 365.45 634.81 367.88 610.34 Z" fill="#d7bdae" fill-rule="nonzero" node-id="197" stroke="none" target-height="163.05902" target-width="42.41501" target-x="365.447" target-y="520.47"></path><path d="M 266.74 524.81 C 272.70 533.64 281.56 540.45 292.44 541.65 C 283.05 546.14 272.73 549.95 268.53 560.54 C 263.75 550.57 254.04 545.55 244.19 541.91 C 254.10 540.03 263.14 534.61 266.74 524.81 Z" fill="#e4ad52" fill-rule="nonzero" node-id="199" stroke="none" target-height="35.72705" target-width="48.252" target-x="244.187" target-y="524.811"></path><path d="M 620.61 526.81 C 627.24 526.72 635.04 522.93 640.94 526.19 C 659.33 576.32 668.77 630.70 661.53 683.97 C 655.60 683.64 649.68 683.38 643.75 683.53 L 642.67 683.85 C 648.71 630.79 643.40 575.59 620.61 526.81 Z" fill="#dcc0b2" fill-rule="nonzero" node-id="201" stroke="none" target-height="161.034" target-width="48.162964" target-x="620.609" target-y="522.934"></path><path d="M 672.53 587.76 C 683.09 596.82 693.18 606.53 701.65 617.59 C 702.97 636.92 702.06 656.57 705.79 675.67 C 697.87 684.29 690.80 693.85 686.02 704.62 C 676.66 725.74 668.68 747.50 662.32 769.77 C 680.07 766.36 697.55 759.59 711.36 747.74 C 722.01 738.70 729.64 726.88 737.82 715.76 C 738.94 717.38 741.13 720.63 742.22 722.25 C 739.64 749.06 730.46 777.63 707.84 794.20 C 690.33 805.96 668.07 802.38 648.18 802.24 C 664.43 757.74 671.68 710.43 676.28 663.47 C 678.98 638.15 675.17 612.90 672.53 587.76 Z" fill="#d0b4a7" fill-rule="nonzero" node-id="203" stroke="none" target-height="218.203" target-width="94.03888" target-x="648.181" target-y="587.758"></path><path d="M 732.04 592.57 C 734.30 587.96 741.66 589.20 742.63 594.07 C 745.10 603.30 745.12 613.01 745.48 622.55 C 749.17 617.50 752.34 611.43 758.82 609.61 C 767.68 621.14 759.44 635.48 757.50 648.01 C 761.73 643.99 766.30 640.32 771.44 637.53 C 776.27 649.56 769.35 661.68 765.51 672.94 C 764.42 678.75 757.53 678.75 754.36 682.91 C 749.47 661.53 738.11 642.46 728.35 623.04 C 727.99 612.93 727.20 601.78 732.04 592.57 Z" fill="#80a773" fill-rule="nonzero" node-id="205" stroke="none" target-height="94.948" target-width="49.07196" target-x="727.203" target-y="587.964"></path><path d="M 306.69 664.05 C 317.58 637.15 333.33 611.61 355.56 592.69 C 354.07 610.49 353.24 628.38 353.89 646.31 C 352.63 636.45 351.87 626.59 351.22 616.74 C 337.11 632.49 323.88 649.30 314.79 668.54 C 312.12 666.96 309.42 665.46 306.69 664.05 Z" fill="#d5ae9d" fill-rule="nonzero" node-id="207" stroke="none" target-height="75.85303" target-width="48.86801" target-x="306.694" target-y="592.686"></path><path d="M 449.54 604.57 C 458.17 637.10 464.71 670.18 471.72 703.12 C 469.08 705.79 466.32 708.43 464.06 711.48 C 463.04 716.88 464.86 722.34 465.94 727.64 C 471.22 747.88 477.50 768.30 477.41 789.42 C 477.94 793.73 474.94 797.10 472.77 800.51 C 472.51 787.89 472.13 775.22 468.90 763.02 C 458.70 721.10 447.28 678.84 445.41 635.60 C 448.13 625.45 449.34 615.01 449.54 604.57 Z" fill="#e3c4b4" fill-rule="nonzero" node-id="209" stroke="none" target-height="195.94006" target-width="32.53" target-x="445.407" target-y="604.565"></path><path d="M 314.79 668.54 C 323.88 649.30 337.11 632.49 351.22 616.74 C 351.87 626.59 352.63 636.45 353.89 646.31 C 356.62 675.70 361.93 704.77 369.17 733.39 C 367.27 735.15 365.33 736.94 363.42 738.76 C 359.29 733.13 355.21 727.47 351.25 721.78 C 340.43 703.18 331.22 683.09 314.79 668.54 Z" fill="#edd3b8" fill-rule="nonzero" node-id="211" stroke="none" target-height="122.02191" target-width="54.38202" target-x="314.791" target-y="616.739"></path><path d="M 580.48 620.73 C 583.59 621.20 586.70 621.73 589.84 622.28 C 589.60 669.01 581.95 715.41 568.49 760.11 C 564.32 773.90 564.79 788.36 564.17 802.62 C 563.12 803.12 561.00 804.14 559.95 804.67 C 559.89 794.05 559.77 783.46 559.39 772.90 C 545.40 779.39 531.32 785.96 516.63 790.71 C 511.64 792.62 506.42 791.21 501.75 789.18 C 502.58 781.47 502.52 773.70 501.40 766.04 C 498.44 743.66 498.32 720.87 502.22 698.61 C 506.30 726.12 507.86 754.04 513.78 781.29 C 516.36 775.95 518.83 770.50 520.15 764.72 C 525.84 738.88 529.09 712.60 534.99 686.81 C 538.04 719.75 530.18 752.20 525.66 784.61 C 529.41 781.67 533.81 779.30 536.48 775.28 C 562.50 727.53 566.40 672.35 580.48 620.73 Z" fill="#e6c7b2" fill-rule="nonzero" node-id="213" stroke="none" target-height="183.94202" target-width="91.517" target-x="498.322" target-y="620.728"></path><path d="M 705.79 675.67 C 702.06 656.57 702.97 636.92 701.65 617.59 C 712.68 632.34 728.82 647.57 725.71 667.72 C 718.84 669.77 712.10 672.26 705.79 675.67 Z" fill="#e2cab5" fill-rule="nonzero" node-id="215" stroke="none" target-height="58.078003" target-width="27.161926" target-x="701.654" target-y="617.589"></path><path d="M 241.75 648.51 C 239.00 643.81 245.54 638.12 249.70 641.41 C 259.38 655.90 261.93 673.59 267.71 689.69 C 266.63 678.16 261.32 665.99 265.98 654.75 C 267.54 654.81 270.68 654.93 272.26 654.99 C 276.92 663.79 275.22 674.23 276.66 683.82 C 276.75 694.41 286.05 702.77 283.08 713.80 C 267.89 714.71 250.82 715.82 237.91 706.20 C 233.19 702.80 230.28 694.44 236.47 690.92 C 244.13 693.59 251.70 696.70 259.79 697.84 C 253.69 688.78 243.54 683.62 237.47 674.61 C 234.22 669.89 231.69 664.73 228.99 659.71 C 238.44 649.21 245.04 666.75 251.32 672.38 C 248.41 664.29 244.28 656.69 241.75 648.51 Z" fill="#669a72" fill-rule="nonzero" node-id="217" stroke="none" target-height="77.70099" target-width="57.05101" target-x="228.994" target-y="638.122"></path><path d="M 773.69 666.16 C 777.68 659.62 789.04 660.68 789.65 669.07 C 790.38 682.03 784.55 694.21 783.20 706.99 C 790.06 691.89 797.39 676.05 809.83 664.67 C 813.15 660.12 821.68 663.67 820.36 669.13 C 816.34 682.36 803.79 690.16 797.01 701.77 C 806.96 695.32 817.02 683.73 829.92 686.70 C 830.16 688.25 830.63 691.36 830.89 692.91 C 819.57 705.79 801.12 710.01 790.56 723.66 C 798.95 721.22 814.67 711.80 818.28 724.62 C 812.97 733.10 803.03 736.83 793.73 738.97 C 782.70 741.25 770.03 741.31 760.58 734.36 C 771.82 713.24 762.34 687.22 773.69 666.16 Z" fill="#749d77" fill-rule="nonzero" node-id="219" stroke="none" target-height="81.69098" target-width="70.30896" target-x="760.58307" target-y="659.622"></path><path d="M 306.69 664.05 C 309.42 665.46 312.12 666.96 314.79 668.54 C 331.22 683.09 340.43 703.18 351.25 721.78 C 338.58 706.85 317.96 703.36 300.01 698.52 C 301.15 686.81 303.29 675.26 306.69 664.05 Z" fill="#c7814d" fill-rule="nonzero" node-id="221" stroke="none" target-height="57.725952" target-width="51.24402" target-x="300.007" target-y="664.051"></path><path d="M 705.79 675.67 C 712.10 672.26 718.84 669.77 725.71 667.72 L 729.37 666.60 C 741.46 682.36 742.07 703.24 742.22 722.25 C 741.13 720.63 738.94 717.38 737.82 715.76 C 729.64 726.88 722.01 738.70 711.36 747.74 C 697.55 759.59 680.07 766.36 662.32 769.77 C 668.68 747.50 676.66 725.74 686.02 704.62 C 690.80 693.85 697.87 684.29 705.79 675.67 Z" fill="#f7e3bc" fill-rule="nonzero" node-id="223" stroke="none" target-height="103.16107" target-width="79.901" target-x="662.32" target-y="666.604"></path><path d="M 372.55 683.53 C 378.68 682.41 384.87 681.86 391.08 681.94 C 392.14 682.74 394.28 684.32 395.34 685.14 C 398.06 701.45 400.26 718.14 406.89 733.48 C 400.44 736.68 393.61 739.05 386.77 741.34 C 380.96 722.34 377.38 702.77 372.55 683.53 Z" fill="#8d4e36" fill-rule="nonzero" node-id="225" stroke="none" target-height="59.485962" target-width="34.349" target-x="372.545" target-y="681.856"></path><path d="M 597.70 715.71 C 609.87 701.60 625.10 690.22 642.67 683.85 L 643.75 683.53 C 641.05 701.51 638.94 719.64 634.48 737.29 C 621.31 731.81 609.58 723.48 597.70 715.71 Z" fill="#b8724e" fill-rule="nonzero" node-id="227" stroke="none" target-height="53.76599" target-width="46.052002" target-x="597.7" target-y="683.528"></path><path d="M 643.75 683.53 C 649.68 683.38 655.60 683.64 661.53 683.97 C 657.80 704.38 657.95 725.65 650.91 745.36 C 650.76 744.25 650.47 741.99 650.35 740.84 C 645.92 739.79 641.49 738.97 637.12 738.00 L 634.48 737.29 C 638.94 719.64 641.05 701.51 643.75 683.53 Z" fill="#7b4532" fill-rule="nonzero" node-id="229" stroke="none" target-height="61.979004" target-width="27.044006" target-x="634.483" target-y="683.381"></path><path d="M 395.34 685.14 C 409.97 693.30 429.57 699.07 436.64 715.59 C 428.57 722.98 418.22 727.12 408.80 732.51 L 406.89 733.48 C 400.26 718.14 398.06 701.45 395.34 685.14 Z" fill="#ab6840" fill-rule="nonzero" node-id="231" stroke="none" target-height="48.340027" target-width="41.299988" target-x="395.337" target-y="685.141"></path><path d="M 300.01 698.52 C 317.96 703.36 338.58 706.85 351.25 721.78 C 355.21 727.47 359.29 733.13 363.42 738.76 C 365.33 736.94 367.27 735.15 369.17 733.39 C 371.69 745.45 375.07 757.36 378.50 769.21 C 361.05 762.78 343.15 756.42 327.87 745.60 C 316.40 737.44 311.98 723.54 304.94 712.01 C 303.59 716.56 302.21 721.22 301.09 725.91 C 300.18 716.79 300.04 707.64 300.01 698.52 Z" fill="#f8e0c1" fill-rule="nonzero" node-id="233" stroke="none" target-height="70.69098" target-width="78.49301" target-x="300.007" target-y="698.517"></path><path d="M 464.06 711.48 C 466.32 708.43 469.08 705.79 471.72 703.12 C 475.50 720.63 480.49 737.88 485.09 755.22 C 488.97 767.18 491.46 780.79 501.75 789.18 C 506.42 791.21 511.64 792.62 516.63 790.71 C 531.32 785.96 545.40 779.39 559.39 772.90 C 559.77 783.46 559.89 794.05 559.95 804.67 C 530.56 810.13 500.26 812.83 470.78 806.28 C 471.28 804.85 472.28 801.94 472.77 800.51 C 474.94 797.10 477.94 793.73 477.41 789.42 C 477.50 768.30 471.22 747.88 465.94 727.64 C 464.86 722.34 463.04 716.88 464.06 711.48 Z" fill="#d8baab" fill-rule="nonzero" node-id="235" stroke="none" target-height="109.703" target-width="96.914" target-x="463.036" target-y="703.122"></path><path d="M 304.94 712.01 C 311.97 723.54 316.40 737.44 327.87 745.60 C 343.15 756.42 361.05 762.78 378.50 769.21 C 381.70 779.74 385.33 790.15 389.24 800.48 C 370.67 801.88 349.61 803.91 333.80 791.94 C 313.15 776.54 303.32 750.88 301.09 725.91 C 302.21 721.22 303.58 716.56 304.94 712.01 Z" fill="#d2b5a9" fill-rule="nonzero" node-id="237" stroke="none" target-height="91.89807" target-width="88.14398" target-x="301.092" target-y="712.00995"></path><path d="M 386.77 741.34 C 393.61 739.05 400.44 736.68 406.89 733.48 L 408.80 732.51 C 416.75 758.03 423.35 784.02 433.70 808.75 C 434.52 815.11 423.52 814.79 423.12 808.98 C 420.80 797.04 418.22 784.96 411.29 774.72 C 413.14 785.75 414.40 796.99 413.00 808.16 C 410.27 805.64 407.16 803.32 405.63 799.89 C 396.54 781.38 392.64 760.97 386.77 741.34 Z" fill="#e3c0aa" fill-rule="nonzero" node-id="239" stroke="none" target-height="82.60004" target-width="47.75299" target-x="386.772" target-y="732.513"></path><path d="M 637.12 738.00 C 641.49 738.97 645.92 739.79 650.35 740.84 C 650.47 741.99 650.76 744.25 650.91 745.36 C 646.60 759.53 642.26 773.73 636.98 787.60 C 633.51 795.93 630.41 805.08 622.93 810.77 C 623.01 801.12 624.54 791.30 621.66 781.91 C 626.80 767.24 633.16 753.05 637.12 738.00 Z" fill="#ddb9a0" fill-rule="nonzero" node-id="241" stroke="none" target-height="72.77405" target-width="29.244019" target-x="621.665" target-y="737.9979"></path><path d="M 227.67 793.91 C 245.45 787.01 264.90 788.10 283.55 786.22 C 291.94 786.07 301.82 783.20 308.28 790.39 C 296.40 794.40 283.64 793.91 271.55 797.04 C 257.01 800.89 241.78 798.22 227.67 793.91 Z" fill="#fafaf7" fill-rule="nonzero" node-id="243" stroke="none" target-height="17.687012" target-width="80.60501" target-x="227.673" target-y="783.199"></path><path d="M 735.45 790.18 C 741.75 783.76 750.96 785.87 758.97 785.81 C 778.74 786.89 798.80 787.92 817.81 794.08 C 795.34 804.35 770.85 796.84 747.74 793.61 C 743.51 792.85 739.40 791.71 735.45 790.18 Z" fill="#f9faf9" fill-rule="nonzero" node-id="245" stroke="none" target-height="20.59198" target-width="82.36499" target-x="735.445" target-y="783.756"></path><path d="M 628.12 882.02 C 630.23 878.59 632.25 875.19 634.37 871.78 C 635.19 873.75 636.83 877.68 637.68 879.62 C 639.15 879.35 642.14 878.79 643.61 878.53 C 643.61 879.88 643.55 882.61 643.55 883.99 C 641.76 883.87 638.21 883.66 636.42 883.57 C 636.48 886.68 636.57 892.90 636.62 896.01 C 638.79 896.22 643.11 896.66 645.25 896.86 C 642.28 898.39 639.47 904.90 635.86 900.56 C 629.17 898.42 632.11 890.26 631.40 885.19 C 630.58 884.40 628.94 882.81 628.12 882.02 Z" fill="#321d1e" fill-rule="nonzero" node-id="247" stroke="none" target-height="33.115906" target-width="17.130005" target-x="628.118" target-y="871.7831"></path><path d="M 397.33 878.71 C 406.72 878.38 416.13 878.79 425.52 879.14 C 426.40 885.80 427.46 892.64 426.19 899.38 C 419.10 899.33 424.00 887.15 420.97 882.55 C 409.77 878.62 415.11 893.84 412.94 900.18 C 405.07 895.48 414.49 880.70 402.41 881.02 C 400.53 886.95 404.02 895.31 398.80 899.88 C 394.72 893.75 397.89 885.63 397.33 878.71 Z" fill="#290a09" fill-rule="nonzero" node-id="249" stroke="none" target-height="21.794006" target-width="32.734985" target-x="394.721" target-y="878.383"></path></svg>