<?xml version="1.0" standalone="no"?><!DOCTYPE svg PUBLIC "-//W3C//DTD SVG 1.1//EN" "http://www.w3.org/Graphics/SVG/1.1/DTD/svg11.dtd"><svg height="104" node-id="1" sillyvg="true" template-height="104" template-width="101" version="1.1" viewBox="0 0 101 104" width="101" xmlns="http://www.w3.org/2000/svg" xmlns:xlink="http://www.w3.org/1999/xlink"><defs node-id="58"><linearGradient gradientUnits="objectBoundingBox" id="linearGradient-1" node-id="5" spreadMethod="pad" x1="0.7187637" x2="0.32842273" y1="0.55187315" y2="0.8588968"><stop offset="0" stop-color="#fffffc"></stop><stop offset="1" stop-color="#d19047"></stop></linearGradient><linearGradient gradientUnits="objectBoundingBox" id="linearGradient-2" node-id="8" spreadMethod="pad" x1="0.9168141" x2="-0.75773376" y1="0.21426348" y2="1.1371514"><stop offset="0" stop-color="#fffffc"></stop><stop offset="0.27438807" stop-color="#fdfbf5"></stop><stop offset="1" stop-color="#d19047"></stop></linearGradient><linearGradient gradientUnits="objectBoundingBox" id="linearGradient-3" node-id="12" spreadMethod="pad" x1="0.5" x2="-0.2898042" y1="0.5" y2="0.8536371"><stop offset="0" stop-color="#fffffc"></stop><stop offset="0.27072105" stop-color="#faf4ea"></stop><stop offset="1" stop-color="#df9949"></stop></linearGradient><linearGradient gradientUnits="objectBoundingBox" id="linearGradient-4" node-id="16" spreadMethod="pad" x1="0.34931928" x2="0.39415506" y1="0.64106077" y2="0.4873454"><stop offset="0" stop-color="#2c7eaa"></stop><stop offset="1" stop-color="#ffbd72"></stop></linearGradient><linearGradient gradientUnits="objectBoundingBox" id="linearGradient-5" node-id="19" spreadMethod="pad" x1="0.5" x2="0.25623155" y1="0" y2="0.67247367"><stop offset="0" stop-color="#ffaeab"></stop><stop offset="1" stop-color="#ffbd72"></stop></linearGradient><linearGradient gradientUnits="objectBoundingBox" id="linearGradient-6" node-id="22" spreadMethod="pad" x1="0.5" x2="0.3536357" y1="0" y2="0.79850256"><stop offset="0" stop-color="#ffaeab"></stop><stop offset="0.6176442" stop-color="#ffba7f"></stop><stop offset="1" stop-color="#ffbd72"></stop></linearGradient><linearGradient gradientUnits="objectBoundingBox" id="linearGradient-7" node-id="26" spreadMethod="pad" x1="0.60171694" x2="0.3982831" y1="-0.15392905" y2="0.6525553"><stop offset="0" stop-color="#fff4f3"></stop><stop offset="0.6570099" stop-color="#fde9e7"></stop><stop offset="1" stop-color="#f7d1d7"></stop></linearGradient><linearGradient gradientUnits="objectBoundingBox" id="linearGradient-8" node-id="30" spreadMethod="pad" x1="0.5" x2="0.39425635" y1="0" y2="0.61049676"><stop offset="0" stop-color="#ffaeab"></stop><stop offset="0.6176442" stop-color="#ffba7f"></stop><stop offset="1" stop-color="#ffbd72"></stop></linearGradient></defs><g node-id="117"><g node-id="118"><g node-id="119"><g node-id="120"><path d="M 68.24 100.08 C 82.67 100.08 96.72 91.63 99.25 71.31 C 101.78 50.98 92.78 34.83 72.12 31.16 C 51.46 27.48 35.48 47.73 35.48 66.36 C 35.48 84.98 50.15 100.08 68.24 100.08 Z" fill="url(#linearGradient-1)" fill-rule="evenodd" group-id="1,2,3,4" id="椭圆形" node-id="39" stroke="#ffd8ac" stroke-linecap="butt" stroke-width="0.5" target-height="72.60325" target-width="66.29947" target-x="35.48072" target-y="27.480585"></path><path d="M 30.61 82.92 C 30.40 87.55 33.65 90.99 40.36 93.22 C 54.79 98.03 76.31 98.21 77.93 85.15 C 80.14 67.38 74.57 38.97 56.51 35.76 C 44.46 33.61 33.26 42.63 22.90 62.81 C 28.04 69.31 30.61 76.02 30.61 82.92 Z" fill="url(#linearGradient-2)" fill-rule="evenodd" group-id="1,2,3,4" id="椭圆形备份-2" node-id="40" stroke="none" target-height="64.59949" target-width="57.24626" target-x="22.8972" target-y="33.614765"></path><path d="M 41.40 62.27 C 38.18 51.19 47.41 50.66 69.09 60.65 L 75.17 90.97 L 44.82 88.34 C 45.79 79.82 44.65 71.13 41.40 62.27 Z" fill="url(#linearGradient-3)" fill-rule="evenodd" group-id="1,2,3,4" id="矩形" node-id="41" stroke="none" target-height="40.313942" target-width="36.98526" target-x="38.181732" target-y="50.655464"></path><path d="M 62.79 103.19 C 81.96 103.19 95.69 87.93 95.69 82.62 C 95.69 71.41 81.96 88.10 62.79 88.10 C 43.63 88.10 32.89 76.20 28.22 81.13 C 23.56 86.06 38.74 103.19 62.79 103.19 Z" fill="url(#linearGradient-4)" fill-rule="evenodd" group-id="1,2,3,4" id="尾巴" node-id="42" stroke="none" target-height="31.784027" target-width="72.12436" target-x="23.56211" target-y="71.4102"></path><path d="M 23.65 1.18 C 25.53 -0.08 27.22 3.80 33.94 8.76 C 38.42 12.07 33.75 16.27 19.94 21.35 C 17.45 8.81 21.78 2.45 23.65 1.18 Z" fill="#fffef8" fill-rule="evenodd" group-id="1,2,3,4" id="左耳🐱" node-id="43" stroke="#ffd8ac" stroke-linecap="butt" stroke-width="0.5" target-height="21.431244" target-width="20.970087" target-x="17.448019" target-y="-0.07940769"></path><g node-id="121"><path d="M 39.86 73.51 C 48.17 75.21 57.57 72.50 62.07 64.54 C 65.03 59.30 65.82 50.36 65.30 43.20 C 63.94 24.42 59.12 11.44 43.04 6.96 C 26.96 2.48 15.28 21.24 15.28 39.39 C 15.28 57.53 26.09 70.70 39.86 73.51 Z" fill="#fffef8" fill-rule="evenodd" group-id="1,2,3,4,5" id="猫头🐱" node-id="45" stroke="none" target-height="72.73051" target-width="50.540043" target-x="15.278049" target-y="2.480194"></path><path d="M 18.57 34.46 C 27.38 31.20 20.50 17.43 39.78 6.29 C 32.56 6.05 26.83 9.09 22.59 15.40 C 18.59 21.36 16.24 27.87 15.52 34.92 C 16.48 35.00 17.50 34.86 18.57 34.46 Z" fill="url(#linearGradient-5)" fill-rule="evenodd" group-id="1,2,3,4,5" id="椭圆形" node-id="46" stroke="none" target-height="28.950289" target-width="24.25819" target-x="15.521068" target-y="6.048571"></path><path d="M 55.85 43.34 C 60.79 42.08 63.18 39.29 64.35 35.25 C 63.44 27.81 61.40 21.85 58.23 17.39 C 54.77 12.51 49.84 9.08 43.45 7.11 C 40.01 11.14 37.81 17.22 37.81 24.03 C 37.81 36.16 46.18 45.81 55.85 43.34 Z" fill="url(#linearGradient-6)" fill-rule="evenodd" group-id="1,2,3,4,5" id="椭圆形" node-id="47" stroke="none" target-height="38.69759" target-width="26.53312" target-x="37.813522" target-y="7.1109433"></path><path d="M 21.83 34.61 C 15.88 27.87 9.00 24.50 1.20 24.50" fill="none" group-id="1,2,3,4,5" id="路径-19" node-id="48" stroke="#c1823a" stroke-linecap="butt" stroke-width="0.5" target-height="10.114061" target-width="20.627739" target-x="1.2009555" target-y="24.495104"></path><path d="M 19.52 25.42 C 20.66 25.93 21.77 26.57 22.86 27.33 C 23.94 28.09 25.19 29.22 26.61 30.72" fill="none" group-id="1,2,3,4,5" id="路径-20" node-id="49" stroke="#693f11" stroke-linecap="round" stroke-width="0.7776" target-height="5.3024387" target-width="7.0840263" target-x="19.52247" target-y="25.418728"></path><path d="M 32.18 32.31 C 34.38 32.10 36.30 31.99 37.94 31.99 C 39.58 31.99 41.53 32.28 43.79 32.84" fill="none" group-id="1,2,3,4,5" id="路径-20备份" node-id="50" stroke="#693f11" stroke-linecap="round" stroke-width="0.7776" target-height="0.8501873" target-width="11.617641" target-x="32.176006" target-y="31.992441"></path><path d="M 26.53 35.64 L 30.17 40.96" fill="none" group-id="1,2,3,4,5" id="路径-21" node-id="51" stroke="#ffa39a" stroke-linecap="round" stroke-width="1.1664" target-height="5.312126" target-width="3.639965" target-x="26.534584" target-y="35.643795"></path><path d="M 30.17 37.17 L 26.53 39.53" fill="none" group-id="1,2,3,4,5" id="路径-22" node-id="52" stroke="#ffa39a" stroke-linecap="round" stroke-width="1.1664" target-height="2.3577652" target-width="3.639965" target-x="26.534584" target-y="37.16777"></path></g><path d="M 54.19 2.45 C 57.82 0.19 61.54 8.16 59.61 19.62 C 57.69 31.07 43.52 19.19 44.82 12.35 C 45.21 10.32 50.56 4.71 54.19 2.45 Z" fill="#fffef8" fill-rule="evenodd" group-id="1,2,3,4" id="右耳🐱" node-id="53" stroke="#ffd8ac" stroke-linecap="butt" stroke-width="0.5" target-height="30.880545" target-width="18.01699" target-x="43.51829" target-y="0.18834335"></path><path d="M 55.89 22.73 C 57.78 22.73 59.31 19.39 59.31 13.76 C 59.31 8.12 57.98 3.55 56.09 3.55 C 54.20 3.55 52.48 7.11 50.96 11.94 C 49.45 16.77 54.01 22.73 55.89 22.73 Z" fill="url(#linearGradient-7)" fill-rule="evenodd" group-id="1,2,3,4" id="椭圆形" node-id="54" stroke="none" target-height="19.175562" target-width="9.861881" target-x="49.447403" target-y="3.551571"></path><path d="M 69.10 30.72 C 68.84 39.28 74.36 48.00 85.67 56.90 C 92.70 62.43 95.92 71.63 95.34 84.50 C 96.71 81.62 97.61 79.45 98.03 78.00 C 101.43 66.20 100.39 55.76 95.69 47.07 C 90.62 37.70 81.75 32.25 69.10 30.72 Z" fill="url(#linearGradient-8)" fill-rule="evenodd" group-id="1,2,3,4" id="路径-23" node-id="55" stroke="none" target-height="53.7778" target-width="32.587837" target-x="68.83862" target-y="30.721167"></path><path d="M 20.74 36.10 C 13.42 32.56 6.57 31.38 0.17 32.56" fill="none" group-id="1,2,3,4" id="路径-27" node-id="56" stroke="#c1823a" stroke-linecap="butt" stroke-width="0.5" target-height="4.72563" target-width="20.565527" target-x="0.17449951" target-y="31.378035"></path></g></g></g></g></svg>