<?xml version="1.0" standalone="no"?><!DOCTYPE svg PUBLIC "-//W3C//DTD SVG 1.1//EN" "http://www.w3.org/Graphics/SVG/1.1/DTD/svg11.dtd"><svg height="1200" node-id="1" sillyvg="true" template-height="1200" template-width="1200" version="1.1" viewBox="0 0 1200 1200" width="1200" xmlns="http://www.w3.org/2000/svg" xmlns:xlink="http://www.w3.org/1999/xlink"><defs node-id="86"></defs><path d="M 495.70 682.10 L 495.70 682.10 C 440.70 732.40 377.30 698.00 377.30 698.00 C 375.70 695.90 374.30 693.90 373.00 692.10 C 366.30 682.20 363.50 675.10 363.10 674.10 C 377.60 678.70 393.70 682.30 410.70 684.60 C 412.10 684.80 413.50 684.90 415.00 685.00 C 415.70 685.20 416.40 685.30 417.10 685.40 C 419.30 685.70 421.50 685.80 423.60 686.00 C 423.80 686.00 424.00 686.00 424.10 686.10 C 426.60 686.30 429.10 686.50 431.60 686.50 C 455.40 688.00 477.50 686.30 495.70 682.10 Z" fill="#ac1c10" fill-rule="nonzero" node-id="90" stroke="none" target-height="58.30005" target-width="132.6" target-x="363.1" target-y="674.1"></path><path d="M 924.50 280.00 C 928.70 299.80 930.40 319.10 930.00 337.80 C 916.30 334.30 900.10 332.40 882.80 332.40 C 876.40 332.40 870.10 332.70 864.10 333.30 C 862.40 322.20 859.10 312.00 853.70 303.20 C 885.30 287.10 904.70 266.00 899.40 250.70 C 892.90 231.50 849.50 228.80 802.40 244.80 C 797.90 246.30 793.60 248.00 789.30 249.70 C 751.90 204.50 788.00 157.20 788.00 157.20 C 788.00 157.20 888.60 111.80 924.50 280.00 Z" fill="#f2daab" fill-rule="nonzero" node-id="92" stroke="none" target-height="225.99998" target-width="178.5" target-x="751.9" target-y="111.8"></path><path d="M 930.00 337.90 C 929.60 360.50 926.20 382.10 920.90 402.70 L 920.80 402.70 C 909.30 404.90 896.60 406.20 883.10 406.30 C 874.50 406.20 866.40 405.80 858.70 404.90 L 858.60 404.90 C 864.60 379.80 867.40 354.90 864.10 333.40 C 870.10 332.80 876.40 332.50 882.80 332.50 C 900.10 332.40 916.30 334.40 930.00 337.90 Z" fill="#dfba6a" fill-rule="nonzero" node-id="94" stroke="none" target-height="73.899994" target-width="71.400024" target-x="858.6" target-y="332.4"></path><path d="M 930.00 337.90 C 929.60 360.50 926.20 382.10 920.90 402.70 L 920.80 402.70 C 909.30 404.90 896.60 406.20 883.10 406.30 C 874.50 406.20 866.40 405.80 858.70 404.90 L 858.60 404.90 C 864.60 379.80 867.40 354.90 864.10 333.40 C 870.10 332.80 876.40 332.50 882.80 332.50 C 900.10 332.40 916.30 334.40 930.00 337.90 Z" fill="#dfba6a" fill-rule="nonzero" node-id="96" stroke="none" target-height="73.899994" target-width="71.400024" target-x="858.6" target-y="332.4"></path><path d="M 899.40 250.70 C 904.70 266.00 885.30 287.10 853.70 303.20 C 848.10 294.00 840.20 286.30 829.60 280.70 C 811.10 270.90 798.20 260.40 789.40 249.70 C 793.70 248.00 798.00 246.30 802.50 244.80 C 849.40 228.80 892.90 231.50 899.40 250.70 Z" fill="#af7b04" fill-rule="nonzero" node-id="98" stroke="none" target-height="74.40001" target-width="115.29999" target-x="789.4" target-y="228.8"></path><path d="M 883.10 406.20 C 896.60 406.10 909.30 404.80 920.80 402.60 C 899.80 483.40 848.00 545.80 823.60 571.70 C 817.90 561.20 811.10 551.50 803.30 542.60 C 816.10 518.80 845.20 461.00 858.50 404.80 L 858.60 404.80 C 866.40 405.70 874.50 406.10 883.10 406.20 Z" fill="#f2daab" fill-rule="nonzero" node-id="100" stroke="none" target-height="169.1" target-width="117.5" target-x="803.3" target-y="402.6"></path><path d="M 843.60 642.00 C 843.80 647.30 843.90 652.60 843.60 658.00 C 843.60 658.00 786.50 543.50 761.50 647.10 C 761.50 647.10 711.30 617.20 707.20 688.30 C 703.20 759.60 805.30 787.60 805.30 787.60 L 805.40 787.60 C 790.70 831.40 775.40 861.40 761.20 881.80 C 753.50 874.90 743.80 870.30 732.90 868.90 C 724.60 867.80 716.60 868.60 709.20 871.20 L 721.40 811.70 L 727.10 784.40 C 726.50 784.50 725.90 784.70 725.20 784.90 C 698.80 792.50 672.60 796.30 647.00 797.20 C 592.30 799.30 540.60 788.00 495.80 772.00 C 484.10 794.00 467.20 824.90 451.30 850.70 C 447.10 848.80 442.50 847.40 437.60 846.70 C 427.70 845.40 417.90 847.20 409.60 851.50 C 416.10 817.80 429.20 774.20 439.60 748.20 C 431.60 744.30 424.30 740.00 417.80 735.70 C 398.90 723.10 385.90 709.40 377.40 698.20 C 377.40 698.20 440.70 732.60 495.80 682.40 L 495.80 682.30 C 525.10 675.80 544.80 662.70 547.10 645.40 C 547.90 639.40 546.50 633.30 543.30 627.40 C 548.60 617.50 552.30 606.70 553.80 595.10 C 555.20 585.00 554.90 574.90 553.00 565.30 L 553.10 565.30 C 564.70 547.10 576.80 532.60 589.10 521.30 C 579.30 547.80 570.30 590.60 598.20 618.40 C 641.20 661.10 613.10 497.30 663.40 486.60 L 641.00 490.40 L 641.00 490.00 C 665.10 482.40 689.00 483.20 711.40 488.10 C 697.60 512.60 668.00 575.20 702.00 609.00 C 724.30 611.40 728.70 540.80 751.90 502.50 C 771.60 512.40 789.00 526.20 803.20 542.60 C 811.00 551.50 817.80 561.20 823.50 571.70 C 835.30 593.00 842.30 616.90 843.60 642.00 Z" fill="#f2daab" fill-rule="nonzero" node-id="102" stroke="none" target-height="399.39996" target-width="466.50003" target-x="377.4" target-y="482.40002"></path><path d="M 843.60 658.00 C 842.50 678.80 837.20 700.10 824.50 719.80 C 824.20 721.10 823.80 722.50 823.50 723.90 C 817.60 747.80 811.60 768.90 805.40 787.50 L 805.30 787.50 C 805.30 787.50 703.20 759.50 707.20 688.20 C 711.30 617.00 761.50 647.00 761.50 647.00 C 786.50 543.50 843.60 658.00 843.60 658.00 Z" fill="#af7b04" fill-rule="nonzero" node-id="104" stroke="none" target-height="244" target-width="140.3999" target-x="703.2001" target-y="543.5"></path><path d="M 732.90 868.90 C 743.80 870.30 753.50 874.90 761.20 881.80 C 726.70 931.00 698.00 924.90 698.00 924.90 L 709.10 871.20 C 716.50 868.60 724.60 867.80 732.90 868.90 Z" fill="#fffbe2" fill-rule="nonzero" node-id="106" stroke="none" target-height="63.19995" target-width="63.200012" target-x="698" target-y="867.80005"></path><path d="M 722.60 490.90 C 732.80 493.80 742.70 497.70 752.00 502.50 C 728.80 540.80 724.40 611.40 702.00 609.00 C 668.00 575.30 697.60 512.60 711.20 488.10 C 715.00 488.90 718.80 489.80 722.60 490.90 Z" fill="#af7b04" fill-rule="nonzero" node-id="108" stroke="none" target-height="123.30002" target-width="84" target-x="668" target-y="488.1"></path><path d="M 727.10 784.30 L 721.40 811.60 C 697.50 836.40 677.30 855.00 660.20 869.00 C 652.40 861.70 642.40 856.70 631.10 855.20 C 623.70 854.20 616.40 854.80 609.70 856.70 L 647.10 797.10 C 672.60 796.20 698.80 792.40 725.30 784.80 C 725.90 784.60 726.50 784.40 727.10 784.30 Z" fill="#deb27e" fill-rule="nonzero" node-id="110" stroke="none" target-height="84.70007" target-width="117.39996" target-x="609.7" target-y="784.2999"></path><path d="M 640.90 490.10 L 663.30 486.30 C 613.10 497.00 641.20 660.80 598.10 618.10 C 570.20 590.30 579.20 547.50 589.00 521.00 C 606.00 505.30 623.40 495.50 640.90 490.10 L 640.90 490.10 L 640.90 490.10 Z" fill="#dfba6a" fill-rule="nonzero" node-id="112" stroke="none" target-height="174.5" target-width="93.099976" target-x="570.2" target-y="486.3"></path><path d="M 631.00 855.30 C 642.30 856.80 652.30 861.80 660.10 869.10 C 597.90 919.60 577.40 908.00 577.40 908.00 L 609.50 856.80 C 616.30 854.90 623.60 854.30 631.00 855.30 Z" fill="#fffbe2" fill-rule="nonzero" node-id="114" stroke="none" target-height="65.29999" target-width="82.69995" target-x="577.4" target-y="854.3"></path><path d="M 573.10 449.80 C 588.80 471.60 562.50 543.10 553.00 565.00 L 552.90 565.00 C 546.40 529.20 519.70 497.80 482.40 481.80 L 482.80 480.90 C 482.90 481.00 554.50 424.00 573.10 449.80 Z" fill="#f2daab" fill-rule="nonzero" node-id="116" stroke="none" target-height="141" target-width="106.39996" target-x="482.40002" target-y="424"></path><path d="M 555.50 559.00 C 562.00 542.90 572.30 513.90 576.30 489.00 C 576.80 480.30 575.80 472.90 572.50 468.30 C 559.00 449.60 511.50 484.30 501.40 492.00 C 507.80 496.10 513.70 500.60 519.10 505.60 C 537.90 519.00 551.00 538.00 555.50 559.00 Z" fill="#dfba6a" fill-rule="nonzero" node-id="118" stroke="none" target-height="109.399994" target-width="75.399994" target-x="501.4" target-y="449.6"></path><path d="M 552.90 565.00 C 546.40 529.20 519.70 497.80 482.40 481.80 C 471.00 476.80 458.70 473.40 445.60 471.60 C 429.00 469.40 412.90 470.10 397.80 473.50 C 385.60 476.10 374.20 480.30 363.80 486.00 C 340.40 498.70 322.30 518.60 313.80 542.70 C 313.80 542.80 313.80 542.80 313.80 542.90 L 313.70 543.00 C 311.40 549.10 309.90 555.50 309.00 562.10 C 308.00 570.10 308.00 577.90 308.90 585.70 C 297.80 592.40 290.80 600.90 289.50 610.70 C 286.40 634.40 316.90 659.20 363.10 673.80 C 363.10 673.80 363.10 673.80 363.20 673.90 C 377.70 678.50 393.80 682.10 410.80 684.40 C 412.20 684.60 413.60 684.70 415.10 684.80 C 415.80 685.00 416.50 685.10 417.20 685.20 C 419.40 685.50 421.60 685.60 423.70 685.80 C 423.90 685.80 424.10 685.80 424.20 685.90 C 426.70 686.10 429.20 686.30 431.70 686.30 C 455.50 687.80 477.50 686.10 495.70 681.90 C 525.00 675.40 544.70 662.30 547.00 645.00 C 547.80 639.00 546.40 632.90 543.20 627.00 C 548.50 617.10 552.20 606.30 553.70 594.70 C 555.10 584.70 554.80 574.60 552.90 565.00 Z" fill="#f2daab" fill-rule="nonzero" node-id="120" stroke="none" target-height="218.4" target-width="268.69998" target-x="286.4" target-y="469.4"></path><path d="M 451.20 850.60 C 434.70 877.60 419.20 899.10 412.00 899.40 C 403.30 899.80 404.20 878.90 409.50 851.40 C 417.80 847.10 427.60 845.30 437.50 846.60 C 442.40 847.20 447.00 848.70 451.20 850.60 Z" fill="#fffbe2" fill-rule="nonzero" node-id="122" stroke="none" target-height="54.50006" target-width="47.900024" target-x="403.3" target-y="845.3"></path><path d="M 417.70 735.60 L 417.10 736.50 C 401.20 748.80 369.60 771.90 337.10 787.00 C 333.90 772.10 324.40 759.20 311.30 751.40 L 362.70 702.80 L 368.80 696.90 L 372.90 692.20 C 374.20 694.00 375.60 696.00 377.20 698.10 C 385.80 709.20 398.80 723.00 417.70 735.60 Z" fill="#deb27e" fill-rule="nonzero" node-id="124" stroke="none" target-height="94.79999" target-width="106.400024" target-x="311.3" target-y="692.2"></path><path d="M 397.80 473.60 C 385.60 476.20 374.20 480.40 363.80 486.10 C 340.40 498.80 322.30 518.70 313.80 542.80 C 310.60 523.70 299.40 440.60 321.20 423.00 C 342.80 405.50 387.10 459.70 397.80 473.60 Z" fill="#f2daab" fill-rule="nonzero" node-id="126" stroke="none" target-height="137.29999" target-width="98.399994" target-x="299.4" target-y="405.5"></path><path d="M 314.80 431.70 C 301.80 459.20 310.90 525.90 313.70 542.80 C 313.70 542.80 313.70 542.80 313.70 542.70 C 319.10 527.30 324.80 507.60 339.70 499.50 C 346.40 495.80 368.00 481.90 375.90 480.30 C 369.40 472.00 331.00 427.80 314.80 431.70 Z" fill="#dfba6a" fill-rule="nonzero" node-id="128" stroke="none" target-height="115" target-width="74.100006" target-x="301.8" target-y="427.8"></path><path d="M 337.20 787.00 C 330.00 790.30 322.70 793.30 315.60 795.60 C 262.90 812.90 270.40 787.00 270.40 787.00 L 289.60 772.10 L 311.40 751.40 C 324.40 759.20 333.90 772.10 337.20 787.00 Z" fill="#fffbe2" fill-rule="nonzero" node-id="130" stroke="none" target-height="61.49994" target-width="74.30002" target-x="262.9" target-y="751.4001"></path><path d="M 610.40 718.50 C 551.90 694.30 496.00 765.10 496.70 771.70 C 540.70 787.00 591.00 797.70 644.30 795.70 C 669.80 794.80 696.00 791.00 722.50 783.40 C 723.20 783.20 723.80 783.00 724.40 782.90 C 680.20 751.00 677.00 746.10 610.40 718.50 Z" fill="#fffbe2" fill-rule="nonzero" node-id="132" stroke="none" target-height="103.400024" target-width="228.40002" target-x="496" target-y="694.3"></path><g node-id="301"><path d="M 761.20 881.80 C 759.00 879.80 756.60 878.00 754.00 876.50 C 753.90 876.40 753.70 876.40 753.60 876.30 C 751.10 874.80 748.40 873.50 745.70 872.40 L 745.70 872.40 C 730.60 896.30 711.80 923.60 711.80 923.60 L 711.80 923.60 L 711.80 923.60 C 723.30 920.10 741.30 910.20 761.20 881.80 L 761.20 881.80 L 761.20 881.80 Z" fill="#916737" fill-opacity="0.48" fill-rule="nonzero" group-id="1" node-id="136" stroke="none" target-height="51.19995" target-width="49.400024" target-x="711.8" target-y="872.4"></path></g><path d="M 843.60 658.00 C 831.70 646.80 823.20 649.40 817.60 655.00 C 810.60 662.10 799.30 662.50 791.40 656.50 C 791.40 656.50 776.80 638.80 777.40 658.70 C 777.50 663.60 781.00 667.80 782.20 672.60 C 785.60 686.20 795.30 716.00 819.00 737.60 C 821.80 727.70 824.50 717.30 827.30 706.20 C 827.60 704.80 828.00 703.40 828.30 702.10" fill="#dfba6a" fill-rule="nonzero" node-id="139" stroke="none" target-height="98.79999" target-width="66.79999" target-x="776.8" target-y="638.8"></path><path d="M 817.70 655.00 C 810.70 662.10 799.40 662.50 791.50 656.50 C 791.50 656.50 776.90 638.80 777.50 658.70 C 777.60 663.60 781.10 667.80 782.30 672.60 C 785.70 686.20 795.40 716.00 819.10 737.60 C 821.90 727.70 824.60 717.30 827.40 706.20 C 827.70 704.80 828.10 703.40 828.40 702.10 C 834.80 692.20 839.20 682.00 842.30 671.50 C 843.00 667.00 843.40 662.40 843.70 657.90 C 831.70 646.80 823.20 649.40 817.70 655.00 Z" fill="#dfba6a" fill-rule="nonzero" node-id="141" stroke="none" target-height="98.79999" target-width="66.79993" target-x="776.9" target-y="638.8"></path><g node-id="302"><path d="M 824.50 719.90 C 837.20 700.20 842.50 678.90 843.60 658.10 C 843.60 658.10 838.10 647.00 829.70 634.90 C 826.20 661.30 818.40 682.30 805.40 687.80 C 790.70 693.90 783.00 736.40 776.40 776.60 C 792.60 784.20 805.30 787.70 805.30 787.70 L 805.40 787.70 C 811.60 769.10 817.60 748.00 823.50 724.10 C 823.80 722.60 824.20 721.20 824.50 719.90 Z" fill="#916737" fill-opacity="0.48" fill-rule="nonzero" group-id="2" node-id="145" stroke="none" target-height="152.79999" target-width="67.19995" target-x="776.4" target-y="634.9"></path></g><g node-id="303"><g node-id="318"><path d="M 805.40 787.60 L 805.40 787.60 C 805.30 787.60 792.60 784.10 776.40 776.50 C 771.50 806.20 767.20 834.60 761.20 846.20 C 757.80 852.70 752.00 862.20 745.60 872.30 C 751.30 874.60 756.60 877.70 761.10 881.80 C 775.40 861.40 790.70 831.40 805.40 787.60 Z" fill="#916737" fill-opacity="0.48" fill-rule="nonzero" group-id="3,18" node-id="152" stroke="none" target-height="105.29999" target-width="59.80005" target-x="745.6" target-y="776.5"></path></g><path d="M 843.60 658.00 C 843.90 652.60 843.80 647.30 843.60 642.00 C 842.60 623.30 838.50 605.30 831.60 588.50 C 832.20 604.40 831.60 620.40 829.70 634.80 C 838.10 647.00 843.60 658.00 843.60 658.00 Z" fill="#916737" fill-opacity="0.48" fill-rule="nonzero" group-id="3,19" node-id="157" stroke="none" target-height="69.5" target-width="14.200012" target-x="829.7" target-y="588.5"></path></g><g node-id="304"><path d="M 721.30 811.60 L 727.00 784.30 C 726.40 784.40 725.80 784.60 725.10 784.80 C 698.70 792.40 672.50 796.20 646.90 797.10 L 638.60 810.30 C 654.70 819.90 674.10 833.70 683.40 848.70 C 695.00 838.20 707.50 826.00 721.30 811.60 Z" fill="#916737" fill-opacity="0.48" fill-rule="nonzero" group-id="4" node-id="163" stroke="none" target-height="64.40015" target-width="88.400024" target-x="638.6" target-y="784.2999"></path></g><g node-id="305"><path d="M 369.40 695.90 C 369.40 711.40 395.40 752.40 395.40 752.40 C 395.40 752.40 417.70 743.90 417.70 735.60" fill="#916737" fill-opacity="0.48" fill-rule="nonzero" group-id="5" node-id="168" stroke="none" target-height="56.50006" target-width="48.299988" target-x="369.40002" target-y="695.9"></path></g><path d="M 442.80 599.80 C 442.80 599.80 513.80 584.90 525.50 617.00 C 482.50 602.10 442.80 599.80 442.80 599.80 Z" fill="#dfba6a" fill-rule="nonzero" node-id="171" stroke="none" target-height="32.099976" target-width="82.69998" target-x="442.80002" target-y="584.9"></path><path d="M 421.90 610.20 C 421.90 610.20 514.60 610.00 519.00 643.90 C 480.30 619.80 421.90 610.20 421.90 610.20 Z" fill="#be9e5a" fill-rule="nonzero" node-id="173" stroke="none" target-height="33.900024" target-width="97.100006" target-x="421.9" target-y="610"></path><path d="M 417.70 617.10 C 417.70 617.10 510.20 632.10 506.80 666.20 C 474.50 633.90 417.70 617.10 417.70 617.10 Z" fill="#ae9152" fill-rule="nonzero" node-id="175" stroke="none" target-height="49.100037" target-width="92.5" target-x="417.7" target-y="617.1"></path><path d="M 308.20 574.00 C 308.20 575.10 308.30 576.20 308.40 577.30 C 315.70 578.50 320.00 579.40 320.00 579.40 C 320.00 579.40 315.30 577.00 308.20 574.00 Z" fill="#dfba6a" fill-rule="nonzero" node-id="177" stroke="none" target-height="5.4000244" target-width="11.799988" target-x="308.2" target-y="574"></path><path d="M 305.50 588.20 C 303.20 589.80 301.10 591.50 299.20 593.30 C 321.00 593.30 337.30 595.10 337.30 595.10 C 337.30 595.10 323.20 591.10 305.50 588.20 Z" fill="#be9e5a" fill-rule="nonzero" node-id="179" stroke="none" target-height="6.8999634" target-width="38.099976" target-x="299.2" target-y="588.2"></path><path d="M 292.70 601.60 C 291.50 603.80 290.60 606.10 290.00 608.50 C 316.70 603.10 339.30 602.90 339.30 602.90 C 339.30 602.90 316.60 600.20 292.70 601.60 Z" fill="#ae9152" fill-rule="nonzero" node-id="181" stroke="none" target-height="8.299988" target-width="49.299988" target-x="290" target-y="600.2"></path><path d="M 455.30 773.40 C 451.10 767.80 442.60 765.30 433.50 764.40 C 430.70 772.30 427.90 780.90 425.20 790.00 C 442.50 786.40 461.80 782.20 455.30 773.40 Z" fill="#dfba6a" fill-rule="nonzero" node-id="183" stroke="none" target-height="25.599976" target-width="36.599976" target-x="425.2" target-y="764.4"></path><path d="M 479.10 554.30 C 479.10 570.92 465.62 584.40 449.00 584.40 C 432.38 584.40 418.90 570.92 418.90 554.30 C 418.90 537.68 432.38 524.20 449.00 524.20 C 465.62 524.20 479.10 537.68 479.10 554.30 Z" fill="#fffbe2" fill-rule="nonzero" node-id="185" stroke="none" target-height="60.19995" target-width="60.19998" target-x="418.9" target-y="524.2"></path><path d="M 370.00 538.30 C 370.00 550.89 359.79 561.10 347.20 561.10 C 334.61 561.10 324.40 550.89 324.40 538.30 C 324.40 525.71 334.61 515.50 347.20 515.50 C 359.79 515.50 370.00 525.71 370.00 538.30 Z" fill="#fffbe2" fill-rule="nonzero" node-id="187" stroke="none" target-height="45.599976" target-width="45.599976" target-x="324.40002" target-y="515.5"></path><g node-id="306"><path d="M 443.44 516.05 C 444.13 518.90 439.20 522.52 432.43 524.15 C 425.67 525.77 419.63 524.79 418.94 521.94 C 418.26 519.09 423.19 515.47 429.95 513.84 C 436.72 512.22 442.76 513.20 443.44 516.05 Z" fill="#ae9152" fill-rule="nonzero" group-id="6" node-id="191" stroke="none" target-height="13.558899" target-width="25.870056" target-x="418.2575" target-y="512.2157"></path></g><g node-id="307"><path d="M 373.44 505.48 C 377.98 510.76 379.85 516.59 377.63 518.49 C 375.41 520.40 369.94 517.67 365.40 512.39 C 360.87 507.11 358.99 501.28 361.21 499.38 C 363.43 497.47 368.91 500.20 373.44 505.48 Z" fill="#ae9152" fill-rule="nonzero" group-id="7" node-id="196" stroke="none" target-height="22.931274" target-width="20.861267" target-x="358.99243" target-y="497.46887"></path></g><path d="M 370.00 589.50 C 340.70 589.50 300.20 617.40 300.20 638.50 C 312.60 652.40 334.90 665.10 363.00 674.00 C 363.00 674.00 363.00 674.00 363.10 674.10 C 377.60 678.70 393.70 682.30 410.70 684.60 C 412.10 684.80 413.50 684.90 415.00 685.00 C 415.70 685.20 416.40 685.30 417.10 685.40 C 419.30 685.70 421.50 685.80 423.60 686.00 C 423.80 686.00 424.00 686.00 424.10 686.10 C 426.60 686.30 429.10 686.50 431.60 686.50 C 452.20 687.80 471.20 686.60 487.80 683.60 C 487.50 662.30 399.30 589.50 370.00 589.50 Z" fill="#fffbe2" fill-rule="nonzero" node-id="199" stroke="none" target-height="98.29999" target-width="187.59995" target-x="300.2" target-y="589.5"></path><path d="M 689.60 484.80 C 681.50 484.10 673.30 484.20 665.00 485.00 C 654.90 511.70 645.20 544.90 649.40 565.00 C 655.30 593.20 672.10 522.60 689.60 484.80 Z" fill="#8c743f" fill-rule="nonzero" node-id="201" stroke="none" target-height="109.100006" target-width="44.399902" target-x="645.2" target-y="484.1"></path><path d="M 830.90 485.60 C 820.30 510.20 809.80 530.60 803.40 542.60 C 811.20 551.50 818.00 561.20 823.70 571.70 C 838.40 556.10 863.00 527.10 884.90 488.90 C 868.30 482.90 846.60 483.70 830.90 485.60 Z" fill="#dfba6a" fill-rule="nonzero" node-id="203" stroke="none" target-height="88.80002" target-width="81.5" target-x="803.4" target-y="482.9"></path><path d="M 823.60 571.70 C 848.00 545.80 899.80 483.30 920.80 402.60 C 912.50 404.20 903.50 405.10 894.10 405.60 C 882.00 452.00 859.80 506.90 823.60 571.70 Z" fill="#8c743f" fill-rule="nonzero" node-id="205" stroke="none" target-height="169.1" target-width="97.20001" target-x="823.6" target-y="402.6"></path><path d="M 830.60 564.10 C 832.20 562.30 833.90 560.40 835.70 558.30 C 836.20 557.80 836.60 557.20 837.10 556.70 C 839.10 554.40 841.10 551.90 843.30 549.30 C 843.60 549.00 843.80 548.70 844.10 548.40 C 856.80 532.80 871.40 512.70 885.00 489.00 L 885.00 489.00 C 879.40 486.90 873.10 485.70 866.70 485.00 C 855.30 511.70 841.20 540.60 823.80 571.80 C 825.50 570.00 827.40 567.90 829.30 565.80 C 829.60 565.20 830.10 564.70 830.60 564.10 Z" fill="#8c743f" fill-rule="nonzero" node-id="207" stroke="none" target-height="86.79999" target-width="61.200012" target-x="823.8" target-y="485"></path><path d="M 894.10 405.60 C 903.50 405.10 912.50 404.10 920.80 402.60 L 920.90 402.60 C 926.20 382.10 929.60 360.50 930.00 337.80 C 922.60 335.90 914.40 334.50 905.70 333.60 C 904.70 355.00 901.10 378.90 894.10 405.60 Z" fill="#8c743f" fill-rule="nonzero" node-id="209" stroke="none" target-height="72" target-width="35.900024" target-x="894.1" target-y="333.6"></path><path d="M 889.20 240.00 C 894.30 242.70 897.80 246.20 899.40 250.60 C 900.90 254.80 900.40 259.40 898.40 264.30 C 904.00 283.80 906.90 306.70 905.70 333.60 C 914.40 334.50 922.60 335.90 930.00 337.80 C 930.40 319.10 928.70 299.80 924.50 280.00 C 888.60 111.80 788.00 157.20 788.00 157.20 C 788.00 157.20 856.70 171.10 889.20 240.00 Z" fill="#8c743f" fill-rule="nonzero" node-id="211" stroke="none" target-height="225.99998" target-width="142.40002" target-x="788" target-y="111.8"></path><path d="M 899.40 250.70 C 904.70 266.00 885.30 287.10 853.70 303.20 C 848.10 294.00 840.20 286.30 829.60 280.70 C 811.10 270.90 798.20 260.40 789.40 249.70 C 793.70 248.00 798.00 246.30 802.50 244.80 C 849.40 228.80 892.90 231.50 899.40 250.70 Z" fill="#af7b04" fill-rule="nonzero" node-id="213" stroke="none" target-height="74.40001" target-width="115.29999" target-x="789.4" target-y="228.8"></path><g node-id="308"><path d="M 889.20 240.00 C 892.70 247.40 895.80 255.50 898.40 264.30 C 900.40 259.50 900.80 254.80 899.40 250.60 C 897.90 246.20 894.30 242.70 889.20 240.00 Z" fill="#3e2d04" fill-opacity="0.39" fill-rule="nonzero" group-id="8" node-id="217" stroke="none" target-height="24.299988" target-width="11.600037" target-x="889.2" target-y="240"></path></g><path d="M 823.60 571.70 C 848.00 545.80 899.80 483.30 920.80 402.60 C 912.50 404.20 903.50 405.10 894.10 405.60 C 882.00 452.00 859.80 506.90 823.60 571.70 Z" fill="#bb9c59" fill-rule="nonzero" node-id="220" stroke="none" target-height="169.1" target-width="97.20001" target-x="823.6" target-y="402.6"></path><g node-id="309"><path d="M 830.60 564.10 C 832.20 562.30 833.90 560.40 835.70 558.30 C 836.20 557.80 836.60 557.20 837.10 556.70 C 839.10 554.40 841.10 551.90 843.30 549.30 C 843.60 549.00 843.80 548.70 844.10 548.40 C 856.80 532.80 871.40 512.70 885.00 489.00 L 885.00 489.00 C 879.40 486.90 873.10 485.70 866.70 485.00 C 855.30 511.70 841.20 540.60 823.80 571.80 C 825.50 570.00 827.40 567.90 829.30 565.80 C 829.60 565.20 830.10 564.70 830.60 564.10 Z" fill="#7d6735" fill-opacity="0.39" fill-rule="nonzero" group-id="9" node-id="224" stroke="none" target-height="86.79999" target-width="61.200012" target-x="823.8" target-y="485"></path></g><g node-id="310"><path d="M 894.10 405.60 C 903.50 405.10 912.50 404.10 920.80 402.60 L 920.90 402.60 C 926.20 382.10 929.60 360.50 930.00 337.80 C 922.60 335.90 914.40 334.50 905.70 333.60 C 904.70 355.00 901.10 378.90 894.10 405.60 Z" fill="#7d6735" fill-opacity="0.39" fill-rule="nonzero" group-id="10" node-id="229" stroke="none" target-height="72" target-width="35.900024" target-x="894.1" target-y="333.6"></path></g><path d="M 889.20 240.00 C 894.30 242.70 897.80 246.20 899.40 250.60 C 900.90 254.80 900.40 259.40 898.40 264.30 C 904.00 283.80 906.90 306.70 905.70 333.60 C 914.40 334.50 922.60 335.90 930.00 337.80 C 930.40 319.10 928.70 299.80 924.50 280.00 C 888.60 111.80 788.00 157.20 788.00 157.20 C 788.00 157.20 856.70 171.10 889.20 240.00 Z" fill="#bb9c59" fill-rule="nonzero" node-id="232" stroke="none" target-height="225.99998" target-width="142.40002" target-x="788" target-y="111.8"></path><path d="M 707.40 787.30 C 618.30 804.70 548.10 772.40 512.60 750.10 C 502.50 760.50 496.60 769.60 496.80 771.80 C 540.80 787.10 591.10 797.80 644.40 795.80 C 665.00 795.00 686.10 792.30 707.40 787.30 Z" fill="#a08f78" fill-rule="nonzero" node-id="234" stroke="none" target-height="54.600037" target-width="210.79999" target-x="496.60004" target-y="750.1"></path><g node-id="311"><path d="M 751.71 675.47 C 761.04 686.24 764.34 698.66 759.08 703.22 C 753.82 707.77 741.99 702.74 732.66 691.97 C 723.33 681.20 720.03 668.77 725.29 664.22 C 730.55 659.66 742.38 664.70 751.71 675.47 Z" fill="#dfba6a" fill-rule="nonzero" group-id="11" node-id="238" stroke="none" target-height="48.11255" target-width="44.30664" target-x="720.03326" target-y="659.66144"></path></g><g node-id="312"><path d="M 436.40 470.80 C 423.70 469.90 411.40 470.70 399.70 473.20 L 393.60 480.10 C 393.60 480.10 381.00 499.20 394.10 513.10 C 405.90 525.80 408.50 473.10 436.40 470.80 Z" fill="#fffbe2" fill-rule="nonzero" group-id="12" node-id="243" stroke="none" target-height="55.899994" target-width="55.399994" target-x="381" target-y="469.9"></path><path d="M 452.80 472.90 C 450.40 472.50 448.10 472.00 445.60 471.70 C 448.60 472.50 450.80 472.80 452.80 472.90 Z" fill="#fffbe2" fill-rule="nonzero" group-id="12" node-id="245" stroke="none" target-height="1.1999512" target-width="7.200012" target-x="445.59998" target-y="471.70004"></path></g><g node-id="313"><path d="M 424.30 470.40 C 433.60 472.50 445.70 462.20 451.10 472.90 L 446.30 487.70 C 446.30 487.70 439.30 509.50 420.30 508.10 C 403.00 506.80 441.30 475.70 424.30 470.40 Z" fill="#fffbe2" fill-rule="nonzero" group-id="13" node-id="250" stroke="none" target-height="47.299988" target-width="48.100006" target-x="403" target-y="462.2"></path></g><path d="M 559.40 617.10 C 571.30 597.10 568.10 554.30 568.10 554.30 L 573.60 537.20 C 566.60 545.30 559.70 554.50 553.00 565.00 L 552.90 565.00 C 554.80 574.60 555.10 584.70 553.70 594.80 C 552.20 606.40 548.50 617.20 543.20 627.10 C 546.40 633.00 547.80 639.10 547.00 645.10 C 544.70 662.40 525.00 675.50 495.70 682.00 L 495.70 682.10 C 489.00 688.20 482.20 693.00 475.50 696.80 C 509.20 691.10 546.80 688.00 554.70 674.00 C 568.90 648.40 547.60 637.10 559.40 617.10 Z" fill="#bea76b" fill-rule="nonzero" node-id="253" stroke="none" target-height="159.59998" target-width="98.099976" target-x="475.5" target-y="537.2"></path><g node-id="314"><path d="M 475.40 696.90 C 482.20 693.10 489.00 688.30 495.60 682.20 L 495.60 682.10 C 477.40 686.30 455.40 688.00 431.50 686.50 C 429.00 686.50 426.50 686.30 424.00 686.10 C 423.90 686.00 423.70 686.00 423.50 686.00 C 421.40 685.80 419.20 685.70 417.00 685.40 C 416.30 685.30 415.60 685.20 414.90 685.00 C 413.40 684.90 412.00 684.80 410.60 684.60 C 393.60 682.30 377.50 678.70 363.00 674.10 C 393.10 702.20 436.50 703.50 475.40 696.90 Z" fill="#7d6735" fill-opacity="0.61" fill-rule="nonzero" group-id="14" node-id="257" stroke="none" target-height="29.399963" target-width="132.60004" target-x="363" target-y="674.1"></path></g><g node-id="315"><path d="M 450.30 522.97 C 453.29 523.79 455.66 526.42 456.89 530.29 C 458.11 534.15 458.09 538.94 456.82 543.60 C 455.56 548.26 453.16 552.41 450.15 555.13 C 447.14 557.85 443.76 558.92 440.77 558.10 C 437.77 557.29 435.40 554.66 434.18 550.79 C 432.95 546.92 432.98 542.13 434.24 537.47 C 435.51 532.82 437.91 528.67 440.92 525.95 C 443.93 523.23 447.30 522.16 450.30 522.97 Z" fill="#8c743f" fill-rule="nonzero" group-id="15" node-id="262" stroke="none" target-height="36.755005" target-width="25.157227" target-x="432.95416" target-y="522.1614"></path></g><g node-id="316"><path d="M 357.33 515.58 C 359.79 516.15 361.75 518.40 362.78 521.85 C 363.82 525.31 363.84 529.67 362.85 533.99 C 361.86 538.30 359.93 542.22 357.49 544.87 C 355.06 547.52 352.31 548.70 349.85 548.13 C 347.40 547.57 345.43 545.31 344.40 541.86 C 343.36 538.41 343.34 534.05 344.33 529.73 C 345.33 525.41 347.25 521.50 349.69 518.84 C 352.13 516.19 354.88 515.02 357.33 515.58 Z" fill="#8c743f" fill-rule="nonzero" group-id="16" node-id="267" stroke="none" target-height="33.68042" target-width="20.501648" target-x="343.34094" target-y="515.0177"></path></g><path d="M 362.70 572.60 C 362.70 572.60 380.40 568.60 393.20 577.50 C 406.00 586.40 373.30 597.10 373.30 597.10 C 373.30 597.10 353.00 584.60 362.70 572.60 Z" fill="#665226" fill-rule="nonzero" node-id="270" stroke="none" target-height="28.5" target-width="53" target-x="353" target-y="568.6"></path><path d="M 371.40 619.50 L 370.30 619.30 C 368.40 619.00 367.10 617.20 367.50 615.30 L 372.10 588.70 C 372.40 586.80 374.20 585.50 376.10 585.90 L 377.20 586.10 C 379.10 586.40 380.40 588.20 380.00 590.10 L 375.40 616.70 C 375.10 618.60 373.30 619.80 371.40 619.50 Z" fill="#665226" fill-rule="nonzero" node-id="272" stroke="none" target-height="34.299988" target-width="13.300018" target-x="367.09998" target-y="585.5"></path><path d="M 360.10 624.70 L 360.10 624.70 C 358.70 623.00 358.90 620.40 360.60 619.00 L 367.50 613.30 C 369.20 611.90 371.80 612.10 373.20 613.80 L 373.20 613.80 C 374.60 615.50 374.40 618.10 372.70 619.50 L 365.80 625.20 C 364.00 626.70 361.50 626.40 360.10 624.70 Z" fill="#665226" fill-rule="nonzero" node-id="274" stroke="none" target-height="14.799988" target-width="15.899963" target-x="358.70004" target-y="611.9"></path><path d="M 383.80 624.70 L 383.80 624.70 C 385.20 623.00 385.00 620.40 383.30 619.00 L 376.40 613.30 C 374.70 611.90 372.10 612.10 370.70 613.80 L 370.70 613.80 C 369.30 615.50 369.50 618.10 371.20 619.50 L 378.10 625.20 C 379.90 626.70 382.40 626.40 383.80 624.70 Z" fill="#665226" fill-rule="nonzero" node-id="276" stroke="none" target-height="14.799988" target-width="15.900024" target-x="369.3" target-y="611.9"></path><path d="M 390.20 872.00 C 390.20 902.65 365.35 927.50 334.70 927.50 C 304.05 927.50 279.20 902.65 279.20 872.00 C 279.20 841.35 304.05 816.50 334.70 816.50 C 365.35 816.50 390.20 841.35 390.20 872.00 Z" fill="#f8e01f" fill-rule="nonzero" node-id="278" stroke="none" target-height="110.99994" target-width="110.99997" target-x="279.2" target-y="816.5"></path><path d="M 301.60 899.80 C 299.70 911.60 303.50 917.80 327.20 926.80 C 329.70 927.10 332.20 927.40 334.80 927.40 C 365.40 927.40 390.30 902.60 390.30 871.90 C 390.30 860.80 387.00 850.50 381.40 841.80 C 380.00 838.60 373.60 832.30 373.30 834.90 C 369.20 875.50 306.50 869.60 301.60 899.80 Z" fill="#e0bb21" fill-rule="nonzero" node-id="280" stroke="none" target-height="95.10004" target-width="90.599976" target-x="299.7" target-y="832.3"></path><path d="M 328.10 832.50 C 328.10 834.67 327.24 836.76 325.70 838.30 C 324.16 839.84 322.07 840.70 319.90 840.70 C 317.73 840.70 315.64 839.84 314.10 838.30 C 312.56 836.76 311.70 834.67 311.70 832.50 C 311.70 830.33 312.56 828.24 314.10 826.70 C 315.64 825.16 317.73 824.30 319.90 824.30 C 322.07 824.30 324.16 825.16 325.70 826.70 C 327.24 828.24 328.10 830.33 328.10 832.50 Z" fill="#ffffff" fill-rule="nonzero" node-id="282" stroke="none" target-height="16.400024" target-width="16.400024" target-x="311.69998" target-y="824.3"></path><path d="M 307.20 848.90 C 307.20 849.88 306.81 850.82 306.12 851.52 C 305.42 852.21 304.48 852.60 303.50 852.60 C 302.52 852.60 301.58 852.21 300.88 851.52 C 300.19 850.82 299.80 849.88 299.80 848.90 C 299.80 847.92 300.19 846.98 300.88 846.28 C 301.58 845.59 302.52 845.20 303.50 845.20 C 304.48 845.20 305.42 845.59 306.12 846.28 C 306.81 846.98 307.20 847.92 307.20 848.90 Z" fill="#ffffff" fill-rule="nonzero" node-id="284" stroke="none" target-height="7.4000244" target-width="7.4000244" target-x="299.8" target-y="845.2"></path><path d="M 383.80 897.80 C 378.20 895.10 371.60 893.50 364.50 893.50 C 344.20 893.50 327.70 906.20 327.70 921.80 C 327.70 923.50 328.00 925.20 328.40 926.90 C 330.50 927.20 332.60 927.40 334.80 927.40 C 356.00 927.40 374.50 915.40 383.80 897.80 Z" fill="#d9a10c" fill-rule="nonzero" node-id="286" stroke="none" target-height="33.900085" target-width="56.099976" target-x="327.7" target-y="893.49994"></path><path d="M 926.40 927.40 C 926.40 994.23 872.23 1048.40 805.40 1048.40 C 738.57 1048.40 684.40 994.23 684.40 927.40 C 684.40 860.57 738.57 806.40 805.40 806.40 C 872.23 806.40 926.40 860.57 926.40 927.40 Z" fill="#819038" fill-rule="nonzero" node-id="288" stroke="none" target-height="242" target-width="242" target-x="684.4" target-y="806.4"></path><path d="M 710.60 1002.00 C 710.60 1002.10 710.60 1002.30 710.60 1002.40 C 732.80 1030.40 767.00 1048.40 805.40 1048.40 C 872.20 1048.40 926.40 994.20 926.40 927.40 C 926.40 901.70 918.30 877.90 904.70 858.30 C 855.30 927.10 722.70 926.90 710.60 1002.00 Z" fill="#5b7431" fill-rule="nonzero" node-id="290" stroke="none" target-height="190.10004" target-width="215.80005" target-x="710.6" target-y="858.3"></path><g node-id="317"><path d="M 805.40 1048.40 C 869.90 1048.40 922.40 997.90 926.00 934.30 C 925.10 933.90 924.40 933.90 924.10 934.90 C 901.60 1008.40 787.50 974.10 767.20 1028.40 C 765.80 1032.30 765.20 1036.80 765.40 1041.60 C 778.00 1045.90 791.40 1048.40 805.40 1048.40 Z" fill="#b89a22" fill-opacity="0.53" fill-rule="nonzero" group-id="17" node-id="294" stroke="none" target-height="114.5" target-width="160.80005" target-x="765.19995" target-y="933.9"></path></g><path d="M 766.10 860.80 L 751.70 870.10 C 745.80 873.90 737.90 872.20 734.00 866.30 L 734.00 866.30 C 730.20 860.40 731.90 852.50 737.80 848.60 L 752.20 839.30 C 758.10 835.50 766.00 837.20 769.90 843.10 L 769.90 843.10 C 773.70 849.10 772.00 857.00 766.10 860.80 Z" fill="#f9f287" fill-rule="nonzero" node-id="297" stroke="none" target-height="38.399963" target-width="43.5" target-x="730.2" target-y="835.50006"></path><path d="M 782.60 829.10 C 782.60 831.92 780.32 834.20 777.50 834.20 C 774.68 834.20 772.40 831.92 772.40 829.10 C 772.40 826.28 774.68 824.00 777.50 824.00 C 780.32 824.00 782.60 826.28 782.60 829.10 Z" fill="#f9f287" fill-rule="nonzero" node-id="299" stroke="none" target-height="10.199951" target-width="10.199951" target-x="772.4" target-y="824"></path></svg>