<?xml version="1.0" standalone="no"?><!DOCTYPE svg PUBLIC "-//W3C//DTD SVG 1.1//EN" "http://www.w3.org/Graphics/SVG/1.1/DTD/svg11.dtd"><svg height="649" node-id="1" sillyvg="true" template-height="649" template-width="497" version="1.1" viewBox="0 0 497 649" width="497" xmlns="http://www.w3.org/2000/svg" xmlns:xlink="http://www.w3.org/1999/xlink"><defs node-id="21"></defs><path d="M 434.56 261.50 C 434.03 259.41 432.64 257.65 430.74 256.64 C 424.74 253.02 416.98 262.38 408.05 273.21 C 402.55 279.88 396.87 286.77 392.24 289.41 C 381.24 295.67 356.87 284.41 356.63 284.31 L 356.53 284.31 C 350.41 260.63 331.74 233.10 278.79 228.72 C 231.53 224.81 196.40 232.72 174.40 252.30 C 156.53 268.20 153.40 286.56 152.88 291.77 C 150.95 291.41 149.43 291.17 148.55 291.04 L 138.81 269.93 C 138.60 269.48 138.19 269.16 137.70 269.08 C 137.21 269.00 136.71 269.16 136.37 269.52 L 118.14 288.59 C 88.69 298.59 73.30 322.74 77.94 351.79 C 79.07 358.74 81.83 365.32 86.00 371.00 C 94.42 382.68 106.67 389.24 115.47 392.68 C 133.55 399.70 152.76 403.36 172.16 403.50 C 177.46 403.52 182.76 403.19 188.02 402.50 C 194.35 401.73 200.49 399.79 206.12 396.78 C 201.02 406.31 191.37 428.39 204.62 439.20 C 205.14 439.62 205.88 439.65 206.43 439.26 C 207.94 438.18 209.24 436.82 210.25 435.26 C 210.67 436.40 211.13 437.83 211.48 439.11 C 211.63 439.65 212.08 440.06 212.63 440.17 C 213.62 440.36 214.62 440.46 215.63 440.47 C 217.22 440.60 218.80 440.11 220.05 439.11 C 220.63 438.53 220.96 437.76 220.98 436.94 C 221.23 437.16 221.48 437.40 221.71 437.63 C 222.11 438.05 222.71 438.20 223.26 438.02 C 223.80 437.84 224.20 437.36 224.27 436.79 C 224.50 434.90 230.49 391.36 284.03 382.10 C 281.27 386.24 277.38 393.25 279.73 397.04 C 280.80 398.78 282.09 399.66 283.55 399.66 L 283.55 399.66 C 284.79 399.57 285.95 398.99 286.76 398.04 C 288.09 398.79 289.93 399.53 291.29 398.85 C 291.57 398.75 291.86 398.67 292.15 398.62 C 293.35 398.35 295.52 397.88 296.02 395.29 C 296.90 395.75 297.72 396.32 298.47 396.97 C 299.00 397.43 299.79 397.45 300.35 397.03 C 306.02 392.72 309.44 389.40 310.59 387.12 C 314.45 387.40 316.20 386.96 317.03 386.44 C 317.71 387.13 318.17 388.00 318.35 388.95 C 318.27 389.63 318.55 390.30 319.08 390.73 C 319.64 391.15 320.34 391.33 321.03 391.26 C 323.39 391.10 325.70 390.57 327.89 389.68 L 328.12 389.58 C 341.73 382.07 361.06 341.11 359.21 302.72 C 366.03 306.72 386.01 316.87 401.21 308.90 C 415.86 301.23 421.72 289.03 425.21 281.75 C 425.57 281.00 425.90 280.30 426.21 279.67 C 427.16 277.91 428.22 276.22 429.38 274.59 C 432.40 270.17 435.48 265.66 434.56 261.50 Z" fill="#3f1f1f" fill-rule="nonzero" node-id="23" stroke="#402020" stroke-linecap="butt" stroke-width="1" target-height="215.78845" target-width="362.18" target-x="73.3" target-y="224.81"></path><path d="M 176.45 254.46 C 197.82 235.46 232.17 227.83 278.54 231.67 C 308.15 234.12 345.35 245.93 354.41 288.27 C 355.12 291.63 355.62 295.02 355.92 298.44 L 289.61 297.62 L 289.61 297.62 C 289.08 297.62 288.58 297.91 288.32 298.37 C 276.41 319.21 230.86 338.96 222.68 342.37 C 221.90 340.19 221.07 338.06 220.23 335.96 C 218.24 331.28 216.63 326.45 215.43 321.51 C 215.43 321.51 215.43 321.44 207.86 286.18 C 207.73 285.59 207.26 285.13 206.67 285.02 C 206.07 284.92 205.48 285.18 205.14 285.68 C 201.96 290.62 192.24 303.59 185.63 304.29 C 184.37 304.47 183.10 304.02 182.24 303.09 C 176.60 297.45 164.15 294.09 155.85 292.32 C 156.27 288.00 159.13 269.82 176.45 254.46 Z" fill="#eeb883" fill-rule="nonzero" node-id="25" stroke="#402020" stroke-linecap="butt" stroke-width="1" target-height="114.53999" target-width="200.06998" target-x="155.85" target-y="227.83"></path><path d="M 119.43 291.28 C 119.66 291.20 119.87 291.07 120.04 290.90 L 137.04 273.15 L 146.18 293.00 C 146.39 293.47 146.83 293.79 147.34 293.86 C 147.59 293.86 172.15 297.25 180.11 305.20 C 181.61 306.77 183.77 307.54 185.92 307.26 C 193.13 306.49 201.80 295.56 205.64 290.20 C 207.53 298.99 212.43 321.86 212.48 322.11 C 213.73 327.22 215.40 332.22 217.48 337.06 C 220.06 343.59 222.73 350.35 223.21 357.93 C 223.30 359.28 223.33 360.60 223.31 361.93 C 172.62 361.19 156.70 319.22 156.55 318.79 C 156.35 318.26 155.87 317.88 155.30 317.82 C 154.74 317.76 154.19 318.02 153.88 318.50 C 143.68 334.50 90.99 328.91 81.88 327.80 C 86.34 311.00 99.40 298.00 119.43 291.28 Z" fill="#eeb883" fill-rule="nonzero" node-id="27" stroke="#402020" stroke-linecap="butt" stroke-width="1" target-height="88.77997" target-width="141.45001" target-x="81.88" target-y="273.15"></path><path d="M 187.60 399.51 C 165.94 402.42 139.37 398.82 116.53 389.88 C 108.10 386.58 96.39 380.33 88.39 369.24 C 84.51 363.93 81.94 357.79 80.89 351.30 C 79.73 344.48 79.82 337.50 81.15 330.71 C 89.44 331.76 140.43 337.53 154.72 322.20 C 158.19 329.58 162.86 336.34 168.53 342.20 C 178.29 352.35 195.68 364.49 223.13 364.92 C 221.69 383.91 208.82 396.66 187.60 399.51 Z" fill="#efefef" fill-rule="nonzero" node-id="29" stroke="#402020" stroke-linecap="butt" stroke-width="1" target-height="80.22" target-width="143.39563" target-x="79.73438" target-y="322.2"></path><path d="M 326.80 386.84 C 325.02 387.50 323.18 387.96 321.30 388.22 C 320.95 386.11 319.03 383.63 317.52 383.22 C 316.71 382.95 315.81 383.24 315.32 383.94 C 313.85 384.21 312.35 384.27 310.86 384.12 C 309.77 374.58 315.96 365.66 316.03 365.57 C 316.27 365.22 316.36 364.78 316.26 364.37 C 316.18 363.95 315.91 363.58 315.53 363.37 C 292.42 350.62 299.39 316.58 299.46 316.23 C 299.63 315.42 299.12 314.63 298.31 314.46 C 297.50 314.29 296.71 314.80 296.54 315.61 C 296.46 315.97 289.31 350.81 312.71 365.18 C 310.79 368.38 306.55 376.69 308.07 385.60 L 308.07 385.60 C 307.70 386.86 303.54 390.71 299.49 393.87 C 297.90 392.66 296.00 391.66 294.57 392.25 C 293.71 392.62 293.16 393.47 293.15 394.40 C 293.09 395.20 292.91 395.34 291.53 395.64 C 291.03 395.72 290.55 395.87 290.09 396.08 C 289.08 395.85 288.13 395.40 287.31 394.77 C 286.97 394.53 286.54 394.44 286.13 394.53 C 285.71 394.60 285.34 394.86 285.13 395.23 C 284.83 395.72 284.04 396.61 283.51 396.61 L 283.51 396.61 C 283.17 396.61 282.69 396.16 282.23 395.41 C 280.72 392.98 284.96 385.47 288.45 380.92 C 288.82 380.44 288.85 379.78 288.55 379.26 C 288.25 378.73 287.66 378.45 287.06 378.54 C 235.98 385.68 224.06 423.32 221.77 433.71 C 220.06 432.56 219.20 433.01 218.86 433.18 C 217.86 433.69 217.58 434.79 217.92 436.43 C 217.98 436.70 217.97 436.87 217.92 436.95 C 217.44 437.44 215.68 437.52 214.08 437.32 C 212.08 430.41 210.97 430.45 210.08 430.47 C 209.66 430.47 208.64 430.68 208.31 432.24 C 207.79 433.75 206.86 435.07 205.61 436.06 C 192.61 423.53 211.04 394.15 211.24 393.85 C 211.35 393.67 211.42 393.48 211.45 393.27 C 221.76 385.27 227.14 372.92 226.18 357.75 C 225.87 353.48 225.02 349.27 223.65 345.21 C 231.65 341.93 277.22 322.42 290.47 300.61 L 356.17 301.43 C 358.35 338.56 339.64 379.59 326.80 386.84 Z" fill="#efefef" fill-rule="nonzero" node-id="31" stroke="#402020" stroke-linecap="butt" stroke-width="1" target-height="136.91" target-width="165.73997" target-x="192.61" target-y="300.61"></path><path d="M 427.00 272.85 C 425.76 274.58 424.64 276.39 423.63 278.27 C 423.30 278.92 422.96 279.63 422.63 280.39 C 419.29 287.39 413.69 298.98 399.93 306.20 C 384.54 314.25 362.54 301.20 359.06 299.02 C 358.75 295.28 358.21 291.57 357.45 287.90 C 363.80 290.58 383.36 297.96 393.79 292.00 C 398.89 289.09 404.79 282.00 410.42 275.11 C 417.42 266.58 425.42 256.90 429.27 259.20 C 430.47 259.79 431.36 260.86 431.72 262.15 C 432.28 265.00 429.46 269.19 427.00 272.85 Z" fill="#eeb883" fill-rule="nonzero" node-id="33" stroke="#402020" stroke-linecap="butt" stroke-width="1" target-height="57.350006" target-width="74.82999" target-x="357.45" target-y="256.9"></path><path d="M 188.42 245.84 C 188.42 245.84 237.34 275.44 236.08 292.67 C 234.82 309.90 211.70 287.62 211.70 287.62 L 180.00 251.41 Z" fill="#e47a56" fill-rule="nonzero" node-id="35" stroke="#402020" stroke-linecap="butt" stroke-width="1" target-height="64.06" target-width="57.339996" target-x="180" target-y="245.84"></path><path d="M 220.53 234.18 C 220.53 234.18 269.28 262.55 268.02 279.78 C 266.76 297.01 243.64 274.78 243.64 274.78 L 210.23 236.53 Z" fill="#e47a56" fill-rule="nonzero" node-id="37" stroke="#402020" stroke-linecap="butt" stroke-width="1" target-height="62.830017" target-width="59.049988" target-x="210.23001" target-y="234.18"></path><path d="M 258.00 230.71 C 258.00 230.71 305.45 257.78 304.19 275.02 C 302.93 292.26 279.82 270.02 279.82 270.02 L 246.54 230.97 Z" fill="#e47a56" fill-rule="nonzero" node-id="39" stroke="#402020" stroke-linecap="butt" stroke-width="1" target-height="61.550003" target-width="58.910004" target-x="246.54001" target-y="230.71"></path><path d="M 301.47 235.33 C 301.47 235.33 347.47 260.59 346.19 277.82 C 344.91 295.05 321.81 272.77 321.81 272.77 L 288.12 232.71 Z" fill="#e47a56" fill-rule="nonzero" node-id="41" stroke="#402020" stroke-linecap="butt" stroke-width="1" target-height="62.33998" target-width="59.350006" target-x="288.12" target-y="232.71"></path><path d="M 118.85 350.33 C 118.85 353.12 116.59 355.38 113.80 355.38 C 111.01 355.38 108.75 353.12 108.75 350.33 C 108.75 347.54 111.01 345.28 113.80 345.28 C 116.59 345.28 118.85 347.54 118.85 350.33 Z" fill="#3f1f1f" fill-rule="nonzero" node-id="43" stroke="none" target-height="10.100006" target-width="10.100006" target-x="108.75" target-y="345.27997"></path><path d="M 173.68 363.85 C 173.68 366.64 171.42 368.90 168.63 368.90 C 165.84 368.90 163.58 366.64 163.58 363.85 C 163.58 361.06 165.84 358.80 168.63 358.80 C 171.42 358.80 173.68 361.06 173.68 363.85 Z" fill="#3f1f1f" fill-rule="nonzero" node-id="45" stroke="none" target-height="10.100006" target-width="10.100006" target-x="163.58" target-y="358.80002"></path><path d="M 123.19 367.56 C 123.19 367.56 130.82 385.94 138.67 366.83 C 138.67 366.83 141.67 389.23 151.67 375.61" fill="none" node-id="47" stroke="#3f1f1f" stroke-linecap="round" stroke-width="2.99" target-height="22.400024" target-width="28.479996" target-x="123.19" target-y="366.83"></path></svg>