<svg xmlns="http://www.w3.org/2000/svg" fill="none" viewBox="0 0 1024 1024" height="1024" width="1024">
<rect fill="white" height="1024" width="1024"></rect>
<path fill="#FDFDFD" d="M411.02 258.563C428.51 267.105 444.183 279.85 456.358 295.035C461.32 300.62 463.923 310.084 472.844 309.975C475.068 318.11 478.81 326.354 485.887 331.397C490.551 332.78 494.537 329.445 498.55 327.655C499.337 342.162 498.822 356.669 499.093 371.176C499.337 381.589 502.591 394.171 513.247 398.482C522.711 402.522 533.503 396.747 538.113 388.178C545.624 374.024 548.146 357.944 552.511 342.677C562.029 346.094 567.425 337.959 572.116 331.316C589.47 314.206 609.889 299.671 632.287 289.91C636.191 287.09 639.337 290.533 641.723 293.516C639.31 294.709 636.951 295.956 634.619 297.204C618.647 308.376 603.489 320.741 589.172 333.919C605.767 350.595 622.281 367.57 634.646 387.771C636.679 390.781 638.713 393.818 640.801 396.855C648.475 372.288 646.848 346.582 648.339 321.283C651.512 345.958 649.912 371.285 643.947 395.445C640.855 405.559 646.279 415.701 649.532 425.11C660.135 449.867 667.239 476.875 663.958 504.018C653.22 505.211 642.428 505.835 631.663 506.35C632.232 507.923 633.317 511.095 633.886 512.695C633.886 513.563 633.914 515.298 633.941 516.166C632.07 516.762 628.328 517.983 626.457 518.579C623.365 509.848 619.596 496.832 607.991 497.564C597.334 497.862 586.542 500.655 577.35 506.079C569.432 510.987 573.58 522.158 579.627 526.849C591.585 539.811 611.353 540.462 626.402 532.788C632.992 534.849 639.635 536.693 646.333 538.482C643.025 542.902 639.174 546.888 635.025 550.522C632.91 550.603 628.68 550.739 626.565 550.793C627.731 552.067 630.09 554.562 631.256 555.837C612.248 578.695 580.929 585.203 552.972 589.84C570.326 595.345 588.44 587.02 605.306 582.925C607.855 589.189 610.214 595.589 613.414 601.581L609.889 603.506C603.788 606.977 596.765 610.774 594.487 617.932C592.263 624.847 592.236 632.195 590.447 639.218C582.502 647.109 571.736 652.614 566.612 663.08C560.971 673.14 562.436 687.376 571.737 694.779C578.678 700.256 587.871 700.256 596.304 700.175C597.443 708.5 596.493 718.994 604.222 724.525C616.098 733.501 632.585 732.172 644.76 724.498C642.211 733.257 641.886 742.585 638.198 751.018C632.124 766.474 622.091 779.788 612.438 793.075C604.33 809.182 605.632 828.027 605.523 845.571C605.171 858.75 610.241 870.952 613.495 883.452C616.044 888.143 611.055 891.479 607.747 893.539C607.177 891.614 606.038 887.764 605.469 885.811C604.384 885.649 602.188 885.323 601.076 885.161C601.266 888.523 601.456 891.912 601.673 895.302C592.48 895.926 581.688 891.18 580.739 880.931C577.539 859.943 571.086 837.328 553.596 823.689C538.953 812.463 519.403 812.68 501.886 814.225C488.816 815.283 476.261 820.136 463.327 821.601C453.7 817.94 443.451 816.72 433.201 817.018C431.926 822.523 430.679 828 429.459 833.532C420.809 844.541 416.741 858.126 410.694 870.545C405.054 881.039 391.767 883.208 380.948 883.1C382.575 878.192 383.985 873.202 384.5 868.05C377.776 869.027 377.559 876.402 375.498 881.31C370.997 879.114 369.37 874.26 372.542 870.084C382.602 850.886 385.097 828.597 382.494 807.283C380.84 794.214 372.542 783.584 367.065 771.978C362.428 763.166 359.499 753.648 356.95 744.076C362.835 740.741 367.987 736.104 370.156 729.488C370.454 726.586 370.725 723.685 370.942 720.783C379.104 719.834 388.324 719.78 394.777 713.869C402.18 707.225 402.505 695.24 397.353 687.132C392.988 679.811 385.07 675.961 378.887 670.483C376.393 663.135 376.311 655.19 373.573 647.923C376.067 629.646 381.87 611.533 380.46 592.931C374.034 579.753 368.61 566.059 365.519 551.688C363.919 551.091 360.774 549.871 359.201 549.274C359.906 548.19 361.289 545.993 361.994 544.909C377.206 557.03 392.174 570.208 410.559 577.34C388.486 559.226 364.733 540.76 353.073 513.834C362.509 512.451 372 511.448 381.409 509.902L381.545 509.875C382.06 508.546 383.063 505.862 383.578 504.533C392.5 508.736 402.668 512.315 412.538 509.278C420.971 507.272 430.354 500.167 428.672 490.487C419.995 471.967 396.35 466.76 377.857 471.18C376.501 471.343 373.762 471.668 372.38 471.858C371.566 470.313 369.912 467.276 369.098 465.757C359.879 461.961 350.09 459.737 340.762 456.266C343.826 439.21 348.056 422.236 355.893 406.671C363.946 389.588 376.365 375.19 386.209 359.191C390.168 354.852 394.452 350.866 398.818 346.962C414.518 332.428 431.167 319.005 450.121 308.918C440.359 293.136 426.774 280.202 412.945 268.027C410.45 266.536 407.956 265.071 405.461 263.661C407.278 261.926 409.067 260.136 411.02 258.563ZM426.259 367.353C435.207 365.455 444.671 362.391 453.646 365.943C461.998 368.302 467.557 375.325 473.712 380.938C472.763 373.4 468.885 366.133 462.432 361.957C450.962 354.256 435.56 357.971 426.259 367.353ZM561.649 397.56C569.486 394.686 577.377 390.402 586.054 391.622C593.538 392.191 599.666 396.882 605.876 400.624C601.7 379.853 569.079 378.66 561.649 397.56ZM401.258 429.639C404.566 432.404 408.905 432.73 412.945 433.733C408.905 436.716 403.915 439.048 401.963 444.037C406.979 442.329 411.589 439.699 416.28 437.204C412.457 445.23 410.884 454.802 415.223 462.937C419.697 474.434 434.557 480.698 445.566 474.543C455.436 469.092 457.903 456.863 460.046 446.776C462.676 450.735 463.435 457.46 469.265 457.649C467.557 444.715 456.249 435.875 444.752 431.537C430.95 425.707 415.63 427.334 401.258 429.639ZM553.189 466.001C556.308 464.184 559.426 462.313 562.517 460.388C559.345 470.258 562.137 481.24 568.456 489.24C578.109 500.601 599.259 498.757 605.794 484.955C610.268 477.363 609.319 468.225 605.333 460.659C609.78 464.727 614.01 469.119 619.352 472.021C617.129 468.306 614.688 464.7 612.085 461.256C614.227 461.039 618.539 460.605 620.708 460.388C616.478 455.48 609.482 455.968 603.842 454.016C591.992 450.355 579.166 450.572 567.317 453.962C561.243 455.86 554.464 459.059 553.189 466.001ZM484.45 484.142C486.05 493.171 492.964 499.381 497.981 506.54C497.628 520.07 478.43 526.199 468.316 518.715C463.381 515.569 464.33 508.411 460.344 504.641C456.439 512.153 461.266 521.074 468.479 524.301C478.593 529.67 490.388 526.036 499.391 520.206C504.055 527.771 511.756 534.144 521.192 533.167C531.686 534.062 542.587 525.683 542.017 514.674C536.052 519.148 532.825 528.151 524.121 528.015C514.251 530.131 502.943 522.592 503.946 511.936C505.275 501.306 519.375 501.252 522.901 492.005C523.28 489.348 522.223 487.694 519.701 487.043C508.475 482.786 496.191 483.003 484.45 484.142Z"></path>
<path fill="#FDFDFD" d="M286.286 339.613C295.234 333.16 303.261 344.847 310.989 348.29C330.81 357.347 336.369 380.016 342.525 398.889C336.071 416.324 326.824 433.272 326.065 452.362C322.242 451.331 318.391 450.274 314.622 449.189C313.809 439.807 314.812 429.937 311.043 421.07C306.65 410.196 298.244 401.058 287.994 395.391C279.317 390.808 269.61 388.476 261.122 383.514C262.153 379.853 266.41 378.66 268.85 376.111C265.19 373.21 259.468 371.095 261.041 365.292C265.108 364.858 269.203 364.858 273.27 364.289C272.077 361.198 270.559 358.242 269.338 355.151C276.768 348.67 287.886 362.201 293.445 352.303C288.726 349.972 279.67 345.552 286.286 339.613ZM288.401 379.826C287.859 384.002 289.567 388.07 293.499 389.968C299.166 393.737 304.616 387.5 309.931 385.792C305.321 386.524 300.657 386.876 296.021 386.714C293.526 384.355 291.004 382.05 288.401 379.826Z"></path>
<path fill="#FDFDFD" d="M419.073 452.253C419.48 447.752 418.178 440.837 423.954 439.292C431.33 440.675 424.334 451.819 419.073 452.253Z"></path>
<path fill="#F8F9FA" d="M567.696 472.997C564.062 467.52 567.154 461.852 571.845 458.463C573.065 462.503 572.143 466.652 571.601 470.719C570.624 471.289 568.672 472.428 567.696 472.997Z"></path>
<path fill="#F8F9FA" d="M468.994 832.827C489.087 828.244 509.532 821.899 530.384 824.394C510.156 828.705 489.575 831.01 468.994 832.827Z"></path>
<path fill="#351A22" d="M341.874 164.742C346.213 158.397 354.429 156.2 361.696 157.8C355.107 160.132 348.545 162.654 341.874 164.742Z"></path>
<path fill="#31131F" d="M428.673 116.069C465.605 111.296 503.079 110.646 540.119 114.523C580.495 118.13 620.057 127.43 659.403 136.731C676.052 141.043 692.837 145.056 708.998 150.967C709.73 151.781 711.167 153.38 711.899 154.194C694.789 152.838 678.709 143.239 661.518 144.568C677.299 151.455 693.596 157.204 709.079 164.715C708.89 165.528 708.537 167.128 708.347 167.915C675.211 156.119 642.618 142.209 608.126 134.616C567.29 124.61 525.233 119.35 483.149 119.919C450.257 119.892 416.986 122.739 385.395 132.284C382.169 132.962 372.895 136.704 374.901 129.708C391.741 121.79 410.396 118.807 428.673 116.069Z"></path>
<path fill="#FBF5EA" d="M241.545 129.22C270.559 117.886 305.403 124.881 327.529 146.873C330.078 151.238 327.041 155.794 325.821 160.024C308.901 144.595 285.283 137.246 262.614 140.636C241.843 143.266 223.458 157.15 212.774 174.802C205.616 188.333 201.304 203.599 202.525 219.028C203.284 237.82 212.693 255.418 226.17 268.244C215.188 268.379 207.134 259.458 201.142 251.351C186.201 229.983 183.299 201.484 191.488 176.998C200.572 155.17 218.496 136.135 241.545 129.22Z"></path>
<path fill="#341922" d="M341.224 136.84C345.237 134.752 351.663 131.091 354.131 137.273C346.24 139.551 338.756 142.941 331.164 146.005C331.489 140.5 337.292 139.172 341.224 136.84Z"></path>
<path fill="#9FCBDA" d="M212.775 174.802C223.459 157.149 241.843 143.266 262.614 140.636C283.846 142.344 306.651 147.333 321.564 163.847C332.302 175.344 338.485 193.322 331.787 208.345C326.961 219.679 310.149 222.336 302.095 213.036C298.434 205.497 298.407 196.386 293.255 189.58C283.222 178.924 266.519 176.293 253.069 181.391C244.446 184.049 235.363 189.065 226.17 185.92C220.774 183.533 217.005 178.707 212.775 174.802Z"></path>
<path fill="#619198" d="M262.614 140.636C285.283 137.246 308.901 144.595 325.822 160.024C356.788 190.556 350.362 248.964 313.945 272.555C287.886 290.94 250.71 287.849 226.17 268.244C212.693 255.418 203.284 237.82 202.525 219.028C201.305 203.599 205.616 188.333 212.775 174.802C217.005 178.707 220.774 183.533 226.17 185.92C235.362 189.065 244.446 184.049 253.069 181.391C266.519 176.293 283.222 178.924 293.255 189.58C298.407 196.386 298.434 205.497 302.095 213.036C310.148 222.336 326.96 219.679 331.787 208.345C338.485 193.322 332.302 175.344 321.564 163.847C306.65 147.334 283.846 142.344 262.614 140.636ZM294.123 222.933C288.157 227.19 288.917 237.982 296.021 240.64C303.858 243.921 312.508 235.406 309.85 227.461C308.657 220.52 299.058 219.083 294.123 222.933Z"></path>
<path fill="#2C0D1D" d="M382.711 162.6C422.599 147.957 465.225 141.856 507.58 141.26C564.361 139.578 621.196 147.306 675.944 162.22C681.503 164.118 688.037 164.851 692.295 169.325C682.479 168.321 673.178 164.796 663.606 162.681C605.523 149.096 545.488 142.046 485.86 146.52C444.346 148.12 403.428 157.773 364.869 172.958C369.424 167.481 376.312 165.122 382.711 162.6Z"></path>
<path fill="#AECEDB" d="M294.123 222.933C299.058 219.083 308.657 220.52 309.85 227.461C312.508 235.406 303.858 243.921 296.021 240.64C288.917 237.982 288.157 227.19 294.123 222.933Z"></path>
<path fill="#402418" d="M720.007 269.03C727.518 261.628 728.928 250.781 732.589 241.372C738.88 248.585 738.527 259.323 745.035 266.536C753.495 278.846 769.575 279.497 781.316 287.008C768.274 294.492 749.916 294.98 742.134 309.786C737.117 316.077 739.097 327.438 730.501 330.34C726.84 320.036 725.539 307.806 716.672 300.322C708.808 292.811 696.769 292.35 689.041 284.812C699.616 280.229 711.872 277.87 720.007 269.03ZM700.185 286.005C708.808 287.903 716.726 292.079 723.18 298.126C727.491 305.04 729.552 312.958 733.321 320.117C734.704 315.805 736.005 311.467 737.09 307.074C744.357 296.201 756.207 289.855 768.843 287.469C761.305 283.51 752.438 281.829 746.12 275.782C739.856 270.359 735.951 262.821 733.484 255.011C728.955 270.63 716.048 282.588 700.185 286.005Z"></path>
<path fill="#371B27" d="M394.424 260.977C398.546 253.628 405.433 244.545 415.141 247.771C441.254 256.286 461.563 276.46 478.402 297.421C508.962 295.441 540.986 299.78 568.021 314.856C588.06 298.912 610.159 284.514 635.187 277.951C642.292 275.43 649.342 279.877 651.674 286.683C666.534 321.039 665.151 360.059 657.802 396.096C656.934 402.062 654.358 408.352 657.124 414.237C668.188 441.895 681.881 470.475 679.007 501.089C701.622 487.097 728.25 481.484 754.389 478.773C765.697 477.309 774.021 486.175 781.587 493.117C786.142 497.483 785.519 504.181 783.783 509.712C789.071 522.375 778.414 534.225 766.51 537.018C749.319 541.519 732.019 546.373 716.535 555.43C684.674 573.055 660.649 602.341 627.053 617.092C635.621 630.27 643.295 643.991 648.718 658.796C686.654 646.512 728.711 648.465 765.398 663.948C783.404 671.758 800.568 685.315 806.669 704.649C810.086 715.685 806.696 730.464 794.874 734.829C784.326 738.327 775.486 730.193 766.89 725.556C737.062 709.801 698.856 708.039 669.191 725.095C663.253 728.538 655.741 732.036 655.307 739.954C650.806 760.807 639.878 779.706 625.832 795.569C620.246 801.589 618.131 809.67 616.911 817.588C614.389 835.62 612.871 854.601 619.487 871.982C622.931 880.849 624.856 893.567 615.338 899.397C603.706 905.606 586.568 905.823 577.729 894.733C569.241 884.835 569.079 871.115 565.038 859.292C560.022 843.158 547.386 828.136 530.384 824.394C509.532 821.899 489.086 828.244 468.993 832.827C457.523 835.565 445.294 837.274 435.125 843.483C426.069 855.957 425.852 874.233 412.619 883.751C400.091 891.343 383.469 894.38 369.721 888.469C359.689 883.344 362.753 870.165 366.44 861.841C371.755 850.452 373.301 837.897 372.786 825.451C372.596 815.933 370.725 806.226 365.627 798.064C354.157 779.083 343.717 758.99 339.65 736.972C331.135 690.196 340.924 641.821 357.709 597.948C334.715 573.218 319.611 541.763 311.964 509.034C306.921 488.779 302.745 468.143 302.257 447.237C301.742 434.438 300.982 420.311 291.844 410.359C282.327 399.404 267.033 397.479 255.373 389.859C250.601 386.877 252.445 381.291 253.312 376.816C247.699 365.102 258.166 356.235 265.054 348.29C268.118 345.931 272.185 345.823 275.846 344.928C275.981 343.247 276.252 339.912 276.388 338.258C281.188 334.136 286.557 328.767 293.525 329.879C303.531 331.939 310.961 339.532 319.801 344.169C337.372 353.659 344.07 373.969 348.788 392.056C356.218 380.64 365.22 370.309 372.352 358.73C375.334 325.513 378.155 290.859 394.424 260.977ZM411.019 258.564C409.067 260.136 407.277 261.926 405.46 263.661C391.008 293.164 386.588 326.625 386.208 359.191C376.365 375.19 363.946 389.588 355.892 406.671C348.056 422.236 343.826 439.21 340.762 456.266C350.089 459.737 359.878 461.961 369.098 465.757C369.911 467.276 371.565 470.313 372.379 471.858C361.424 470.584 351.093 465.947 340.219 464.022C340.355 470.719 340.951 477.417 341.819 484.087C349.384 484.576 356.923 485.47 364.515 486.013C365.735 486.989 368.176 488.996 369.423 489.972C361.749 494.446 351.771 491.138 343.31 492.954C345.48 497.862 347.622 502.798 349.764 507.733C359.417 507.217 369.098 505.374 378.778 506.485C379.429 507.326 380.758 509.061 381.408 509.902C371.999 511.448 362.509 512.451 353.072 513.834C364.732 540.76 388.486 559.226 410.558 577.34C392.174 570.208 377.205 557.03 361.993 544.909C355.621 536.313 348.978 527.934 343.148 518.986C341.358 515.217 337.589 514.024 333.684 514.186C336.206 526.063 342.172 536.693 347.134 547.62C348.571 551.417 351.255 554.426 354.211 557.138C353.615 558.06 352.449 559.931 351.852 560.88C355.892 570.425 363.268 577.719 369.993 585.366C373.003 588.023 372.921 592.091 372.623 595.778C367.661 609.418 364.325 623.572 360.258 637.51L361.776 638.649C357.628 653.996 357.004 669.968 355.079 685.695C353.804 695.837 353.235 706.141 354.753 716.336L352.34 715.387C352.15 725.176 354.157 734.748 356.95 744.076C359.499 753.648 362.427 763.166 367.064 771.978C372.542 783.584 380.839 794.214 382.493 807.283C385.096 828.597 382.602 850.886 372.542 870.084C369.369 874.26 370.996 879.114 375.497 881.31C377.558 876.402 377.775 869.027 384.5 868.05C383.984 873.202 382.574 878.192 380.947 883.1C391.767 883.208 405.054 881.039 410.694 870.545C416.741 858.126 420.808 844.541 429.458 833.532C440.467 828.813 452.208 826.048 463.326 821.601C476.26 820.136 488.815 815.283 501.885 814.225C519.402 812.68 538.953 812.463 553.595 823.689C571.085 837.328 577.539 859.943 580.738 880.931C581.688 891.18 592.48 895.926 601.672 895.302C601.455 891.912 601.265 888.523 601.075 885.161C602.187 885.323 604.384 885.649 605.468 885.811C606.038 887.764 607.177 891.614 607.746 893.539C611.054 891.479 616.043 888.143 613.495 883.452C610.241 870.952 605.17 858.75 605.522 845.571C605.631 828.027 604.329 809.182 612.437 793.075C622.09 779.788 632.123 766.474 638.197 751.018C641.885 742.585 642.21 733.257 644.759 724.498C644.109 709.584 644.895 693.505 638.496 679.757C632.503 682.523 626.781 685.885 621.792 690.196C622.28 682.902 624.558 674.794 619.948 668.287C613.359 657.332 607.638 645.862 600.642 635.151C606.39 630.297 612.898 626.528 619.623 623.193C617.372 616.17 613.847 609.689 609.888 603.507L613.413 601.581C614.606 602.937 617.02 605.703 618.213 607.059C625.914 597.243 638.17 593.555 648.637 587.562L647.959 586.423C659.022 579.211 669.923 571.672 679.549 562.616L680.986 564.242C701.92 550.251 724.101 537.723 748.668 531.378C758.321 527.934 771.283 527.066 776.299 516.735C772.666 515.434 769.141 513.942 765.724 512.288C768.869 510.01 772.15 507.841 775.459 505.753C775.567 504.099 775.784 500.764 775.893 499.11C771.256 498.947 766.51 499.517 762.036 498.161C762.443 495.042 763.717 492.195 765.914 489.646C761.25 488.128 756.559 486.175 751.596 486.962C732.561 488.697 713.77 494.364 697.392 504.343C691.209 508.248 683.752 508.6 676.783 509.956C673.014 521.182 667.645 531.812 661.381 541.872C652.515 549.6 645.654 559.253 636.95 567.144C631.933 570.805 627.025 575.441 620.463 575.74C614.525 575.984 609.129 578.289 605.306 582.925C588.439 587.02 570.326 595.345 552.972 589.84C580.928 585.203 612.247 578.695 631.256 555.837C630.09 554.562 627.73 552.067 626.564 550.793C628.68 550.739 632.91 550.603 635.025 550.522C639.173 546.888 643.024 542.902 646.332 538.482C639.634 536.693 632.991 534.849 626.402 532.788L628.788 531.92L628.164 528.124C636.136 528.639 643.919 530.348 651.674 532.191C655.091 525.494 658.29 518.688 661.327 511.8C652.189 512.505 643.024 512.532 633.886 512.695C633.316 511.095 632.232 507.923 631.662 506.35C642.427 505.835 653.22 505.211 663.958 504.018C667.239 476.875 660.134 449.867 649.532 425.11C646.278 415.701 640.855 405.56 643.946 395.445C649.911 371.285 651.511 345.958 648.339 321.283C648.366 311.657 644.597 302.546 641.722 293.516C639.336 290.533 636.191 287.09 632.286 289.91C609.888 299.671 589.47 314.206 572.115 331.316C562.408 324.103 551.914 317.188 539.576 315.805C536.865 327.194 537.109 339.288 532.662 350.216C528.811 353.605 523.469 353.687 518.724 354.581C513.735 340.02 516.636 324.374 515.253 309.325C501.017 306.694 486.456 305.122 472.003 306.939L472.844 309.976C463.923 310.084 461.319 300.621 456.357 295.035C444.182 279.85 428.509 267.105 411.019 258.564ZM286.285 339.613C279.669 345.552 288.726 349.972 293.444 352.304C287.885 362.201 276.768 348.67 269.338 355.151C270.558 358.242 272.077 361.198 273.27 364.289C269.202 364.858 265.108 364.858 261.04 365.292C259.468 371.095 265.189 373.21 268.85 376.111C266.409 378.66 262.152 379.854 261.122 383.514C269.609 388.476 279.317 390.808 287.994 395.391C298.244 401.058 306.65 410.196 311.042 421.07C314.811 429.937 313.808 439.807 314.622 449.189C318.391 450.274 322.241 451.331 326.065 452.362C326.824 433.272 336.07 416.325 342.524 398.889C336.369 380.016 330.81 357.347 310.988 348.29C303.26 344.847 295.234 333.16 286.285 339.613ZM319.936 486.474C321.672 486.04 325.143 485.172 326.851 484.738C326.932 477.119 325.875 469.58 325.251 462.015C322.838 461.202 318.011 459.602 315.598 458.788C316.14 468.143 318.174 477.281 319.936 486.474ZM703.574 661.996L703.466 662.348C686.274 662.158 669.354 666.253 653.22 671.866C655.443 680.896 657.178 690.034 658.344 699.253C658.697 705.327 658.968 711.401 659.212 717.502C673.34 708.554 688.986 702.073 705.553 699.362C705.662 699.66 705.906 700.256 706.014 700.528C711.98 695.999 720.196 697.491 727.165 695.891C751.515 695.538 772.991 708.717 794.521 718.207C794.277 702.887 782.156 691.471 771.012 682.577C750.891 669.941 727.246 663.135 703.574 661.996Z"></path>
<path fill="#F2B953" d="M700.185 286.005C716.048 282.588 728.955 270.63 733.484 255.011C735.951 262.821 739.856 270.359 746.12 275.782C752.438 281.829 761.305 283.51 768.843 287.469C756.207 289.855 744.357 296.201 737.09 307.074C733.484 300.349 733.565 292.865 735.111 285.598C729.308 287.686 722.529 290.669 723.179 298.126C716.726 292.079 708.808 287.903 700.185 286.005Z"></path>
<path fill="#EDB9C8" d="M405.461 263.661C407.956 265.071 410.45 266.536 412.945 268.027C403.807 293.299 398.167 320.008 398.818 346.962C394.452 350.866 390.167 354.852 386.208 359.191C386.588 326.625 391.008 293.163 405.461 263.661Z"></path>
<path fill="#FDCFDA" d="M412.944 268.027C426.774 280.202 440.359 293.136 450.12 308.918C431.166 319.005 414.517 332.427 398.817 346.962C398.166 320.008 403.806 293.299 412.944 268.027Z"></path>
<path fill="#D88C3E" d="M723.179 298.126C722.528 290.669 729.307 287.686 735.11 285.598C733.565 292.865 733.483 300.349 737.09 307.074C736.005 311.467 734.704 315.805 733.321 320.117C729.551 312.958 727.491 305.04 723.179 298.126Z"></path>
<path fill="#E7ADC7" d="M634.619 297.204C636.951 295.956 639.31 294.709 641.724 293.516C644.598 302.546 648.367 311.657 648.34 321.283C646.848 346.582 648.475 372.288 640.802 396.855C638.714 393.818 636.68 390.781 634.646 387.771C637.439 357.754 641.046 327.004 634.619 297.204Z"></path>
<path fill="#FBD0DE" d="M589.172 333.919C603.49 320.741 618.648 308.376 634.619 297.204C641.045 327.004 637.439 357.754 634.646 387.771C622.281 367.57 605.767 350.595 589.172 333.919Z"></path>
<path fill="#4B2D41" d="M472.003 306.939C486.456 305.122 501.018 306.694 515.253 309.325C516.636 324.374 513.735 340.02 518.724 354.581C523.47 353.687 528.811 353.605 532.662 350.216C537.109 339.288 536.865 327.194 539.577 315.805C551.914 317.188 562.408 324.103 572.116 331.316C567.425 337.959 562.029 346.094 552.511 342.677C548.145 357.944 545.623 374.024 538.112 388.178C533.503 396.747 522.71 402.523 513.247 398.482C502.59 394.171 499.336 381.589 499.092 371.176C498.821 356.669 499.336 342.162 498.55 327.655C494.537 329.445 490.551 332.78 485.887 331.397C478.81 326.354 475.068 318.11 472.844 309.976L472.003 306.939Z"></path>
<path fill="#311B25" d="M426.259 367.353C435.56 357.971 450.961 354.256 462.432 361.957C468.885 366.133 472.763 373.4 473.712 380.938C467.556 375.325 461.998 368.302 453.646 365.943C444.671 362.391 435.207 365.455 426.259 367.353Z"></path>
<path fill="#3B1C2C" d="M288.401 379.826C291.004 382.05 293.526 384.355 296.02 386.714C300.657 386.877 305.321 386.524 309.931 385.792C304.616 387.5 299.166 393.737 293.499 389.968C289.567 388.07 287.858 384.002 288.401 379.826Z"></path>
<path fill="#381523" d="M561.649 397.56C569.079 378.66 601.699 379.853 605.875 400.624C599.666 396.882 593.537 392.191 586.053 391.622C577.376 390.402 569.485 394.686 561.649 397.56Z"></path>
<path fill="#391B28" d="M401.258 429.639C415.629 427.334 430.95 425.707 444.752 431.537C456.249 435.875 467.556 444.715 469.265 457.649C463.435 457.46 462.676 450.735 460.045 446.776C457.903 456.863 455.436 469.092 445.565 474.543C434.556 480.698 419.697 474.434 415.223 462.937C410.884 454.802 412.457 445.23 416.28 437.204C411.589 439.699 406.979 442.329 401.963 444.037C403.915 439.048 408.905 436.716 412.945 433.733C408.905 432.73 404.566 432.404 401.258 429.639ZM419.073 452.253C424.333 451.82 431.329 440.675 423.954 439.292C418.178 440.838 419.48 447.752 419.073 452.253Z"></path>
<path fill="#FCFCFC" d="M697.392 504.343C713.77 494.365 732.561 488.697 751.597 486.962C756.559 486.176 761.25 488.128 765.914 489.646C763.718 492.195 762.443 495.042 762.037 498.161C766.511 499.517 771.256 498.947 775.893 499.11C775.784 500.764 775.567 504.099 775.459 505.753C772.151 507.841 768.87 510.01 765.724 512.288C769.141 513.942 772.666 515.434 776.3 516.735C771.283 527.066 758.322 527.934 748.668 531.378C724.101 537.723 701.92 550.251 680.987 564.243L679.55 562.616C673.476 555.728 667.456 548.759 661.382 541.872C667.646 531.812 673.015 521.182 676.784 509.956C683.753 508.6 691.209 508.248 697.392 504.343Z"></path>
<path fill="#3A1B29" d="M553.189 466.001C554.464 459.059 561.243 455.86 567.317 453.962C579.167 450.572 591.992 450.355 603.842 454.016C609.482 455.968 616.478 455.48 620.708 460.388C618.539 460.605 614.228 461.039 612.085 461.256C614.689 464.7 617.129 468.306 619.353 472.021C614.011 469.119 609.781 464.727 605.334 460.659C609.32 468.225 610.269 477.363 605.795 484.955C599.26 498.757 578.109 500.601 568.456 489.24C562.138 481.24 559.345 470.258 562.517 460.388C559.426 462.313 556.308 464.184 553.189 466.001ZM567.697 472.997C568.673 472.428 570.625 471.289 571.601 470.719C572.143 466.652 573.066 462.503 571.845 458.463C567.154 461.852 564.063 467.52 567.697 472.997Z"></path>
<path fill="#F8FBF7" d="M319.938 486.474C318.175 477.281 316.141 468.143 315.599 458.788C318.012 459.602 322.839 461.202 325.252 462.015C325.876 469.58 326.934 477.119 326.852 484.738C325.144 485.172 321.673 486.04 319.938 486.474Z"></path>
<path fill="#EDE2E3" d="M341.82 484.087C340.952 477.417 340.355 470.719 340.22 464.022C351.093 465.947 361.425 470.584 372.379 471.858C373.762 471.668 376.501 471.343 377.857 471.18C371.918 474.597 366.956 479.478 364.516 486.013C356.923 485.47 349.385 484.576 341.82 484.087Z"></path>
<path fill="#F9CED9" d="M377.857 471.18C396.35 466.76 419.996 471.967 428.673 490.487C430.354 500.167 420.972 507.272 412.539 509.278C402.668 512.315 392.5 508.736 383.579 504.533C377.342 501.306 373.546 495.368 369.424 489.972C368.177 488.995 365.736 486.989 364.516 486.013C366.957 479.478 371.919 474.597 377.857 471.18Z"></path>
<path fill="#3A1827" d="M484.45 484.142C496.192 483.003 508.475 482.786 519.701 487.043C522.223 487.694 523.28 489.348 522.901 492.005C519.376 501.252 505.275 501.306 503.947 511.936C502.943 522.592 514.251 530.13 524.121 528.015C532.825 528.151 536.052 519.148 542.018 514.674C542.587 525.683 531.686 534.062 521.192 533.167C511.756 534.144 504.055 527.771 499.391 520.206C490.389 526.036 478.593 529.669 468.479 524.3C461.266 521.074 456.439 512.152 460.344 504.641C464.33 508.41 463.381 515.569 468.316 518.715C478.431 526.199 497.629 520.07 497.981 506.539C492.965 499.381 486.05 493.171 484.45 484.142ZM491.256 487.857C491.88 489.212 493.1 491.897 493.697 493.253C502.049 492.873 512.082 497.184 519.213 491.273C510.238 488.073 500.693 487.45 491.256 487.857Z"></path>
<path fill="#E8DEE1" d="M369.424 489.972C373.545 495.368 377.342 501.306 383.578 504.533C383.063 505.862 382.06 508.546 381.545 509.875L381.409 509.902C380.758 509.061 379.43 507.326 378.779 506.485C369.098 505.374 359.418 507.217 349.765 507.733C347.622 502.798 345.48 497.862 343.311 492.954C351.771 491.138 361.75 494.446 369.424 489.972Z"></path>
<path fill="#816376" d="M491.256 487.856C500.692 487.45 510.237 488.073 519.212 491.273C512.081 497.184 502.048 492.873 493.696 493.253C493.1 491.897 491.88 489.212 491.256 487.856Z"></path>
<path fill="#FBD2DD" d="M577.35 506.079C586.542 500.655 597.334 497.862 607.991 497.564C619.596 496.832 623.366 509.848 626.457 518.579C627.08 521.725 627.65 524.924 628.165 528.124L628.789 531.92L626.403 532.788C611.353 540.462 591.586 539.811 579.627 526.85C573.581 522.158 569.432 510.987 577.35 506.079Z"></path>
<path fill="#EDE6E7" d="M633.886 512.695C643.024 512.532 652.19 512.505 661.328 511.8C658.291 518.688 655.091 525.494 651.674 532.191C643.919 530.347 636.137 528.639 628.165 528.124C627.65 524.924 627.08 521.725 626.457 518.579C628.328 517.983 632.07 516.762 633.941 516.166C633.913 515.298 633.886 513.563 633.886 512.695Z"></path>
<path fill="#523245" d="M333.685 514.186C337.589 514.024 341.358 515.217 343.148 518.986C348.978 527.934 355.621 536.313 361.994 544.909C361.289 545.993 359.906 548.19 359.201 549.274C357.52 551.878 355.865 554.508 354.211 557.138C351.256 554.426 348.571 551.417 347.134 547.62C342.172 536.693 336.206 526.063 333.685 514.186Z"></path>
<path fill="#4E2F3E" d="M636.951 567.144C645.655 559.253 652.515 549.6 661.382 541.872C667.456 548.759 673.476 555.728 679.55 562.615C669.924 571.672 659.023 579.21 647.96 586.423C644.299 579.997 640.611 573.57 636.951 567.144Z"></path>
<path fill="#DED6E3" d="M359.201 549.274C360.774 549.871 363.92 551.091 365.519 551.688C368.611 566.059 374.034 579.753 380.46 592.931C377.83 593.88 375.227 594.802 372.624 595.778C372.922 592.091 373.004 588.023 369.994 585.366C363.269 577.719 355.893 570.425 351.853 560.88C352.45 559.931 353.616 558.06 354.212 557.138C355.866 554.508 357.52 551.877 359.201 549.274Z"></path>
<path fill="#442737" d="M620.464 575.74C627.026 575.441 631.934 570.804 636.951 567.144C640.611 573.57 644.299 579.997 647.96 586.423L648.638 587.562C638.171 593.555 625.914 597.243 618.213 607.059C617.02 605.703 614.607 602.937 613.414 601.581C610.214 595.589 607.855 589.189 605.306 582.925C609.13 578.289 614.526 575.984 620.464 575.74Z"></path>
<path fill="#CAC2D5" d="M372.624 595.778C375.227 594.802 377.83 593.88 380.46 592.931C381.87 611.533 376.067 629.646 373.573 647.922C369.776 644.614 365.763 641.631 361.777 638.649L360.259 637.51C364.326 623.572 367.661 609.418 372.624 595.778Z"></path>
<path fill="#4D2E3F" d="M594.486 617.932C596.764 610.774 603.787 606.977 609.888 603.506C613.847 609.689 617.372 616.17 619.623 623.193C612.898 626.528 606.39 630.297 600.642 635.151C607.638 645.862 613.359 657.332 619.948 668.287C624.558 674.794 622.28 682.902 621.792 690.196C626.782 685.885 632.503 682.523 638.496 679.757C644.895 693.505 644.109 709.584 644.76 724.498C632.584 732.172 616.098 733.501 604.221 724.525C596.493 718.994 597.442 708.5 596.303 700.175C587.87 700.256 578.678 700.256 571.736 694.779C562.435 687.376 560.971 673.14 566.611 663.08C571.736 652.614 582.501 647.109 590.446 639.218C592.236 632.195 592.263 624.847 594.486 617.932Z"></path>
<path fill="#48283A" d="M361.777 638.649C365.763 641.632 369.776 644.614 373.572 647.922C376.311 655.19 376.392 663.135 378.887 670.483C385.069 675.96 392.987 679.811 397.353 687.132C402.505 695.24 402.18 707.225 394.777 713.869C388.323 719.78 379.104 719.834 370.942 720.783C370.725 723.685 370.454 726.586 370.156 729.487C369.613 727.508 368.556 723.522 368.013 721.542C363.593 719.78 359.174 718.044 354.754 716.336C353.235 706.141 353.805 695.836 355.079 685.695C357.004 669.968 357.628 653.996 361.777 638.649Z"></path>
<path fill="#4C2F3F" d="M703.575 661.996C727.247 663.135 750.892 669.941 771.012 682.577C782.157 691.471 794.278 702.887 794.522 718.207C772.992 708.717 751.516 695.538 727.166 695.891C720.197 697.491 711.981 695.999 706.015 700.528C705.907 700.256 705.663 699.66 705.554 699.362C704.036 695.62 702.517 691.878 701.27 688.054C700.239 679.431 701.27 670.727 703.466 662.348L703.575 661.996Z"></path>
<path fill="#FEFFFE" d="M653.22 671.866C669.354 666.253 686.275 662.158 703.466 662.348C701.27 670.727 700.239 679.431 701.27 688.054C686.654 690.495 672.256 694.155 658.345 699.253C657.179 690.034 655.444 680.896 653.22 671.866Z"></path>
<path fill="#D9D7E0" d="M658.345 699.253C672.256 694.155 686.654 690.495 701.27 688.054C702.517 691.877 704.036 695.62 705.554 699.362C688.986 702.073 673.34 708.554 659.213 717.502C658.969 711.401 658.698 705.327 658.345 699.253Z"></path>
<path fill="#593A4C" d="M352.341 715.387L354.754 716.336C359.174 718.045 363.594 719.78 368.014 721.543C368.556 723.522 369.614 727.508 370.156 729.487C367.987 736.104 362.835 740.741 356.951 744.076C354.158 734.748 352.151 725.176 352.341 715.387Z"></path>
<path fill="#93B16F" d="M278.07 758.746C274.165 751.424 283.71 743.479 290.136 748.604C300.088 756.522 303.966 769.429 308.738 780.764C309.47 770.812 309.741 760.508 314.459 751.479C318.988 753.16 325.577 754.244 326.607 760.02C328.994 776.154 327.339 793.02 332.6 808.693C334.851 799.203 331.597 785.238 342.063 779.977C345.751 777.32 349.737 782.12 349.331 785.618C350.28 800.152 349.249 814.822 351.391 829.301C358.577 828.325 365.682 826.888 372.786 825.451C373.301 837.897 371.756 850.452 366.441 861.841C362.753 870.165 359.689 883.344 369.722 888.469C383.47 894.38 400.092 891.343 412.619 883.751C425.852 874.233 426.069 855.957 435.126 843.483C445.294 837.274 457.524 835.565 468.994 832.827C489.575 831.01 510.156 828.705 530.384 824.393C547.386 828.136 560.022 843.158 565.039 859.292C569.079 871.114 569.242 884.835 577.729 894.732C586.569 905.823 603.706 905.606 615.339 899.396C624.857 893.566 622.931 880.849 619.488 871.982C612.871 854.601 614.39 835.62 616.912 817.587C646.549 817.777 676.052 820.977 705.527 823.634C707.696 807.527 707.235 791.258 707.56 775.069C707.398 768.345 714.638 758.99 721.742 764.25C727.165 771.029 725.837 780.249 726.298 788.329C732.86 777.808 737.578 765.362 747.963 757.905C753.251 754.163 763.067 756.441 762.362 764.142C761.548 773.117 754.797 780.005 750.566 787.57C742.703 799.013 737.442 812.083 728.738 822.956C729.633 823.851 730.555 824.746 731.504 825.641C736.819 815.337 743.706 800.45 757.047 800.83C762.796 809.425 755.474 821.465 754.308 831.173C778.333 835.294 802.819 839.85 824.891 850.642C829.989 853.787 837.663 856.987 837.609 864.037C837.772 869.813 832.267 873.23 827.983 875.968C812.96 884.428 795.959 888.414 779.309 892.346C721.335 905.633 661.68 908.209 602.486 911.192C533.34 913.036 464.14 911.572 395.048 908.345C353.723 905.579 312.236 902.271 271.752 893.214C257.516 889.797 242.9 886.435 230.21 878.87C225.573 875.968 219.824 870.87 222.373 864.769C225.763 858.777 232.054 855.252 238.073 852.431C252.337 846.141 267.467 841.91 282.788 839.09C279.29 825.099 268.687 813.737 266.816 799.338C266.084 793.752 272.538 790.851 277.148 793.102C286.421 798.227 291.573 807.961 298.19 815.825C295.831 795.488 284.333 777.89 278.07 758.746ZM307.87 815.499C305.43 831.417 309.795 847.062 312.941 862.519C323.055 862.112 336.071 865.935 344.206 858.912C345.697 844.893 339.379 831.417 331.326 820.353C329.916 823.824 329.102 827.62 326.96 830.739C316.819 834.454 313.565 821.031 307.87 815.499ZM730.04 857.15C724.155 853.218 719.193 846.086 711.167 848.391C711.221 857.529 716.102 865.257 723.559 870.274C723.45 871.413 723.179 873.663 723.071 874.802C732.209 872.904 741.51 874.504 750.756 874.314C758.864 870.979 763.338 860.81 757.21 853.598C753.766 853.516 750.322 853.435 746.906 853.381C745.442 848.988 743.977 844.595 742.513 840.229C733.592 841.26 734.595 851.699 730.04 857.15ZM451.639 850.75C462.16 851.889 472.817 851.862 483.338 850.506C486.294 850.588 488.083 849.123 488.707 846.195C476.505 847.008 462.404 844.134 451.639 850.75Z"></path>
<path fill="#6C886C" d="M307.87 815.5C313.565 821.031 316.818 834.454 326.96 830.739C329.102 827.62 329.915 823.824 331.326 820.353C339.379 831.417 345.697 844.893 344.206 858.912C336.071 865.935 323.055 862.112 312.941 862.519C309.795 847.063 305.43 831.417 307.87 815.5Z"></path>
<path fill="#DDDADD" d="M433.201 817.018C443.45 816.72 453.7 817.94 463.326 821.601C452.209 826.048 440.468 828.813 429.458 833.532C430.679 828 431.926 822.523 433.201 817.018Z"></path>
<path fill="#687E62" d="M730.04 857.15C734.595 851.699 733.592 841.26 742.513 840.229C743.977 844.595 745.442 848.988 746.906 853.381C750.323 853.435 753.766 853.516 757.21 853.598C763.338 860.81 758.864 870.979 750.756 874.314C741.51 874.504 732.209 872.904 723.071 874.802C723.179 873.663 723.451 871.413 723.559 870.274C716.102 865.257 711.221 857.529 711.167 848.391C719.193 846.086 724.156 853.218 730.04 857.15Z"></path>
<path fill="#7D915C" d="M451.64 850.75C462.405 844.134 476.505 847.008 488.707 846.195C488.084 849.123 486.294 850.588 483.338 850.506C472.817 851.862 462.161 851.889 451.64 850.75Z"></path>
</svg>
