<?xml version="1.0" standalone="no"?><!DOCTYPE svg PUBLIC "-//W3C//DTD SVG 1.1//EN" "http://www.w3.org/Graphics/SVG/1.1/DTD/svg11.dtd"><svg height="1024" node-id="1" sillyvg="true" template-height="1024" template-width="1024" version="1.1" viewBox="0 0 1024 1024" width="1024" xmlns="http://www.w3.org/2000/svg" xmlns:xlink="http://www.w3.org/1999/xlink"><defs node-id="51"></defs><path d="M 0.00 0.00 L 1024.00 0.00 L 1024.00 1024.00 L 0.00 1024.00 Z" fill="#ffffff" fill-rule="nonzero" node-id="53" stroke="none" target-height="1024" target-width="1024" target-x="0" target-y="0"></path><path d="M 517.66 165.55 C 520.70 165.55 523.79 165.52 526.88 165.50 C 527.94 196.33 529.01 227.30 533.50 257.88 C 538.36 288.35 547.07 320.98 571.86 341.48 C 578.18 350.32 586.04 359.56 597.70 360.54 C 613.22 363.58 626.53 353.05 636.98 343.00 L 638.67 344.51 C 644.98 350.75 652.99 354.76 660.77 358.83 L 664.05 360.74 C 664.98 361.64 666.80 363.49 667.73 364.42 C 652.59 359.93 635.69 354.45 620.55 362.09 C 606.85 367.29 598.12 386.77 608.87 398.62 C 623.25 413.25 645.83 407.02 664.08 407.50 C 668.83 410.05 673.65 412.50 678.74 414.41 C 673.85 432.46 662.67 448.55 647.29 459.17 C 634.28 468.38 618.53 472.34 604.97 480.54 C 590.62 476.52 573.66 472.14 560.43 481.52 C 550.04 487.98 547.68 501.04 548.78 512.35 C 537.77 523.95 542.24 542.74 553.05 552.84 C 569.47 568.37 592.59 574.02 614.43 576.52 C 621.68 577.84 629.99 575.42 636.34 579.97 C 649.48 589.66 663.35 599.71 671.07 614.51 C 685.59 641.44 684.63 676.06 668.85 702.29 C 661.36 714.73 648.63 722.48 638.83 732.87 C 633.92 733.80 629.09 734.75 624.34 736.21 C 572.09 755.25 514.41 757.86 459.99 747.39 C 443.00 744.64 427.41 736.91 410.68 733.15 C 398.10 721.86 382.40 713.27 373.89 698.11 C 352.77 661.24 362.12 610.35 394.98 583.37 C 404.13 573.20 418.00 580.31 429.55 577.98 C 451.56 575.62 474.98 571.18 492.92 557.42 C 506.24 546.89 512.89 526.00 501.38 511.79 C 499.52 503.84 499.97 494.63 493.74 488.31 C 482.73 475.90 464.65 477.73 449.71 478.68 C 435.33 478.94 423.03 470.90 410.76 464.58 C 395.37 456.53 381.16 445.74 370.49 431.93 C 366.05 426.56 365.04 419.51 363.75 412.92 C 364.93 411.26 367.32 407.97 368.50 406.35 C 383.35 408.45 398.99 409.49 413.51 404.94 C 423.34 402.02 431.99 392.02 429.52 381.32 C 426.99 373.94 422.86 367.26 419.69 360.18 L 418.20 357.26 C 434.97 363.92 455.86 357.82 464.00 341.14 C 469.65 340.83 475.91 340.92 479.98 336.25 C 495.14 321.96 502.28 301.41 507.27 281.67 C 515.67 243.59 515.87 204.36 517.66 165.55 Z M 504.24 355.44 C 499.64 356.05 498.65 362.03 502.05 364.79 C 506.55 371.08 517.72 374.73 514.97 384.16 C 511.12 398.65 491.38 403.62 479.75 395.39 C 474.31 392.02 473.32 385.29 469.93 380.31 C 465.10 388.96 471.92 398.29 479.87 401.74 C 493.26 408.59 509.46 403.34 519.18 392.67 C 528.92 404.27 547.23 409.18 559.98 399.47 C 565.23 395.31 572.98 387.78 567.34 380.85 C 563.24 387.62 559.11 396.10 550.52 397.73 C 539.37 401.43 522.02 395.06 522.61 381.47 C 522.30 371.44 535.36 369.64 538.64 361.27 C 539.93 357.88 536.06 355.18 533.11 355.15 C 523.56 353.95 513.71 353.50 504.24 355.44 Z" fill="#fdfdfd" fill-rule="nonzero" node-id="55" stroke="none" target-height="592.368" target-width="332.81598" target-x="352.773" target-y="165.495"></path><path d="M 539.34 895.15 C 542.94 900.63 530.41 899.17 533.98 894.53 C 535.33 894.70 538.00 895.01 539.34 895.15 Z" fill="#fdfdfd" fill-rule="nonzero" node-id="57" stroke="none" target-height="6.0930786" target-width="12.524963" target-x="530.413" target-y="894.53394"></path><path d="M 536.28 901.47 C 547.63 899.08 534.71 913.88 532.60 904.76 C 533.53 903.94 535.36 902.28 536.28 901.47 Z" fill="#fdfdfd" fill-rule="nonzero" node-id="59" stroke="none" target-height="14.798035" target-width="15.02301" target-x="532.604" target-y="899.08295"></path><path d="M 344.40 113.60 C 356.03 109.25 368.58 114.50 378.52 120.62 C 398.29 132.30 413.93 149.35 431.31 164.09 C 456.76 154.82 483.94 151.99 510.81 150.70 C 543.30 150.13 576.55 152.89 607.10 164.68 C 624.32 149.35 640.83 132.75 661.21 121.58 C 670.99 116.33 681.94 110.54 693.39 113.24 C 701.31 114.95 706.12 122.19 709.80 128.82 C 721.31 150.33 725.60 174.79 727.96 198.83 C 729.73 226.80 729.73 255.27 722.94 282.65 C 719.76 289.73 724.90 296.01 727.71 302.17 C 731.36 309.21 734.39 316.54 737.31 323.90 C 752.09 320.98 766.72 316.96 781.74 315.56 L 782.97 319.35 L 781.54 322.30 C 768.20 327.27 754.11 329.57 740.29 332.69 C 742.85 340.64 743.60 349.00 743.86 357.32 C 762.39 355.27 781.06 353.02 799.77 354.03 C 798.95 357.04 799.68 361.61 795.44 361.98 C 778.48 363.63 761.32 362.85 744.50 365.80 C 741.58 371.92 742.62 379.87 740.07 386.38 C 758.07 389.92 776.68 390.09 794.46 395.17 C 793.95 397.08 792.89 400.84 792.38 402.72 C 773.93 399.94 755.48 397.11 736.89 395.73 C 734.73 403.62 732.26 411.43 729.90 419.26 C 743.24 424.57 757.62 435.83 755.57 451.87 C 754.44 463.66 744.53 471.27 734.45 475.65 C 735.18 493.82 736.41 512.69 730.12 530.13 C 727.54 538.21 722.63 545.23 719.23 552.96 C 723.92 567.98 731.75 581.91 736.16 597.07 C 749.45 641.24 752.84 689.99 736.95 733.97 C 728.69 754.89 713.56 773.95 713.64 797.37 C 713.02 806.22 713.89 815.82 709.21 823.77 C 705.84 829.89 699.29 833.06 693.17 835.68 C 680.23 838.76 666.35 838.03 653.32 835.82 C 638.47 830.96 622.60 824.44 614.99 809.76 C 555.71 817.40 495.65 815.82 436.23 810.80 C 422.44 836.49 389.78 837.47 364.23 836.35 C 360.58 835.56 356.99 834.64 353.56 833.21 C 337.58 823.99 340.00 803.75 338.14 788.11 C 334.21 768.03 318.04 753.85 310.68 735.29 C 295.40 699.82 296.47 659.64 304.22 622.49 C 309.27 597.97 321.35 575.84 330.53 552.79 C 312.50 528.84 302.28 498.25 305.91 468.21 C 307.28 458.58 310.71 445.71 322.56 445.24 C 317.11 440.10 312.87 433.92 308.97 427.60 C 305.32 429.48 301.69 431.37 298.10 433.22 C 298.72 442.85 301.52 457.12 289.51 460.85 C 280.63 460.57 272.77 454.84 270.97 445.97 C 274.48 430.55 289.06 423.17 302.79 418.59 C 299.36 410.84 295.80 403.20 292.37 395.48 C 274.76 396.35 257.27 398.23 239.80 400.42 C 235.70 401.74 232.95 398.60 231.04 395.48 C 249.57 388.68 269.68 389.33 289.11 387.50 C 287.88 380.43 287.20 373.29 286.89 366.13 C 269.74 363.55 252.35 363.55 235.23 361.19 C 230.17 361.33 227.11 355.10 232.67 352.65 C 250.75 352.51 268.70 355.66 286.67 357.29 C 287.76 349.00 289.34 340.81 291.19 332.66 C 276.62 328.62 259.77 328.22 247.13 319.86 L 248.14 315.90 C 263.87 316.09 278.78 321.96 294.06 325.08 C 298.52 310.20 307.73 297.42 313.49 283.18 C 304.14 238.34 306.05 190.60 321.27 147.24 C 326.43 134.80 331.18 119.69 344.40 113.60 Z M 348.45 131.80 C 341.51 140.73 338.06 151.79 334.52 162.41 C 326.80 189.90 323.62 218.91 326.97 247.35 C 328.48 260.46 335.62 274.20 329.44 287.14 C 322.78 301.66 314.11 315.25 308.40 330.25 C 323.68 336.34 339.60 341.37 353.56 350.24 C 357.38 352.15 359.68 355.63 360.55 359.79 C 341.54 353.95 324.07 343.47 304.53 339.40 C 303.52 345.89 302.48 352.40 301.38 358.92 C 318.82 363.55 338.79 361.61 354.09 372.37 C 336.77 372.48 319.78 368.55 302.51 367.68 C 303.01 373.91 303.57 380.12 304.14 386.32 C 317.78 386.38 331.35 383.82 344.97 385.23 C 347.83 385.00 351.82 386.41 353.61 383.24 C 355.55 385.37 357.43 387.56 359.29 389.81 C 356.59 393.74 351.34 394.83 347.63 397.56 C 347.86 395.90 348.31 392.56 348.53 390.90 C 334.52 392.33 320.42 393.12 306.52 395.56 C 308.99 402.25 311.61 408.90 314.27 415.53 C 321.94 413.17 329.61 410.89 337.22 408.31 L 337.78 407.10 C 347.94 405.73 358.33 403.54 368.50 406.35 C 367.32 407.97 364.93 411.26 363.75 412.92 C 349.71 416.15 335.70 419.54 322.08 424.20 C 336.20 447.93 362.15 461.22 387.40 469.92 C 407.36 476.49 428.56 482.61 449.71 478.68 C 464.65 477.73 482.73 475.90 493.74 488.31 C 499.97 494.63 499.52 503.84 501.38 511.79 C 512.89 526.00 506.24 546.89 492.92 557.42 C 474.98 571.18 451.56 575.62 429.55 577.98 C 418.00 580.31 404.13 573.20 394.98 583.37 C 395.26 582.02 395.79 579.30 396.07 577.92 C 382.26 575.20 368.61 571.63 355.47 566.52 C 351.82 564.36 348.17 562.22 344.54 560.06 C 330.79 593.39 320.09 628.61 319.02 664.91 C 318.46 683.79 318.80 703.13 324.83 721.22 C 330.81 737.87 340.67 752.75 348.00 768.84 C 354.57 783.31 351.93 799.62 355.38 814.73 C 357.27 822.28 365.97 823.63 372.57 823.74 C 384.03 823.04 396.05 821.92 406.04 815.77 C 416.10 815.21 424.86 807.03 426.01 796.92 C 430.67 781.17 423.68 765.50 424.44 749.69 C 434.46 762.81 438.06 779.43 438.25 795.69 C 496.49 801.02 555.40 801.56 613.50 794.20 C 611.43 776.54 618.76 759.52 629.06 745.62 L 632.26 746.35 C 624.06 765.70 621.76 787.83 628.92 807.88 L 630.89 808.10 C 644.96 821.55 666.21 824.72 685.00 824.19 C 691.43 824.11 701.37 821.21 700.13 813.04 C 698.65 795.18 701.46 777.15 707.13 760.25 C 714.68 741.13 724.90 722.54 726.90 701.70 C 731.84 653.46 721.87 604.23 702.10 560.23 C 695.16 563.21 688.34 566.46 681.77 570.14 C 672.70 572.89 663.46 575.53 653.91 575.79 C 647.88 576.32 641.02 575.25 636.34 579.97 C 629.99 575.42 621.68 577.84 614.43 576.52 C 592.59 574.02 569.47 568.37 553.05 552.84 C 542.24 542.74 537.77 523.95 548.78 512.35 C 547.68 501.04 550.04 487.98 560.43 481.52 C 573.66 472.14 590.62 476.52 604.97 480.54 C 626.17 479.61 646.70 471.97 666.02 463.55 C 684.86 454.87 703.20 442.35 713.22 423.67 C 702.04 419.49 690.50 416.31 678.74 414.41 C 673.65 412.50 668.82 410.05 664.08 407.50 C 672.19 402.05 681.54 405.59 690.36 406.35 C 699.15 412.10 709.82 413.68 720.10 414.69 C 722.49 407.64 724.82 400.59 726.98 393.48 C 713.73 393.93 700.22 391.97 687.22 395.23 C 681.63 393.18 671.72 388.09 680.76 382.48 L 680.67 385.62 C 695.89 386.13 711.14 385.68 726.42 386.13 C 727.60 379.95 728.69 373.77 729.65 367.57 C 713.89 367.96 698.59 371.97 682.98 373.52 C 682.47 375.26 681.43 378.71 680.93 380.45 C 679.47 378.43 676.55 374.42 675.09 372.42 C 675.62 371.22 676.72 368.80 677.28 367.59 C 695.11 363.19 713.92 362.96 731.61 357.29 C 730.66 350.58 729.56 343.89 728.38 337.24 C 715.72 338.89 704.43 345.16 692.75 349.82 C 683.46 354.20 673.01 355.63 664.05 360.74 L 660.76 358.83 C 678.79 343.67 701.76 335.89 724.03 329.29 C 718.27 314.46 709.68 300.93 704.15 286.05 C 700.92 277.45 705.16 268.47 706.37 259.88 C 713.44 227.41 710.83 193.44 703.00 161.37 C 699.52 150.58 696.79 138.26 687.75 130.65 C 677.84 129.63 669.47 136.43 662.09 142.13 C 646.73 155.33 632.66 170.10 620.13 186.02 C 590.93 172.66 559.03 165.47 526.88 165.50 C 523.79 165.52 520.70 165.55 517.66 165.55 C 507.58 164.88 497.50 165.47 487.50 166.67 C 467.51 168.92 446.76 171.22 428.99 181.39 C 424.77 183.41 418.85 187.34 415.17 182.29 C 399.58 165.21 385.51 145.84 365.38 133.71 C 360.38 131.38 353.31 127.11 348.45 131.80 Z M 711.45 449.39 C 720.66 448.52 727.35 441.62 735.29 437.66 C 731.73 434.43 727.93 431.48 724.14 428.64 C 719.68 435.41 714.99 442.07 711.45 449.39 Z M 703.22 458.63 C 687.47 469.19 670.68 478.54 652.34 483.79 C 641.08 486.85 629.15 485.08 617.88 488.12 L 617.44 490.84 C 625.86 495.73 635.44 497.89 644.67 500.58 C 644.14 501.43 643.05 503.11 642.51 503.96 C 625.41 499.83 608.96 490.70 590.96 492.36 C 591.12 489.92 591.32 487.47 591.52 485.03 C 580.00 482.95 565.94 483.18 558.83 494.10 C 552.57 501.51 558.41 510.58 561.58 517.91 C 558.07 518.81 554.62 519.71 551.16 520.61 C 547.63 534.59 558.69 546.36 569.98 552.62 C 601.21 569.66 639.23 569.55 672.70 559.61 C 687.44 554.78 703.03 547.85 710.97 533.66 C 724.20 510.11 728.64 480.31 717.46 455.04 C 712.49 455.32 707.29 455.43 703.22 458.63 Z M 324.21 464.00 C 322.31 464.39 318.51 465.15 316.60 465.54 C 311.66 487.22 318.01 510.30 329.86 528.70 C 341.09 546.72 361.36 556.41 381.08 562.25 C 410.37 571.32 442.18 567.31 470.57 557.03 C 483.66 551.61 499.02 541.58 498.71 525.66 C 496.35 519.34 488.69 518.19 483.43 515.16 C 486.02 509.51 490.29 504.10 490.20 497.67 C 486.83 491.99 481.10 487.78 474.48 487.14 C 458.61 484.58 442.55 486.69 426.71 488.17 C 393.24 487.53 361.70 474.39 332.81 458.44 C 328.65 455.40 326.66 461.89 324.21 464.00 Z" fill="#351a25" fill-rule="nonzero" node-id="61" stroke="none" target-height="729.516" target-width="572.65594" target-x="227.10999" target-y="109.249"></path><path d="M 436.23 810.80 C 495.65 815.82 555.72 817.40 614.99 809.76 C 622.60 824.44 638.47 830.96 653.32 835.82 C 645.97 840.31 636.98 838.90 628.78 839.69 C 552.96 842.08 477.06 841.18 401.30 837.47 C 388.94 836.71 376.39 839.50 364.23 836.35 C 389.78 837.47 422.44 836.49 436.23 810.80 Z" fill="#aa9dad" fill-rule="nonzero" node-id="63" stroke="none" target-height="32.320923" target-width="289.09396" target-x="364.23" target-y="809.757"></path><path d="M 570.54 904.08 C 570.93 897.14 567.12 887.06 574.42 882.71 C 574.70 884.45 575.26 887.96 575.54 889.70 C 578.68 889.96 581.91 890.66 583.57 893.72 C 581.32 893.89 576.83 894.25 574.59 894.42 C 574.67 898.58 574.81 902.76 575.03 906.95 C 577.23 907.20 581.63 907.73 583.82 907.99 C 580.57 914.30 569.67 911.33 570.54 904.08 Z" fill="#351a22" fill-rule="nonzero" node-id="65" stroke="none" target-height="31.591003" target-width="16.708984" target-x="567.115" target-y="882.712"></path><path d="M 348.45 131.80 C 353.31 127.11 360.38 131.38 365.38 133.71 C 385.52 145.84 399.58 165.21 415.17 182.29 C 418.85 187.34 424.77 183.41 428.99 181.39 C 446.76 171.22 467.51 168.92 487.51 166.67 C 497.50 165.47 507.58 164.88 517.66 165.55 C 515.87 204.36 515.67 243.59 507.27 281.67 C 502.28 301.41 495.14 321.96 479.98 336.25 C 475.91 340.92 469.65 340.83 464.00 341.14 C 464.03 330.25 463.33 318.54 456.67 309.41 C 448.87 297.03 430.47 290.54 418.00 299.92 C 404.61 310.20 402.76 328.42 403.29 344.09 C 393.41 349.20 383.38 354.14 374.09 360.29 C 366.56 367.26 360.55 375.68 353.62 383.24 C 351.82 386.41 347.83 385.00 344.97 385.23 C 331.35 383.82 317.78 386.38 304.14 386.32 C 303.57 380.12 303.01 373.91 302.51 367.68 C 319.78 368.55 336.77 372.48 354.09 372.37 C 338.79 361.61 318.82 363.55 301.38 358.92 C 302.48 352.40 303.52 345.89 304.53 339.40 C 324.07 343.47 341.54 353.95 360.55 359.79 C 359.68 355.63 357.38 352.15 353.56 350.24 C 339.60 341.37 323.68 336.34 308.40 330.25 C 314.11 315.25 322.78 301.66 329.44 287.14 C 335.62 274.20 328.48 260.46 326.97 247.35 C 323.62 218.91 326.80 189.90 334.52 162.41 C 338.06 151.79 341.51 140.73 348.45 131.80 Z M 354.37 145.33 C 341.18 175.44 338.17 209.27 343.28 241.57 C 357.18 220.95 374.54 203.04 394.28 187.90 C 380.57 174.09 367.96 159.26 354.37 145.33 Z" fill="#553949" fill-rule="nonzero" node-id="67" stroke="none" target-height="259.3" target-width="216.27997" target-x="301.385" target-y="127.108"></path><path d="M 662.09 142.13 C 669.47 136.43 677.84 129.63 687.75 130.65 C 696.79 138.26 699.52 150.58 703.00 161.37 C 710.83 193.44 713.44 227.41 706.37 259.88 C 705.16 268.47 700.92 277.45 704.15 286.05 C 709.68 300.93 718.27 314.46 724.03 329.29 C 701.76 335.89 678.79 343.67 660.76 358.83 C 652.99 354.76 644.98 350.75 638.67 344.51 C 636.05 331.68 637.18 317.08 627.40 306.88 C 618.92 294.81 600.59 293.10 589.86 303.12 C 577.84 312.30 574.75 327.58 571.86 341.48 C 547.07 320.98 538.36 288.35 533.50 257.88 C 529.01 227.30 527.94 196.33 526.88 165.50 C 559.03 165.47 590.93 172.66 620.13 186.02 C 632.66 170.10 646.73 155.33 662.09 142.13 Z M 641.75 188.24 C 651.05 195.99 661.07 202.96 669.44 211.77 C 678.46 220.79 685.34 231.57 693.23 241.48 C 698.76 209.47 696.34 175.10 682.89 145.33 C 669.39 159.85 656.67 175.10 641.75 188.24 Z" fill="#553948" fill-rule="nonzero" node-id="69" stroke="none" target-height="229.197" target-width="197.15698" target-x="526.875" target-y="129.635"></path><path d="M 354.37 145.33 C 367.96 159.26 380.57 174.09 394.28 187.90 C 374.54 203.04 357.18 220.95 343.28 241.57 C 338.17 209.27 341.18 175.44 354.37 145.33 Z" fill="#da859d" fill-rule="nonzero" node-id="71" stroke="none" target-height="96.23302" target-width="56.10501" target-x="338.171" target-y="145.333"></path><path d="M 641.75 188.24 C 656.67 175.10 669.39 159.85 682.89 145.33 C 696.34 175.10 698.76 209.47 693.23 241.48 C 685.34 231.57 678.46 220.79 669.44 211.77 C 661.07 202.96 651.05 195.99 641.75 188.24 Z" fill="#d9859b" fill-rule="nonzero" node-id="73" stroke="none" target-height="96.149" target-width="57.00403" target-x="641.755" target-y="145.333"></path><path d="M 410.68 733.15 C 427.41 736.91 443.00 744.64 459.99 747.39 C 514.41 757.86 572.09 755.25 624.34 736.21 C 629.09 734.75 633.92 733.80 638.83 732.87 C 635.41 737.00 632.15 741.27 629.06 745.62 C 618.76 759.52 611.43 776.54 613.50 794.20 C 555.40 801.56 496.49 801.02 438.25 795.69 C 438.06 779.43 434.46 762.81 424.44 749.69 C 420.28 743.80 415.67 738.26 410.68 733.15 Z" fill="#d4ccda" fill-rule="nonzero" node-id="75" stroke="none" target-height="68.685974" target-width="228.15802" target-x="410.67596" target-y="732.871"></path><path d="M 418.00 299.92 C 430.47 290.54 448.87 297.03 456.67 309.41 C 463.33 318.54 464.03 330.25 464.00 341.14 C 455.86 357.82 434.97 363.92 418.20 357.26 C 413.09 353.02 408.09 348.64 403.29 344.09 C 402.76 328.42 404.61 310.20 418.00 299.92 Z M 425.02 304.92 C 419.24 308.51 421.60 319.94 429.10 318.87 C 434.66 319.10 438.36 312.22 435.89 307.44 C 434.38 302.98 428.45 302.45 425.02 304.92 Z" fill="#3a1e2b" fill-rule="nonzero" node-id="77" stroke="none" target-height="73.37601" target-width="61.27298" target-x="402.757" target-y="290.539"></path><path d="M 589.86 303.12 C 600.59 293.10 618.92 294.81 627.40 306.88 C 637.18 317.08 636.05 331.68 638.67 344.51 L 636.98 343.00 C 626.53 353.05 613.22 363.58 597.70 360.54 C 586.04 359.56 578.18 350.32 571.86 341.48 C 574.75 327.58 577.84 312.30 589.86 303.12 Z M 607.80 304.21 C 601.46 304.89 599.44 314.35 604.66 317.86 C 608.51 319.44 612.80 317.55 614.91 314.10 C 618.64 309.63 613.20 302.42 607.80 304.21 Z" fill="#381b27" fill-rule="nonzero" node-id="79" stroke="none" target-height="70.483" target-width="66.80499" target-x="571.861" target-y="293.095"></path><path d="M 425.02 304.92 C 428.45 302.45 434.38 302.98 435.89 307.44 C 438.36 312.22 434.66 319.10 429.10 318.87 C 421.60 319.94 419.24 308.51 425.02 304.92 Z" fill="#ffffff" fill-rule="nonzero" node-id="81" stroke="none" target-height="17.493988" target-width="19.122986" target-x="419.241" target-y="302.446"></path><path d="M 607.80 304.21 C 613.20 302.42 618.64 309.63 614.91 314.10 C 612.80 317.55 608.51 319.44 604.66 317.86 C 599.44 314.35 601.46 304.89 607.80 304.21 Z" fill="#ffffff" fill-rule="nonzero" node-id="83" stroke="none" target-height="17.016998" target-width="19.208008" target-x="599.436" target-y="302.418"></path><path d="M 692.75 349.82 C 704.43 345.16 715.72 338.89 728.39 337.24 C 729.56 343.89 730.66 350.58 731.61 357.29 C 713.92 362.96 695.11 363.19 677.28 367.59 C 676.72 368.80 675.62 371.22 675.09 372.42 C 672.73 369.64 670.26 366.98 667.73 364.42 C 666.80 363.49 664.98 361.64 664.05 360.74 C 673.01 355.63 683.46 354.20 692.75 349.82 Z" fill="#513545" fill-rule="nonzero" node-id="85" stroke="none" target-height="35.186005" target-width="67.56299" target-x="664.051" target-y="337.238"></path><path d="M 374.09 360.29 C 383.38 354.14 393.41 349.20 403.29 344.09 C 408.09 348.64 413.09 353.02 418.20 357.26 L 419.69 360.18 C 409.86 359.00 399.89 358.92 390.23 361.05 C 384.90 361.50 378.61 364.59 374.09 360.29 Z" fill="#fadfe5" fill-rule="nonzero" node-id="87" stroke="none" target-height="20.498993" target-width="45.602966" target-x="374.08704" target-y="344.09"></path><path d="M 504.24 355.44 C 513.71 353.50 523.56 353.95 533.11 355.15 C 536.06 355.18 539.93 357.88 538.64 361.27 C 535.36 369.64 522.30 371.44 522.61 381.47 C 522.02 395.06 539.37 401.43 550.52 397.73 C 559.11 396.10 563.24 387.62 567.34 380.85 C 572.98 387.78 565.23 395.31 559.98 399.47 C 547.23 409.18 528.92 404.27 519.18 392.67 C 509.46 403.34 493.26 408.59 479.87 401.74 C 471.92 398.29 465.10 388.96 469.93 380.31 C 473.32 385.29 474.31 392.02 479.75 395.39 C 491.38 403.62 511.12 398.65 514.97 384.16 C 517.72 374.73 506.54 371.08 502.05 364.79 C 498.65 362.03 499.64 356.05 504.24 355.44 Z M 505.00 363.10 C 514.49 363.94 524.07 364.00 533.53 362.79 C 528.50 359.45 522.13 360.60 516.49 360.29 C 512.53 360.60 507.84 359.68 505.00 363.10 Z" fill="#34151e" fill-rule="nonzero" node-id="89" stroke="none" target-height="55.684998" target-width="107.887024" target-x="465.097" target-y="353.497"></path><path d="M 353.62 383.24 C 360.55 375.68 366.56 367.26 374.09 360.29 C 378.61 364.59 384.90 361.50 390.23 361.05 C 399.89 358.92 409.86 359.00 419.69 360.18 C 422.86 367.26 426.99 373.94 429.52 381.32 C 431.99 392.02 423.34 402.02 413.51 404.94 C 399.00 409.49 383.35 408.45 368.50 406.35 C 358.33 403.54 347.94 405.73 337.78 407.10 C 338.09 406.51 338.70 405.28 339.01 404.66 C 341.74 402.13 344.69 399.86 347.63 397.56 C 351.34 394.83 356.59 393.74 359.29 389.81 C 357.44 387.56 355.55 385.37 353.62 383.24 Z M 376.42 373.32 C 377.12 374.42 378.55 376.64 379.28 377.73 C 385.52 378.80 391.78 379.92 397.95 381.27 C 402.79 388.20 410.73 386.69 417.53 383.82 C 416.99 382.45 415.90 379.73 415.37 378.38 C 402.39 376.44 389.56 373.38 376.42 373.32 Z" fill="#f7c7d7" fill-rule="nonzero" node-id="91" stroke="none" target-height="50.574005" target-width="94.212006" target-x="337.778" target-y="358.917"></path><path d="M 505.00 363.10 C 507.84 359.68 512.53 360.60 516.49 360.29 C 522.13 360.60 528.50 359.45 533.53 362.79 C 524.07 364.00 514.49 363.94 505.00 363.10 Z" fill="#fbc6d7" fill-rule="nonzero" node-id="93" stroke="none" target-height="4.5489807" target-width="28.53003" target-x="505" target-y="359.45"></path><path d="M 620.55 362.09 C 635.69 354.45 652.59 359.93 667.73 364.42 C 670.26 366.98 672.73 369.64 675.09 372.42 C 676.55 374.42 679.47 378.43 680.93 380.45 C 680.90 380.96 680.82 381.97 680.76 382.48 C 671.72 388.09 681.63 393.18 687.22 395.23 C 689.77 398.90 692.08 402.75 694.35 406.63 L 690.36 406.35 C 681.55 405.59 672.20 402.05 664.08 407.50 C 645.83 407.02 623.25 413.25 608.87 398.62 C 598.12 386.77 606.85 367.29 620.55 362.09 Z M 620.67 378.85 L 619.54 381.49 C 625.83 387.00 634.62 386.69 642.46 387.05 C 640.63 385.00 638.84 382.95 637.07 380.90 C 646.53 377.87 656.53 379.19 666.27 378.97 C 665.82 377.70 664.89 375.20 664.45 373.94 C 649.70 372.09 635.16 376.83 620.67 378.85 Z" fill="#f9c9d7" fill-rule="nonzero" node-id="95" stroke="none" target-height="58.800995" target-width="96.23407" target-x="598.117" target-y="354.452"></path><path d="M 682.98 373.52 C 698.59 371.97 713.89 367.96 729.65 367.57 C 728.69 373.77 727.60 379.95 726.42 386.13 C 711.14 385.68 695.89 386.13 680.67 385.62 L 680.76 382.48 C 680.82 381.97 680.90 380.96 680.93 380.45 C 681.43 378.71 682.47 375.26 682.98 373.52 Z" fill="#4e3444" fill-rule="nonzero" node-id="97" stroke="none" target-height="18.560974" target-width="48.973022" target-x="680.675" target-y="367.56604"></path><path d="M 376.42 373.32 C 389.56 373.38 402.39 376.44 415.37 378.38 C 415.90 379.73 417.00 382.45 417.53 383.82 C 410.73 386.69 402.79 388.20 397.96 381.27 C 391.78 379.92 385.52 378.80 379.28 377.73 C 378.55 376.64 377.12 374.42 376.42 373.32 Z" fill="#f5eff2" fill-rule="nonzero" node-id="99" stroke="none" target-height="14.883026" target-width="41.111023" target-x="376.417" target-y="373.32196"></path><path d="M 620.67 378.85 C 635.15 376.83 649.70 372.09 664.44 373.94 C 664.89 375.20 665.82 377.70 666.27 378.97 C 656.52 379.19 646.53 377.87 637.07 380.90 C 638.83 382.95 640.63 385.00 642.46 387.05 C 634.62 386.69 625.83 387.00 619.54 381.49 L 620.67 378.85 Z" fill="#f8e5eb" fill-rule="nonzero" node-id="101" stroke="none" target-height="14.9670105" target-width="46.72699" target-x="619.542" target-y="372.08698"></path><path d="M 306.52 395.56 C 320.42 393.12 334.52 392.33 348.53 390.90 C 348.31 392.56 347.86 395.90 347.63 397.56 C 344.69 399.86 341.74 402.13 339.01 404.66 C 338.70 405.28 338.09 406.51 337.78 407.10 L 337.22 408.31 C 329.61 410.89 321.94 413.17 314.27 415.53 C 311.61 408.90 309.00 402.25 306.52 395.56 Z" fill="#513442" fill-rule="nonzero" node-id="103" stroke="none" target-height="24.627045" target-width="42.009003" target-x="306.524" target-y="390.90097"></path><path d="M 687.22 395.23 C 700.22 391.97 713.73 393.93 726.98 393.48 C 724.82 400.59 722.49 407.64 720.10 414.69 C 709.82 413.68 699.15 412.10 690.36 406.35 L 694.35 406.63 C 692.08 402.75 689.77 398.90 687.22 395.23 Z" fill="#4c2d3e" fill-rule="nonzero" node-id="105" stroke="none" target-height="22.718018" target-width="39.761963" target-x="687.218" target-y="391.968"></path><path d="M 322.08 424.20 C 335.70 419.54 349.71 416.15 363.75 412.92 C 365.04 419.51 366.05 426.56 370.49 431.93 C 381.16 445.74 395.37 456.53 410.76 464.58 C 423.03 470.90 435.33 478.94 449.71 478.68 C 428.56 482.61 407.36 476.49 387.40 469.92 C 362.15 461.22 336.20 447.93 322.08 424.20 Z" fill="#d2d1de" fill-rule="nonzero" node-id="107" stroke="none" target-height="69.69702" target-width="127.62802" target-x="322.081" target-y="412.916"></path><path d="M 647.29 459.17 C 662.67 448.55 673.85 432.46 678.74 414.41 C 690.50 416.31 702.04 419.49 713.22 423.67 C 703.20 442.35 684.86 454.87 666.02 463.55 C 646.70 471.97 626.17 479.61 604.97 480.54 C 618.53 472.34 634.28 468.38 647.29 459.17 Z" fill="#cbc9d5" fill-rule="nonzero" node-id="109" stroke="none" target-height="66.130005" target-width="108.252014" target-x="604.969" target-y="414.40503"></path><path d="M 711.45 449.39 C 714.99 442.07 719.68 435.41 724.14 428.64 C 727.94 431.48 731.73 434.43 735.29 437.66 C 727.35 441.62 720.66 448.52 711.45 449.39 Z" fill="#f5f4f6" fill-rule="nonzero" node-id="111" stroke="none" target-height="20.752014" target-width="23.841003" target-x="711.452" target-y="428.64203"></path><path d="M 703.22 458.63 C 707.30 455.43 712.49 455.32 717.46 455.04 C 728.64 480.31 724.20 510.11 710.97 533.66 C 703.03 547.85 687.44 554.78 672.70 559.61 C 639.23 569.55 601.21 569.66 569.98 552.62 C 558.69 546.36 547.63 534.59 551.16 520.61 C 554.62 519.71 558.07 518.81 561.58 517.91 C 558.41 510.58 552.57 501.51 558.83 494.10 C 565.94 483.18 580.00 482.95 591.52 485.03 C 591.32 487.47 591.12 489.92 590.96 492.36 C 611.37 505.95 636.45 514.85 661.16 510.13 C 655.01 507.83 648.77 505.84 642.51 503.96 C 643.05 503.11 644.14 501.43 644.67 500.58 C 635.44 497.89 625.86 495.73 617.44 490.84 L 617.89 488.12 C 629.15 485.08 641.08 486.85 652.34 483.79 C 670.68 478.54 687.47 469.19 703.22 458.63 Z" fill="#533647" fill-rule="nonzero" node-id="113" stroke="none" target-height="114.62698" target-width="181.01001" target-x="547.627" target-y="455.038"></path><path d="M 324.21 464.00 C 326.66 461.89 328.65 455.40 332.81 458.44 C 361.70 474.39 393.24 487.53 426.71 488.17 C 442.55 486.69 458.61 484.58 474.48 487.14 C 481.10 487.78 486.83 491.99 490.20 497.67 C 490.29 504.10 486.02 509.51 483.43 515.16 C 488.69 518.19 496.35 519.34 498.71 525.66 C 499.02 541.58 483.66 551.61 470.57 557.03 C 442.18 567.31 410.37 571.32 381.08 562.25 C 361.37 556.41 341.09 546.72 329.86 528.69 C 318.01 510.30 311.66 487.22 316.61 465.54 C 318.51 465.15 322.31 464.39 324.21 464.00 Z M 389.19 507.04 C 394.64 509.88 400.96 509.40 406.94 509.07 C 422.16 508.03 437.44 503.42 449.62 493.99 C 428.93 495.00 409.41 503.08 389.19 507.04 Z" fill="#543847" fill-rule="nonzero" node-id="115" stroke="none" target-height="115.91797" target-width="187.35602" target-x="311.663" target-y="455.403"></path><path d="M 777.47 487.98 C 786.40 483.43 794.71 477.64 800.08 468.97 C 803.47 472.93 806.51 477.17 810.10 480.98 C 812.99 483.68 817.91 484.44 819.65 488.23 C 812.68 494.97 805.41 501.43 799.96 509.49 C 794.04 500.81 787.24 492.50 777.47 487.98 Z" fill="#e5a74e" fill-rule="nonzero" node-id="117" stroke="none" target-height="40.520966" target-width="42.17804" target-x="777.47" target-y="468.966"></path><path d="M 590.96 492.36 C 608.96 490.70 625.41 499.83 642.51 503.96 C 648.77 505.84 655.01 507.83 661.16 510.13 C 636.45 514.85 611.37 505.95 590.96 492.36 Z" fill="#f6f2f2" fill-rule="nonzero" node-id="119" stroke="none" target-height="24.149994" target-width="70.203" target-x="590.956" target-y="490.70102"></path><path d="M 204.00 511.43 C 213.86 507.49 222.11 500.78 227.17 491.32 C 230.34 495.50 233.29 499.88 236.88 503.76 C 240.31 507.63 246.96 507.63 249.21 512.60 C 240.06 518.78 232.45 526.36 227.39 536.30 C 221.61 526.11 212.34 519.26 204.00 511.43 Z" fill="#e5a854" fill-rule="nonzero" node-id="121" stroke="none" target-height="44.985016" target-width="45.210007" target-x="204" target-y="491.319"></path><path d="M 389.19 507.04 C 409.41 503.08 428.93 495.00 449.62 493.99 C 437.44 503.42 422.16 508.03 406.94 509.07 C 400.96 509.40 394.64 509.88 389.19 507.04 Z" fill="#fbf6f5" fill-rule="nonzero" node-id="123" stroke="none" target-height="15.894012" target-width="60.431" target-x="389.194" target-y="493.986"></path><path d="M 774.66 567.02 C 783.00 563.99 789.63 558.18 795.16 551.41 C 801.20 556.89 806.82 562.98 814.09 566.88 C 807.29 572.87 800.83 579.24 795.78 586.77 C 789.43 579.44 782.64 572.59 774.66 567.02 Z" fill="#e5a84f" fill-rule="nonzero" node-id="125" stroke="none" target-height="35.354004" target-width="39.426025" target-x="774.662" target-y="551.412"></path><path d="M 319.02 664.91 C 320.09 628.61 330.79 593.39 344.54 560.06 C 348.17 562.22 351.82 564.36 355.47 566.52 C 350.47 588.17 341.71 608.98 339.69 631.27 C 335.56 653.77 337.64 676.71 341.65 699.03 C 345.53 719.67 354.96 738.63 360.94 758.65 C 366.84 776.45 368.05 795.35 373.30 813.35 C 384.22 813.77 395.15 814.76 406.04 815.77 C 396.05 821.92 384.03 823.04 372.57 823.74 C 365.97 823.63 357.27 822.28 355.38 814.73 C 351.93 799.62 354.57 783.31 348.00 768.84 C 340.67 752.75 330.81 737.87 324.83 721.22 C 318.80 703.13 318.46 683.79 319.02 664.91 Z" fill="#4b2d3d" fill-rule="nonzero" node-id="127" stroke="none" target-height="263.68" target-width="87.58499" target-x="318.458" target-y="560.061"></path><path d="M 681.77 570.14 C 688.34 566.46 695.17 563.21 702.10 560.23 C 721.87 604.23 731.84 653.46 726.90 701.70 C 724.90 722.54 714.68 741.13 707.13 760.25 C 701.46 777.15 698.65 795.18 700.13 813.04 C 701.37 821.21 691.43 824.11 685.00 824.19 C 666.21 824.72 644.96 821.55 630.89 808.10 C 646.00 808.77 661.33 814.90 676.32 810.99 C 685.48 809.00 684.52 798.52 685.42 791.36 C 687.05 758.71 700.67 728.27 704.35 695.97 C 710.36 653.21 703.95 607.63 681.77 570.14 Z" fill="#492d3c" fill-rule="nonzero" node-id="129" stroke="none" target-height="264.495" target-width="100.951904" target-x="630.887" target-y="560.229"></path><path d="M 258.84 577.89 C 266.28 573.96 272.46 568.23 277.66 561.63 C 282.85 568.01 288.55 574.13 296.53 576.97 C 297.65 580.22 293.92 581.80 292.34 584.01 C 287.51 588.59 283.89 594.21 280.30 599.77 C 272.71 592.89 267.21 583.99 258.84 577.89 Z" fill="#e7ac5a" fill-rule="nonzero" node-id="131" stroke="none" target-height="38.134033" target-width="38.807983" target-x="258.842" target-y="561.633"></path><path d="M 355.47 566.52 C 368.61 571.63 382.26 575.20 396.07 577.92 C 395.79 579.30 395.26 582.02 394.98 583.37 C 362.12 610.35 352.77 661.24 373.89 698.11 C 382.40 713.27 398.10 721.86 410.68 733.15 C 415.68 738.26 420.28 743.80 424.44 749.69 C 423.68 765.50 430.67 781.17 426.01 796.92 C 424.86 807.03 416.10 815.21 406.04 815.77 C 395.15 814.76 384.22 813.77 373.30 813.35 C 368.05 795.35 366.84 776.45 360.94 758.65 C 354.96 738.63 345.53 719.67 341.65 699.03 C 337.64 676.71 335.56 653.77 339.69 631.27 C 341.71 608.98 350.47 588.17 355.47 566.52 Z" fill="#583b4a" fill-rule="nonzero" node-id="133" stroke="none" target-height="249.24707" target-width="95.11105" target-x="335.559" target-y="566.52"></path><path d="M 653.91 575.79 C 663.46 575.53 672.70 572.89 681.77 570.14 C 703.95 607.63 710.36 653.21 704.35 695.97 C 700.67 728.27 687.05 758.71 685.42 791.36 C 684.52 798.52 685.48 809.00 676.32 810.99 C 661.33 814.90 646.00 808.77 630.89 808.10 L 628.92 807.88 C 621.76 787.83 624.06 765.70 632.26 746.35 L 629.06 745.62 C 632.15 741.27 635.41 737.00 638.83 732.87 C 648.63 722.48 661.36 714.73 668.85 702.29 C 684.63 676.06 685.59 641.44 671.07 614.51 C 663.35 599.71 649.48 589.66 636.34 579.97 C 641.02 575.25 647.88 576.32 653.91 575.79 Z" fill="#573a49" fill-rule="nonzero" node-id="135" stroke="none" target-height="244.75397" target-width="88.59601" target-x="621.761" target-y="570.142"></path><path d="M 338.14 788.11 C 340.00 803.75 337.58 823.99 353.56 833.21 C 333.65 832.36 313.96 828.94 294.62 824.36 C 287.91 822.51 280.69 820.79 275.61 815.71 C 274.68 810.77 280.27 809.45 283.69 807.74 C 301.22 801.22 320.14 800.21 338.54 798.10 C 338.45 795.60 338.25 790.61 338.14 788.11 Z" fill="#a697ab" fill-rule="nonzero" node-id="137" stroke="none" target-height="45.098022" target-width="78.879" target-x="274.68" target-y="788.107"></path><path d="M 713.64 797.37 C 736.25 799.93 759.95 802.09 780.11 813.55 C 777.70 817.96 774.13 821.66 769.07 822.81 C 744.56 830.85 718.61 832.53 693.17 835.68 C 699.29 833.06 705.84 829.89 709.21 823.77 C 713.89 815.82 713.02 806.22 713.64 797.37 Z" fill="#a595a9" fill-rule="nonzero" node-id="139" stroke="none" target-height="38.30304" target-width="86.938965" target-x="693.171" target-y="797.373"></path><path d="M 468.63 894.82 C 462.79 885.55 480.51 876.73 484.47 886.75 C 479.87 886.92 475.49 887.91 471.33 889.73 C 475.24 894.96 486.55 897.14 484.14 905.29 C 482.68 913.26 467.15 914.30 466.84 905.43 C 472.17 908.38 476.64 907.79 480.23 903.63 C 476.75 900.15 472.45 897.82 468.63 894.82 Z" fill="#311922" fill-rule="nonzero" node-id="141" stroke="none" target-height="37.572998" target-width="23.755981" target-x="462.79498" target-y="876.73"></path><path d="M 529.99 892.17 C 534.51 891.42 540.58 888.10 544.31 892.32 C 547.54 898.21 545.49 905.35 545.30 911.75 C 538.64 909.84 524.77 914.72 527.58 902.31 L 532.27 900.54 C 530.47 899.36 528.70 898.18 526.93 897.03 L 531.85 897.48 L 529.99 892.17 Z M 539.34 895.15 C 538.00 895.01 535.33 894.70 533.98 894.53 C 530.41 899.17 542.94 900.63 539.34 895.15 Z M 536.28 901.47 C 535.36 902.28 533.53 903.94 532.60 904.76 C 534.71 913.88 547.63 899.08 536.28 901.47 Z" fill="#311922" fill-rule="nonzero" node-id="143" stroke="none" target-height="26.620972" target-width="22.858032" target-x="524.769" target-y="888.10297"></path><path d="M 490.96 890.63 C 496.77 890.63 502.67 890.41 508.26 892.40 C 509.69 891.59 512.61 889.99 514.04 889.20 C 522.30 891.05 522.38 899.92 521.85 906.75 C 522.02 909.45 520.81 911.19 518.20 912.00 C 517.08 904.81 520.81 891.87 509.27 893.52 C 508.96 899.34 508.85 905.18 508.74 911.05 C 507.72 910.99 505.73 910.90 504.72 910.88 C 504.58 905.60 504.69 900.32 503.96 895.10 C 492.11 888.83 496.29 905.49 495.12 912.00 C 487.53 907.70 491.72 897.62 490.96 890.63 Z" fill="#1e0b0b" fill-rule="nonzero" node-id="145" stroke="none" target-height="23.166992" target-width="34.848053" target-x="487.53397" target-y="888.833"></path><path d="M 552.57 890.74 C 556.75 891.53 560.94 891.47 565.18 890.57 C 565.74 896.02 557.93 893.83 557.26 898.10 C 556.67 902.45 556.73 906.86 556.64 911.24 C 555.55 911.30 553.38 911.38 552.29 911.44 C 552.32 904.53 552.35 897.65 552.57 890.74 Z" fill="#280e0f" fill-rule="nonzero" node-id="147" stroke="none" target-height="20.864014" target-width="13.450012" target-x="552.289" target-y="890.574"></path></svg>