<?xml version="1.0" standalone="no"?><!DOCTYPE svg PUBLIC "-//W3C//DTD SVG 1.1//EN" "http://www.w3.org/Graphics/SVG/1.1/DTD/svg11.dtd"><svg t="1783081894615" class="icon" viewBox="0 0 1024 1024" version="1.1" xmlns="http://www.w3.org/2000/svg" p-id="3901" xmlns:xlink="http://www.w3.org/1999/xlink" width="200" height="200"><path d="M249.7 568.43c-10.11 0-18.79-7.64-19.87-17.92-1.15-10.99 6.82-20.82 17.81-21.97l155.8-16.31c10.99-1.15 20.82 6.82 21.97 17.81 1.15 10.99-6.82 20.82-17.81 21.97l-155.8 16.31c-0.7 0.08-1.4 0.11-2.1 0.11z" fill="#FFB514" p-id="3902"></path><path d="M218.73 647.93c-19.97 0-37.19-15.14-39.32-35.45l-11.89-113.6c-26.49-15.54-43.74-32.78-61.89-50.92-19.09-19.07-30.7-34.9-36.56-49.82-7.57-19.28-5.95-37.84 4.83-55.16 6.87-11.05 17.82-18.47 31.65-21.46 13.21-2.85 28.62-1.51 44.36 3.54-0.65-35.88 11.23-70.52 34.09-98.73 25.71-31.72 62.22-51.53 102.83-55.78s80.43 7.56 112.15 33.27c31.72 25.71 51.53 62.22 55.78 102.83l28.12 268.65c1.25 11.95-2.23 23.66-9.79 32.98-7.56 9.33-18.3 15.15-30.25 16.4l-219.95 23.03c-1.4 0.15-2.79 0.22-4.16 0.22z m-98.77-287.88c-2.23 0-4.23 0.2-5.97 0.57-4.57 0.99-5.7 2.8-6.13 3.48-4.24 6.81-11.33 18.21 26.05 55.56 18.81 18.81 35.06 35.04 61.74 49.1l9.46 4.98 14.04 134.14 219.54-22.99a4.861 4.861 0 0 0 3.33-1.8 4.9 4.9 0 0 0 1.08-3.64l-28.12-268.64c-3.14-29.98-17.76-56.94-41.18-75.92-23.42-18.98-52.83-27.7-82.8-24.56-29.98 3.14-56.94 17.76-75.92 41.18-18.98 23.42-27.7 52.83-24.56 82.8l6.73 64.39-35.44-23.68c-15.94-10.63-31.39-14.97-41.85-14.97z" fill="#555555" p-id="3903"></path><path d="M791.73 780.78H635.07c-11.05 0-20-8.95-20-20s8.95-20 20-20h156.66c11.05 0 20 8.95 20 20s-8.96 20-20 20z" fill="#FFB514" p-id="3904"></path><path d="M828.76 856.74H607.59c-24.79 0-44.95-20.16-44.95-44.95V541.67c0-84.28 68.57-152.85 152.85-152.85 79.75 0 145.44 61.4 152.26 139.42 15.13-6.67 30.31-9.6 43.74-8.15 14.07 1.53 25.73 7.77 33.72 18.04 12.52 16.11 16.07 34.4 10.55 54.36-4.27 15.44-14.17 32.4-31.16 53.36-16.17 19.94-31.54 38.88-56.26 57.1v114.21c0 21.83-17.76 39.58-39.58 39.58zM715.49 428.82c-62.23 0-112.85 50.62-112.85 112.85v270.12c0 2.73 2.22 4.95 4.95 4.95h220.75V681.88l8.88-5.94c25.07-16.76 39.54-34.61 56.3-55.27 33.27-41.04 25.03-51.64 20.1-57.98-0.49-0.64-1.81-2.32-6.46-2.83-10.04-1.09-28.18 4.46-46.05 19.31l-32.79 27.26v-64.76c0.02-62.22-50.61-112.85-112.83-112.85z" fill="#555555" p-id="3905"></path></svg>