<?xml version="1.0" standalone="no"?><!DOCTYPE svg PUBLIC "-//W3C//DTD SVG 1.1//EN" "http://www.w3.org/Graphics/SVG/1.1/DTD/svg11.dtd"><svg t="1783082067614" class="icon" viewBox="0 0 1024 1024" version="1.1" xmlns="http://www.w3.org/2000/svg" p-id="8695" xmlns:xlink="http://www.w3.org/1999/xlink" width="200" height="200"><path d="M512 941.7c-84 0-163-32.7-222.4-92.1-59.4-59.4-92.1-138.4-92.1-222.4 0-71.8 51.8-184.9 154-336.1C427 179.3 503.5 86.9 504.3 85.9c1.9-2.3 4.7-3.6 7.7-3.6s5.8 1.3 7.7 3.6c0.8 0.9 77.3 93.3 152.9 205.1 102.2 151.2 154 264.3 154 336.1 0 84-32.7 163-92.1 222.4S596 941.7 512 941.7z m0-833.6c-21.2 26.2-83 103.8-144.1 194.2C269.5 448 217.4 560.3 217.4 627c0 162.4 132.1 294.6 294.6 294.6S806.6 789.5 806.6 627c0-147.8-247.5-460.6-294.6-518.9z" fill="#153BDF" p-id="8696"></path><path d="M524.6 870.8c-0.1 0-0.1 0 0 0-64-0.5-125.7-23.8-173.9-65.7-47.7-41.5-79.3-98.6-89-160.7-0.9-5.5 2.9-10.6 8.3-11.4 5.5-0.8 10.6 2.9 11.4 8.3 18.8 120.5 121.1 208.6 243.2 209.5 5.5 0 10 4.6 9.9 10.1 0 5.5-4.5 9.9-9.9 9.9z" fill="#153BDF" p-id="8697"></path></svg>