<?xml version="1.0" standalone="no"?><!DOCTYPE svg PUBLIC "-//W3C//DTD SVG 1.1//EN" "http://www.w3.org/Graphics/SVG/1.1/DTD/svg11.dtd"><svg t="1783082059105" class="icon" viewBox="0 0 1024 1024" version="1.1" xmlns="http://www.w3.org/2000/svg" p-id="7512" xmlns:xlink="http://www.w3.org/1999/xlink" width="200" height="200"><path d="M896.1 567.94c0-156.78-102.32-450.89-106.67-463.34-0.07-0.19-0.14-0.37-0.22-0.56s-0.1-0.28-0.16-0.43c-0.14-0.34-0.28-0.68-0.44-1a0.75 0.75 0 0 0-0.06-0.13 23 23 0 0 0-2-3.53c-0.25-0.37-0.52-0.73-0.79-1.08A23.54 23.54 0 0 0 782 94l-0.15-0.11c-0.27-0.22-0.55-0.44-0.84-0.64l-0.28-0.21-0.75-0.5-0.34-0.22-0.74-0.44-0.35-0.2q-0.46-0.26-0.93-0.48l-0.18-0.09c-0.37-0.18-0.75-0.35-1.13-0.51l-0.33-0.13c-0.28-0.12-0.56-0.22-0.84-0.33l-0.39-0.13-0.84-0.27-0.36-0.1-1-0.25h-0.24a23 23 0 0 0-4-0.53L246.52 63.89a23.53 23.53 0 0 0-23.6 16.89C219 94.07 126.65 407.48 126.65 522c0 111.56 8.52 323.86 8.61 326a23.61 23.61 0 0 0 19.31 22.35l490.36 88.85h0.23c0.53 0.09 1.07 0.16 1.61 0.22h0.32c0.66 0.06 1.33 0.1 2 0.1a23.09 23.09 0 0 0 4-0.37h0.1c0.63-0.12 1.26-0.26 1.89-0.43h0.18c0.61-0.17 1.22-0.36 1.83-0.58h0.06l1-0.4 224.57-95.63a23.69 23.69 0 0 0 14.35-22c0.04-1.27-0.97-119.53-0.97-272.17zM181.43 827.05c-2.08-54.64-7.83-214-7.83-305.07 0-92.81 69.44-341.2 89.15-409.86l263.67 12.6c105.52 5 180.11 105.17 154.85 207.74-25.72 104.46-39.85 184-47.6 239.37-13.14 93.89-11.39 140.4-11.06 146.79l2.6 188.83z m490.64 73.29l-2.52-182.88v-1.21c-0.1-1.64-8.61-158.81 98.71-525.53 30.64 97.47 80.93 273.32 80.93 377.22 0 120.33 0.64 219.35 0.91 256.62z" fill="#EF694D" p-id="7513"></path><path d="M304.31 652.28a88.63 86.62 0 1 0 177.26 0 88.63 86.62 0 1 0-177.26 0z m105.567-118.999a38.85 47.1 9.21 1 0 15.077-92.985 38.85 47.1 9.21 1 0-15.077 92.985z m94.453 51.739a38.85 47.1 9.21 1 0 15.076-92.985 38.85 47.1 9.21 1 0-15.077 92.986z m-200.036-28.285a38.85 47.1 9.21 1 0 15.077-92.986 38.85 47.1 9.21 1 0-15.077 92.986z" fill="#EF694D" p-id="7514"></path></svg>