<?xml version="1.0" standalone="no"?><!DOCTYPE svg PUBLIC "-//W3C//DTD SVG 1.1//EN" "http://www.w3.org/Graphics/SVG/1.1/DTD/svg11.dtd"><svg t="1783081868397" class="icon" viewBox="0 0 1024 1024" version="1.1" xmlns="http://www.w3.org/2000/svg" p-id="2362" xmlns:xlink="http://www.w3.org/1999/xlink" width="200" height="200"><path d="M565.530483 95.016928c-33.987812-32.318596-74.228765-50.718495-120.093693-54.968577-1.00153-0.089881-1.951699-0.321003-2.966069-0.398044-28.517918-2.247022-57.536602 1.129931-86.195762 8.243361-9.18069 2.285542-18.335699 4.892088-27.413667 7.909517-28.993003 9.617254-57.254119 22.662821-83.858859 37.274884a711.394307 711.394307 0 0 0-52.683035 32.048953l22.059336 5.726696-0.719047 15.39531-0.012841 0.01284 0.719047-15.38247-21.276087-4.635285c-54.108288 36.132113-96.442182 73.188715-114.829242 90.535724-12.352201-10.24642-32.446997-10.503223-46.173091-0.796088-16.40968 11.594633-22.354658 35.310345-10.760025 51.720025l57.228439 81.008351 0.02568 0.038521 74.883612 106.008075 11.106708 15.729154 103.080527 145.915185c9.013768 12.750245 25.076765 15.998796 39.509066 11.414871l129.441304 183.228589c-2.208502 6.818107-4.096 16.461041 0.359523 22.765543l122.237994 173.033529c7.498633 10.618784 23.933994 11.915636 34.552777 4.404163s14.894545-23.420389 7.395913-34.039172l-122.237994-173.03353c-5.046169-7.13911-14.098458-9.976777-22.226257-9.20637L328.322006 613.270069c9.463172-11.954157 11.504752-28.222596 2.272702-41.293843l-0.847448-1.206972c8.615724-10.22074 32.010433-25.770132 56.830395-41.396564l0.218282 0.03852 0.500765 0.089881 0.077041-0.449404c6.12474-3.826357 12.26232-7.601354 18.143097-11.22227 21.622771-13.31521 45.171561-27.888752 68.758872-43.759147 6.12474-4.12168 12.24948-8.269041 18.335699-12.570483 3.774997-2.670746 7.537154-5.380013 11.28647-8.1278a638.449555 638.449555 0 0 0 36.221994-28.466558 474.288552 474.288552 0 0 0 24.139435-21.905253c25.770132-25.166646 47.354382-52.875636 60.926395-83.435135 4.506884-10.156539 8.063599-20.646922 10.644464-31.445467 0.500765-2.09294 1.104251-4.160201 1.515135-6.278822 0.885969-4.455524 1.361053-8.936727 1.861818-13.430771 3.531034-31.406947-2.298382-63.353179-17.488251-95.479172a265.931837 265.931837 0 0 0-24.948363-42.038571A259.409053 259.409053 0 0 0 565.530483 95.016928zM93.334871 280.633781l20.955085 29.660689 12.454922 17.629492 20.955084 29.66069 20.544201 29.082884 20.955085 29.66069 62.287448 88.160301 0.154081 0.218282-0.243962 1.399573 1.399574 0.243963 0.154081 0.218282 56.663474 80.199423c3.402633 4.815047 0.500765 12.763085-4.314283 16.152878-4.802207 3.389793-13.26385 3.479674-16.653642-1.335373L180.570683 448.633981l-20.955084-29.660689-45.248602-64.059386-29.66069-41.98721-42.410934-60.040426c-3.389793-4.802207-2.234182-15.446671 2.568025-18.836464l0.821768-0.577806c4.827887-3.415473 14.175498-0.218282 17.590972 4.609605l30.058733 42.552176zM465.274784 69.221116c0.385204 0.089881 0.770408 0.141241 1.142771 0.231122 25.821492 5.906458 49.357442 17.642332 70.517969 34.950822l-8.744126 51.681504-75.384376-13.173968 12.467762-73.68948z m-81.701718 328.411887l-17.295649 102.130358-85.463875-14.945906 17.282809-102.130358 85.476715 14.945906z m-181.931737-57.934646l15.485191-91.498733 75.384377 13.173968-15.485192 91.498734-75.384376-13.173969z m100.756464 17.616652l15.485191-91.498733 85.463875 14.933066-15.485191 91.498733-85.463875-14.933066z m19.786633-116.883661l15.485192-91.498734 85.463874 14.945906-15.485191 91.498734-85.463875-14.945906z m106.534521 44.747837l75.384376 13.173969-15.485191 91.498733-75.384377-13.186809 15.485192-91.485893z m4.288602-25.384928l15.498031-91.498733 75.384376 13.173968-15.498031 91.498734-75.384376-13.173969zM349.957618 76.360226c0.500765-0.154082 1.00153-0.359524 1.502294-0.500765 29.545129-8.487323 59.41126-12.801605 88.378583-10.618784l-12.390721 73.227235-85.476714-14.933066 7.986558-47.17462z m-27.696151 9.321931l-5.662495 33.422846-49.036439-8.577204a493.54874 493.54874 0 0 1 54.698934-24.845642z m-85.335473 45.633805l75.384376 13.173969-15.498031 91.498734-75.384377-13.173969 15.498032-91.498734z m-28.569279 14.496502l-12.288 72.572389-68.296627-11.941317a898.731737 898.731737 0 0 1 80.584627-60.631072z m-114.64948 90.843887c-0.218282-0.321003 3.608075-3.543875 6.882307-6.420063l-2.272702 12.955687-4.609605-6.535624z m26.733141 37.83985l-1.05289-1.489455 6.959348-40.574796 65.369078 11.376351-15.575072 91.550094-14.445141-2.452464-41.255323-58.40973z m74.922132 106.046595l-0.654847-0.924489 2.542345-14.457981 75.333016 13.212489-15.254069 89.868038-61.966445-87.698057z m119.310445 168.91185l-25.937053-36.722759-0.154082-0.218282 60.130307 9.976777 0.166922-0.115561c-14.856025 10.477542-24.665881 18.053216-34.206094 27.079825z m275.176727-381.980891c5.611135 9.578734 10.451862 19.093266 14.149818 28.492239 8.962408 22.778382 12.198119 45.08168 10.040978 67.269417l-3.15867 18.387059c-0.719047 3.03027-1.489455 6.047699-2.388264 9.026608a163.80148 163.80148 0 0 1-9.642934 24.396239c-14.727624 30.084414-38.533216 57.510922-66.511849 82.472125a609.161229 609.161229 0 0 1-51.963988 41.114082c-29.416727 20.955085-59.873505 39.804389-87.197291 56.624952-0.372364 0.231122-0.770408 2.683586-1.129931 2.914709-16.165718 9.951097-29.840451 15.433831-41.422245 28.273956h-0.05136c11.568953-12.840125 25.269367-18.335699 41.383724-28.248276 0.372364-0.231122 0.796088-1.605016 1.155611-1.823298l15.793354-93.745755 75.397217 12.904326-3.954759 23.240627a602.843887 602.843887 0 0 0 51.951147-41.203962l-18.335699-3.235712 15.485191-91.511574 69.272477 12.095398c3.877718-7.960878 7.087749-16.127197 9.604414-24.460439l-74.575449-13.045567 15.485192-91.498733 54.35225 9.501692c-3.723636-9.450332-8.602884-18.990545-14.252539-28.633479l-35.798269-6.253141 5.880777-34.7839 0.680527 0.706207c5.457053 6.09906 10.760025 12.531962 15.819034 19.51699 5.251611 7.228991 9.758495 14.38094 13.931536 21.50721z" fill="" p-id="2363"></path></svg>