<?xml version="1.0" standalone="no"?><!DOCTYPE svg PUBLIC "-//W3C//DTD SVG 1.1//EN" "http://www.w3.org/Graphics/SVG/1.1/DTD/svg11.dtd"><svg t="1783081853324" class="icon" viewBox="0 0 1024 1024" version="1.1" xmlns="http://www.w3.org/2000/svg" p-id="2097" xmlns:xlink="http://www.w3.org/1999/xlink" width="200" height="200"><path d="M922 539.9h-29.3l-106-245.2-0.1-0.2c-7.8-16.6-22-38.6-55.6-38.6h-75v-87c0-23.7-19.3-43-43-43H411c-23.7 0-43 19.3-43 43v87h-77c-24.1 0-42.7 12.9-55.4 38.3L129.3 539.9H102c-20.4 0-37 16.6-37 37s16.6 37 37 37h28.3l106 245.2 0.3 0.5c15.8 31.6 39.4 38.3 56.4 38.3h439c33.5 0 47.8-22 55.6-38.6l106.1-245.4H922c20.4 0 37-16.6 37-37s-16.6-37-37-37z m-524-371c0-7.2 5.8-13 13-13h202c7.2 0 13 5.8 13 13v87H398v-87zM262.5 307.4c7.7-15.2 15.9-21.4 28.5-21.4h440c13.5 0 21 5.6 28.4 21.3L859.8 540H605c-7.2-13.7-21.6-23-38-23H457c-16.5 0-30.8 9.3-38 23H162.2l100.3-232.6zM580 583.9v9.5c0 7.4-6 13.5-13.5 13.5h-109c-7.4 0-13.5-6-13.5-13.5v-33c0-7.4 6-13.5 13.5-13.5h109.1c7.4 0 13.5 6 13.5 13.5v23.5z m-478 0c-3.9 0-7-3.1-7-7s3.1-7 7-7h312v14H102z m658.4 262.7c-7.4 15.7-14.8 21.3-28.4 21.3H293c-8 0-19.8-2.2-29.5-21.5L163.2 613.9H419c7.2 13.7 21.6 23 38 23h110c16.5 0 30.8-9.3 38-23h255.7L760.4 846.6zM922 583.9H610v-14h312c3.9 0 7 3.1 7 7s-3.1 7-7 7z" p-id="2098"></path><path d="M319 327.9c-14.3 0-26 11.7-26 26v118c0 14.3 11.7 26 26 26s26-11.7 26-26v-118c0-14.3-11.7-26-26-26z m6 144c0 3.3-2.7 6-6 6s-6-2.7-6-6v-118c0-3.3 2.7-6 6-6s6 2.7 6 6v118zM447.7 497.9c14.3 0 26-11.7 26-26v-118c0-14.3-11.7-26-26-26s-26 11.7-26 26v118c0 14.4 11.6 26 26 26z m-6-144c0-3.3 2.7-6 6-6s6 2.7 6 6v118c0 3.3-2.7 6-6 6s-6-2.7-6-6v-118zM576.3 497.9c14.3 0 26-11.7 26-26v-118c0-14.3-11.7-26-26-26s-26 11.7-26 26v118c0 14.4 11.7 26 26 26z m-6-144c0-3.3 2.7-6 6-6s6 2.7 6 6v118c0 3.3-2.7 6-6 6s-6-2.7-6-6v-118zM705 497.9c14.3 0 26-11.7 26-26v-118c0-14.3-11.7-26-26-26s-26 11.7-26 26v118c0 14.4 11.7 26 26 26z m-6-144c0-3.3 2.7-6 6-6s6 2.7 6 6v118c0 3.3-2.7 6-6 6s-6-2.7-6-6v-118z" p-id="2099"></path></svg>