<?xml version="1.0" standalone="no"?><!DOCTYPE svg PUBLIC "-//W3C//DTD SVG 1.1//EN" "http://www.w3.org/Graphics/SVG/1.1/DTD/svg11.dtd"><svg t="1783082016736" class="icon" viewBox="0 0 1024 1024" version="1.1" xmlns="http://www.w3.org/2000/svg" p-id="6311" xmlns:xlink="http://www.w3.org/1999/xlink" width="200" height="200"><path d="M627.2 124.3v772.9h-45V124.3h45z" fill="#E85D4E" p-id="6312"></path><path d="M899 625.4H126.2v-45H899v45z" fill="#E85D4E" p-id="6313"></path><path d="M442.9 124.3v772.9h-45V124.3h45z" fill="#E85D4E" p-id="6314"></path><path d="M899 441.1H126.2v-45H899v45z" fill="#E85D4E" p-id="6315"></path><path d="M811.5 124.3v772.9h-45V124.3h45z" fill="#E85D4E" p-id="6316"></path><path d="M899 809.7H126.2v-45H899v45z" fill="#E85D4E" p-id="6317"></path><path d="M258.6 124.3v772.9h-45V124.3h45z" fill="#E85D4E" p-id="6318"></path><path d="M899 256.8H126.2v-45H899v45z" fill="#E85D4E" p-id="6319"></path><path d="M271.5 95.8h483c47.7 0 91.1 19.5 122.5 50.9 31.4 31.4 50.9 74.8 50.9 122.5v483c0 47.7-19.5 91.1-50.9 122.5-31.4 31.4-74.8 50.9-122.5 50.9h-483c-47.7 0-91.1-19.5-122.5-50.9-31.4-31.4-50.9-74.8-50.9-122.5v-483c0-47.7 19.5-91.1 50.9-122.5 31.4-31.4 74.8-50.9 122.5-50.9z m483 57.1h-483c-32 0-61.1 13.1-82.2 34.2s-34.2 50.2-34.2 82.2v483c0 32 13.1 61.1 34.2 82.2s50.2 34.2 82.2 34.2h483c32 0 61.1-13.1 82.2-34.2s34.2-50.2 34.2-82.2v-483c0-32-13.1-61.1-34.2-82.2s-50.2-34.2-82.2-34.2z" fill="#E85D4E" p-id="6320"></path></svg>