<svg viewBox="0 0 1024 1024" xmlns="http://www.w3.org/2000/svg"><path fill="#4d722c" d="M888 223v-32l-66-1c-53-2-101-12-144-31-77-31-126-67-126-67l-40-29-39 29c-2 1-50 36-127 67-45 18-93 29-145 31l-66 1v379c0 87 50 185 137 268 76 73 171 123 240 123 69 0 164-50 240-123 87-83 137-181 137-268l-1-347zM510 143l2-1 2 1c6 4 60 42 140 75 79 32 154 36 168 36h2v316c0 69-43 150-117 221-66 63-144 105-195 105-24 0-56-10-90-27-39-21-75-47-105-78-75-71-118-152-118-221V254h3c3 0 83-1 168-36 80-33 134-71 140-75z"/><path fill="#2f4d1b" d="M713 369a32 32 0 0 0-45 0L449 587l-93-93a32 32 0 0 0-45 46l116 115a32 32 0 0 0 45 0l241-241a32 32 0 0 0 0-45z"/></svg>
