<?xml version="1.0" standalone="no"?><!DOCTYPE svg PUBLIC "-//W3C//DTD SVG 1.1//EN" "http://www.w3.org/Graphics/SVG/1.1/DTD/svg11.dtd"><svg t="1782569219686" class="icon" viewBox="0 0 1024 1024" version="1.1" xmlns="http://www.w3.org/2000/svg" p-id="1719" xmlns:xlink="http://www.w3.org/1999/xlink" width="200" height="200"><path d="M213.1 951.1c-24.8 0-45-20.2-45-45V542.9c0-15.1 12.3-27.5 27.5-27.5 15.1 0 27.5 12.3 27.5 27.5v353.3h578.8v-9.4c0-7.4 2.9-14.3 8.1-19.4 5.2-5.2 12.1-8 19.4-8 0.6 0 1.2 0 1.8 0.1 14.4 0.9 25.7 13.3 25.7 28V906c0 24.8-20.2 45-45 45H213.1z m616-119.8c-15.1 0-27.5-12.3-27.5-27.5v-89.2c0-15.1 12.3-27.5 27.5-27.5s27.5 12.3 27.5 27.5v89.2c-0.1 15.2-12.4 27.5-27.5 27.5z m0.1-187.6c-0.6 0-1.2 0-1.8-0.1-14.4-0.9-25.7-13.2-25.7-27.9V128.1c-0.8 0.1-1.6 0.3-2.4 0.4-118.6 19.8-184.1 71.1-253.9 162.3 2.7 4.5 7.4 12.4 15.9 26.6 2.5 4.2 3.8 9 3.8 13.9 0 13.5-10.1 25.1-23.5 27-1.3 0.2-2.5 0.3-3.7 0.3-9.6 0-18.5-5.1-23.4-13.3-0.8-1.4-1.7-2.9-2.5-4.3-11.1 19.7-23.6 45.1-29.3 56.8-4.5 9.3-14.1 15.3-24.5 15.3-0.5 0-1.1 0-1.7-0.1h-0.2c-9-0.6-17.1-5.7-21.6-13.5s-4.9-17.3-1-25.5c12-25.1 29.1-59.3 42.3-79.8 0.1-0.2 0.3-0.5 0.4-0.6 0 0 1.4-2.1 2-3.1-69.7-91.1-135.2-142.4-253.7-162.1-0.6-0.1-1.2-0.2-1.7-0.3v325.5c0 15.1-12.3 27.5-27.5 27.5-15.1 0-27.5-12.3-27.5-27.5V121.2c0-6.2 1.4-12.5 4.1-18.1 7-14.7 20-25.4 35.6-29.4 3.4-0.8 6.8-1.3 10.3-1.3 2 0 4.1 0.1 6.1 0.4l2.6 0.4c2.3 0.3 4.5 0.7 6.8 1.1C361 95.5 434.7 149.5 512.1 244.5c77.4-95.1 151-149 278.3-170.2 2.7-0.5 5.5-0.9 8.1-1.3l1.2-0.2c2-0.3 4.1-0.5 6.2-0.5 3.4 0 6.8 0.4 10.2 1.2 18.1 4.5 32.9 18.4 38.6 36.4 1.3 4.2 2 8.4 2 12.8v493.4c0 7.3-2.9 14.2-8 19.4-5.2 5.3-12.1 8.2-19.5 8.2z" fill="#1A1A1A" p-id="1720"></path><path d="M507 835.5c-12.5 0-24.4-4.8-33.3-13.6l-139.4-138-1.2-1.2c-24-24.3-37-56.5-36.8-90.6 0.3-34 13.7-66 37.9-90.2 21-21 46.7-31.6 76.3-31.6 10.5 0 19.3 1.3 25 2.3 29.8 5.2 56.5 25.6 69.8 37.2l1.4 1.2 1.3-1.2c13-12 39.4-32.9 70.6-37.8 7.3-1.1 14.7-1.7 22-1.7 22.9 0 55.5 5.8 80.6 33.3 1.6 1.7 3.6 4.3 6.1 7.7 4.3 5.9 5.3 13.5 2.7 20.3-2.6 6.8-8.4 11.8-15.5 13.4-1.5 0.3-3.1 0.5-4.6 0.5-6.5 0-12.6-2.9-16.7-7.9-4.9-6.1-9.4-10.4-13.3-12.9-10.4-6.8-22.5-10.3-35.9-10.3-28.6 0-52.5 16.4-61.1 25-1.7 1.7-11.1 11.9-14.6 15.7l-17.8 19.8-29-26c-3.1-2.7-8.9-7.8-10.1-8.7-12.7-9.5-37.7-25.3-63.7-25.3-19.1 0-35.3 8.2-49.5 25.2-25.2 29.9-25.1 74.5 0.1 105.9 2 2.5 4.2 5 6.6 7.3l139.5 138.1 0.1 0.1c0.8 0.8 1.7 1 2.3 1 1 0 1.9-0.4 2.7-1.1l122.1-120.9 19.2-19.6c4.1-4.2 9.8-6.6 15.6-6.6 4.1 0 8.1 1.2 11.6 3.3 3.4 2.1 6.2 5.1 8 8.8 4 8.2 2.7 17.8-3.3 24.4-1.1 1.2-2.1 2.2-3 3.1l-10.5 10.4-24.8 24.6-10.1 10-93.9 93c-9.1 8.7-20.9 13.6-33.4 13.6z" fill="#1A1A1A" p-id="1721"></path><path d="M696.7 595.4m-26.4 0a26.4 26.4 0 1 0 52.8 0 26.4 26.4 0 1 0-52.8 0Z" fill="#1A1A1A" p-id="1722"></path></svg>