<?xml version="1.0" standalone="no"?><!DOCTYPE svg PUBLIC "-//W3C//DTD SVG 1.1//EN" "http://www.w3.org/Graphics/SVG/1.1/DTD/svg11.dtd"><svg t="1782569326031" class="icon" viewBox="0 0 1024 1024" version="1.1" xmlns="http://www.w3.org/2000/svg" p-id="6545" xmlns:xlink="http://www.w3.org/1999/xlink" width="200" height="200"><path d="M888.7 835.8c-3.3 0-6-2.7-6-6V378.7c0-3.3 2.7-6 6-6h39.7c-27.1-23.9-96.9-84.9-171.7-145.3C590.3 92.9 537.8 72.8 521.3 72.8s-70.2 20.4-244.8 157.3c-78.4 61.5-152 123.7-180.4 147.9h52.5c3.3 0 6 2.7 6 6v427.5c0 3.3-2.7 6-6 6s-6-2.7-6-6V390H79.9c-2.5 0-4.7-1.6-5.6-3.9s-0.2-5 1.7-6.6c0.9-0.8 93.1-80.3 193.2-158.8C328 174.6 378 137.8 417.8 111.4c51.3-34 85.2-50.6 103.5-50.6 18.4 0 51.3 16.3 100.7 49.8 38.3 26 86.2 62.1 142.3 107.5 95.5 77.2 183 155.4 183.9 156.1 1.9 1.7 2.5 4.3 1.6 6.6s-3.1 3.9-5.6 3.9h-49.5v445.2c0 3.3-2.7 5.9-6 5.9z" fill="#060001" p-id="6546"></path><path d="M549.7 250.4c-8.5 19.4-38.4 38.4-38.4 38.4s-34.1-17.6-38.4-38.4c-5.3-25.8 16.3-33.1 38.4-11 20.1-25.4 48.9-12.9 38.4 11z" fill="#87BD42" p-id="6547"></path><path d="M452.3 922.4c-63.6 0-145.5-0.6-191.1-1-11.1-0.1-21.5-4-29.2-11-5.7-5.1-11.9-7.7-18.6-7.7-16.3 0-82.6-27.8-117.3-64.3-15.4-16.2-22.9-32.2-22.2-47.5 0-2.3 0.4-14.6 10.1-19.2 9.2-4.3 21.9 0.8 38.8 15.4 48.1 41.7 69.7 55 79.4 58.8 3.8-2 12.1-15.8 18.9-27 15.8-26.2 37.3-61.8 70.1-85.8v-97.7H238.4c-0.5-0.1-11.6-1.5-19.2-11.3-5.9-7.5-8.1-17.7-6.5-30.1 1.9-15 8-25.1 13.9-34.8 7.4-12.2 14.5-23.8 14.5-46.4 0-13.9-4.2-29.3-8.2-44.1-8.2-30.1-16.6-61.3 10.8-79.8 21.5-14.5 38.8-12 49.5-7.4 5.4 2.3 10.2 5.7 13.7 9.2 11-15.2 40.4-48.3 90.8-53.7 26.9-2.9 53.2 4.2 76.3 20.4 10.9 7.7 18.7 15.7 23 20.7 11-8.5 38.6-25.9 65.4-11.6 21 11.2 18.6 43.1 15.9 76.9-1.8 23.3-3.7 47.3 1.6 65.8 4.9 17.1 12.2 31 18.7 43.3 10.8 20.5 20.1 38.2 8.4 56.7-0.8 1.3-2.1 2.2-3.6 2.6-22.1 5.5-61.5 2.3-76.7 0.8-4.7 50.8-11.3 168.7 7.3 193.3 19.4 25.6 46.4 31.3 60.9 34.4 3.2 0.7 5.7 1.2 7.6 1.9 13.1 4.6 9.1 16.9 6.7 24.2-0.7 2.2-1.5 4.5-2 6.8-2.5 10.4-11.6 17.6-22.3 17.6h-25.3c1 6 1.3 14.1-2.7 20.7-2.3 3.8-7.1 8.6-16.4 9.7-7.8 0.9-43.5 1.2-88.2 1.2zM90.9 782.2c-1 0-1.6 0.2-1.8 0.3-2.5 1.1-3.2 6.2-3.2 8.4v0.4c-0.6 12 5.8 25.1 18.9 38.9 33.1 34.8 96.7 60.6 108.6 60.6 9.6 0 18.8 3.7 26.7 10.8 5.5 5 13.1 7.8 21.3 7.9 124.6 1.1 263 1.6 277.8-0.1 5.5-0.7 7.1-3.2 7.6-4 3.3-5.3 0.8-15.3-0.4-18.4-0.7-1.8-0.4-3.9 0.7-5.5s3-2.6 4.9-2.6h33c5.1 0 9.4-3.4 10.6-8.4 0.7-2.8 1.5-5.4 2.3-7.8 0.9-2.8 2.4-7.4 1.9-8.6 0 0-0.3-0.3-1.2-0.6-1.2-0.4-3.5-0.9-6.2-1.5-14.9-3.2-45.9-9.8-68-38.9-11.4-15-16.2-53.6-14.6-117.9 1.1-46.4 5.4-89.4 5.5-89.8 0.2-1.6 1-3.1 2.2-4.1 1.3-1 2.9-1.5 4.5-1.3 0.5 0.1 50.1 6 76 0.7 5.8-11.3 0.4-22.8-10.1-42.6-6.7-12.8-14.4-27.4-19.6-45.6-5.9-20.5-3.9-45.7-2-70 2.3-29.8 4.5-57.9-9.6-65.4-26.3-14-56.2 13.6-56.5 13.9-1.3 1.2-3 1.8-4.7 1.6-1.7-0.2-3.3-1.1-4.3-2.5-0.1-0.1-8.7-12.1-24.5-23.1-20.8-14.5-43.6-20.6-67.8-18-58.1 6.2-86.3 54.6-86.6 55.1-1.3 2.2-3.8 3.4-6.3 2.9-2.3-0.4-4.1-2.1-4.7-4.3-1.1-2-7.2-9-17.1-11.7-10.5-2.9-21.9-0.3-34 7.8-20.3 13.7-13.7 38.2-6 66.7 4.2 15.6 8.6 31.8 8.6 47.3 0 26-8.6 40.2-16.2 52.7-5.7 9.4-10.7 17.5-12.2 30-1.1 9.2 0.2 16.3 4.1 21.2 4 5.1 9.7 6.5 10.9 6.7h57.7c3.3 0 6 2.7 6 6v106.8c0 2-1 3.8-2.6 4.9-32.2 22.6-53.6 58.1-69.3 84.1-5.8 9.5-10.7 17.8-15.1 23.4-2.5 3.3-9.3 11.9-17.5 8.9-15.3-5.5-42.7-25.6-83.8-61.2-13.8-12.1-20.8-14.1-23.9-14.1z" fill="#060001" p-id="6548"></path><path d="M551.9 890.8c-1.4 0-2.8-0.5-4-1.5-5.1-4.5-20.2-16.8-28.4-19.2-6.7-2-60.5-1.3-107.8 0.2-1.6 0-3.2-0.6-4.4-1.7-1.2-1.1-1.8-2.7-1.8-4.3v-32.5c0-8.1-2.9-15.8-8.1-21.7-4.8-5.4-9-9.4-12.2-11.4-2.8-1.8-3.6-5.5-1.9-8.3 1.8-2.8 5.5-3.6 8.3-1.9 4.3 2.7 9.2 7.3 14.8 13.6 7.1 8.1 11.1 18.6 11.1 29.6V858c25.2-0.8 94.9-2.7 105.4 0.4 12.2 3.6 30.8 19.9 32.9 21.7 2.5 2.2 2.7 6 0.5 8.5-1.1 1.6-2.7 2.2-4.4 2.2zM213 900.5c-3.3 0-6-2.7-6-6v-46.8c0-3.3 2.7-6 6-6s6 2.7 6 6v46.8c0 3.3-2.7 6-6 6zM376.9 510.2c-3.3 0-6-2.7-6-6 0-16.7-8-28.4-15.1-28.4-7.2 0-15.1 11.6-15.1 28.4 0 3.3-2.7 6-6 6s-6-2.7-6-6c0-22.6 11.9-40.4 27.1-40.4 15.2 0 27.1 17.7 27.1 40.4 0 3.3-2.7 6-6 6zM475.7 510.2c-3.3 0-6-2.7-6-6 0-16.7-8-28.4-15.1-28.4-7.2 0-15.1 11.6-15.1 28.4 0 3.3-2.7 6-6 6s-6-2.7-6-6c0-22.6 11.9-40.4 27.1-40.4 15.2 0 27.1 17.7 27.1 40.4 0 3.3-2.7 6-6 6zM365 599.9c-3.1 0-6.4-0.2-9.8-0.5-3.3-0.3-5.7-3.2-5.4-6.5s3.2-5.7 6.5-5.4c17.9 1.6 30.5-1.4 37.5-9.1 8.4-9.2 6-22.7 6-22.8-0.6-3.2 1.5-6.4 4.8-7 3.2-0.6 6.4 1.5 7 4.7 0.2 0.8 3.6 19.3-8.8 33-8.2 9-20.8 13.6-37.8 13.6z" fill="#060001" p-id="6549"></path><path d="M447.8 599.9c-16.9 0-29.6-4.5-37.7-13.5-12.4-13.7-8.9-32.3-8.8-33 0.6-3.3 3.8-5.4 7-4.7 3.2 0.6 5.4 3.8 4.7 7 0 0.3-2.4 13.7 6 22.8 7 7.6 19.6 10.7 37.5 9.1 3.3-0.3 6.2 2.1 6.5 5.4s-2.1 6.2-5.4 6.5c-3.4 0.2-6.6 0.4-9.8 0.4z" fill="#060001" p-id="6550"></path><path d="M391.3 551.3a14.6 6.9 0 1 0 29.2 0 14.6 6.9 0 1 0-29.2 0Z" fill="#070102" p-id="6551"></path><path d="M660.6 620.1c-2.2 0-4.4-0.1-6.7-0.3-3.3-0.3-5.7-3.2-5.4-6.5 0.3-3.3 3.2-5.7 6.5-5.4 11.2 1 19.3-0.9 23.5-5.4 5-5.4 3.6-13.6 3.5-13.6-0.6-3.2 1.6-6.4 4.8-7 3.2-0.6 6.4 1.5 7 4.7 0.1 0.6 2.6 13.9-6.4 23.9-5.8 6.4-14.8 9.6-26.8 9.6z" fill="#060001" p-id="6552"></path><path d="M716.2 620.1c-12 0-20.9-3.3-26.8-9.7-8.9-9.9-6.5-23.3-6.4-23.9 0.6-3.3 3.8-5.4 7-4.7 3.2 0.6 5.4 3.8 4.8 7 0 0.2-1.4 8.3 3.5 13.6 4.2 4.6 12.3 6.4 23.5 5.4 3.3-0.3 6.2 2.1 6.5 5.4 0.3 3.3-2.1 6.2-5.4 6.5-2.3 0.3-4.6 0.4-6.7 0.4z" fill="#060001" p-id="6553"></path><path d="M678.2 585.6a9.8 4.7 0 1 0 19.6 0 9.8 4.7 0 1 0-19.6 0Z" fill="#070102" p-id="6554"></path><path d="M620.3 544.4a8.6 7.9 0 1 0 17.2 0 8.6 7.9 0 1 0-17.2 0Z" fill="#070102" p-id="6555"></path><path d="M738.6 544.4a8.6 7.9 0 1 0 17.2 0 8.6 7.9 0 1 0-17.2 0Z" fill="#070102" p-id="6556"></path><path d="M841.8 963.2H681.3c-7.2 0-14.3-2.5-19.9-7l-4.8-3.9c-0.9-0.7-1.9-1.1-3-1.1H619c-13.4 0-25.6-7.4-31.9-19.3l-2.5-4.8c0-0.1-0.1-0.1-0.1-0.2-0.4-0.7-3.3-7.5 1.2-14.6 5.3-8.3 17.9-12.5 38.6-12.8 4.5-5.2 13.6-27.7 7.5-125.3-3.2-51.3-9.3-101.3-10.8-113.1-8.6-6.1-38.2-28.8-42.9-51.6-0.7-3.2 1.4-6.4 4.7-7.1 3.2-0.7 6.4 1.4 7.1 4.7 3.7 17.7 30.2 38.9 40.1 45.6 1.4 1 2.4 2.5 2.6 4.2 0.1 0.6 7.5 57.6 11.2 116.5 6.9 109.4-4.5 130.6-13.7 137-1 0.7-2.2 1.1-3.4 1.1-24.3 0-29.7 5.6-30.8 7.3-0.9 1.4-0.5 2.8-0.5 3l2.4 4.6c4.2 7.9 12.3 12.8 21.2 12.8h34.6c3.8 0 7.5 1.3 10.5 3.7l4.8 3.9c3.5 2.8 7.9 4.3 12.4 4.3h160.4c17.4 0 33.5-6.8 44.1-18.7 12.2-13.7 17.2-34.1 14.4-58.9-6.6-57.5-127.7-166.6-128.9-167.7-1.3-1.1-2-2.8-2-4.5v-72.1c0-2.8 1.9-5.2 4.6-5.8 16.6-4.1 24.5-56.1 19.3-95.8-3.2-24.2-15.7-56.2-23.3-72.2-7.4 15.5-24.4 35.4-30.6 42.5-1.1 1.2-2.6 2-4.3 2-8.9 0.3-87.5 3.1-99.9-0.2-9.6-2.6-11.5-17.2-13.6-34.1-0.5-4.3-1.3-10-2.1-14-13.7 14.7-43.5 46-43.8 46.4-2.3 2.4-6.1 2.5-8.5 0.2-2.4-2.3-2.5-6.1-0.2-8.5 0.3-0.4 34.8-36.6 46.5-49.3 4.1-4.4 7.9-4 9.9-3.4 7 2.2 8.2 12.1 10.1 27 0.9 6.9 2.7 21.2 5.2 24.1 9.1 2 60.7 1 93.3-0.2 14.9-17.2 30-38.8 29.5-44.8s3.4-8 5.8-8.3c4.7-0.5 7.4 3.2 11.7 11.7 3 5.8 6.5 13.7 9.8 22.1 4 10.1 13.5 35.8 16.4 57.3 4.3 32.5 1.3 94.5-23.7 107.3v65.3c16.7 15.2 124.1 115 130.8 173.5 3.2 28.3-2.7 51.9-17.3 68.2-12.9 14.7-32.3 23-53.1 23z" fill="#070102" p-id="6557"></path><path d="M639.1 947.9c-0.8-1.7-7.4-17.1 16.5-36.2 9.1-7.3 31.2-10 67.5-8.2 27.4 1.3 55 4.9 65.7 6.3 2.4 0.3 4.8 0.2 7.1-0.3 10.1-2.4 35.4-9.9 51.2-28.6 2.1-2.5 5.9-2.8 8.5-0.7 2.5 2.1 2.8 5.9 0.7 8.5-18.1 21.4-46.3 29.9-57.6 32.5-3.8 0.9-7.7 1.1-11.5 0.5-53-7.3-111.9-10.3-124-0.7-16.2 13-13.2 21.7-13.1 21.8-0.1-0.1-0.1-0.2-0.1-0.2l-10.9 5.3z" fill="#070102" p-id="6558"></path></svg>