<svg xmlns="http://www.w3.org/2000/svg" viewBox="0 0 1024 1024" width="200" height="200" role="img" aria-label="angel cat memorial icon">
  <g
    fill="none"
    stroke="currentColor"
    stroke-width="38"
    stroke-linecap="round"
    stroke-linejoin="round"
  >
    <!-- 光环 -->
    <ellipse cx="512" cy="150" rx="118" ry="26" />

    <!-- 左翅膀 -->
    <path d="M364 520C278 395 146 336 69 392C41 412 37 452 62 484C127 530 232 573 323 655C257 634 139 584 58 601C83 674 151 742 231 773C276 791 322 801 364 817" />
    <path d="M328 541C243 489 161 452 86 437" />
    <path d="M314 659C230 650 154 664 89 702" />

    <!-- 右翅膀 -->
    <path d="M660 520C746 395 878 336 955 392C983 412 987 452 962 484C897 530 792 573 701 655C767 634 885 584 966 601C941 674 873 742 793 773C748 791 702 801 660 817" />
    <path d="M696 541C781 489 863 452 938 437" />
    <path d="M710 659C794 650 870 664 935 702" />

    <!-- 猫咪头部 -->
    <path d="M374 438C378 391 409 358 449 345L463 278C466 262 486 258 496 272L540 332C557 332 575 337 591 346L645 290C656 278 675 286 674 303L664 378C689 418 686 471 656 516C624 564 569 588 512 588C432 588 369 525 374 438Z" />

    <!-- 猫咪五官 -->
    <circle cx="468" cy="447" r="14" fill="currentColor" stroke="none" />
    <circle cx="556" cy="447" r="14" fill="currentColor" stroke="none" />

    <path
      d="M512 475C505 475 499 479 497 486C502 492 507 495 512 495C517 495 522 492 527 486C525 479 519 475 512 475Z"
      fill="currentColor"
      stroke="none"
    />

    <path d="M512 496V509" />
    <path d="M512 509C501 521 487 521 478 512" />
    <path d="M512 509C523 521 537 521 546 512" />

    <!-- 猫咪身体 -->
    <path d="M420 606C384 641 366 690 374 743C387 821 442 866 512 866C582 866 637 821 650 743C658 690 640 641 604 606" />
    <path d="M445 735C457 766 479 783 512 783C545 783 567 766 579 735" />
    <path d="M469 864C466 834 481 815 512 815C543 815 558 834 555 864" />
  </g>
</svg>