<?xml version="1.0" standalone="no"?><!DOCTYPE svg PUBLIC "-//W3C//DTD SVG 1.1//EN" "http://www.w3.org/Graphics/SVG/1.1/DTD/svg11.dtd"><svg t="1781702153450" class="icon" viewBox="0 0 1024 1024" version="1.1" xmlns="http://www.w3.org/2000/svg" p-id="5047" xmlns:xlink="http://www.w3.org/1999/xlink" width="200" height="200"><path d="M724.929035 608.311429a93.847172 93.847172 0 0 1-7.966653 6.22537c-1.240522 0.933236-2.515186 1.820949-3.767089 2.731424-181.138927 128.012732-199.576038 277.467142-201.146607 317.197978L512.014543 933.305346c-10.85741-161.404389-141.03252-272.004295-188.024391-306.852711a341.427985 341.427985 0 1 1 400.938883-18.141206zM512.014543 944.686279s-0.182095-3.676041 0.079667-10.242839C525.227806 1129.728866 512.014543 944.686279 512.014543 944.686279z" fill="#F30000" p-id="5048"></path><path d="M513.676159 214.030392a272.68715 272.68715 0 0 1-89.55656 43.827972v52.352291a142.648612 142.648612 0 0 0 36.088938-9.730698 108.892765 108.892765 0 0 0 30.99028-17.663207v230.315937h61.457037V214.030392h-38.92279z" fill="#FFFFFF" p-id="5049"></path></svg>