<?xml version="1.0" standalone="no"?><!DOCTYPE svg PUBLIC "-//W3C//DTD SVG 1.1//EN" "http://www.w3.org/Graphics/SVG/1.1/DTD/svg11.dtd"><svg t="1781702165965" class="icon" viewBox="0 0 1024 1024" version="1.1" xmlns="http://www.w3.org/2000/svg" p-id="5563" xmlns:xlink="http://www.w3.org/1999/xlink" width="200" height="200"><path d="M724.97297 608.283475a94.661583 94.661583 0 0 1-7.967189 6.225789c-1.240605 0.933299-2.515355 1.821072-3.778724 2.731608-181.151108 128.021341-199.578077 277.485801-201.148751 317.219309 0-0.409741 0-0.751192-0.079672-1.13817-10.869522-161.415243-141.042003-272.022586-188.037035-306.873345a341.450944 341.450944 0 1 1 401.011371-18.165191zM512.044161 944.680946s-0.182107-3.676288 0.079672-10.243529C525.258313 1129.735976 512.044161 944.680946 512.044161 944.680946z" fill="#F30000" p-id="5564"></path><path d="M524.484357 220.406584a610.275273 610.275273 0 0 1-53.664707 89.562583 1029.417688 1029.417688 0 0 1-76.154942 95.993242V450.715246h130.76433v62.360324h55.542687V450.715246h41.383854v-44.388622h-41.383854V220.406584h-56.487368z m-25.039736 119.803755a422.431726 422.431726 0 0 0 25.984417-41.201747v107.329413h-76.724027q33.826407-41.941558 50.73961-66.127666z" fill="#FFFFFF" p-id="5565"></path></svg>