<?xml version="1.0" standalone="no"?><!DOCTYPE svg PUBLIC "-//W3C//DTD SVG 1.1//EN" "http://www.w3.org/Graphics/SVG/1.1/DTD/svg11.dtd"><svg t="1781702170070" class="icon" viewBox="0 0 1024 1024" version="1.1" xmlns="http://www.w3.org/2000/svg" p-id="5735" xmlns:xlink="http://www.w3.org/1999/xlink" width="200" height="200"><path d="M724.97297 608.283475a94.661583 94.661583 0 0 1-7.967189 6.225789c-1.240605 0.933299-2.515355 1.821072-3.778724 2.731608-181.151108 128.021341-199.578077 277.485801-201.148751 317.219309 0-0.409741 0-0.751192-0.079672-1.13817-10.869522-161.415243-141.042003-272.022586-188.037035-306.873345a341.450944 341.450944 0 1 1 401.011371-18.165191zM512.044161 944.680946s-0.182107-3.676288 0.079672-10.243529C525.258313 1129.735976 512.044161 944.680946 512.044161 944.680946z" fill="#F30000" p-id="5736"></path><path d="M491.557104 518.197335a114.875479 114.875479 0 0 0 81.629539-28.055886 94.468095 94.468095 0 0 0 30.036302-72.273783 83.086396 83.086396 0 0 0-24.846247-63.487113 94.695729 94.695729 0 0 0-67.732486-23.434916q-13.225533 0-28.909513 1.320277l4.15432-61.597751h105.622158v-50.261579H436.617647l-10.960575 161.551824a478.873568 478.873568 0 0 1 53.095622-3.41451q62.348942 0 62.348942 45.526793a43.409797 43.409797 0 0 1-14.636863 34.475164 59.685625 59.685625 0 0 1-40.530228 12.758883 122.478454 122.478454 0 0 1-64.807389-18.518023v52.720026a174.629395 174.629395 0 0 0 70.475475 12.656449z" fill="#FFFFFF" p-id="5737"></path></svg>