<?xml version="1.0" standalone="no"?><!DOCTYPE svg PUBLIC "-//W3C//DTD SVG 1.1//EN" "http://www.w3.org/Graphics/SVG/1.1/DTD/svg11.dtd"><svg t="1781702179623" class="icon" viewBox="0 0 1024 1024" version="1.1" xmlns="http://www.w3.org/2000/svg" p-id="6251" xmlns:xlink="http://www.w3.org/1999/xlink" width="200" height="200"><path d="M724.97297 608.283475a94.661583 94.661583 0 0 1-7.967189 6.225789c-1.240605 0.933299-2.515355 1.821072-3.778724 2.731608-181.151108 128.021341-199.578077 277.485801-201.148751 317.219309 0-0.409741 0-0.751192-0.079672-1.13817-10.869522-161.415243-141.042003-272.022586-188.037035-306.873345a341.450944 341.450944 0 1 1 401.011371-18.165191zM512.044161 944.680946s-0.182107-3.676288 0.079672-10.243529C525.258313 1129.735976 512.044161 944.680946 512.044161 944.680946z" fill="#F30000" p-id="6252"></path><path d="M433.590116 494.386822a131.788683 131.788683 0 0 0 150.033545 0 74.470451 74.470451 0 0 0 28.909513-60.653069 73.229846 73.229846 0 0 0-15.308384-46.198313 89.14146 89.14146 0 0 0-42.704132-29.194056 91.053585 91.053585 0 0 0 35.806823-27.771343 61.654659 61.654659 0 0 0 13.327968-37.980727 68.745457 68.745457 0 0 0-12.098745-39.392057 79.671887 79.671887 0 0 0-33.826407-27.782725 115.569763 115.569763 0 0 0-48.554324-9.924841 112.086963 112.086963 0 0 0-48.19011 10.11833 80.457224 80.457224 0 0 0-33.530483 27.964832 69.735665 69.735665 0 0 0-12.007691 39.767653 64.500083 64.500083 0 0 0 12.189799 38.174216 91.053585 91.053585 0 0 0 34.486545 28.340428 84.224566 84.224566 0 0 0-42.704131 29.103002 76.985806 76.985806 0 0 0 14.170214 105.42867z m44.126843-97.404573a43.921973 43.921973 0 0 1 61.882293 0 44.115462 44.115462 0 0 1 12.280852 31.868755 44.604875 44.604875 0 0 1-12.098745 32.688237 45.7089 45.7089 0 0 1-62.348942 0 45.367449 45.367449 0 0 1-11.723149-32.688237 44.673165 44.673165 0 0 1 12.007691-31.868755z m6.829019-125.551512a33.154887 33.154887 0 0 1 50.261579 0 41.657015 41.657015 0 0 1 9.924841 28.14694 39.585546 39.585546 0 0 1-10.243528 27.782725 32.301259 32.301259 0 0 1-24.743812 11.142682 31.743556 31.743556 0 0 1-25.039736-11.381698 40.55299 40.55299 0 0 1-9.924841-27.498182 42.112283 42.112283 0 0 1 9.731352-28.192467z" fill="#FFFFFF" p-id="6253"></path></svg>