<?xml version="1.0" standalone="no"?><!DOCTYPE svg PUBLIC "-//W3C//DTD SVG 1.1//EN" "http://www.w3.org/Graphics/SVG/1.1/DTD/svg11.dtd"><svg t="1781702182990" class="icon" viewBox="0 0 1024 1024" version="1.1" xmlns="http://www.w3.org/2000/svg" p-id="6423" xmlns:xlink="http://www.w3.org/1999/xlink" width="200" height="200"><path d="M724.97297 608.283475a94.661583 94.661583 0 0 1-7.967189 6.225789c-1.240605 0.933299-2.515355 1.821072-3.778724 2.731608-181.151108 128.021341-199.578077 277.485801-201.148751 317.219309 0-0.409741 0-0.751192-0.079672-1.13817-10.869522-161.415243-141.042003-272.022586-188.037035-306.873345a341.450944 341.450944 0 1 1 401.011371-18.165191zM512.044161 944.680946s-0.182107-3.676288 0.079672-10.243529C525.258313 1129.735976 512.044161 944.680946 512.044161 944.680946z" fill="#F30000" p-id="6424"></path><path d="M432.690962 507.054652a153.277329 153.277329 0 0 0 60.653069 11.142683 109.11634 109.11634 0 0 0 93.819338-44.593494q32.597183-44.593493 32.597183-121.306138 0-64.625282-27.020151-100.716647a87.900855 87.900855 0 0 0-74.447688-36.091365 99.60124 99.60124 0 0 0-73.889984 28.533917 100.841846 100.841846 0 0 0-28.340428 74.26558 91.668197 91.668197 0 0 0 23.52597 64.522847 77.862197 77.862197 0 0 0 59.992931 25.608821 66.013849 66.013849 0 0 0 59.526281-29.672087l1.13817 0.375596q-1.525148 92.191755-72.364837 92.191755a99.544332 99.544332 0 0 1-55.178473-15.114895v50.830664z m54.324845-230.149318a35.089775 35.089775 0 0 1 29.387544-14.54581 34.645889 34.645889 0 0 1 30.138737 16.810768 69.086908 69.086908 0 0 1 11.233736 39.301004 45.526793 45.526793 0 0 1-11.233736 31.36796 36.59216 36.59216 0 0 1-28.636352 12.66783 38.151452 38.151452 0 0 1-30.730585-13.236915 54.495571 54.495571 0 0 1-11.245118-36.421434 57.648301 57.648301 0 0 1 11.074392-35.943403z" fill="#FFFFFF" p-id="6425"></path></svg>