<?xml version="1.0" standalone="no"?><!DOCTYPE svg PUBLIC "-//W3C//DTD SVG 1.1//EN" "http://www.w3.org/Graphics/SVG/1.1/DTD/svg11.dtd"><svg t="1782049611739" class="icon" viewBox="0 0 1243 1024" version="1.1" xmlns="http://www.w3.org/2000/svg" p-id="10459" xmlns:xlink="http://www.w3.org/1999/xlink" width="242.7734375" height="200"><path d="M254.171429 217.6L91.062857 54.491429 153.6 0l950.857143 950.857143-64 54.857143-182.857143-182.857143a619.593143 619.593143 0 0 1-269.531429 61.805714c-239.177143 0-455.314286-137.874286-578.56-365.714286L0 501.394286l9.508571-17.188572a713.654857 713.654857 0 0 1 244.662858-266.605714z m436.662857 436.662857L447.634286 411.062857c-16.822857 27.136-25.892571 58.368-26.331429 90.331429a178.029714 178.029714 0 0 0 178.102857 179.2 175.616 175.616 0 0 0 91.428572-26.331429z m-341.577143-130.194286a250.660571 250.660571 0 0 1 45.348571-166.034285L307.2 270.994286a632.173714 632.173714 0 0 0-223.817143 230.4C194.925714 694.857143 382.171429 809.691429 588.068571 809.691429a545.792 545.792 0 0 0 214.308572-43.885715l-58.514286-58.514285a250.587429 250.587429 0 0 1-394.532571-183.222858zM1166.994286 484.205714c-123.245714-227.84-339.382857-365.714286-578.56-365.714285a615.131429 615.131429 0 0 0-191.634286 31.085714l58.88 59.245714a540.525714 540.525714 0 0 1 132.754286-17.188571c205.897143 0 393.142857 114.834286 504.685714 308.297143a649.289143 649.289143 0 0 1-159.817143 186.514285l51.931429 51.931429a729.161143 729.161143 0 0 0 182.857143-219.428572l9.508571-17.554285-10.605714-17.188572z" fill="#8a9099" p-id="10460"></path><path d="M834.194286 589.165714a251.026286 251.026286 0 0 0-235.154286-338.651428c-29.622857 0-58.953143 5.339429-86.674286 15.725714l58.88 60.708571a175.835429 175.835429 0 0 1 73.874286 3.949715 178.176 178.176 0 0 1 131.657143 170.496c0 9.069714-0.731429 18.139429-2.194286 27.062857l59.611429 60.708571z" fill="#8a9099" p-id="10461"></path></svg>