<?xml version="1.0" standalone="no"?><!DOCTYPE svg PUBLIC "-//W3C//DTD SVG 1.1//EN" "http://www.w3.org/Graphics/SVG/1.1/DTD/svg11.dtd"><svg t="1782049615237" class="icon" viewBox="0 0 1638 1024" version="1.1" xmlns="http://www.w3.org/2000/svg" p-id="10625" xmlns:xlink="http://www.w3.org/1999/xlink" width="319.921875" height="200"><path d="M1126.4 512a307.2 307.2 0 1 1-614.4 0 307.2 307.2 0 0 1 614.4 0z m-102.4 0a204.8 204.8 0 1 0-409.6 0 204.8 204.8 0 0 0 409.6 0z" fill="#8a9099" p-id="10626"></path><path d="M819.2 0a910.848 910.848 0 0 1 819.2 512 910.848 910.848 0 0 1-819.2 512 910.848 910.848 0 0 1-819.2-512 910.848 910.848 0 0 1 819.2-512z m0 921.6a808.1408 808.1408 0 0 0 703.488-409.6A808.1408 808.1408 0 0 0 819.2 102.4a808.1408 808.1408 0 0 0-703.488 409.6A808.1408 808.1408 0 0 0 819.2 921.6z" fill="#8a9099" p-id="10627"></path></svg>