<?xml version="1.0" standalone="no"?><!DOCTYPE svg PUBLIC "-//W3C//DTD SVG 1.1//EN" "http://www.w3.org/Graphics/SVG/1.1/DTD/svg11.dtd"><svg t="1781702666298" class="icon" viewBox="0 0 1024 1024" version="1.1" xmlns="http://www.w3.org/2000/svg" p-id="1439" xmlns:xlink="http://www.w3.org/1999/xlink" width="200" height="200"><path d="M847.04 976L505.76 816a14.72 14.72 0 0 0-9.76-1.12 17.44 17.44 0 0 0-3.84 1.12L150.88 976a16 16 0 0 1-21.76-20.48L484.16 58.08A15.04 15.04 0 0 1 496 48a16 16 0 0 1 17.92 9.76L868.8 955.84A16 16 0 0 1 847.04 976z" fill="#72CAAF" p-id="1440"></path><path d="M480 204.8l-74.56 488a64 64 0 0 1-18.88 36.16L144 961.76h37.6L496 814.56V192z" fill="#5DBC9D" p-id="1441"></path><path d="M883.68 950.08L528 52.32a32 32 0 0 0-59.52 0L114.24 950.08a32 32 0 0 0 43.36 40.64l341.28-160 129.6 60.96a16 16 0 0 0 9.6 4.48l202.08 95.2a32 32 0 0 0 43.36-40.64z m-29.76 11.84l-182.72-86.08A16 16 0 0 0 656 864h-9.92L512 801.12v-480a16 16 0 1 0-32 0v482.56L144 961.76 499.04 64l126.56 320H624a16 16 0 0 0 0 32h14.24l19.04 48H624a16 16 0 0 0 0 32h32a16 16 0 0 0 11.68-5.28l186.4 471.2z" fill="#8D6C9F" p-id="1442"></path><path d="M496 192a16 16 0 0 0-16 16v56.64a16 16 0 0 0 32 0V208a16 16 0 0 0-16-16zM656 784h-32a16 16 0 0 0 0 32h32a16 16 0 0 0 0-32zM656 704h-32a16 16 0 0 0 0 32h32a16 16 0 0 0 0-32zM656 624h-32a16 16 0 0 0 0 32h32a16 16 0 0 0 0-32zM656 544h-32a16 16 0 0 0 0 32h32a16 16 0 0 0 0-32z" fill="#8D6C9F" p-id="1443"></path></svg>