<?xml version="1.0" standalone="no"?><!DOCTYPE svg PUBLIC "-//W3C//DTD SVG 1.1//EN" "http://www.w3.org/Graphics/SVG/1.1/DTD/svg11.dtd"><svg t="1781702660577" class="icon" viewBox="0 0 1024 1024" version="1.1" xmlns="http://www.w3.org/2000/svg" p-id="1251" xmlns:xlink="http://www.w3.org/1999/xlink" width="200" height="200"><path d="M112 816a400 160 0 1 0 800 0 400 160 0 1 0-800 0Z" fill="#BBDEF9" p-id="1252"></path><path d="M678.032 670.448L308.256 953.68C367.936 967.84 437.568 976 512 976c32.4 0 63.856-1.584 94.016-4.48l289.088-201.568c-33.264-44.32-113.232-80.528-217.072-99.504zM272.624 944.192l365.584-280.016a938.8 938.8 0 0 0-86.368-7.376L208.192 920.016a473.968 473.968 0 0 0 64.432 24.176zM176.64 903.168l326.224-247.072a988.592 988.592 0 0 0-57.504 2.16L143.52 878.352c9.216 8.704 20.368 16.976 33.12 24.816z" fill="#DEF0FF" p-id="1253"></path><path d="M511.232 48c-131.328 0-238.16 106.832-238.16 238.16 0 85.392 51.424 162.432 105.856 244 53.216 79.728 108.24 162.16 120.416 259.392a11.936 11.936 0 0 0 23.68 0c12.224-97.216 67.248-179.648 120.448-259.344 54.464-81.584 105.904-158.64 105.904-244.048C749.376 154.832 642.544 48 511.232 48z" fill="#ED7899" p-id="1254"></path><path d="M512 288m-112 0a112 112 0 1 0 224 0 112 112 0 1 0-224 0Z" fill="#F9DD8F" p-id="1255"></path><path d="M574.992 893.904A936.224 936.224 0 0 1 512 896c-67.168 0-132.928-7.232-185.152-20.336a15.968 15.968 0 0 0-19.408 11.616 15.968 15.968 0 0 0 11.616 19.408C374.544 920.64 441.28 928 512 928c21.968 0 43.888-0.72 65.152-2.176a15.984 15.984 0 0 0 14.88-17.04 15.872 15.872 0 0 0-17.04-14.88zM697.2 875.664c-15.552 3.904-32.336 7.312-49.936 10.128a16 16 0 1 0 5.072 31.584 630.96 630.96 0 0 0 52.64-10.688 16 16 0 1 0-7.776-31.024z" fill="#8D6C9F" p-id="1256"></path><path d="M597.696 643.808c17.968-30.32 37.6-59.808 57.04-88.944C712.992 467.6 768 385.2 768 293.296c0-141.584-115.184-256.768-256.768-256.768-141.584 0-256.768 115.184-256.768 256.768 0 91.888 54.992 174.288 113.216 261.52 19.488 29.184 39.152 58.736 57.136 89.12C234.864 660.48 96 730.016 96 816c0 98.688 182.72 176 416 176s416-77.312 416-176c0-86.208-139.584-155.888-330.304-172.192zM286.464 293.296c0-123.936 100.832-224.768 224.768-224.768S736 169.344 736 293.296c0 82.208-52.4 160.688-107.872 243.792-45.328 67.888-91.84 137.568-116.928 216.768-25.072-79.216-71.584-148.912-116.912-216.816-55.44-83.072-107.824-161.568-107.824-243.744zM512 960c-229.696 0-384-74.464-384-144 0-62.192 123.792-128.016 314.192-141.28 25.952 48.448 46.176 99.36 53.12 154.768a16 16 0 0 0 31.744 0c6.976-55.44 27.232-106.4 53.232-154.88C771.568 687.616 896 753.648 896 816c0 69.536-154.304 144-384 144z" fill="#8D6C9F" p-id="1257"></path><path d="M567.328 402.848a127.744 127.744 0 0 0 69.616-141.472 16 16 0 1 0-31.312 6.576 95.792 95.792 0 0 1-52.224 106.08c-47.632 23.008-105.184 2.992-128.208-44.672a96.112 96.112 0 0 1 70.16-136.416 16 16 0 1 0-5.44-31.52 127.84 127.84 0 0 0-33.968 10.928c-63.552 30.688-90.272 107.376-59.568 170.944a128.16 128.16 0 0 0 115.456 72.304 127.52 127.52 0 0 0 55.488-12.752z" fill="#8D6C9F" p-id="1258"></path><path d="M547.616 198.592a95.488 95.488 0 0 1 31.088 20.272 15.968 15.968 0 0 0 22.624-0.288 15.984 15.984 0 0 0-0.288-22.624 127.232 127.232 0 0 0-41.44-27.024 15.984 15.984 0 1 0-11.984 29.664z" fill="#8D6C9F" p-id="1259"></path><path d="M512 288m-32 0a32 32 0 1 0 64 0 32 32 0 1 0-64 0Z" fill="#8D6C9F" p-id="1260"></path><path d="M676.672 719.968l19.808 36.224 36.224 19.808-36.224 19.808-19.808 36.224-19.824-36.224L620.64 776l36.208-19.808zM294 722.64l13.68 25.008 25.024 13.68-25.024 13.68-13.68 25.024-13.68-25.024-25.024-13.68 25.024-13.68zM441.664 827.296l9.328 17.056 17.04 9.312-17.04 9.328-9.328 17.04-9.312-17.04-17.056-9.328 17.056-9.312z" fill="#FFFFFF" p-id="1261"></path></svg>