<?xml version="1.0" standalone="no"?><!DOCTYPE svg PUBLIC "-//W3C//DTD SVG 1.1//EN" "http://www.w3.org/Graphics/SVG/1.1/DTD/svg11.dtd"><svg t="1782366804830" class="icon" viewBox="0 0 1024 1024" version="1.1" xmlns="http://www.w3.org/2000/svg" p-id="3396" xmlns:xlink="http://www.w3.org/1999/xlink" width="200" height="200"><path d="M389.851429 911.36L70.802286 1007.908571a43.885714 43.885714 0 0 1-54.710857-54.710857l96.548571-319.122285L694.930286 51.712a73.142857 73.142857 0 0 1 103.424 0l173.860571 173.860571a73.142857 73.142857 0 0 1 0 103.424L389.851429 911.36z m-266.020572-11.190857l219.574857-66.413714 72.118857-72.118858-153.161142-153.161142-72.118858 72.118857-66.413714 219.574857zM474.258286 702.902857l321.974857-321.974857-153.161143-153.161143L321.097143 549.741714 474.258286 702.902857z m384-384l41.618285-41.618286-153.161142-153.161142-41.545143 41.545142 153.161143 153.161143z" p-id="3397"></path></svg>