<?xml version="1.0" standalone="no"?><!DOCTYPE svg PUBLIC "-//W3C//DTD SVG 1.1//EN" "http://www.w3.org/Graphics/SVG/1.1/DTD/svg11.dtd"><svg t="1782131642914" class="icon" viewBox="0 0 1024 1024" version="1.1" xmlns="http://www.w3.org/2000/svg" p-id="5104" xmlns:xlink="http://www.w3.org/1999/xlink" width="200" height="200"><path d="M582.78176078 213.68710874l0.70943 1.77503075 0.70943001-1.1354762c43.12383355-62.89276544 105.41295265-81.38452923 182.50111167-52.60069266l2.87556923 1.06560076C834.17328143 187.77787087 867.8911018 238.28229975 874.1022537 301.95631164c2.09432278 21.40227075 0.70942999 44.15255555-3.01726112 64.73864214l-0.92196787 4.89710509 1.77406026-0.35422976a102.04049126 102.04049126 0 0 1 41.45458648-0.21350835l2.83966099 0.63955456c43.44312557 9.93784304 80.71003695 52.88310594 93.70007887 105.0567819 14.40987239 57.74624381-2.44952302 116.7696557-51.57100013 159.0054886-65.34131797 58.49158202-100.9399528 145.76700063-106.40479597 262.99764025a20.79765393 20.79765393 0 0 1-21.79337923 19.80484015 20.79765393 20.79765393 0 0 1-19.87568606-21.68565458c5.9277681-127.6294666 45.82083215-225.37649913 120.4614091-292.27933949 37.19606543-31.94278961 49.40486089-74.81720659 38.68674191-117.83428593-9.47685911-38.08309557-35.8470809-68.53617923-62.57347342-74.64057696-15.90054886-3.69078291-31.69434354-0.60267583-46.56519989 7.09915252a86.2816343 86.2816343 0 0 0-10.22219734 6.21115188l-1.77503076 1.31307633-2.30686061 1.77406026-0.42604621 0.2843543-0.24844609 0.24844608-0.39013797 0.24844608-1.66827658 0.70943001-4.9689215 2.02347682-1.13547622 0.21350834-1.38392228 0.17662963-1.7041848 0.10675418-3.40642863-0.17760012-6.24706011-1.95166038-6.81479823-5.32412177-3.97513723-7.38253633-0.85209239-6.10439773 0.24844608-3.19486125 0.35520025-1.56152243 0.17760012-0.70942998 1.98756861-4.57878353 0.53280038-1.06463027 0.28338379-0.42604619 0.4270167-0.56773812 0.17662962-0.17760012 0.21350836-0.35520025c10.11447266-15.97139481 18.9168395-57.14259747 15.40268623-92.95377013-4.79132141-48.97978519-29.20988278-85.5722043-78.0829138-104.48904381-73.7176386-28.46454455-123.51263748-4.50793759-157.58565812 77.2308214-7.91436621 18.91780999-35.66948076 16.21984089-39.75137214-3.86838304-20.23088634-100.05292263-70.84303986-139.37824862-157.79916647-125.14597631-95.54498507 18.10065531-127.41595824 73.82342228-100.19364406 177.81654441 5.03879698 19.2011938-17.32134987 33.78866634-33.04429859 21.54396267-45.28803178-35.27934278-93.06052431-37.55126567-147.64781507-6.31790608l-1.73912253 0.99378431-1.56152241 1.20632213c-51.00229152 39.04194215-62.21827317 77.87037596-44.50678532 126.45905268l0.85112191 2.34276885 1.4198305 3.61993696 0.74533823 1.8099685 1.52658469 3.61993697 0.81521367 1.77600124 1.63333885 3.6548747 1.73912254 3.61993696 1.8458767 3.6917534 1.91672266 3.69078292 2.05744406 3.79753711 2.13023102 3.8334453 2.30686062 3.90429125 2.4136148 4.01104545 2.55530672 4.11682913 2.69796909 4.22358328 2.83869053 4.33033747 2.98135292 4.5069671 3.15895303 4.61372126 3.33655315 4.82722963 3.47824507 4.96892152 3.69078293 5.14652164 5.85692213 8.12787454L131.17764066 571.20004154l14.87085632 19.87568607c11.89047391 15.90054886 21.68565456 35.8470809 29.45832888 59.80465835l1.84587669 5.85595165c4.79132141 15.75885697 8.73152089 33.22092822 11.8545657 52.35127609l1.17138443 7.23987393 1.06463025 7.45338227 0.49689215 3.72669115 0.92196787 7.66689062 0.88800062 7.80858252 0.78124645 7.95027443 0.35422976 4.04598316 0.7104005 8.19872052 0.60364632 8.37535012c0.21350834 2.8047233 0.35422976 5.64438429 0.53182988 8.51898304l0.46195443 8.65970444 0.39013798 8.87321279 0.35520025 8.97996695 0.21350834 9.12165885 0.06987546 4.64865901 0.14169189 9.40601315 0.03590823 9.54770506v4.82625912l-0.03590823 9.79615114-0.07084595 4.96892152-0.1416919 10.00868898-0.1416919 5.0756757-0.24844608 10.29304328-0.35520023 10.39882698a20.79765393 20.79765393 0 0 1-21.61480863 19.98244024 20.79765393 20.79765393 0 0 1-20.08919441-21.47311671l0.35520025-10.0445972 0.14266239-4.96892152 0.21350834-9.79518064 0.17662963-9.65445922 0.07084596-9.44095089v-18.45585558l-0.14169191-8.97899648-0.17760011-8.80236681-0.24844608-8.66067494-0.17760014-4.25852101-0.35520023-8.37632065-0.42604621-8.23462872a846.24324291 846.24324291 0 0 0-0.24844607-4.0809209l-0.53182989-7.95027442-0.56773809-7.80858254-0.7104005-7.66689062-0.70943-7.45338228a646.66922749 646.66922749 0 0 0-0.35520025-3.72669115l-0.85209241-7.20396569-0.92196785-7.09915253-0.46195442-3.44233684-0.99378431-6.81479823c-7.09818203-45.99746178-18.81105581-80.31892848-34.99595898-102.74992128L99.69680545 598.63586406l-7.02733607-9.51179683-6.56635214-8.97996696-4.11682913-5.67835152-5.82101392-8.23462873-3.61993697-5.2173676-3.47824507-5.07567569-3.30064493-4.96892152-3.15895304-4.75541318-2.98135291-4.64962949-2.83966101-4.54287531-2.66206086-4.47202937-1.31307635-2.16516873-2.48446077-4.33033747-1.20632213-2.12926051-2.30783116-4.25949151-1.13547618-2.09335229-2.12926052-4.15370785-2.05841456-4.15176683-1.95263088-4.15273734-1.88081443-4.11682912a258.02871873 258.02871873 0 0 1-0.88703013-2.09432277l-1.77503075-4.15273734a264.63097911 264.63097911 0 0 1-0.81521368-2.0933523l-1.66924709-4.25949152c-25.73163773-67.61324089-8.80236684-127.062699 60.08901265-178.52597443a20.86947039 20.86947039 0 0 1 1.88081443-1.24223036c53.59350644-31.58855986 105.4828281-37.65801985 153.75221281-17.92402571l1.66924706 0.71040051v-0.35520026C238.89551295 192.88848429 285.95857549 130.17428949 388.46005067 109.51735696l3.58499924-0.70943001c93.06052431-15.26196481 157.90495012 21.11791645 190.73574037 104.84424405z m-39.85812634 255.19002821c50.22104508 8.37535013 88.37595709 34.07205013 119.75100863 68.07422482 46.06927822 49.972599 69.74250138 106.54745837 69.56490126 169.33346963-0.07084594 21.79240871-5.03976747 42.44934126-19.16625605 60.33648824-20.72680799 26.33528404-51.57002962 35.5996053-87.55880242 34.1797748-31.3401138-1.27813861-59.73381241-10.04459723-81.81057545-31.94376013-5.99764354-5.92679759-13.38017989-10.89571911-20.58414559-15.79379467a56.6097971 56.6097971 0 0 0-49.86778579-8.0211204c-9.0508129 2.66206089-18.45585557 5.18242987-26.54782192 9.299259-27.18737646 13.77128835-56.29147555 12.77653355-85.60714204 4.61372126-39.18363405-11.00247329-67.93253292-32.47558999-75.24422328-68.96125495-3.08810709-15.33378125-3.08810709-32.3338981 1.34898456-47.0271543 25.73163773-85.04037443 85.4295419-143.63774013 182.67871179-170.96680848a159.14718051 159.14718051 0 0 1 73.0431463-3.12304482z m279.99872761 7.02636559a67.78987052 67.78987052 0 1 1 67.75493279 117.37427252 67.78987052 67.78987052 0 0 1-67.79084099-117.37330203z m-621.11518989-99.41336811a90.32761747 90.32761747 0 1 1 0 180.65620544 90.32761747 90.32761747 0 0 1 0-180.65620544z m410.96474736-73.11399228a90.32761747 90.32761747 0 1 1 171.85480912 55.86542938 90.32761747 90.32761747 0 0 1-171.85480912-55.82952115z m-271.01876064-45.14633987a90.32761747 90.32761747 0 1 1 171.81793039 55.82952114 90.32761747 90.32761747 0 0 1-171.81793039-55.82952114z" fill="#dbdbdb" p-id="5105"></path></svg>