<svg xmlns="http://www.w3.org/2000/svg" viewBox="0 0 64 64" role="img" aria-label="task icon">
  <g fill="none" stroke="currentColor" stroke-width="3.35" stroke-linecap="round" stroke-linejoin="round">
    <path d="M23.1 12.25h-6.6a4.9 4.9 0 0 0-4.9 4.9v35.1a4.9 4.9 0 0 0 4.9 4.9h31a4.9 4.9 0 0 0 4.9-4.9v-35.1a4.9 4.9 0 0 0-4.9-4.9h-6.6"/>
    <path d="M24.6 16.35h14.8a3.58 3.58 0 0 0 3.58-3.58v-.9a3.58 3.58 0 0 0-3.58-3.58h-3.27A4.18 4.18 0 0 0 32 4.8a4.18 4.18 0 0 0-4.13 3.49H24.6a3.58 3.58 0 0 0-3.58 3.58v.9a3.58 3.58 0 0 0 3.58 3.58Z"/>
    <path d="M32 8.55v.1"/>
    <path d="M23.25 28.2h17.5"/>
    <path d="M23.25 37.35h17.5"/>
    <path d="M23.25 46.5h13.3"/>
    <path d="M18.85 28.2h.1"/>
    <path d="M18.85 37.35h.1"/>
    <path d="M18.85 46.5h.1"/>
  </g>
</svg>
