<?xml version="1.0" standalone="no"?><!DOCTYPE svg PUBLIC "-//W3C//DTD SVG 1.1//EN" "http://www.w3.org/Graphics/SVG/1.1/DTD/svg11.dtd"><svg t="1781702742580" class="icon" viewBox="0 0 1024 1024" version="1.1" xmlns="http://www.w3.org/2000/svg" p-id="1235" xmlns:xlink="http://www.w3.org/1999/xlink" width="200" height="200" stroke="#222222" stroke-width="24" stroke-linejoin="round"><path d="M830.62 837.9a22.51 22.51 0 0 1-22.29-19.61c-6.26-48.36-38.72-93.67-91.38-127.59-55-35.4-126.6-54.89-201.68-54.89h-0.45c-75 0.07-146.78 19.57-202.14 54.88-52.53 33.52-84.86 77.65-91 124.27a22.51 22.51 0 0 1-22.28 19.55 23 23 0 0 1-3-0.19 22.51 22.51 0 0 1-19.4-25.26c7.94-60 47.51-115.53 111.43-156.3 62.49-39.87 142.86-61.87 226.3-62h0.49c83.63 0 163.89 22 226 62.06C805.31 694.08 845 750.78 853 812.51a22.51 22.51 0 0 1-19.42 25.21 24.09 24.09 0 0 1-2.96 0.18zM515 546c-47.9 0-92.66-18.34-126-51.65s-51.92-78.2-52-126.18c-0.1-100.12 79.65-181.66 177.78-181.76h0.22c98 0 177.86 81.33 178 181.39 0 48-18.29 92.81-51.65 126.24S563.16 545.9 515.19 546z m0.15-45v22.5V501c36 0 69.45-13.78 94.32-38.7S648 403.81 648 367.85c-0.08-75.26-59.72-136.44-133-136.44h-0.14c-73.32 0.07-132.9 61.4-132.83 136.71 0 36 13.79 69.46 38.7 94.33S479.09 501 515 501z" fill="#222222" p-id="1236"></path></svg>