<?xml version="1.0" standalone="no"?><!DOCTYPE svg PUBLIC "-//W3C//DTD SVG 1.1//EN" "http://www.w3.org/Graphics/SVG/1.1/DTD/svg11.dtd"><svg t="1783257044905" class="icon" viewBox="0 0 1024 1024" version="1.1" xmlns="http://www.w3.org/2000/svg" p-id="7502" xmlns:xlink="http://www.w3.org/1999/xlink" width="200" height="200"><path d="M508.972973 843.243243c-83.027027 0-151.351351-67.459459-151.351351-151.351351s67.459459-151.351351 151.351351-151.351351c83.027027 0 151.351351 67.459459 151.351351 151.351351s-67.459459 151.351351-151.351351 151.351351z m0-285.405405c-74.378378 0-134.918919 60.540541-134.918919 134.918919s60.540541 134.918919 134.918919 134.918919 134.918919-60.540541 134.918919-134.918919-60.540541-134.918919-134.918919-134.918919z" fill="#666767" p-id="7503"></path><path d="M368 704.864865h284.540541v16.432432H368zM398.27027 774.054054H622.27027v16.432432H398.27027zM537.513514 557.837838h-57.081082V343.351351h57.081082v214.486487z m-38.918919-17.297297h22.486486V360.648649h-22.486486v179.891892z" fill="#666767" p-id="7504"></path><path d="M508.972973 360.648649c-33.72973 0-61.405405-27.675676-61.405405-61.405406s27.675676-61.405405 61.405405-61.405405 61.405405 27.675676 61.405405 61.405405-26.810811 61.405405-61.405405 61.405406z m0-106.378379c-24.216216 0-44.108108 19.891892-44.108108 44.108108s19.891892 44.108108 44.108108 44.108108 44.108108-19.891892 44.108108-44.108108-19.027027-44.108108-44.108108-44.108108z" fill="#666767" p-id="7505"></path><path d="M502.054054 76.972973h17.297297v168.648649h-17.297297z" fill="#666767" p-id="7506"></path><path d="M468.324324 153.081081H553.081081v17.297297h-84.756757zM500.324324 835.459459h17.297298v152.216217h-17.297298zM449.764324 821.344865l13.664865 7.437838-80.172973 147.381621-13.682162-7.437838zM569.331892 821.318919l80.198919 147.372973-13.673514 7.446486-80.207567-147.372973zM312.648649 354.594595h85.621621v15.567567h-85.621621zM345.513514 384h52.756756v17.297297H345.513514zM670.702703 164.324324h17.297297v54.486487h-17.297297z" fill="#666767" p-id="7507"></path><path d="M652.540541 182.486486h54.486486v17.297298h-54.486486z" fill="#666767" p-id="7508"></path></svg>