<?xml version="1.0" standalone="no"?><!DOCTYPE svg PUBLIC "-//W3C//DTD SVG 1.1//EN" "http://www.w3.org/Graphics/SVG/1.1/DTD/svg11.dtd"><svg t="1783256948816" class="icon" viewBox="0 0 1029 1024" version="1.1" xmlns="http://www.w3.org/2000/svg" p-id="5367" xmlns:xlink="http://www.w3.org/1999/xlink" width="200.9765625" height="200"><path d="M895.690752 572.347103c11.319984-15.049062 21.614171-31.039446 31.968698-46.776397 11.356189-17.257546 22.289991-34.79266 32.330745-52.846707a516.96607 516.96607 0 0 0 27.406913-57.058515c7.639179-18.826413 15.580064-37.556281 22.133104-56.805082 7.69952-22.652037 13.275035-45.967826 19.683256-69.006046 3.620464-12.816443-15.966247-21.903808-22.060694-9.304592-4.139397 8.568432-5.768606 17.100659-6.903019 26.477661-0.712025 5.87722 5.141059 11.223439 10.463142 11.850985 6.203062 0.736161 11.175166-2.83603 13.275035-8.640841 2.413643-6.637518 3.620464-13.552604 5.249673-20.383213s-3.463577-16.328293-11.633758-15.278358c-18.500572 2.413643-35.975345 9.292525-53.667347 14.892176-18.404026 5.816879-36.663233 11.875122-54.24662 19.888416l14.626675 1.882641-2.075733-1.894709 3.101531 5.322082c-14.035333-38.907921-33.887544-75.269449-60.015227-107.407102q-4.694535-5.768606-9.654571-11.307916-2.208483-2.413643-4.465239-4.827286a30.954968 30.954968 0 0 0-2.268824-2.413642c-3.620464-3.053258 0.386183 0.977525-0.880979-0.579275a83.849949 83.849949 0 0 0-7.361611-8.520159q-5.696197-5.394492-11.669962-10.499346a345.512958 345.512958 0 0 0-50.324452-35.758117 381.77794 381.77794 0 0 0-62.754711-29.036122l5.322083 3.101531-1.89471-2.075733 1.882641 14.626675c8.013294-17.583387 14.071537-35.842595 19.888416-54.234552 5.587583-17.692001 12.514738-35.166775 14.892176-53.667346 1.049935-8.182249-8.520159-13.275035-15.278358-11.633758s-13.806036 2.944644-20.443554 5.249673c-5.635856 2.003323-9.570093 7.059905-8.640841 13.275035 0.80857 5.33415 5.816879 11.199302 11.850985 10.463141 9.377002-1.134412 17.909229-2.763621 26.477661-6.903018 12.478533-6.034107 3.620464-25.657022-9.304592-22.060695-20.12978 5.587583-40.452652 10.571755-60.341069 16.895499-19.490165 6.142721-38.401056 13.902582-57.299878 21.638307a604.18305 604.18305 0 0 0-55.863762 25.644955c-17.692001 9.437343-34.889206 19.803939-51.7485 30.641194-17.305818 10.994143-34.201318 22.555491-50.976135 34.189249a76.029746 76.029746 0 0 0-9.654571 7.373679c-3.861828 3.704942-7.578838 7.578838-11.368257 11.368257l-54.306961 54.306962-82.281081 82.22074-93.323497 93.323496-87.820391 87.820391-64.770103 64.770103-18.597117 18.597118a82.510377 82.510377 0 0 0-7.542634 7.820202c-4.356625 5.696197-6.794404 13.721559-9.461479 20.226326a334.289519 334.289519 0 0 0-14.674948 44.954096c-12.381987 49.165903-14.481856 100.974744-3.620464 150.635443 14.892176 68.294021 55.320692 128.936795 108.312218 173.782278a322.716102 322.716102 0 0 0 174.928757 75.353926c45.702325 4.923831 92.611472 0.168955 136.889748-11.983736a326.155543 326.155543 0 0 0 35.709844-11.899259c4.706603-1.89471 9.413207-3.354963 13.130217-6.866814 11.356189-10.74071 22.181377-22.108967 33.247929-33.139314l70.152526-69.99564 89.980601-89.703032 93.033859-92.683881 78.298571-78.057206 46.812601-46.667783 6.275471-6.251334c11.018279-10.982074-6.034107-28.046529-17.064454-17.064455l-25.19843 25.126021-64.166693 63.961533-86.613569 86.348069-92.864905 92.575267-81.88283 81.569056-54.644871 54.475917c-3.994579 3.982511-8.073635 7.880544-11.983736 11.947532-2.413643 2.413643-0.181023-0.494797 1.062002-0.579275a7.36161 7.36161 0 0 0-1.834368 0.820639l-1.580936 0.67582c2.413643-1.098207 2.413643-1.025798 0.289637-0.132751a318.854274 318.854274 0 0 1-33.790998 11.48894q-13.033671 3.692873-26.320774 6.432358-7.518497 1.5568-15.097336 2.811894-3.753214 0.615479-7.506429 1.206821c-0.736161 0.108614-5.153127 0.687888-2.087801 0.301705l-4.416966 0.555138a347.950737 347.950737 0 0 1-73.712649 1.049935q-5.044513-0.482729-10.06489-1.110276c-0.289637 0-2.763621-0.374115-1.387845-0.181023s-1.110276-0.156887-1.387844-0.20516c-1.810232-0.265501-3.620464-0.54307-5.418628-0.832707q-10.439005-1.713686-20.74526-4.127329a300.039929 300.039929 0 0 1-42.407703-13.275035c-6.034107-2.413643-13.057807-5.575515-19.803938-8.930478q-10.94587-5.454833-21.433148-11.778576a304.481031 304.481031 0 0 1-41.176745-29.772284c-27.503459-23.641631-51.555409-51.41059-69.742207-82.848287a269.712508 269.712508 0 0 1-31.534242-83.693062q-1.037866-5.177264-1.870573-10.390732c-0.265501-1.617141-0.494797-3.234281-0.736161-4.827285 0-0.325842-0.325842-2.413643-0.07241-0.410319-0.13275-1.001662-0.253432-2.003323-0.374114-3.004985q-1.206821-10.004549-1.725755-20.06944a312.168484 312.168484 0 0 1 0.362047-38.002805q0.615479-8.870137 1.713686-17.704069l0.253432-2.015392c0.229296-1.846437-0.289637 2.02746 0 0.20516 0.193091-1.315435 0.374115-2.630871 0.579275-3.946306q0.663752-4.344557 1.424049-8.664978 2.630871-14.79563 6.540972-29.313691 3.306691-12.29751 7.506429-24.341587 1.725755-4.947968 3.620464-9.847662 0.784434-2.02746 1.593004-4.05492l0.856843-2.111937c1.206821-2.884303 0 0.518933-0.217228 0.47066 0.229296 0 4.175602-9.340797 4.742808-10.487278a14.11981 14.11981 0 0 0 1.110276-2.220551c0.434456-1.629209-2.70328 2.775689-1.605072 2.015392 3.04119-2.136074 5.67206-5.67206 8.278794-8.278795l48.924538-48.924538 78.443389-78.443389L280.718719 345.150912l88.616893-88.616894 69.162933-69.162932c11.126893-11.126893 22.70031-21.952081 33.44102-33.44102a6.034107 6.034107 0 0 0 0.856843-0.905116c0.301705-0.506865 9.93214-6.227198-2.075733 1.593004 3.04119-1.979187 5.937561-4.248011 8.930478-6.311676 16.581726-11.452735 33.235861-22.808924 50.227906-33.658248s34.11684-21.095238 51.893318-30.448103c17.390296-9.171842 35.26332-16.895499 53.438051-24.293314 17.848888-7.240928 35.782254-14.481856 54.234552-20.129781 19.103982-5.87722 38.521738-10.692437 57.770539-16.038656l-9.401138-22.084831a46.07644 46.07644 0 0 1-14.300834 3.620464l3.210145 23.701972c6.637518-2.413643 13.540536-3.620464 20.383213-5.249673L731.840615 12.068214c-0.989594 7.687452-3.620464 15.990383-6.21513 23.315789-2.751553 7.928816-5.273809 15.930042-7.808135 23.931267-5.177264 16.376566-10.318323 32.825541-17.462705 48.478015-2.353302 5.153127-2.015392 10.342459 1.882642 14.626675 5.937561 6.516835 16.304157 8.44775 24.31745 11.778576 9.654571 4.05492 19.11605 8.616705 28.360302 13.540536a318.806001 318.806001 0 0 1 49.99861 32.584177q5.792743 4.65833 11.356189 9.654571 3.089463 2.739485 6.106516 5.563446c0.796502 0.748229 1.568868 1.580936 2.413643 2.268825 3.620464 2.980849-0.277569-0.953389 0.953388 0.506865 5.973766 7.059905 12.249237 13.878446 18.259208 20.950419a313.930443 313.930443 0 0 1 34.285795 49.829654q8.44775 15.157676 15.483518 31.099787c2.124006 4.827285 4.091124 9.751117 5.961698 14.699084s3.367032 9.654571 7.458156 13.407785c4.320421 3.946306 9.497684 4.223875 14.626675 1.882642 15.688678-7.132314 32.101448-12.273373 48.478014-17.450637 8.001226-2.534325 16.002451-5.056582 23.931268-7.808135 7.325406-2.546393 15.688678-5.225537 23.327857-6.21513l-11.633758-15.278358c-1.617141 6.842677-2.896371 13.745695-5.249673 20.383213l23.701972 3.210145a46.148849 46.148849 0 0 1 3.620464-14.300834l-22.060695-9.304592c-5.599651 20.12978-10.571755 40.452652-16.895499 60.341068-6.142721 19.490165-13.902582 38.401056-21.638307 57.299879-15.314563 37.411462-34.720251 72.409282-56.720605 106.320962-11.537212 17.764411-23.110629 35.782254-35.854662 52.713958-3.922169 5.213468-0.832707 13.492263 4.332488 16.509316 6.190994 3.632532 12.599215 0.965457 16.533453-4.260079z" fill="#2CA6E0" p-id="5368"></path><path d="M298.833107 445.811882l28.625803 28.625803 68.269885 68.269885 82.510377 82.522445 71.661053 71.673121c11.525144 11.525144 22.83306 23.303721 34.587501 34.587501l0.482728 0.482728c4.465239 4.465239 12.659556 4.827285 17.064454 0a12.285442 12.285442 0 0 0 0-17.064454l-28.625803-28.625803-68.269884-68.269885-82.510377-82.522445-71.721394-71.673121c-11.525144-11.525144-22.83306-23.303721-34.587501-34.587501l-0.482728-0.482728c-4.465239-4.465239-12.659556-4.827285-17.064455 0a12.285442 12.285442 0 0 0 0 17.064454zM220.570742 335.532545l-58.313609-58.313608-8.399477-8.339136c-4.465239-4.465239-12.659556-4.827285-17.064454 0a12.285442 12.285442 0 0 0 0 17.064454l58.313609 58.313609 8.351204 8.351204c4.465239 4.465239 12.659556 4.827285 17.064454 0a12.285442 12.285442 0 0 0 0-17.064455zM761.226715 875.162721l-58.313608-58.313609-8.351204-8.351204c-4.465239-4.465239-12.659556-4.827285-17.064455 0a12.285442 12.285442 0 0 0 0 17.064454l58.313609 58.313609 8.351204 8.351204c4.465239 4.465239 12.659556 4.827285 17.064454 0a12.285442 12.285442 0 0 0 0-17.064454zM752.778965 418.646333c-3.318759 28.686144-30.170534 49.334858-58.63945 46.148849-26.779366-3.004985-47.126374-26.960389-46.571236-53.703551a53.534596 53.534596 0 0 1 19.598779-39.825105l-5.865152 1.5568 1.049934 0.33791-2.642939-10.149368c-8.858069 10.511414-21.095238 17.740274-34.889205 19.309142a53.727687 53.727687 0 0 1-36.68737-9.328729c-22.000354-15.290427-28.637871-46.112645-15.399041-69.259479a53.10014 53.10014 0 0 1 39.571673-26.308706c3.234281-0.374115 6.034107-2.510188 6.034107-6.034106 0-2.968781-2.775689-6.408221-6.034107-6.034107a66.097606 66.097606 0 0 0-45.979894 26.175955 64.190829 64.190829 0 0 0-12.249237 44.531709 64.806308 64.806308 0 0 0 114.153233 35.504684c2.956712-3.499782 1.89471-8.616705-2.667075-10.089026-5.225537-1.677482-9.014956 2.751553-12.309578 6.263403a67.099268 67.099268 0 0 0-7.880543 10.161436 63.285713 63.285713 0 0 0-8.737387 22.519286 64.85458 64.85458 0 0 0 95.954367 68.221612c18.319548-10.475209 29.844692-29.229214 32.258335-49.998609 0.374115-3.246349-3.04119-6.034107-6.034107-6.034107-3.620464 0-5.659992 2.787757-6.034107 6.034107zM208.96112 661.869112l15.362836 15.362836 36.880461 36.880461 44.652391 44.65239 38.618284 38.618284c6.227198 6.227198 12.273373 12.76817 18.741935 18.741936l0.265501 0.265501c5.503105 5.503105 14.035333-3.029122 8.532227-8.532227l-15.435245-15.423177-36.880461-36.880461-44.652391-44.652391-38.618284-38.618284c-6.227198-6.227198-12.273373-12.76817-18.741935-18.741936l-0.265501-0.2655c-5.503105-5.503105-14.035333 3.029122-8.532227 8.532227z" fill="#2CA6E0" p-id="5369"></path><path d="M218.579486 818.490389l15.362836-15.362836 36.89253-36.880461 44.65239-44.652391 38.618284-38.618284c6.227198-6.227198 12.76817-12.273373 18.741936-18.741935l0.265501-0.265501c5.503105-5.503105-3.029122-14.035333-8.532227-8.532227l-15.435246 15.435245-36.856324 36.880461-44.652391 44.652391-38.618284 38.618284c-6.227198 6.227198-12.76817 12.273373-18.741936 18.741936l-0.2655 0.2655c-5.503105 5.503105 3.029122 14.035333 8.532227 8.532227z" fill="#2CA6E0" p-id="5370"></path></svg>