<svg xmlns="http://www.w3.org/2000/svg" fill="none" viewBox="0 0 1600 1600" height="1600" width="1600">
<rect fill="white" height="1600" width="1600"></rect>
<path fill="black" d="M1491 1097C1493.76 1097 1496 1099.24 1496 1102C1496 1104.76 1493.76 1107 1491 1107H121C118.239 1107 116 1104.76 116 1102C116 1099.24 118.239 1097 121 1097H1491Z"></path>
<path fill="black" d="M654.161 394.585C813.105 389.82 818.944 511.476 785.495 557.098C758.737 593.595 738.459 570.337 731.665 554.146C757.005 428.268 681.773 443.375 640.99 466.664C580.834 500.869 570.307 558.041 575.332 602.395C693.435 576.41 790.442 676.7 843.713 765.022C851.196 764.346 858.798 763.999 866.497 763.998C865.711 761.566 864.769 759.153 863.75 756.771C862.399 753.611 860.983 750.662 859.63 747.738C858.318 744.9 857.042 742.039 856.179 739.386C855.339 736.805 854.686 733.832 855.148 730.922C855.652 727.753 857.402 725.128 860.297 723.37L860.58 723.203L860.947 723.004C862.79 722.056 864.848 721.773 866.687 721.744C868.718 721.711 870.96 721.984 873.299 722.452C877.982 723.388 883.633 725.223 889.844 727.707C902.301 732.691 917.632 740.535 933.149 749.971C948.674 759.413 964.525 770.534 977.99 782.128C979.789 783.678 981.553 785.242 983.273 786.817C1038.62 812.643 1075 861.303 1075 937.375C1075 1033.13 1039.07 1103 866.5 1103C833.606 1103 802.491 1097.29 774.823 1086.92C743.037 1089.64 709.258 1092.18 690.982 1093.47C635.303 1094.36 594.156 1088.44 564.135 1079.22C521.325 1080.33 484.267 1108.92 432.386 1090.09C420.858 1085.91 411.889 1081.38 405.003 1076.63C403.712 1078.05 402.385 1079.22 401.03 1080.11C373.293 1098.18 308.042 1103.69 286.238 1091.98C264.435 1080.26 303.956 1047.54 320.904 1034.6C337.85 1021.67 356.532 950.993 366.467 935.286C373.52 924.136 380.837 921.433 384.596 921.419C366.936 774.674 428.564 688.136 467.168 660.788C486.495 644.03 505.494 631.043 524.088 621.354C520.216 531.909 541.573 397.961 654.161 394.585Z"></path>
<path fill="white" d="M724.349 833.451C732.59 820.501 673.138 824.033 652.417 799.31C643.889 806.431 688.604 872.245 691.855 864.06C695.106 855.876 709.552 856.703 724.349 833.451Z" opacity="0.2"></path>
<path fill="white" d="M867.853 1006.34C877.247 1005.34 884.537 1004.81 888.071 1005.06C888.622 1005.1 889.036 1005.58 888.997 1006.13C888.957 1006.68 888.479 1007.1 887.929 1007.06C884.606 1006.82 877.504 1007.32 868.064 1008.33C858.662 1009.33 847.035 1010.81 834.727 1012.51C810.112 1015.9 782.798 1020.13 765.16 1022.99C764.615 1023.08 764.101 1022.71 764.013 1022.16C763.924 1021.62 764.295 1021.1 764.84 1021.01C782.488 1018.15 809.819 1013.92 834.454 1010.53C846.771 1008.83 858.421 1007.34 867.853 1006.34ZM1036.93 1000.06C1040.35 999.81 1047.41 1000.34 1056.5 1001.34C1065.62 1002.34 1076.9 1003.83 1088.81 1005.53C1112.65 1008.92 1139.09 1013.15 1156.16 1016.01C1156.71 1016.11 1157.08 1016.62 1156.99 1017.17C1156.89 1017.71 1156.38 1018.08 1155.83 1017.99C1138.77 1015.13 1112.34 1010.9 1088.53 1007.51C1076.62 1005.81 1065.38 1004.33 1056.28 1003.33C1047.15 1002.32 1040.28 1001.82 1037.07 1002.06C1036.52 1002.1 1036.04 1001.68 1036 1001.13C1035.96 1000.58 1036.38 1000.1 1036.93 1000.06ZM764.932 980.059C768.46 979.822 775.745 980.317 785.14 981.254C794.571 982.194 806.221 983.589 818.537 985.18C843.172 988.361 870.502 992.329 888.15 995.012C888.696 995.095 889.071 995.605 888.988 996.151C888.905 996.696 888.395 997.071 887.849 996.988C870.211 994.307 842.896 990.343 818.281 987.164C805.973 985.575 794.344 984.182 784.941 983.244C775.503 982.303 768.396 981.832 765.067 982.055C764.516 982.092 764.039 981.675 764.002 981.124C763.965 980.573 764.382 980.096 764.932 980.059ZM1136.51 974.255C1145.6 973.319 1152.65 972.822 1156.07 973.059C1156.62 973.097 1157.04 973.575 1157 974.126C1156.96 974.677 1156.48 975.093 1155.93 975.055C1152.72 974.832 1145.85 975.303 1136.71 976.244C1127.62 977.182 1116.37 978.574 1104.46 980.163C1080.65 983.342 1054.22 987.307 1037.16 989.988C1036.61 990.074 1036.1 989.701 1036.01 989.155C1035.93 988.61 1036.3 988.098 1036.84 988.012C1053.92 985.329 1080.36 981.362 1104.2 978.181C1116.11 976.59 1127.38 975.195 1136.51 974.255Z"></path>
<path fill="white" d="M841.74 926.488C845.034 905.38 867.189 891.307 883.677 893.88C906.909 897.505 915.577 925.598 912.283 946.707C908.99 967.816 887.488 972.778 871.75 970.322C846.269 966.347 838.447 947.597 841.74 926.488ZM1026.48 894.486C1040.37 891.063 1059.86 903.646 1063.66 924.159C1067.46 944.673 1061.7 963.482 1040.24 968.773C1026.98 972.042 1008.48 968.353 1004.68 947.84C1000.88 927.326 1006.91 899.311 1026.48 894.486Z"></path>
<path fill="#FED43E" d="M854.436 923.863C857.084 906.893 872.215 893.626 887.943 896.08C906.335 898.95 914.886 925.123 912.238 942.093C909.59 959.063 893.849 961.486 878.121 959.033C862.393 956.579 851.789 940.832 854.436 923.863ZM1005.24 920.687C1008.3 904.195 1021.78 892.017 1035.03 895.283C1050.52 899.103 1056.55 925.229 1053.49 941.721C1050.44 958.212 1036.95 959.727 1023.7 956.461C1010.45 953.195 1002.19 937.178 1005.24 920.687Z"></path>
<path fill="black" d="M903.299 926.115C906.228 925.977 908.848 931.076 909.151 937.503C909.453 943.93 907.325 949.252 904.396 949.39C901.467 949.528 898.847 944.43 898.544 938.003C898.242 931.576 900.37 926.253 903.299 926.115ZM1017.28 922.728C1019.78 922.945 1021.69 928.157 1021.54 934.37C1021.39 940.582 1019.24 945.443 1016.73 945.226C1014.22 945.009 1012.31 939.796 1012.46 933.584C1012.62 927.371 1014.77 922.511 1017.28 922.728Z"></path>
<path fill="#FFCFC2" d="M986 961.913C986 966.884 977.046 967 966 967C954.954 967 946 966.884 946 961.913C946 956.942 954.954 949 966 949C977.046 949 986 956.942 986 961.913Z"></path>
<path fill="#FFD666" d="M1197.72 1074.85L1163.38 1077.68C1160.89 1077.88 1158.4 1077.5 1156.09 1076.55C1153.78 1075.61 1151.73 1074.13 1150.11 1072.25C1148.48 1070.36 1147.33 1068.12 1146.75 1065.71C1146.16 1063.3 1146.16 1060.78 1146.74 1058.37L1154.9 1024.54C1155.68 1021.32 1155.41 1017.94 1154.14 1014.87L1140.74 982.671C1139.79 980.386 1139.39 977.912 1139.59 975.448C1139.78 972.985 1140.55 970.604 1141.85 968.498C1143.14 966.393 1144.92 964.623 1147.03 963.333C1149.15 962.043 1151.54 961.269 1154.01 961.075L1188.57 958.367C1191.92 958.104 1195.08 956.785 1197.61 954.604L1223.79 932.066C1225.67 930.441 1227.92 929.287 1230.35 928.7C1232.78 928.113 1235.31 928.11 1237.74 928.691C1240.17 929.273 1242.43 930.422 1244.33 932.043C1246.23 933.665 1247.71 935.712 1248.66 938.016L1261.81 969.957C1263.08 973.047 1265.31 975.654 1268.17 977.399L1297.76 995.457C1299.88 996.749 1301.66 998.52 1302.96 1000.63C1304.27 1002.73 1305.05 1005.12 1305.25 1007.58C1305.45 1010.04 1305.07 1012.52 1304.12 1014.8C1303.18 1017.08 1301.71 1019.11 1299.83 1020.72L1273.31 1043.38C1270.79 1045.53 1269.02 1048.43 1268.25 1051.65L1260.23 1085.51C1259.65 1087.92 1258.51 1090.17 1256.9 1092.05C1255.28 1093.94 1253.24 1095.42 1250.94 1096.37C1248.64 1097.31 1246.14 1097.7 1243.66 1097.5C1241.17 1097.3 1238.77 1096.51 1236.65 1095.2L1207.31 1077.14C1204.44 1075.38 1201.08 1074.57 1197.72 1074.85Z"></path>
<path fill="white" d="M646.1 941.595C646.516 939.991 648.153 939.029 649.757 939.444C651.361 939.86 652.324 941.497 651.908 943.101C650.036 950.321 644.523 956.746 639.442 961.336C636.856 963.673 634.276 965.628 632.129 967.072C630.126 968.419 628.236 969.5 627.026 969.905L627.027 969.906C612.114 975.057 597.543 980.25 584.817 986.144C572.063 992.05 561.411 998.55 554.187 1006.2C548.872 1011.83 543.012 1014.04 537.047 1014.32C531.253 1014.59 525.476 1013.02 520.286 1011.44C514.891 1009.8 510.25 1008.19 505.986 1007.8C501.944 1007.42 498.674 1008.19 495.859 1011.05C495.154 1011.77 494.422 1013.83 495.324 1018C496.181 1021.96 498.38 1027.06 502.16 1032.78C509.701 1044.18 523.267 1057.62 543.71 1068.71C584.518 1090.87 652.847 1103.74 755.114 1072.13C756.697 1071.64 758.377 1072.53 758.866 1074.11C759.355 1075.7 758.469 1077.38 756.886 1077.87C653.428 1109.84 583.371 1097.07 540.848 1073.99C519.625 1062.47 505.289 1048.39 497.155 1036.09C493.099 1029.96 490.518 1024.16 489.459 1019.27C488.445 1014.58 488.662 1009.82 491.579 1006.85C496.008 1002.34 501.268 1001.33 506.54 1001.82C511.589 1002.29 517.046 1004.18 522.033 1005.7C527.224 1007.28 532.112 1008.54 536.767 1008.32C541.251 1008.11 545.625 1006.53 549.825 1002.08C557.825 993.61 569.287 986.723 582.295 980.699C595.331 974.662 610.169 969.38 625.068 964.234L625.13 964.214C625.13 964.214 625.16 964.203 625.226 964.176C625.29 964.15 625.376 964.112 625.483 964.061C625.7 963.958 625.976 963.815 626.31 963.629C626.976 963.257 627.817 962.741 628.78 962.093C630.708 960.797 633.06 959.017 635.42 956.885C640.233 952.537 644.675 947.089 646.1 941.595Z"></path>
<path fill="white" d="M376 855C376 853.343 377.343 852 379 852C380.657 852 382 853.343 382 855C382 863.822 382.79 878.574 385.165 893.998C387.55 909.485 391.487 925.336 397.632 936.56C398.427 938.013 397.894 939.836 396.44 940.632C394.987 941.427 393.164 940.894 392.368 939.44C385.713 927.284 381.651 910.598 379.235 894.911C376.81 879.162 376 864.103 376 855Z"></path>
<path fill="black" d="M335.42 921.708C336.309 919.093 334.909 916.254 332.295 915.365C329.681 914.476 326.841 915.875 325.952 918.49C323.483 925.754 317.934 937.925 309.434 950.275C300.925 962.637 289.675 974.861 275.925 982.636C273.522 983.995 272.675 987.046 274.034 989.45C275.393 991.854 278.444 992.7 280.848 991.341C296.376 982.561 308.659 969.039 317.672 955.945C326.693 942.838 332.655 929.842 335.42 921.708ZM310.713 919.612C311.526 916.973 310.046 914.173 307.407 913.36C304.768 912.548 301.969 914.029 301.156 916.668C298.157 926.403 286.97 949.633 267.022 963.269C264.742 964.827 264.158 967.938 265.716 970.218C267.274 972.497 270.385 973.082 272.665 971.524C295.114 956.179 307.316 930.64 310.713 919.612Z"></path>
</svg>
