<svg xmlns="http://www.w3.org/2000/svg" fill="none" viewBox="0 0 1600 1600" height="1600" width="1600">
<rect fill="white" height="1600" width="1600"></rect>
<path fill="#D9D9D9" d="M1245 1075C1245 1125.81 1034.8 1167 775.5 1167C516.202 1167 306 1125.81 306 1075C306 1024.19 516.202 983 775.5 983C1034.8 983 1245 1024.19 1245 1075Z"></path>
<path fill="black" d="M691.916 360.236C696.257 357.824 700.768 359.651 703.859 361.649C707.159 363.783 710.612 367.19 714.077 371.244C721.068 379.423 729.075 391.397 737.188 404.762C751.657 428.593 766.867 457.526 777.875 479.044C801.653 496.631 820.707 519.851 832.641 547.94C840.231 565.808 844.404 584.381 845.445 603.079C846.243 605.226 847.036 607.364 847.828 609.486C864.211 653.41 879.995 690.995 929.898 701.04C947.808 700.688 965.567 703.582 982.512 709.178C1000.86 701.06 1019.48 705.345 1014.91 688.371C1007.02 659.126 989.802 561.071 1029.44 548.33C1045.22 543.263 1109.44 693.618 1099.38 739.983C1095.12 759.583 1087.43 773.536 1078.03 783.503C1096.87 812.743 1107.09 847.598 1103.81 884.208C1183.72 869.292 1291.29 796.07 1263.53 737.875C1224.09 655.213 1171.76 618.125 1212.82 580.145C1262.98 533.751 1335.38 599.895 1346.39 701.402C1361.23 838.262 1178.38 952.674 1083.06 950.034C1035.99 1038.34 941.678 1090.59 842.702 1104.69C743.626 1118.81 638.732 1094.86 570.481 1029.35C537.469 1126.1 426.481 1098.25 458.781 1075.63C485.027 1057.26 473.523 925.114 460.2 857.402C445.193 814.448 438.93 773.183 438.509 735.865C435.424 730.44 432.627 724.796 430.14 718.941C419.093 692.939 415.285 665.443 417.832 638.24C409.807 614.974 399.066 580.871 392.079 551.629C388.492 536.615 385.836 522.65 385.102 512.023C384.737 506.755 384.816 501.948 385.664 498.133C385.787 497.578 385.94 497.004 386.123 496.423C386.629 493.942 387.518 492.217 388.845 491.391C389.902 490.219 391.262 489.267 393.012 488.735C397.546 487.357 405.596 486.406 415.2 485.729C424.989 485.04 436.918 484.608 449.544 484.42C470.582 484.107 493.72 484.47 512.342 485.481C526.25 475.816 541.473 467.357 557.871 460.391C573.302 453.835 588.962 448.946 604.599 445.642C617.093 431.208 633.633 413.601 649.121 398.113C658.121 389.114 666.808 380.787 674.178 374.187C681.412 367.71 687.746 362.555 691.916 360.236Z"></path>
<path fill="white" d="M408.024 517.996C426.747 520.46 472.869 527.788 467.524 535.287C451.681 557.516 432.196 595.235 429.876 603.643C427.556 612.048 400.395 525.925 408.024 517.996ZM702.077 393.074C713.081 393.089 756.213 472.424 748.552 468.26C740.89 464.093 700.214 451.933 673.216 447.905C664.108 446.546 690.853 408.26 702.077 393.074Z" opacity="0.2"></path>
<path fill="white" d="M579.487 699.869C580.009 699.69 580.577 699.968 580.756 700.49C580.935 701.012 580.658 701.581 580.136 701.761C577.108 702.8 571.007 705.915 563.02 710.352C555.066 714.772 545.323 720.456 535.055 726.582C514.52 738.834 491.907 752.84 477.354 761.999C476.886 762.292 476.269 762.152 475.975 761.684C475.681 761.217 475.822 760.6 476.289 760.306C490.852 751.141 513.478 737.127 534.031 724.865C544.306 718.734 554.069 713.037 562.049 708.603C569.996 704.188 576.258 700.977 579.487 699.869ZM575.192 689.532C575.728 689.4 576.269 689.728 576.402 690.264C576.534 690.8 576.207 691.342 575.671 691.474C558.976 695.592 533.197 702.144 510.123 708.42C498.586 711.558 487.73 714.624 479.028 717.281C470.289 719.949 463.812 722.179 460.961 723.637C460.47 723.888 459.867 723.693 459.616 723.201C459.365 722.71 459.559 722.108 460.05 721.856C463.089 720.302 469.748 718.024 478.443 715.369C487.174 712.703 498.052 709.63 509.598 706.49C532.692 700.209 558.486 693.652 575.192 689.532ZM828.711 616.636C829.248 616.507 829.788 616.837 829.917 617.374C830.046 617.911 829.716 618.451 829.179 618.58C813.036 622.463 788.111 628.653 765.808 634.601C754.655 637.576 744.164 640.487 735.756 643.019C727.311 645.563 721.063 647.696 718.323 649.106C717.832 649.359 717.23 649.165 716.977 648.675C716.724 648.184 716.917 647.581 717.408 647.328C720.343 645.817 726.781 643.634 735.18 641.104C743.617 638.563 754.131 635.644 765.292 632.668C787.616 626.714 812.557 620.521 828.711 616.636ZM812.853 579.538C813.376 579.36 813.944 579.64 814.122 580.163C814.3 580.685 814.021 581.253 813.498 581.431C810.581 582.425 804.708 585.441 797.015 589.754C789.356 594.048 779.977 599.577 770.094 605.54C750.329 617.464 728.57 631.108 714.569 640.032C714.103 640.328 713.485 640.191 713.189 639.725C712.892 639.26 713.029 638.641 713.494 638.345C727.505 629.415 749.278 615.762 769.061 603.827C778.951 597.86 788.351 592.318 796.037 588.01C803.689 583.72 809.728 580.602 812.853 579.538Z"></path>
<path fill="white" d="M522.531 612.065C535.811 602.739 561.185 605.501 573.125 622.503C585.065 639.505 586.294 659.223 565.771 673.636C553.095 682.538 532.204 687.444 520.264 670.442C508.324 653.44 503.819 625.207 522.531 612.065ZM678.067 544.074C692.1 535.344 717.745 539.591 728.922 557.558C740.099 575.524 740.23 595.645 718.542 609.137C705.147 617.47 683.625 621.273 672.448 603.307C661.271 585.34 658.293 556.376 678.067 544.074Z"></path>
<path fill="#FED43E" d="M530.584 615.114C543.252 606.218 562.151 611.293 571.75 624.961C581.349 638.629 578.861 656.922 566.193 665.818C553.525 674.715 538.749 679.363 529.15 665.694C519.551 652.026 515.77 625.518 530.584 615.114ZM687.162 547.652C700.548 539.325 719.478 545.559 728.463 560.002C737.449 574.446 733.881 592.905 720.495 601.233C707.108 609.562 691.82 613.449 682.835 599.005C673.849 584.561 671.507 557.391 687.162 547.652Z"></path>
<path fill="black" d="M564.048 626.469C566.854 625.965 570.044 630.649 571.172 636.931C572.3 643.213 570.939 648.714 568.133 649.218C565.326 649.722 562.136 645.038 561.008 638.756C559.88 632.474 561.241 626.973 564.048 626.469ZM713.738 564.08C716.597 563.567 719.827 568.235 720.953 574.507C722.079 580.78 720.675 586.28 717.816 586.793C714.958 587.307 711.728 582.638 710.602 576.366C709.475 570.094 710.88 564.593 713.738 564.08Z"></path>
<path fill="#FFCFC2" d="M610.867 645.681C612.822 650.283 621.19 646.855 631.455 642.494C641.72 638.133 649.996 634.49 648.041 629.888C646.086 625.287 634.64 621.469 624.375 625.83C614.11 630.191 608.912 641.08 610.867 645.681Z"></path>
<path fill="white" d="M815.847 847.626C818.121 846.999 820.498 847.137 822.763 848.154C824.923 849.122 826.699 850.757 828.18 852.676C831.716 857.255 834.423 864.227 836.544 872.347C838.7 880.603 840.379 890.581 841.58 901.594C843.982 923.629 844.508 950.191 842.927 976.188C841.348 1002.15 837.653 1027.81 831.5 1047.95C828.426 1058.01 824.673 1066.91 820.116 1073.83C815.585 1080.71 809.941 1086.1 802.929 1088.24C800.287 1089.04 797.493 1087.56 796.687 1084.91C795.882 1082.27 797.37 1079.48 800.012 1078.67C803.918 1077.48 807.9 1074.2 811.764 1068.33C815.603 1062.5 819.015 1054.59 821.936 1045.03C827.773 1025.92 831.393 1001.12 832.946 975.58C834.497 950.073 833.973 924.081 831.639 902.678C830.472 891.972 828.863 882.508 826.869 874.873C824.839 867.102 822.537 861.731 820.264 858.787C819.423 857.697 818.861 857.362 818.671 857.277C818.587 857.239 818.602 857.24 818.507 857.266C817.903 857.432 816.378 858.398 814.095 861.578C809.724 867.665 805.148 878.089 800.401 889.63C795.79 900.84 791.057 913.001 786.515 921.529C784.282 925.725 781.795 929.639 779.008 932.114C777.583 933.38 775.722 934.594 773.446 934.976C771.284 935.338 769.229 934.868 767.451 933.793C743.044 925.474 725.348 924.329 712.157 927.44C699.021 930.538 689.767 937.994 682.484 948.088C675.095 958.329 669.842 971.13 664.802 984.701C659.85 998.031 655.059 1012.26 648.662 1024.25C647.362 1026.69 644.333 1027.61 641.896 1026.31C639.46 1025.01 638.539 1021.98 639.839 1019.54C645.824 1008.32 650.297 995.03 655.427 981.219C660.467 967.65 666.112 953.689 674.375 942.238C682.744 930.639 693.898 921.471 709.86 917.706C725.663 913.979 745.578 915.689 771.287 924.534L772.007 924.782L772.105 924.855C772.182 924.795 772.27 924.724 772.367 924.638C773.735 923.423 775.535 920.875 777.689 916.829C781.925 908.874 786.381 897.427 791.152 885.826C795.787 874.557 800.788 862.963 805.971 855.745C808.464 852.274 811.713 848.767 815.847 847.626ZM810.244 735.006C813.002 735.141 815.129 737.486 814.994 740.244C813.988 760.849 804.221 796.433 791.014 828.034C784.384 843.9 776.784 859.012 768.807 870.924C761.005 882.575 752.219 892.13 742.898 895.427C737.418 897.365 732.225 897.689 727.802 895.398C723.41 893.123 721 888.898 719.63 884.53C716.962 876.026 717.245 863.641 717.777 851.565C718.33 839.012 719.204 826.251 718.332 815.585C717.899 810.285 717.052 805.84 715.684 802.409C714.331 799.015 712.602 796.936 710.556 795.79C708.147 794.441 707.288 791.394 708.637 788.985C709.987 786.576 713.034 785.716 715.443 787.066C720.093 789.67 723.069 793.93 724.973 798.705C726.863 803.444 727.827 809 728.299 814.771C729.237 826.248 728.3 839.915 727.767 852.005C727.214 864.571 727.134 875.042 729.172 881.537C730.154 884.669 731.363 885.981 732.401 886.519C733.406 887.039 735.452 887.453 739.563 885.999C745.588 883.868 752.831 876.809 760.499 865.36C767.992 854.17 775.304 839.693 781.788 824.178C794.81 793.018 804.082 758.675 805.006 739.756C805.141 736.998 807.486 734.871 810.244 735.006Z"></path>
</svg>
