<svg xmlns="http://www.w3.org/2000/svg" fill="none" viewBox="0 0 1600 1600" height="1600" width="1600">
<rect fill="white" height="1600" width="1600"></rect>
<path fill="#D9D9D9" d="M1287 1194C1287 1261.93 1068.96 1317 800 1317C531.037 1317 313 1261.93 313 1194C313 1126.07 531.037 1071 800 1071C1068.96 1071 1287 1126.07 1287 1194Z"></path>
<path fill="black" d="M648.639 545.041L649.082 545.082L649.946 545.198C654.428 545.879 661.314 547.985 669.247 550.793C677.882 553.849 688.247 557.919 699.114 562.455C717.985 570.331 738.533 579.683 754.364 587.693C768.731 585.079 783.656 583.779 798.958 583.947C815.237 584.126 831.045 585.956 846.17 589.248C861.842 581.755 881.732 573.182 900.029 565.958C910.914 561.661 921.291 557.817 929.926 554.949C937.856 552.315 944.739 550.357 949.207 549.773L950.067 549.676L950.505 549.644C954.976 549.427 958.108 552.573 959.999 555.293C962.092 558.305 963.857 562.435 965.395 567.089C968.5 576.482 971.124 589.409 973.314 603.545C977.352 629.6 980.032 660.569 981.393 683.118C1022.34 733.534 1009.03 829.14 1009.03 945.538C1009.03 1021.9 1041.3 1034.56 1042.93 1082.89C1106.98 1079.31 1163.17 1069.67 1160.79 1051.28C1155.83 1012.79 1037.78 1025.91 1083.43 993.541C1143.76 950.767 1276.48 1026.33 1195.57 1086.21C1158.2 1110.35 1095.26 1124.39 1036.39 1130.06C996.453 1242.58 639.489 1281.89 575.475 1104.08C558.257 1056.25 551 1005.13 551 927.022C551 829.224 568.827 744.409 609.087 692.4C611.357 687.593 613.87 682.895 616.61 678.315C618.496 655.918 621.406 625.351 625.494 599.52C627.761 585.202 630.426 572.092 633.558 562.588C635.108 557.88 636.886 553.703 638.995 550.667C640.9 547.925 644.093 544.728 648.639 545.041Z"></path>
<path fill="white" d="M947.499 580.41C956.814 584.511 963.732 667.891 958.798 661.508C953.864 655.122 923.954 629.682 902.593 616.229C895.387 611.689 932.326 589.13 947.499 580.41ZM651.84 577.17C666.777 586.22 703.104 609.583 695.778 613.963C674.064 626.944 643.486 651.72 638.382 657.996C633.28 664.271 642.419 581.065 651.84 577.17Z" opacity="0.2"></path>
<path fill="white" d="M704.844 801.301C715.514 800.503 723.751 800.106 727.715 800.361C728.265 800.397 728.679 800.872 728.639 801.423C728.598 801.973 728.119 802.391 727.568 802.356C723.771 802.112 715.68 802.495 704.975 803.296C694.299 804.094 681.095 805.303 667.119 806.691C639.167 809.468 608.144 812.964 588.108 815.336C587.56 815.4 587.066 815.008 587.006 814.46C586.946 813.911 587.343 813.414 587.892 813.349C607.935 810.977 638.971 807.48 666.939 804.702C680.922 803.313 694.144 802.102 704.844 801.301ZM864.425 796.692C868.199 796.504 875.999 797.042 886.082 798.02C896.197 799.002 908.688 800.436 921.895 802.061C948.309 805.313 977.609 809.334 996.526 812.046C997.072 812.124 997.448 812.63 997.366 813.176C997.284 813.723 996.775 814.103 996.229 814.025C977.32 811.315 948.035 807.295 921.638 804.046C908.438 802.421 895.965 800.99 885.875 800.01C875.754 799.028 868.108 798.509 864.51 798.689C863.958 798.717 863.492 798.292 863.468 797.741C863.444 797.19 863.873 796.72 864.425 796.692ZM588.617 775.967C592.589 775.778 600.809 776.312 611.447 777.288C622.116 778.266 635.291 779.696 649.222 781.317C677.084 784.56 707.988 788.572 727.942 791.277C728.489 791.351 728.868 791.855 728.789 792.402C728.71 792.949 728.202 793.332 727.655 793.259C707.709 790.554 676.818 786.544 648.972 783.303C635.049 781.683 621.892 780.255 611.247 779.279C600.573 778.3 592.499 777.783 588.693 777.965C588.142 777.991 587.678 777.565 587.656 777.013C587.635 776.462 588.065 775.994 588.617 775.967ZM975.38 774.305C985.492 773.51 993.308 773.114 997.074 773.371C997.625 773.409 998.037 773.886 997.996 774.436C997.955 774.987 997.475 775.403 996.925 775.366C993.333 775.121 985.672 775.501 975.523 776.299C965.404 777.094 952.889 778.298 939.641 779.682C913.146 782.451 883.741 785.937 864.75 788.302C864.202 788.37 863.705 787.981 863.641 787.433C863.576 786.885 863.968 786.385 864.517 786.317C883.516 783.951 912.936 780.463 939.447 777.693C952.702 776.308 965.237 775.103 975.38 774.305Z"></path>
<path fill="white" d="M842.707 728.236C846.976 709.453 867.743 698.132 882.387 701.435C903.021 706.09 909.057 731.87 904.788 750.653C900.519 769.435 880.906 772.606 866.928 769.452C844.297 764.347 838.438 747.018 842.707 728.236ZM686.494 727.58C689.771 708.241 710.25 695.549 725.33 698.076C746.579 701.636 754.179 727.506 750.902 746.845C747.625 766.185 727.857 770.522 713.463 768.111C690.157 764.206 683.217 746.92 686.494 727.58Z"></path>
<path fill="#FED43E" d="M844.748 729.854C848.18 714.755 862.589 703.736 876.558 706.887C892.894 710.572 898.945 734.619 895.513 749.719C892.082 764.818 877.797 766.052 863.828 762.9C849.859 759.749 841.316 744.954 844.748 729.854ZM687.746 729.512C690.38 713.964 704.411 701.941 718.797 704.352C735.619 707.17 743.135 731.277 740.501 746.824C737.866 762.371 723.409 764.438 709.023 762.027C694.638 759.617 685.111 745.059 687.746 729.512Z"></path>
<path fill="black" d="M851.875 728.427C854.456 727.869 857.549 732.102 858.785 737.882C860.021 743.663 858.929 748.803 856.348 749.362C853.768 749.92 850.675 745.687 849.439 739.907C848.204 734.126 849.294 728.986 851.875 728.427ZM701.788 727.809C704.416 727.24 707.546 731.458 708.78 737.229C710.014 743.001 708.883 748.141 706.255 748.711C703.626 749.28 700.496 745.062 699.263 739.291C698.029 733.519 699.16 728.378 701.788 727.809Z"></path>
<path fill="#FFCFC2" d="M818.503 761.413C818.441 766.045 810.072 766.062 799.751 765.949C789.429 765.836 781.064 765.636 781.126 761.003C781.187 756.37 789.653 749.059 799.975 749.172C810.296 749.285 818.564 756.78 818.503 761.413Z"></path>
<path fill="white" d="M825.949 1048.49C826.385 1045.77 828.95 1043.91 831.676 1044.35C834.403 1044.78 836.259 1047.35 835.823 1050.07C831.294 1078.37 825.937 1121.03 824.555 1157.07C823.863 1175.13 824.181 1191.27 826.013 1203.04C826.934 1208.95 828.189 1213.42 829.685 1216.41C831.21 1219.46 832.509 1220.09 833.143 1220.21C837.857 1221.1 844.488 1218.52 852.638 1211.22C860.535 1204.15 868.781 1193.59 876.411 1181.26C891.722 1156.51 903.796 1125.85 905.743 1104.4C905.992 1101.65 908.424 1099.62 911.174 1099.87C913.924 1100.12 915.952 1102.55 915.702 1105.3C913.565 1128.85 900.685 1161.03 884.914 1186.52C877.003 1199.31 868.174 1210.73 859.308 1218.67C850.694 1226.38 840.869 1231.85 831.282 1230.03C826.194 1229.07 822.878 1225.16 820.741 1220.89C818.574 1216.55 817.12 1210.91 816.133 1204.58C814.151 1191.84 813.862 1174.94 814.562 1156.69C815.964 1120.1 821.385 1077.01 825.949 1048.49ZM753.945 1042.21C756.614 1041.5 759.352 1043.09 760.061 1045.76C767.475 1073.67 777.211 1115.99 782.294 1152.26C784.83 1170.34 786.247 1187.19 785.558 1200.06C785.215 1206.46 784.337 1212.22 782.618 1216.75C780.922 1221.22 778.016 1225.44 773.052 1226.91C763.696 1229.69 753.37 1225.24 744.023 1218.43C734.401 1211.43 724.467 1200.96 715.307 1189.03C697.047 1165.26 680.991 1134.54 676.491 1111.33C675.966 1108.62 677.737 1105.99 680.448 1105.47C683.158 1104.94 685.782 1106.71 686.308 1109.42C690.406 1130.57 705.509 1159.86 723.237 1182.94C732.07 1194.44 741.339 1204.11 749.909 1210.35C758.753 1216.79 765.609 1218.69 770.209 1217.33C770.827 1217.14 772.058 1216.39 773.268 1213.2C774.455 1210.08 775.253 1205.5 775.573 1199.52C776.21 1187.63 774.9 1171.55 772.391 1153.64C767.384 1117.92 757.754 1076.02 750.397 1048.33C749.688 1045.66 751.276 1042.92 753.945 1042.21Z"></path>
<path fill="black" d="M597 1075.07C611.392 1063.47 611.265 1079.61 619.425 1086.86C630.226 1096.44 639.299 1095.96 643.071 1122.06C646.843 1148.16 640.233 1197.39 602.513 1213.26C564.794 1229.12 542.162 1171.8 540.421 1153.89C538.68 1135.98 542.182 1118.12 553.768 1109.87C565.079 1101.82 562.261 1086.32 570.307 1078.66C579.257 1070.13 586.845 1083.26 597 1075.07ZM1007.57 1086.86C1015.73 1079.61 1015.61 1063.47 1030 1075.07C1040.15 1083.26 1047.74 1070.13 1056.69 1078.66C1064.74 1086.32 1061.92 1101.82 1073.23 1109.87C1084.82 1118.12 1088.32 1135.98 1086.58 1153.89C1084.84 1171.8 1062.21 1229.12 1024.49 1213.26C986.767 1197.39 980.156 1148.16 983.928 1122.06C987.7 1095.96 996.773 1096.44 1007.57 1086.86Z"></path>
<path fill="white" d="M605.41 1063C611.013 1062.99 614.666 1066.23 616.802 1068.91C618.69 1071.27 620.395 1074.54 621.427 1076.32C622.727 1078.57 623.72 1079.97 624.737 1080.87C627.03 1082.91 629.21 1084.4 631.754 1086.19C634.196 1087.91 637.056 1089.97 639.707 1092.78C645.342 1098.76 648.973 1106.97 650.99 1120.92C653.037 1135.09 652.268 1155.19 645.936 1174.04C639.582 1192.96 627.275 1211.52 605.615 1220.63C594.08 1225.48 583.256 1224.8 573.805 1220.46C564.653 1216.26 557.252 1208.86 551.502 1200.94C540.118 1185.26 533.474 1165.11 532.459 1154.66C531.521 1145.01 531.956 1135.05 534.379 1126.16C536.798 1117.27 541.37 1108.88 549.128 1103.36C552.376 1101.05 553.903 1097.6 555.586 1091.86C556.342 1089.29 557.257 1085.8 558.473 1082.71C559.747 1079.46 561.618 1075.88 564.791 1072.86C568.357 1069.47 572.317 1067.85 576.467 1067.66C580.094 1067.5 583.454 1068.5 585.348 1069.03C587.681 1069.68 588.719 1069.91 589.614 1069.89C590.108 1069.88 590.794 1069.8 591.98 1068.84C595.992 1065.61 600.483 1063.01 605.41 1063ZM1021.59 1063C1026.52 1063.01 1031.01 1065.61 1035.02 1068.84C1036.21 1069.8 1036.89 1069.88 1037.39 1069.89C1038.28 1069.91 1039.32 1069.68 1041.65 1069.03C1043.55 1068.5 1046.91 1067.5 1050.53 1067.66C1054.68 1067.85 1058.64 1069.47 1062.21 1072.86C1065.38 1075.88 1067.25 1079.46 1068.53 1082.71C1069.74 1085.8 1070.66 1089.29 1071.41 1091.86C1073.1 1097.6 1074.62 1101.05 1077.87 1103.36C1085.63 1108.88 1090.2 1117.27 1092.62 1126.16C1095.04 1135.05 1095.48 1145.01 1094.54 1154.66C1093.53 1165.11 1086.88 1185.26 1075.5 1200.94C1069.75 1208.86 1062.35 1216.26 1053.2 1220.46C1043.74 1224.8 1032.92 1225.48 1021.39 1220.63C999.726 1211.52 987.418 1192.96 981.065 1174.04C974.733 1155.19 973.963 1135.09 976.011 1120.92C978.027 1106.97 981.659 1098.76 987.293 1092.78C989.945 1089.97 992.805 1087.91 995.246 1086.19C997.79 1084.4 999.971 1082.91 1002.26 1080.87C1003.28 1079.97 1004.27 1078.57 1005.57 1076.32C1006.61 1074.54 1008.31 1071.27 1010.2 1068.91C1012.33 1066.23 1015.99 1062.99 1021.59 1063ZM619.426 1086.86C611.266 1079.61 611.392 1063.47 597.001 1075.07C586.846 1083.26 579.257 1070.13 570.307 1078.66L569.938 1079.02C562.345 1086.8 564.903 1101.95 553.769 1109.87L553.232 1110.27C542.075 1118.68 538.707 1136.25 540.421 1153.89L540.519 1154.76C542.874 1173.57 565.384 1228.87 602.514 1213.26C639.644 1197.64 646.629 1149.69 643.24 1123.3L643.072 1122.06C639.359 1096.37 630.509 1096.43 619.931 1087.3L619.426 1086.86ZM1030 1075.07C1015.61 1063.47 1015.73 1079.61 1007.57 1086.86L1007.07 1087.3C996.491 1096.43 987.642 1096.37 983.929 1122.06L983.76 1123.3C980.371 1149.69 987.357 1197.64 1024.49 1213.26C1061.62 1228.87 1084.13 1173.57 1086.48 1154.76L1086.58 1153.89C1088.29 1136.26 1084.93 1118.68 1073.77 1110.27L1073.23 1109.87C1062.1 1101.95 1064.66 1086.8 1057.06 1079.02L1056.69 1078.66C1047.74 1070.13 1040.15 1083.26 1030 1075.07Z"></path>
<path fill="#FF8F8E" d="M591.742 1141.84C604.721 1136.29 616.825 1143.21 618.778 1157.29C620.731 1171.36 611.794 1187.27 598.815 1192.82C585.837 1198.36 573.732 1191.45 571.778 1177.37C569.825 1163.29 578.764 1147.38 591.742 1141.84ZM1008.12 1157.29C1010.08 1143.21 1022.18 1136.29 1035.16 1141.84C1048.14 1147.38 1057.08 1163.29 1055.12 1177.37C1053.17 1191.45 1041.07 1198.36 1028.09 1192.82C1015.11 1187.27 1006.17 1171.36 1008.12 1157.29ZM561 1133C564.314 1133 567 1137.92 567 1144C567 1150.08 564.314 1155 561 1155C557.686 1155 555 1150.08 555 1144C555 1137.92 557.686 1133 561 1133ZM1066.5 1133C1070.09 1133 1073 1137.92 1073 1144C1073 1150.08 1070.09 1155 1066.5 1155C1062.91 1155 1060 1150.08 1060 1144C1060 1137.92 1062.91 1133 1066.5 1133ZM586.5 1110C590.09 1110 593 1115.15 593 1121.5C593 1127.85 590.09 1133 586.5 1133C582.91 1133 580 1127.85 580 1121.5C580 1115.15 582.91 1110 586.5 1110ZM1040 1110C1043.31 1110 1046 1115.15 1046 1121.5C1046 1127.85 1043.31 1133 1040 1133C1036.69 1133 1034 1127.85 1034 1121.5C1034 1115.15 1036.69 1110 1040 1110ZM611 1105C614.314 1105 617 1109.92 617 1116C617 1122.08 614.314 1127 611 1127C607.686 1127 605 1122.08 605 1116C605 1109.92 607.686 1105 611 1105ZM1015.5 1105C1019.09 1105 1022 1109.92 1022 1116C1022 1122.08 1019.09 1127 1015.5 1127C1011.91 1127 1009 1122.08 1009 1116C1009 1109.92 1011.91 1105 1015.5 1105Z" opacity="0.4"></path>
<path fill="black" d="M987.071 326.653C1046.94 332.476 1099.64 362.584 1135.39 409.924C1171.14 457.265 1185.68 516.186 1174.89 575.368C1173.85 582.808 1167.67 586.371 1162 586.212C1158.28 585.693 1155.44 583.4 1153.84 581.281C1152.24 579.161 1150.81 575.801 1151.33 572.081C1160.54 519.633 1148.15 467.966 1116.14 425.572C1084.12 383.177 1037.82 357.121 984.853 351.629C977.945 351.298 973.142 344.939 973.474 338.032C973.805 331.125 980.164 326.322 987.071 326.653ZM604.899 330.053C612.371 329.278 617.312 334.43 618.517 339.97C618.904 343.707 617.359 347.015 615.685 349.077C614.01 351.139 611.091 353.33 607.355 353.717C554.228 357.342 507.035 381.752 473.548 422.994C440.061 464.235 425.862 515.435 433.223 568.174C434.556 574.96 429.533 581.146 422.747 582.48C415.962 583.813 409.776 578.79 408.442 572.004C399.748 512.48 416.35 454.107 453.743 408.054C491.137 362.001 544.857 333.766 604.899 330.053ZM973.304 393.64C1016 400.228 1052.91 421.18 1077.45 453.682C1101.99 486.184 1112.05 527.412 1106.7 570.284C1105.66 577.725 1099.3 582.527 1092.57 580.956C1088.85 580.437 1086.54 578.85 1084.41 576.024C1082.27 573.198 1081.38 570.545 1081.9 566.825C1086.91 530.86 1078.48 496.179 1057.67 468.623C1036.86 441.066 1005.81 423.461 969.844 418.444C963.109 416.872 958.841 411.219 959.172 404.312C960.744 397.578 966.396 393.309 973.304 393.64ZM616.306 397.477C623.779 396.702 629.965 401.724 630.053 408.639C630.44 412.375 629.454 414.995 627.222 417.745C624.989 420.494 622.627 421.998 618.891 422.386C582.772 426.134 551.124 442.637 529.358 469.444C507.591 496.251 497.939 530.613 501.687 566.732C501.775 573.647 497.31 579.145 490.525 580.479C483.61 580.567 478.111 576.102 476.777 569.317C472.941 526.283 484.438 485.436 510.111 453.817C535.785 422.198 573.402 402.559 616.306 397.477ZM624.918 468.339C631.833 468.251 637.332 472.716 638.666 479.501C638.754 486.416 634.289 491.916 627.503 493.25C611.312 494.93 595.209 503.524 585.721 515.209C576.233 526.895 571.128 544.42 572.808 560.611C573.195 564.347 572.209 566.967 569.977 569.716C567.744 572.466 565.382 573.97 561.646 574.358C554.173 575.133 547.987 570.11 547.899 563.196C545.572 540.777 552.522 516.766 565.917 500.269L566.475 499.583C579.869 483.086 601.942 471.353 624.918 468.339ZM948.071 474.829C949.109 467.388 955.469 462.585 962.203 464.157C984.526 467.271 1006.17 479.772 1018.98 496.73L1019.51 497.436C1032.32 514.394 1038.42 538.634 1035.84 561.664C1034.27 568.398 1028.61 572.667 1021.71 572.335C1014.97 570.764 1010.7 565.111 1011.03 558.204C1013.28 542.082 1008.8 524.388 999.727 512.376C990.656 500.365 974.865 491.208 958.743 488.959C955.023 488.44 952.715 486.854 950.581 484.028C948.447 481.202 947.553 478.549 948.071 474.829Z"></path>
</svg>
