<svg xmlns="http://www.w3.org/2000/svg" fill="none" viewBox="0 0 1600 1600" height="1600" width="1600">
<rect fill="white" height="1600" width="1600"></rect>
<path fill="#D9D9D9" d="M1298 1076.63C1298 1126.61 1082.65 1167.13 817 1167.13C551.351 1167.13 336 1126.61 336 1076.63C336 1026.65 551.351 986.129 817 986.129C1082.65 986.129 1298 1026.65 1298 1076.63Z"></path>
<path fill="black" d="M704.75 318.859L705.193 318.895L706.055 319.001C710.525 319.629 717.405 321.648 725.334 324.351C733.965 327.294 744.332 331.225 755.203 335.613C774.097 343.239 794.68 352.313 810.541 360.104C824.786 357.356 839.601 355.905 854.81 355.905C870.989 355.905 886.721 357.548 901.796 360.647C917.294 353.027 936.988 344.282 955.112 336.898C965.884 332.51 976.156 328.579 984.709 325.635C993.088 322.752 1000.29 320.645 1004.68 320.175C1009.37 319.674 1012.68 322.885 1014.66 325.658C1016.78 328.631 1018.59 332.719 1020.19 337.328C1023.4 346.629 1026.18 359.446 1028.55 373.467C1033.22 401.141 1036.42 434.427 1037.97 457.065C1038.96 458.914 1039.91 460.779 1040.82 462.662C1076.32 512.773 1103.72 628.687 1124.09 743.808C1144.07 856.794 1137.4 971.873 1070.86 1044.73C971.93 1153.06 694.368 1133.39 618.456 1028.47C562.213 1049.25 444.98 977.185 418.343 923.324C364.691 814.836 406.484 697.406 372.141 622.646C318.343 505.54 187.478 479.755 245.559 452.366C367.709 394.762 462.691 514.665 473.405 576.436C494.924 700.504 452.52 757.477 452.52 837.235C452.52 929.167 528.26 959.285 588.752 965.646C569.376 892.662 602.452 826.735 636.173 765.347C684.33 655.75 629.974 609.18 656.947 496.809C656.967 496.727 656.989 496.644 657.009 496.562C660.5 480.741 666.496 465.683 674.626 451.703C676.205 429.425 678.695 398.994 682.423 373.265C684.488 359.014 686.965 345.958 689.955 336.478C691.436 331.783 693.15 327.608 695.211 324.565C697.073 321.816 700.213 318.597 704.75 318.859Z"></path>
<path fill="white" d="M708.361 350.777C723.341 359.606 759.789 382.422 752.56 386.854C731.131 399.987 701.039 424.936 696.045 431.227C691.052 437.517 699.041 354.75 708.361 350.777ZM1002.54 350.777C1011.86 354.75 1019.85 437.517 1014.85 431.227C1009.86 424.936 979.768 399.987 958.339 386.854C951.11 382.422 987.559 359.606 1002.54 350.777Z" opacity="0.2"></path>
<path fill="white" d="M767.194 572.813C776.361 571.939 783.467 571.476 786.906 571.697C787.457 571.733 787.875 572.209 787.84 572.76C787.804 573.31 787.328 573.728 786.777 573.693C783.528 573.485 776.592 573.925 767.385 574.804C758.211 575.678 746.866 576.978 734.858 578.462C710.842 581.429 684.194 585.129 666.985 587.632C666.439 587.711 665.932 587.332 665.853 586.786C665.773 586.24 666.152 585.733 666.698 585.653C683.916 583.149 710.579 579.447 734.612 576.477C746.628 574.993 757.994 573.691 767.194 572.813ZM922.714 566.926C926.316 566.706 933.768 567.167 943.395 568.041C953.054 568.918 964.987 570.22 977.604 571.705C1002.84 574.674 1030.83 578.377 1048.91 580.881C1049.46 580.957 1049.84 581.461 1049.76 582.008C1049.69 582.554 1049.18 582.936 1048.64 582.861C1030.57 580.358 1002.59 576.658 977.369 573.691C964.76 572.208 952.848 570.908 943.214 570.033C933.548 569.155 926.256 568.713 922.835 568.922C922.284 568.955 921.811 568.536 921.777 567.985C921.743 567.434 922.163 566.959 922.714 566.926ZM666.777 548.697C670.217 548.476 677.323 548.939 686.489 549.813C695.69 550.691 707.055 551.993 719.071 553.477C743.105 556.447 769.768 560.149 786.986 562.653C787.532 562.733 787.91 563.24 787.831 563.786C787.752 564.332 787.245 564.711 786.698 564.632C769.49 562.129 742.842 558.429 718.826 555.462C706.818 553.978 695.473 552.678 686.299 551.804C677.092 550.926 670.156 550.485 666.906 550.693C666.355 550.729 665.879 550.311 665.844 549.76C665.809 549.209 666.227 548.733 666.777 548.697ZM1028.15 543.041C1037.78 542.167 1045.23 541.706 1048.84 541.926C1049.39 541.959 1049.81 542.434 1049.77 542.985C1049.74 543.536 1049.26 543.955 1048.71 543.922C1045.29 543.713 1038 544.155 1028.34 545.033C1018.7 545.908 1006.79 547.208 994.18 548.691C968.963 551.658 940.981 555.358 922.911 557.861C922.364 557.937 921.86 557.554 921.784 557.008C921.709 556.461 922.091 555.956 922.638 555.881C940.716 553.377 968.711 549.674 993.945 546.705C1006.56 545.22 1018.49 543.918 1028.15 543.041Z"></path>
<path fill="white" d="M900.248 498.781C904.246 480.074 924.755 468.598 939.366 471.72C959.956 476.12 966.303 501.668 962.306 520.376C958.308 539.083 938.838 542.447 924.89 539.467C902.308 534.641 896.251 517.488 900.248 498.781ZM744.828 499.836C747.832 480.586 768.037 467.752 783.072 470.098C804.259 473.404 812.163 499.023 809.159 518.273C806.156 537.523 786.548 542.049 772.196 539.809C748.959 536.184 741.825 519.086 744.828 499.836Z"></path>
<path fill="#FED43E" d="M911.727 497.07C914.941 482.031 929.13 470.926 943.069 473.904C959.369 477.387 965.707 501.213 962.494 516.253C959.28 531.292 945.086 532.673 931.147 529.694C917.208 526.716 908.513 512.109 911.727 497.07ZM756.408 497.435C758.822 481.96 772.62 469.862 786.963 472.099C803.736 474.716 811.534 498.585 809.12 514.06C806.705 529.536 792.35 531.747 778.006 529.509C763.663 527.271 753.993 512.911 756.408 497.435Z"></path>
<path fill="black" d="M951.707 488.31C954.267 487.727 957.401 491.899 958.707 497.629C960.013 503.359 958.995 508.477 956.435 509.06C953.875 509.643 950.741 505.472 949.435 499.742C948.129 494.012 949.147 488.894 951.707 488.31ZM797.389 486.465C799.996 485.871 803.167 490.027 804.471 495.748C805.774 501.469 804.717 506.588 802.11 507.182C799.503 507.777 796.332 503.62 795.028 497.899C793.724 492.178 794.781 487.059 797.389 486.465Z"></path>
<path fill="#FFCFC2" d="M876.609 532.012C876.609 536.616 868.284 536.724 858.015 536.724C847.745 536.724 839.42 536.616 839.42 532.012C839.42 527.409 847.745 520.053 858.015 520.053C868.284 520.053 876.609 527.409 876.609 532.012Z"></path>
<path fill="black" d="M741.259 974.037C757.029 961.371 756.891 978.995 765.833 986.901C777.669 997.364 787.61 996.84 791.743 1025.33C795.876 1053.82 788.633 1107.56 747.3 1124.88C705.967 1142.2 681.167 1079.63 679.26 1060.07C677.352 1040.52 681.189 1021.03 693.885 1012.03C706.279 1003.24 703.19 986.311 712.008 977.948C721.815 968.647 730.13 982.976 741.259 974.037ZM1060.28 974.238C1069.22 966.333 1069.08 948.709 1084.85 961.375C1095.98 970.314 1104.3 955.985 1114.1 965.286C1122.92 973.649 1119.83 990.574 1132.23 999.365C1144.92 1008.37 1148.76 1027.86 1146.85 1047.41C1144.95 1066.96 1120.15 1129.54 1078.81 1112.22C1037.48 1094.9 1030.24 1041.16 1034.37 1012.67C1038.5 984.178 1048.44 984.702 1060.28 974.238Z"></path>
<path fill="white" d="M750.476 961.592C756.27 961.578 760.074 964.913 762.349 967.751C764.373 970.276 766.195 973.758 767.356 975.756C768.786 978.217 769.921 979.838 771.131 980.907C773.683 983.163 776.112 984.816 778.889 986.765C781.563 988.641 784.64 990.847 787.489 993.858C793.52 1000.24 797.463 1009.03 799.661 1024.18C801.89 1039.55 801.053 1061.39 794.153 1081.85C787.23 1102.38 773.854 1122.43 750.392 1132.26C737.959 1137.47 726.331 1136.73 716.171 1132.08C706.308 1127.57 698.291 1119.6 692.031 1111.01C679.628 1094 672.397 1072.12 671.297 1060.85C670.275 1050.37 670.752 1039.59 673.379 1029.98C676.003 1020.39 680.941 1011.4 689.256 1005.5C693.041 1002.82 694.769 998.828 696.615 992.564C697.452 989.725 698.44 985.968 699.757 982.629C701.133 979.141 703.134 975.339 706.503 972.144C710.286 968.556 714.449 966.872 718.793 966.678C722.618 966.507 726.175 967.565 728.276 968.148C730.813 968.851 732.065 969.14 733.184 969.113C733.904 969.096 734.821 968.947 736.249 967.8C740.609 964.298 745.354 961.604 750.476 961.592ZM765.832 986.9C756.891 978.995 757.029 961.371 741.259 974.037L740.74 974.439C729.871 982.534 721.662 968.792 712.008 977.948L711.603 978.346C703.283 986.837 706.086 1003.37 693.885 1012.03C681.19 1021.03 677.352 1040.52 679.259 1060.07L679.366 1061.02C681.946 1081.56 706.613 1141.93 747.3 1124.88C788.633 1107.56 795.877 1053.82 791.744 1025.33C787.675 997.284 777.978 997.355 766.386 987.383L765.832 986.9ZM1075.64 948.93C1080.76 948.942 1085.5 951.636 1089.86 955.138C1091.29 956.285 1092.21 956.434 1092.93 956.451C1094.05 956.478 1095.3 956.189 1097.84 955.485C1099.94 954.903 1103.49 953.845 1107.32 954.016C1111.66 954.21 1115.83 955.894 1119.61 959.481C1122.98 962.677 1124.98 966.479 1126.35 969.967C1127.67 973.306 1128.66 977.063 1129.5 979.902C1131.34 986.165 1133.07 990.155 1136.86 992.84C1145.17 998.738 1150.11 1007.73 1152.73 1017.32C1155.36 1026.93 1155.84 1037.71 1154.81 1048.19C1153.72 1059.46 1146.48 1081.34 1134.08 1098.35C1127.82 1106.94 1119.8 1114.91 1109.94 1119.42C1099.78 1124.07 1088.15 1124.8 1075.72 1119.59C1052.26 1109.76 1038.88 1089.72 1031.96 1069.19C1025.06 1048.73 1024.22 1026.89 1026.45 1011.52C1028.65 996.369 1032.59 987.573 1038.62 981.196C1041.47 978.185 1044.55 975.979 1047.22 974.103C1050 972.154 1052.43 970.501 1054.98 968.245C1056.19 967.176 1057.33 965.555 1058.76 963.094C1059.92 961.096 1061.74 957.614 1063.76 955.089C1066.04 952.251 1069.84 948.916 1075.64 948.93ZM1084.85 961.375C1069.08 948.709 1069.22 966.333 1060.28 974.238L1059.73 974.721C1048.13 984.692 1038.44 984.622 1034.37 1012.67C1030.24 1041.16 1037.48 1094.9 1078.81 1112.22C1119.5 1129.26 1144.17 1068.9 1146.75 1048.36L1146.85 1047.41C1148.76 1027.86 1144.92 1008.37 1132.23 999.364C1120.03 990.71 1122.83 974.175 1114.51 965.684L1114.1 965.286C1104.45 956.13 1096.24 969.872 1085.37 961.777L1084.85 961.375Z"></path>
<path fill="#FF8F8E" d="M735.736 1046.77C749.943 1040.7 763.194 1048.27 765.332 1063.68C767.47 1079.09 757.686 1096.51 743.479 1102.58C729.272 1108.65 716.022 1101.07 713.884 1085.66C711.746 1070.25 721.529 1052.84 735.736 1046.77ZM1060.78 1051.02C1062.92 1035.61 1076.17 1028.04 1090.38 1034.11C1104.58 1040.18 1114.37 1057.59 1112.23 1073C1110.09 1088.41 1096.84 1095.98 1082.63 1089.91C1068.43 1083.84 1058.64 1066.43 1060.78 1051.02ZM702.224 1036.7C706.07 1036.7 709.188 1042.09 709.188 1048.73C709.188 1055.38 706.07 1060.76 702.224 1060.76C698.377 1060.76 695.259 1055.38 695.259 1048.73C695.259 1042.09 698.377 1036.7 702.224 1036.7ZM1123.89 1024.04C1127.74 1024.04 1130.85 1029.43 1130.85 1036.07C1130.85 1042.71 1127.74 1048.1 1123.89 1048.1C1120.04 1048.1 1116.92 1042.71 1116.92 1036.07C1116.92 1029.43 1120.04 1024.04 1123.89 1024.04ZM730.081 1011.38C733.927 1011.38 737.046 1017.05 737.046 1024.04C737.046 1031.04 733.927 1036.7 730.081 1036.7C726.235 1036.7 723.117 1031.03 723.117 1024.04C723.117 1017.05 726.235 1011.38 730.081 1011.38ZM756.673 1006.31C760.519 1006.31 763.638 1011.7 763.638 1018.34C763.638 1024.99 760.519 1030.37 756.673 1030.37C752.827 1030.37 749.708 1024.99 749.708 1018.34C749.708 1011.7 752.827 1006.31 756.673 1006.31ZM1096.03 998.717C1099.88 998.717 1103 1004.39 1103 1011.38C1103 1018.37 1099.88 1024.04 1096.03 1024.04C1092.19 1024.04 1089.07 1018.37 1089.07 1011.38C1089.07 1004.39 1092.18 998.717 1096.03 998.717ZM1069.44 993.65C1073.29 993.651 1076.4 999.036 1076.4 1005.68C1076.4 1012.32 1073.29 1017.71 1069.44 1017.71C1065.59 1017.71 1062.48 1012.32 1062.48 1005.68C1062.48 999.036 1065.59 993.65 1069.44 993.65Z" opacity="0.4"></path>
<path fill="white" d="M883.972 674C785.124 674 705 747.816 705 838.797C705 961.037 814.925 1075.05 862.493 1118.65C874.469 1129.67 893.812 1129.78 906.013 1118.98C953.863 1076.64 1063 966.137 1063 838.797C1062.94 747.816 982.82 674 883.972 674ZM883.972 893.967C851.978 893.967 826.001 868.63 826.001 837.426C826.001 806.221 851.978 780.885 883.972 780.885C915.965 780.885 941.942 806.221 941.942 837.426C941.942 868.63 915.965 893.967 883.972 893.967Z"></path>
<path fill="black" d="M1063 838.797C1062.94 747.816 982.819 674 883.972 674C785.124 674 705 747.816 705 838.797L705.005 840.229C705.857 961.926 815.111 1075.22 862.493 1118.65C874.47 1129.67 893.811 1129.78 906.013 1118.98C953.675 1076.81 1062.15 966.999 1063 840.288L1063 838.797ZM931.942 837.426C931.942 811.978 910.679 790.885 883.972 790.885C857.264 790.885 836.001 811.978 836.001 837.426C836.001 862.873 857.264 883.967 883.972 883.967V893.967L883.223 893.962C851.823 893.573 826.404 868.781 826.006 838.156L826.001 837.426C826.001 806.221 851.978 780.885 883.972 780.885C915.965 780.885 941.942 806.221 941.942 837.426L941.938 838.156C941.536 869.025 915.715 893.967 883.972 893.967V883.967C910.679 883.967 931.942 862.873 931.942 837.426ZM1073 838.797C1073 905.272 1044.56 966.709 1010.71 1016.39C976.813 1066.16 936.909 1104.99 912.642 1126.46C896.637 1140.64 871.505 1140.54 855.721 1126.01V1126.01C831.627 1103.92 791.654 1063.94 757.635 1013.83C723.702 963.852 695 902.794 695 838.797C695 741.534 780.392 664 883.972 664C987.553 664 1072.94 741.534 1073 838.791V838.797Z"></path>
<path fill="black" d="M765.599 666.301C800.171 652.328 838.833 667.316 849.248 693.084C859.663 718.853 834.817 738.048 800.245 752.022C765.673 765.995 734.466 769.454 724.051 743.686C713.636 717.917 731.026 680.274 765.599 666.301ZM895.101 694.523C905.064 668.576 943.458 652.915 978.27 666.282C1013.08 679.648 1031.13 716.981 1021.16 742.928C1011.2 768.874 979.938 765.962 945.127 752.595C910.316 739.228 885.138 720.469 895.101 694.523Z"></path>
<path fill="white" d="M763.726 661.665C782.186 654.204 801.736 654.47 818.099 660.058C834.39 665.621 848.002 676.654 853.885 691.21C856.85 698.548 857.38 705.658 855.699 712.407C854.034 719.093 850.289 725.081 845.252 730.41C835.273 740.969 819.61 749.588 802.119 756.657C784.628 763.727 767.375 768.411 752.862 767.752C745.537 767.419 738.682 765.716 732.839 762.065C726.94 758.378 722.381 752.896 719.415 745.559C713.532 731.003 715.655 713.611 723.505 698.29C731.389 682.902 745.265 669.127 763.726 661.665ZM925.669 660.958C941.931 655.085 961.473 654.477 980.061 661.614C998.65 668.752 1012.76 682.283 1020.92 697.53C1029.03 712.712 1031.46 730.064 1025.83 744.721C1023 752.109 1018.53 757.669 1012.7 761.458C1006.92 765.211 1000.1 767.034 992.778 767.495C978.279 768.408 960.947 764.026 943.335 757.264C925.723 750.501 909.912 742.157 899.75 731.775C894.621 726.534 890.771 720.613 888.989 713.957C887.191 707.238 887.596 700.119 890.433 692.731C896.06 678.074 909.478 666.806 925.669 660.958ZM849.249 693.083C838.915 667.516 800.774 652.563 766.41 665.979L765.599 666.301C731.026 680.274 713.636 717.917 724.051 743.686C734.303 769.052 764.703 766.096 798.627 752.669L800.245 752.023C834.547 738.158 859.274 719.152 849.486 693.687L849.249 693.083ZM978.27 666.282C943.458 652.916 905.064 668.576 895.101 694.523C885.293 720.064 909.537 738.641 943.502 751.965L945.127 752.596C979.666 765.858 1010.71 768.829 1020.93 743.531L1021.16 742.928C1031.05 717.184 1013.36 680.232 979.083 666.6L978.27 666.282Z"></path>
<path fill="white" d="M982.221 725.941C982.41 724.295 983.898 723.113 985.544 723.302C987.19 723.49 988.372 724.978 988.183 726.624C987.782 730.126 986.542 735.523 984.088 740.577C981.659 745.579 977.795 750.734 971.883 752.907C970.327 753.479 968.604 752.681 968.032 751.126C967.461 749.571 968.258 747.847 969.812 747.275C973.61 745.879 976.554 742.354 978.69 737.956C980.801 733.611 981.884 728.889 982.221 725.941ZM761.699 721.167C763.341 720.95 764.85 722.106 765.067 723.748C765.456 726.689 766.621 731.392 768.807 735.7C771.02 740.06 774.026 743.533 777.847 744.862C779.412 745.407 780.239 747.116 779.695 748.681C779.151 750.246 777.441 751.074 775.876 750.529C769.926 748.46 765.973 743.373 763.457 738.414C760.915 733.404 759.58 728.03 759.118 724.535C758.901 722.893 760.057 721.385 761.699 721.167ZM945.931 706.696C946.172 705.057 947.696 703.922 949.335 704.162C950.974 704.402 952.109 705.926 951.869 707.565C951.229 711.937 949.503 718.594 946.339 724.526C943.219 730.375 938.333 736.182 931.09 737.558C929.462 737.867 927.892 736.798 927.583 735.17C927.274 733.542 928.343 731.972 929.971 731.663C934.535 730.796 938.232 726.976 941.045 721.702C943.813 716.512 945.367 710.55 945.931 706.696ZM797.568 701.398C799.203 701.129 800.746 702.237 801.014 703.871C801.646 707.714 803.305 713.649 806.164 718.79C809.068 724.014 812.832 727.769 817.41 728.556C819.043 728.836 820.14 730.388 819.859 732.021C819.578 733.653 818.027 734.749 816.394 734.469C809.128 733.22 804.141 727.499 800.92 721.706C797.653 715.83 795.81 709.205 795.094 704.845C794.825 703.21 795.933 701.666 797.568 701.398Z"></path>
</svg>
