<?xml version="1.0" standalone="no"?><!DOCTYPE svg PUBLIC "-//W3C//DTD SVG 1.1//EN" "http://www.w3.org/Graphics/SVG/1.1/DTD/svg11.dtd"><svg height="1600" node-id="1" sillyvg="true" template-height="1600" template-width="1600" version="1.1" viewBox="0 0 1600 1600" width="1600" xmlns="http://www.w3.org/2000/svg" xmlns:xlink="http://www.w3.org/1999/xlink"><defs node-id="17"></defs><path d="M 0.00 0.00 L 1600.00 0.00 L 1600.00 1600.00 L 0.00 1600.00 Z" fill="#ffffff" fill-rule="nonzero" node-id="19" stroke="none" target-height="1600" target-width="1600" target-x="0" target-y="0"></path><path d="M 1321.00 1168.50 C 1321.00 1216.27 1114.38 1255.00 859.50 1255.00 C 604.62 1255.00 398.00 1216.27 398.00 1168.50 C 398.00 1120.73 604.62 1082.00 859.50 1082.00 C 1114.38 1082.00 1321.00 1120.73 1321.00 1168.50 Z" fill="#d9d9d9" fill-rule="nonzero" node-id="21" stroke="none" target-height="173" target-width="923" target-x="398" target-y="1082"></path><path d="M 339.51 356.31 C 361.14 267.24 462.68 233.48 417.00 367.27 C 397.10 425.55 405.21 501.40 425.88 564.37 C 444.18 514.80 479.94 463.97 537.81 427.93 C 599.08 389.77 684.89 368.34 800.52 382.27 C 883.71 392.28 953.11 420.76 1008.27 466.12 C 1101.37 478.59 1175.22 543.75 1183.33 628.77 C 1187.17 669.00 1175.71 707.66 1153.13 740.38 C 1161.36 786.78 1165.50 837.21 1165.50 891.41 C 1165.50 939.52 1173.42 1039.11 1178.17 1075.71 C 1180.52 1093.84 1180.91 1104.19 1181.66 1112.56 C 1182.40 1120.85 1183.49 1127.46 1187.27 1138.62 C 1188.74 1142.98 1187.84 1147.17 1185.92 1150.76 C 1184.02 1154.31 1181.06 1157.44 1178.04 1160.00 C 1174.99 1162.58 1171.73 1164.69 1169.07 1166.17 C 1167.73 1166.91 1166.51 1167.51 1165.51 1167.94 C 1165.01 1168.15 1164.53 1168.33 1164.09 1168.47 C 1163.94 1168.52 1163.72 1168.57 1163.48 1168.63 C 1159.86 1170.52 1154.17 1171.58 1147.75 1171.90 C 1140.88 1172.24 1132.73 1171.75 1124.37 1170.21 C 1107.81 1167.17 1089.76 1159.87 1079.86 1145.94 C 1077.91 1143.21 1076.20 1139.35 1074.45 1134.82 C 1072.70 1130.25 1070.80 1124.66 1068.57 1118.39 C 1064.10 1105.79 1058.18 1089.99 1048.92 1072.22 C 1030.43 1036.71 998.53 993.12 938.09 951.60 C 904.65 928.62 855.47 915.37 807.02 912.12 C 758.52 908.86 711.42 915.67 682.09 932.16 C 675.46 935.89 670.49 944.17 667.36 956.33 C 664.25 968.39 663.10 983.68 663.61 1000.51 C 664.64 1034.16 672.28 1073.37 683.44 1103.93 C 687.75 1115.73 686.00 1131.45 683.51 1140.39 C 681.43 1147.87 676.77 1154.00 671.91 1157.49 C 669.49 1159.23 666.81 1160.46 664.20 1160.69 C 661.72 1160.90 659.22 1160.19 657.44 1158.13 C 657.21 1158.22 656.93 1158.34 656.59 1158.50 C 655.02 1159.23 651.76 1161.06 648.07 1162.57 C 640.17 1165.81 628.25 1168.62 610.32 1165.04 C 599.53 1162.88 592.38 1154.98 585.49 1146.03 C 551.40 1101.75 492.70 1013.53 451.53 908.97 C 421.14 831.79 400.20 745.46 405.95 661.21 C 352.01 595.22 308.11 485.60 339.51 356.31 Z" fill="#000000" fill-rule="nonzero" node-id="23" stroke="none" target-height="938.763" target-width="880.628" target-x="308.112" target-y="233.47699"></path><path d="M 789.25 441.28 C 794.00 441.41 801.70 442.88 810.70 445.02 C 820.17 447.27 831.58 450.40 843.58 453.96 C 867.57 461.08 894.13 470.00 912.46 477.31 C 915.03 478.33 916.28 481.24 915.25 483.81 C 914.49 485.74 912.65 486.92 910.69 486.95 C 809.31 525.80 805.71 564.49 780.31 592.91 C 780.21 595.52 778.10 597.63 775.45 597.71 C 772.69 597.78 770.39 595.61 770.32 592.85 C 769.66 568.70 768.95 531.88 770.45 501.07 C 771.20 485.71 772.51 471.60 774.72 461.24 C 775.81 456.11 777.20 451.54 779.06 448.13 C 780.75 445.05 783.68 441.45 788.34 441.28 L 788.80 441.27 L 789.25 441.28 Z M 1107.92 412.15 C 1109.64 411.88 1111.23 412.13 1112.66 412.69 C 1113.93 412.87 1115.22 413.71 1116.54 415.14 C 1117.19 415.72 1117.79 416.33 1118.32 416.94 C 1120.85 419.85 1123.17 423.98 1125.33 428.71 C 1129.68 438.25 1133.93 451.57 1137.87 466.24 C 1145.77 495.64 1152.64 531.37 1156.56 555.30 C 1157.01 558.02 1155.16 560.59 1152.44 561.04 C 1151.87 561.13 1151.31 561.12 1150.78 561.03 C 1150.83 561.72 1150.87 562.39 1150.92 563.05 C 1118.44 547.30 1103.94 498.98 999.78 479.05 C 999.64 479.14 999.50 479.23 999.37 479.32 C 997.05 480.82 993.95 480.15 992.45 477.83 C 990.96 475.51 991.62 472.42 993.94 470.92 C 1010.40 460.29 1034.56 446.52 1056.55 435.01 C 1067.56 429.26 1078.08 424.04 1086.87 420.04 C 1095.22 416.25 1102.44 413.35 1107.04 412.33 L 1107.48 412.23 L 1107.92 412.15 Z" fill="#000000" fill-rule="nonzero" node-id="25" stroke="none" target-height="185.89902" target-width="388.065" target-x="768.945" target-y="411.884"></path><g node-id="50"><path d="M 795.41 474.51 C 812.24 482.38 853.31 502.94 846.07 508.39 C 824.62 524.53 795.15 554.12 790.48 561.31 C 785.81 568.50 785.90 479.68 795.41 474.51 Z M 1108.24 444.66 C 1118.55 447.94 1135.45 535.14 1129.50 528.96 C 1123.55 522.77 1089.02 499.30 1064.90 487.50 C 1056.76 483.53 1093.20 455.56 1108.24 444.66 Z" fill="#ffffff" fill-opacity="0.2" fill-rule="nonzero" group-id="1" node-id="29" stroke="none" target-height="123.84897" target-width="349.64392" target-x="785.806" target-y="444.65604"></path></g><path d="M 900.95 701.53 C 901.51 701.52 901.98 701.96 902.02 702.51 C 902.05 703.05 901.63 703.51 901.08 703.52 C 897.20 703.58 889.09 704.68 878.38 706.44 C 867.71 708.19 854.54 710.59 840.61 713.25 C 812.76 718.56 781.92 724.90 762.01 729.11 C 761.47 729.23 760.93 728.88 760.79 728.34 C 760.65 727.81 760.97 727.28 761.51 727.16 C 781.42 722.95 812.29 716.61 840.15 711.29 C 854.08 708.63 867.27 706.23 877.97 704.47 C 888.64 702.72 896.91 701.60 900.95 701.53 Z M 756.83 687.66 C 760.82 687.12 769.21 686.98 780.10 687.10 C 791.02 687.22 804.55 687.61 818.86 688.13 C 847.49 689.18 879.31 690.77 899.87 691.92 C 900.43 691.95 900.87 692.42 900.86 692.97 C 900.86 693.52 900.40 693.94 899.85 693.91 C 879.29 692.76 847.49 691.16 818.88 690.12 C 804.57 689.60 791.06 689.22 780.16 689.09 C 769.23 688.97 761.00 689.12 757.18 689.63 C 756.64 689.71 756.12 689.32 756.02 688.78 C 755.92 688.23 756.28 687.73 756.83 687.66 Z M 1067.14 681.66 C 1077.26 681.76 1089.78 682.10 1103.03 682.59 C 1129.54 683.55 1159.00 685.06 1178.03 686.16 C 1178.59 686.19 1179.02 686.66 1179.00 687.21 C 1178.98 687.76 1178.52 688.18 1177.96 688.15 C 1158.94 687.05 1129.50 685.54 1103.00 684.58 C 1089.76 684.10 1077.26 683.75 1067.16 683.66 C 1057.04 683.57 1049.43 683.73 1045.90 684.26 C 1045.36 684.34 1044.84 683.96 1044.75 683.42 C 1044.65 682.87 1045.02 682.37 1045.56 682.28 C 1049.27 681.73 1057.05 681.57 1067.14 681.66 Z M 1173.56 645.30 C 1174.11 645.29 1174.58 645.72 1174.60 646.27 C 1174.63 646.83 1174.20 647.28 1173.65 647.29 C 1170.07 647.37 1162.56 648.49 1152.64 650.27 C 1142.75 652.06 1130.55 654.50 1117.65 657.19 C 1091.84 662.59 1063.25 669.01 1044.80 673.27 C 1044.26 673.40 1043.72 673.07 1043.58 672.53 C 1043.45 671.99 1043.77 671.46 1044.31 671.33 C 1062.76 667.06 1091.37 660.64 1117.19 655.24 C 1130.10 652.54 1142.33 650.10 1152.24 648.31 C 1162.13 646.53 1169.80 645.38 1173.56 645.30 Z" fill="#ffffff" fill-rule="nonzero" node-id="32" stroke="none" target-height="83.93799" target-width="423.09894" target-x="755.9211" target-y="645.287"></path><path d="M 992.72 650.16 C 993.19 655.05 984.35 656.01 973.42 657.06 C 962.50 658.10 953.64 658.83 953.17 653.93 C 952.71 649.04 960.81 640.37 971.73 639.33 C 982.65 638.29 992.25 645.26 992.72 650.16 Z" fill="#ffcfc2" fill-rule="nonzero" node-id="34" stroke="none" target-height="20.542969" target-width="40.481018" target-x="952.706" target-y="638.286"></path><path d="M 844.83 616.56 C 845.41 606.90 927.25 616.24 918.46 626.54 C 909.68 636.85 891.05 652.41 867.92 648.19 C 849.36 644.81 844.25 626.22 844.83 616.56 Z M 1015.58 618.80 C 1004.28 611.34 1080.33 579.68 1083.56 588.81 C 1086.79 597.93 1087.03 617.21 1070.14 625.60 C 1049.08 636.06 1026.87 626.26 1015.58 618.80 Z" fill="#ffffff" fill-rule="nonzero" node-id="36" stroke="none" target-height="72.72601" target-width="242.77802" target-x="844.252" target-y="579.685"></path><path d="M 915.01 629.09 C 861.45 651.01 869.94 612.40 879.31 613.36 C 902.73 615.76 930.06 621.90 915.01 629.09 Z M 1041.99 599.00 C 1065.51 590.37 1092.10 577.40 1082.17 599.69 C 1069.68 621.86 1036.96 601.00 1041.99 599.00 Z" fill="#fed43e" fill-rule="nonzero" node-id="38" stroke="none" target-height="73.604004" target-width="230.64697" target-x="861.453" target-y="577.403"></path><path d="M 901.60 624.67 C 901.81 623.02 904.04 621.95 906.60 622.27 C 909.15 622.59 911.06 624.17 910.85 625.81 C 910.65 627.45 908.41 628.52 905.86 628.21 C 903.31 627.89 901.40 626.31 901.60 624.67 Z M 1073.93 592.44 C 1076.30 591.44 1078.74 591.87 1079.38 593.39 C 1080.02 594.91 1078.62 596.96 1076.25 597.96 C 1073.88 598.96 1071.44 598.53 1070.79 597.01 C 1070.15 595.49 1071.55 593.44 1073.93 592.44 Z" fill="#000000" fill-rule="nonzero" node-id="40" stroke="none" target-height="37.083008" target-width="178.62" target-x="901.4" target-y="591.442"></path><path d="M 937.70 700.78 C 953.47 687.67 992.10 689.81 1001.80 689.24 C 971.64 703.81 1012.42 773.88 979.40 779.81 C 945.65 785.87 917.98 717.17 937.70 700.78 Z" fill="#ff8d8d" fill-rule="nonzero" node-id="42" stroke="none" target-height="98.19495" target-width="94.43701" target-x="917.983" target-y="687.67206"></path><path d="M 951.33 694.19 C 948.58 703.16 942.40 720.96 939.74 720.42 C 937.08 719.87 937.90 707.97 938.59 701.03 C 943.02 697.73 949.17 694.76 951.33 694.19 Z M 1003.12 689.16 C 1000.56 696.86 994.84 712.14 992.40 711.69 C 989.97 711.23 989.85 695.95 990.50 690.00 C 996.38 688.43 1001.14 689.65 1003.12 689.16 Z" fill="#ffffff" fill-rule="nonzero" node-id="44" stroke="none" target-height="32.531006" target-width="66.04401" target-x="937.076" target-y="688.432"></path><path d="M 1085.98 958.80 C 1086.91 958.19 1088.15 958.45 1088.76 959.38 C 1113.17 996.57 1127.23 1038.95 1137.70 1076.21 C 1142.97 1094.96 1147.25 1112.14 1151.57 1127.09 C 1155.87 1141.98 1160.07 1154.17 1164.98 1162.59 C 1165.54 1163.55 1165.22 1164.77 1164.26 1165.33 C 1163.31 1165.89 1162.08 1165.56 1161.53 1164.61 C 1156.34 1155.72 1152.03 1143.09 1147.73 1128.20 C 1143.44 1113.35 1139.04 1095.77 1133.85 1077.29 C 1123.40 1040.12 1109.47 998.24 1085.41 961.57 C 1084.81 960.65 1085.06 959.41 1085.98 958.80 Z M 690.34 925.11 C 691.38 924.75 692.52 925.29 692.89 926.34 C 693.25 927.38 692.71 928.52 691.67 928.89 C 647.19 944.56 631.61 984.19 631.02 1028.35 C 630.42 1072.54 644.89 1120.69 659.90 1152.14 C 660.38 1153.14 659.95 1154.33 658.96 1154.80 C 657.96 1155.28 656.76 1154.86 656.29 1153.86 C 641.10 1122.02 626.41 1073.25 627.02 1028.30 C 627.63 983.32 643.60 941.59 690.34 925.11 Z" fill="#ffffff" fill-rule="nonzero" node-id="46" stroke="none" target-height="241.14404" target-width="539.127" target-x="626.413" target-y="924.746"></path><path d="M 266.17 296.31 C 267.47 293.87 270.50 292.95 272.93 294.24 C 275.37 295.54 276.30 298.57 275.00 301.01 C 270.14 310.14 263.34 326.74 259.08 346.36 C 254.82 365.99 253.17 388.29 258.23 409.01 C 258.89 411.69 257.24 414.40 254.56 415.05 C 251.88 415.71 249.17 414.06 248.52 411.38 C 242.97 388.67 244.86 364.74 249.31 344.23 C 253.76 323.72 260.88 306.26 266.17 296.31 Z M 290.66 318.38 C 292.03 315.98 295.08 315.14 297.48 316.51 C 299.88 317.88 300.72 320.93 299.35 323.33 C 292.54 335.29 280.05 367.65 285.07 399.87 C 285.50 402.60 283.63 405.16 280.90 405.58 C 278.17 406.01 275.62 404.14 275.19 401.41 C 269.70 366.19 283.18 331.51 290.66 318.38 Z" fill="#000000" fill-rule="nonzero" node-id="48" stroke="none" target-height="122.76099" target-width="57.74301" target-x="242.974" target-y="292.946"></path></svg>