<?xml version="1.0" standalone="no"?><!DOCTYPE svg PUBLIC "-//W3C//DTD SVG 1.1//EN" "http://www.w3.org/Graphics/SVG/1.1/DTD/svg11.dtd"><svg height="1600" node-id="1" sillyvg="true" template-height="1600" template-width="1600" version="1.1" viewBox="0 0 1600 1600" width="1600" xmlns="http://www.w3.org/2000/svg" xmlns:xlink="http://www.w3.org/1999/xlink"><defs node-id="13"></defs><path d="M 0.00 0.00 L 1600.00 0.00 L 1600.00 1600.00 L 0.00 1600.00 Z" fill="#ffffff" fill-rule="nonzero" node-id="15" stroke="none" target-height="1600" target-width="1600" target-x="0" target-y="0"></path><path d="M 1157.00 1211.00 C 1157.00 1253.53 997.17 1288.00 800.00 1288.00 C 602.83 1288.00 443.00 1253.53 443.00 1211.00 C 443.00 1168.47 602.83 1134.00 800.00 1134.00 C 997.17 1134.00 1157.00 1168.47 1157.00 1211.00 Z" fill="#d9d9d9" fill-rule="nonzero" node-id="17" stroke="none" target-height="154" target-width="714" target-x="443" target-y="1134"></path><path d="M 611.03 429.23 C 511.28 284.37 748.76 138.65 836.63 287.26 C 866.25 337.36 797.94 411.60 788.27 480.40 C 783.96 511.02 789.75 536.09 799.80 556.03 C 1075.16 559.40 1064.13 834.75 1023.08 965.34 L 1024.00 965.00 C 1002.79 1070.62 984.84 1140.72 934.95 1179.95 C 881.52 1221.98 795.11 1206.22 835.35 1168.79 C 847.30 1157.67 858.37 1144.88 867.67 1130.87 C 849.30 1135.80 829.79 1138.50 809.56 1138.62 C 796.42 1138.69 783.56 1137.67 771.12 1135.65 C 764.08 1149.68 761.34 1166.08 764.60 1185.44 C 794.67 1265.34 713.76 1256.18 690.71 1226.70 C 488.25 967.92 514.54 595.71 754.75 558.95 C 732.29 506.30 753.79 429.30 771.85 385.77 C 803.89 308.51 716.22 285.43 678.14 302.47 C 665.41 308.17 629.41 330.72 635.82 390.60 C 641.69 445.52 712.89 456.40 710.18 465.44 C 708.00 472.71 643.38 476.20 611.03 429.23 Z M 726.62 328.59 C 727.95 326.17 730.99 325.29 733.41 326.62 C 735.83 327.95 736.71 330.99 735.38 333.41 L 711.55 376.71 L 734.34 397.21 C 736.40 399.06 736.56 402.22 734.72 404.27 C 732.87 406.33 729.71 406.49 727.66 404.65 L 706.60 385.70 L 688.60 418.41 C 687.27 420.83 684.23 421.71 681.81 420.38 C 679.39 419.05 678.51 416.01 679.84 413.59 L 698.97 378.84 L 662.66 346.17 C 660.60 344.32 660.44 341.16 662.28 339.11 C 664.13 337.06 667.29 336.89 669.34 338.74 L 703.92 369.84 L 726.62 328.59 Z" fill="#000000" fill-rule="nonzero" node-id="19" stroke="none" target-height="1126.692" target-width="586.913" target-x="488.247" target-y="138.648"></path><path d="M 959.39 761.03 C 974.14 759.36 984.61 858.29 983.36 902.97 C 954.09 885.37 944.94 837.96 844.57 811.22 C 876.22 794.49 944.64 762.71 959.39 761.03 Z M 637.60 901.07 C 635.85 856.20 642.57 759.92 657.33 761.43 C 672.10 762.95 737.84 795.95 769.67 812.40 C 669.63 840.39 664.74 876.82 637.60 901.07 Z" fill="#000000" fill-rule="nonzero" node-id="21" stroke="none" target-height="143.604" target-width="348.75897" target-x="635.851" target-y="759.364"></path><g node-id="38"><path d="M 662.74 791.83 C 677.61 800.49 713.79 822.85 706.66 827.28 C 685.54 840.39 655.91 865.24 651.00 871.49 C 646.10 877.74 653.54 795.82 662.74 791.83 Z M 953.81 790.23 C 963.05 794.11 971.41 875.94 966.43 869.74 C 961.46 863.55 931.55 839.03 910.28 826.16 C 903.11 821.81 939.04 799.04 953.81 790.23 Z" fill="#ffffff" fill-opacity="0.2" fill-rule="nonzero" group-id="1" node-id="25" stroke="none" target-height="87.50995" target-width="325.31" target-x="646.099" target-y="790.22705"></path></g><path d="M 719.60 1011.13 C 729.87 1010.21 737.80 1009.72 741.63 1009.92 C 742.18 1009.95 742.61 1010.42 742.58 1010.97 C 742.55 1011.52 742.09 1011.95 741.53 1011.92 C 737.87 1011.73 730.09 1012.20 719.78 1013.12 C 709.51 1014.04 696.81 1015.39 683.37 1016.93 C 656.49 1020.00 626.66 1023.82 607.40 1026.40 C 606.86 1026.47 606.35 1026.08 606.27 1025.54 C 606.20 1024.99 606.58 1024.49 607.13 1024.41 C 626.40 1021.83 656.24 1018.01 683.13 1014.94 C 696.58 1013.40 709.30 1012.05 719.60 1011.13 Z M 876.00 1004.09 C 879.76 1003.86 887.56 1004.28 897.64 1005.11 C 907.75 1005.94 920.24 1007.18 933.45 1008.59 C 959.88 1011.43 989.19 1014.99 1008.12 1017.40 C 1008.67 1017.47 1009.06 1017.97 1008.99 1018.52 C 1008.92 1019.06 1008.42 1019.45 1007.88 1019.38 C 988.95 1016.97 959.65 1013.42 933.24 1010.58 C 920.04 1009.17 907.57 1007.93 897.48 1007.10 C 887.36 1006.27 879.72 1005.86 876.13 1006.09 C 875.58 1006.12 875.11 1005.71 875.07 1005.15 C 875.04 1004.60 875.45 1004.13 876.00 1004.09 Z M 606.94 987.67 C 610.77 987.43 618.71 987.86 628.99 988.68 C 639.30 989.51 652.03 990.76 665.50 992.18 C 692.45 995.02 722.34 998.58 741.64 1000.99 C 742.19 1001.06 742.58 1001.56 742.51 1002.11 C 742.44 1002.66 741.95 1003.05 741.40 1002.98 C 722.10 1000.57 692.23 997.01 665.30 994.17 C 651.84 992.75 639.12 991.51 628.83 990.68 C 618.52 989.85 610.72 989.44 607.06 989.66 C 606.51 989.70 606.04 989.28 606.00 988.73 C 605.97 988.18 606.38 987.70 606.94 987.67 Z M 986.24 980.61 C 996.31 979.70 1004.10 979.20 1007.86 979.40 C 1008.41 979.43 1008.83 979.90 1008.80 980.46 C 1008.78 981.01 1008.31 981.43 1007.75 981.40 C 1004.16 981.21 996.53 981.68 986.43 982.60 C 976.35 983.52 963.89 984.88 950.71 986.42 C 924.35 989.49 895.09 993.32 876.20 995.90 C 875.66 995.97 875.15 995.59 875.08 995.04 C 875.00 994.49 875.38 993.99 875.93 993.92 C 894.83 991.33 924.09 987.51 950.48 984.43 C 963.67 982.89 976.14 981.53 986.24 980.61 Z" fill="#ffffff" fill-rule="nonzero" node-id="28" stroke="none" target-height="47.26996" target-width="403.09198" target-x="605.968" target-y="979.2"></path><path d="M 699.65 951.93 C 702.52 938.41 722.44 929.31 737.32 930.90 C 758.30 933.14 766.26 951.10 763.40 964.63 C 760.53 978.16 741.16 981.41 726.95 979.90 C 703.94 977.44 696.79 965.46 699.65 951.93 Z M 853.39 952.56 C 857.24 940.14 877.47 932.45 891.94 934.47 C 912.33 937.31 918.75 954.23 914.90 966.66 C 911.05 979.08 891.81 981.38 877.99 979.46 C 855.63 976.34 849.54 964.99 853.39 952.56 Z" fill="#ffffff" fill-rule="nonzero" node-id="30" stroke="none" target-height="52.098938" target-width="221.9621" target-x="696.79" target-y="929.314"></path><path d="M 704.86 953.27 C 707.16 942.40 720.74 933.85 734.95 935.36 C 751.55 937.13 759.40 953.86 757.10 964.74 C 754.79 975.62 740.60 977.23 726.40 975.71 C 712.20 974.20 702.56 964.15 704.86 953.27 Z M 859.37 953.61 C 862.46 943.62 876.44 936.21 890.24 938.13 C 906.39 940.38 912.79 956.16 909.69 966.15 C 906.60 976.14 892.56 977.11 878.76 975.18 C 864.95 973.26 856.27 963.60 859.37 953.61 Z" fill="#fed43e" fill-rule="nonzero" node-id="32" stroke="none" target-height="43.37799" target-width="210.23303" target-x="702.55597" target-y="933.847"></path><path d="M 876.49 956.81 C 876.44 952.79 878.44 949.87 880.96 950.30 C 883.49 950.72 885.58 954.32 885.63 958.34 C 885.69 962.36 883.69 965.28 881.16 964.85 C 878.64 964.43 876.55 960.83 876.49 956.81 Z M 727.90 948.84 C 730.50 949.13 732.74 952.79 732.91 957.02 C 733.08 961.24 731.11 964.42 728.52 964.12 C 725.92 963.83 723.68 960.17 723.51 955.95 C 723.34 951.73 725.31 948.54 727.90 948.84 Z" fill="#000000" fill-rule="nonzero" node-id="34" stroke="none" target-height="16.732971" target-width="162.34808" target-x="723.342" target-y="948.544"></path><path d="M 830.18 970.19 C 830.21 974.74 821.97 974.89 811.81 974.95 C 801.65 975.01 793.42 974.95 793.39 970.39 C 793.37 965.84 801.56 958.52 811.72 958.46 C 821.88 958.40 830.16 965.63 830.18 970.19 Z" fill="#ffcfc2" fill-rule="nonzero" node-id="36" stroke="none" target-height="16.60492" target-width="36.84088" target-x="793.366" target-y="958.4031"></path></svg>