<svg xmlns="http://www.w3.org/2000/svg" fill="none" viewBox="0 0 1600 1600" height="1600" width="1600">
<rect fill="white" height="1600" width="1600"></rect>
<path fill="black" d="M424.907 665.878C450.115 661.761 481.039 660.695 513.838 661.204C579.197 662.218 653.645 669.565 706.015 672.028C738.798 672.024 778.991 670.663 821.566 669.209C864.157 667.754 909.099 666.208 951.161 665.855C993.196 665.502 1032.52 666.338 1063.86 669.678C1079.53 671.348 1093.35 673.657 1104.58 676.812C1115.68 679.929 1124.86 684.034 1130.67 689.683C1148.26 706.797 1158.77 737.306 1164.64 772.705C1170.55 808.369 1171.93 850.063 1170.45 890.637C1168.98 931.232 1164.63 970.887 1159.03 1002.53C1156.23 1018.35 1153.11 1032.24 1149.84 1043.28C1146.64 1054.11 1143.12 1062.84 1139.28 1067.79C1137.05 1070.67 1133.8 1072.95 1130.11 1074.81C1126.38 1076.69 1121.89 1078.3 1116.86 1079.68C1106.81 1082.44 1094.08 1084.45 1079.72 1085.91C1050.97 1088.82 1015.02 1089.56 979.5 1089.26C943.951 1088.97 908.695 1087.63 881.289 1086.37C854.226 1085.13 835.183 1083.98 830.603 1083.94C830.551 1083.97 830.478 1084.03 830.385 1084.1C829.903 1084.5 829.201 1085.28 828.325 1086.64C826.571 1089.36 824.683 1093.49 822.647 1098.86C818.574 1109.59 814.422 1123.81 809.66 1138.55C804.97 1153.06 799.715 1167.98 793.564 1179.32C790.489 1184.99 787.044 1190.05 783.114 1193.74C779.155 1197.46 774.376 1200.09 768.807 1200.09C764.01 1200.09 759.042 1197.41 754.502 1194.12C749.755 1190.68 744.565 1185.88 739.161 1180.33C728.345 1169.21 716.116 1154.46 704.136 1139.94C692.075 1125.33 680.271 1110.95 670.094 1100.25C665 1094.89 660.46 1090.62 656.619 1087.73C654.701 1086.29 653.071 1085.29 651.729 1084.67C650.354 1084.03 649.562 1083.92 649.228 1083.93C628.531 1084.55 603.635 1086.61 577.068 1088.71C550.568 1090.8 522.478 1092.94 495.636 1093.66C468.821 1094.38 443.034 1093.71 421.162 1090.12C399.443 1086.55 380.758 1079.99 368.971 1068.27C366.637 1065.95 364.923 1062.4 363.554 1058.57C362.13 1054.58 360.864 1049.63 359.726 1043.94C357.45 1032.56 355.602 1017.76 354.151 1000.75C351.247 966.717 349.896 923.41 350.006 880.079C350.115 836.745 351.686 793.266 354.643 758.879C356.121 741.697 357.953 726.686 360.146 715.061C361.242 709.253 362.447 704.192 363.775 700.083C365.061 696.105 366.618 692.517 368.653 690.07C379.391 677.163 400.031 669.94 424.907 665.878ZM513.682 671.202C481.088 670.696 450.855 671.772 426.518 675.747C401.85 679.775 384.554 686.593 376.341 696.465C375.571 697.391 374.483 699.469 373.29 703.159C372.139 706.719 371.027 711.332 369.973 716.915C367.869 728.071 366.071 742.708 364.606 759.735C361.679 793.766 360.115 836.954 360.006 880.104C359.897 923.257 361.244 966.253 364.115 999.904C365.552 1016.74 367.361 1031.13 369.532 1041.98C370.619 1047.42 371.774 1051.85 372.972 1055.21C374.225 1058.72 375.334 1060.5 376.023 1061.18C385.555 1070.66 401.676 1076.79 422.781 1080.25C443.734 1083.69 468.791 1084.38 495.366 1083.66C521.914 1082.95 549.764 1080.84 576.28 1078.74C602.729 1076.65 627.927 1074.56 648.931 1073.94C651.391 1073.86 653.786 1074.59 655.939 1075.59C658.127 1076.61 660.371 1078.05 662.623 1079.74C667.121 1083.11 672.105 1087.85 677.34 1093.36C687.818 1104.37 699.882 1119.07 711.849 1133.58C723.896 1148.18 735.853 1162.59 746.328 1173.36C751.569 1178.74 756.299 1183.07 760.368 1186.02C764.642 1189.11 767.384 1190.09 768.807 1190.09C771.015 1190.09 773.465 1189.08 776.265 1186.45C779.095 1183.79 781.943 1179.77 784.774 1174.55C790.436 1164.12 795.451 1150 800.144 1135.47C804.765 1121.17 809.108 1106.35 813.298 1095.31C815.393 1089.79 817.579 1084.85 819.922 1081.22C821.094 1079.4 822.447 1077.68 824.036 1076.38C825.646 1075.05 827.776 1073.94 830.345 1073.94C834.721 1073.94 854.598 1075.13 881.748 1076.38C909.096 1077.64 944.212 1078.97 979.583 1079.26C1014.99 1079.56 1050.51 1078.82 1078.71 1075.96C1092.82 1074.53 1104.94 1072.58 1114.22 1070.03C1118.85 1068.76 1122.66 1067.37 1125.61 1065.88C1128.59 1064.38 1130.4 1062.92 1131.38 1061.66C1133.96 1058.33 1137.06 1051.22 1140.25 1040.44C1143.38 1029.87 1146.43 1016.37 1149.19 1000.79C1154.7 969.628 1159 930.435 1160.46 890.273C1161.92 850.091 1160.54 809.118 1154.77 774.341C1148.96 739.299 1138.85 711.592 1123.7 696.851C1119.71 692.972 1112.49 689.422 1101.88 686.44C1091.39 683.496 1078.19 681.261 1062.8 679.622C1032.05 676.344 993.18 675.502 951.245 675.854C909.336 676.206 864.528 677.747 821.908 679.203C779.329 680.657 738.897 682.029 705.884 682.029H705.766L705.649 682.023C652.306 679.519 579.067 672.217 513.682 671.202ZM536 841.086C560.3 841.086 580 861.233 580 886.086C580 910.938 560.3 931.086 536 931.086C511.7 931.085 492 910.938 492 886.086C492 861.233 511.699 841.086 536 841.086ZM735.5 841.086C760.076 841.086 780 861.233 780 886.086C780 910.938 760.076 931.086 735.5 931.086C710.923 931.085 691 910.938 691 886.086C691 861.233 710.923 841.086 735.5 841.086ZM966 841.086C990.3 841.086 1010 861.233 1010 886.086C1010 910.938 990.3 931.086 966 931.086C941.7 931.085 922 910.938 922 886.086C922 861.233 941.699 841.086 966 841.086ZM966 851.086C947.433 851.086 932 866.543 932 886.086C932 905.628 947.433 921.085 966 921.086C984.567 921.086 1000 905.628 1000 886.086C1000 866.543 984.567 851.086 966 851.086ZM536 851.086C517.433 851.086 502 866.543 502 886.086C502 905.628 517.433 921.085 536 921.086C554.567 921.086 570 905.628 570 886.086C570 866.543 554.567 851.086 536 851.086ZM735.5 851.086C716.551 851.086 701 866.65 701 886.086C701 905.521 716.551 921.085 735.5 921.086C754.448 921.086 770 905.521 770 886.086C770 866.65 754.449 851.086 735.5 851.086Z"></path>
<path fill="black" d="M594.797 290.283L595.26 290.321L595.723 290.375C600.599 290.98 608.4 293.249 617.505 296.354C627.076 299.617 638.577 303.978 650.643 308.848C671.356 317.208 693.897 327.136 711.403 335.707C727.494 332.543 744.245 330.871 761.451 330.871C779.732 330.871 797.499 332.758 814.506 336.317C831.601 327.938 853.167 318.375 873.036 310.28C884.991 305.41 896.387 301.048 905.871 297.784C914.89 294.681 922.627 292.408 927.469 291.802L927.928 291.748L928.383 291.71C929.901 291.62 931.281 291.905 932.524 292.43C934.45 292.532 936.298 294.156 938.061 297.022C938.211 297.218 938.357 297.414 938.496 297.608C940.81 300.846 942.802 305.326 944.564 310.426C948.118 320.71 951.201 334.906 953.827 350.467C958.925 380.671 962.444 416.91 964.199 442.001C977.554 466.644 985.013 494.126 985.013 523.106C985.013 629.274 884.921 715.341 761.451 715.341C637.981 715.341 537.889 629.274 537.889 523.106C537.889 491.816 546.583 462.274 562.007 436.165C563.763 411.538 566.505 378.347 570.58 350.225C572.872 334.407 575.619 319.946 578.925 309.463C580.564 304.266 582.447 299.691 584.69 296.378C586.729 293.368 590.059 290.01 594.797 290.283Z"></path>
<path fill="white" d="M598.84 325.172C615.473 334.975 655.946 360.31 647.918 365.23C624.123 379.814 590.709 407.518 585.164 414.503C579.62 421.488 588.49 329.583 598.84 325.172ZM925.489 325.172C935.839 329.585 944.709 421.487 939.165 414.503C933.621 407.518 900.206 379.815 876.411 365.23C868.383 360.31 908.856 334.975 925.489 325.172Z" opacity="0.2"></path>
<path fill="black" d="M649.563 677.065C649.563 709.598 614.18 719.532 570.533 719.532C526.886 719.532 491.503 709.598 491.503 677.065C491.503 644.533 526.886 611.311 570.533 611.311C614.18 611.311 649.563 644.533 649.563 677.065Z"></path>
<path fill="black" d="M1041.5 674.36C1041.5 706.892 1006.12 716.827 962.475 716.827C918.828 716.827 883.445 706.892 883.445 674.36C883.445 641.828 918.828 608.605 962.475 608.605C1006.12 608.605 1041.5 641.828 1041.5 674.36Z"></path>
<path fill="white" d="M570.533 606.311C593.623 606.311 614.527 615.093 629.687 628.207C644.789 641.272 654.562 658.996 654.562 677.065C654.562 686.164 652.068 693.933 647.397 700.363C642.766 706.74 636.206 711.513 628.497 715.044C613.205 722.047 592.578 724.531 570.533 724.531C548.488 724.531 527.86 722.048 512.568 715.044C504.859 711.513 498.3 706.74 493.668 700.363C488.998 693.933 486.503 686.164 486.503 677.065C486.503 658.996 496.277 641.272 511.379 628.207C526.538 615.093 547.443 606.311 570.533 606.311ZM962.476 603.605C985.566 603.606 1006.47 612.388 1021.63 625.502C1036.73 638.567 1046.5 656.291 1046.5 674.36C1046.5 683.459 1044.01 691.228 1039.34 697.658C1034.71 704.035 1028.15 708.808 1020.44 712.339C1005.15 719.342 984.52 721.826 962.476 721.826C940.431 721.826 919.803 719.342 904.511 712.339C896.802 708.808 890.242 704.035 885.61 697.658C880.94 691.228 878.445 683.459 878.445 674.36C878.445 656.291 888.219 638.567 903.321 625.502C918.481 612.388 939.385 603.605 962.476 603.605ZM570.533 611.311C526.886 611.311 491.503 644.533 491.503 677.065L491.51 677.823C492.048 709.249 526.128 719.218 568.493 719.524L570.533 719.531C613.839 719.531 649.009 709.752 649.556 677.823L649.562 677.065C649.562 644.787 614.731 611.83 571.555 611.316L570.533 611.311ZM962.476 608.605C918.829 608.605 883.445 641.828 883.445 674.36L883.452 675.118C883.99 706.544 918.07 716.513 960.436 716.819L962.476 716.826C1005.78 716.826 1040.95 707.047 1041.5 675.118L1041.5 674.36C1041.5 642.082 1006.67 609.125 963.497 608.611L962.476 608.605Z"></path>
<path fill="white" d="M538.454 671.791C538.868 670.186 540.504 669.222 542.109 669.635C543.713 670.049 544.678 671.685 544.264 673.29C543.384 676.698 542.578 682.371 543.067 688.072C543.56 693.831 545.322 699.077 549.031 702.322C550.277 703.413 550.404 705.309 549.313 706.555C548.222 707.802 546.326 707.928 545.079 706.838C539.675 702.109 537.64 695.012 537.089 688.585C536.533 682.099 537.435 675.74 538.454 671.791ZM586.135 666.186C586.499 664.57 588.105 663.554 589.721 663.918C591.337 664.281 592.352 665.886 591.989 667.503C590.978 671.994 590.169 679.222 591.025 686.126C591.892 693.124 594.364 699.044 599.185 702.029C600.593 702.901 601.029 704.75 600.156 706.159C599.284 707.567 597.435 708.002 596.027 707.131C588.887 702.711 586.018 694.509 585.071 686.864C584.111 679.126 585.01 671.188 586.135 666.186ZM994.477 668.358C996.081 667.944 997.717 668.909 998.131 670.513C999.15 674.462 1000.05 680.822 999.496 687.307C998.946 693.735 996.91 700.832 991.506 705.56C990.259 706.651 988.364 706.524 987.273 705.278C986.182 704.031 986.308 702.136 987.555 701.045C991.264 697.799 993.025 692.553 993.519 686.795C994.007 681.094 993.201 675.42 992.322 672.012C991.908 670.408 992.873 668.772 994.477 668.358ZM946.865 662.64C948.481 662.277 950.087 663.292 950.451 664.909C951.576 669.911 952.474 677.848 951.515 685.587C950.567 693.231 947.699 701.433 940.559 705.853C939.15 706.725 937.301 706.29 936.429 704.882C935.557 703.473 935.992 701.624 937.401 700.752C942.222 697.767 944.693 691.846 945.561 684.848C946.417 677.944 945.607 670.716 944.597 666.225C944.233 664.609 945.248 663.004 946.865 662.64Z"></path>
<path fill="white" d="M663.572 572.29C674.041 571.353 682.136 570.86 686.043 571.095C686.594 571.129 687.014 571.603 686.981 572.154C686.947 572.705 686.473 573.125 685.922 573.092C682.193 572.867 674.257 573.342 663.749 574.282C653.273 575.22 640.32 576.612 626.61 578.202C599.19 581.381 568.765 585.347 549.118 588.028C548.571 588.102 548.066 587.718 547.992 587.172C547.917 586.625 548.301 586.12 548.848 586.046C568.504 583.363 598.943 579.397 626.379 576.216C640.097 574.625 653.07 573.23 663.572 572.29ZM836.859 565.187C840.657 564.952 848.521 565.446 858.683 566.383C868.879 567.322 881.473 568.717 894.79 570.307C921.426 573.489 950.978 577.456 970.06 580.138C970.607 580.215 970.988 580.722 970.911 581.268C970.833 581.815 970.327 582.196 969.781 582.119C950.707 579.437 921.171 575.473 894.553 572.294C881.244 570.704 868.669 569.311 858.499 568.374C848.297 567.433 840.596 566.959 836.982 567.183C836.431 567.217 835.957 566.798 835.922 566.247C835.888 565.696 836.308 565.222 836.859 565.187ZM548.918 545.099C552.832 544.848 560.931 545.374 571.4 546.374C581.902 547.376 594.876 548.865 608.594 550.561C636.031 553.955 666.471 558.186 686.127 561.048C686.674 561.127 687.052 561.635 686.972 562.181C686.892 562.727 686.385 563.106 685.838 563.026C666.191 560.166 635.767 555.937 608.348 552.546C594.638 550.85 581.686 549.365 571.21 548.365C560.701 547.362 552.77 546.856 549.047 547.095C548.496 547.131 548.021 546.713 547.985 546.162C547.949 545.611 548.368 545.135 548.918 545.099ZM948.158 539.383C958.32 538.446 966.183 537.952 969.982 538.187C970.533 538.221 970.952 538.696 970.918 539.247C970.884 539.798 970.41 540.217 969.859 540.183C966.244 539.959 958.543 540.433 948.341 541.374C938.172 542.311 925.597 543.704 912.288 545.294C885.669 548.473 856.133 552.437 837.06 555.119C836.514 555.195 836.007 554.815 835.93 554.268C835.853 553.722 836.234 553.216 836.781 553.138C855.863 550.456 885.414 546.489 912.05 543.307C925.367 541.717 937.962 540.322 948.158 539.383Z"></path>
<path fill="white" d="M811.908 489.522C816.347 468.75 839.121 456.007 855.346 459.475C878.208 464.36 885.256 492.729 880.817 513.502C876.378 534.274 854.758 538.009 839.27 534.699C814.196 529.341 807.469 510.295 811.908 489.522ZM639.333 490.686C642.668 469.31 665.103 455.061 681.799 457.666C705.324 461.337 714.101 489.784 710.766 511.159C707.43 532.534 685.657 537.559 669.721 535.072C643.919 531.046 635.998 512.061 639.333 490.686Z"></path>
<path fill="#FED43E" d="M824.656 487.617C828.225 470.918 843.979 458.586 859.457 461.893C877.556 465.76 884.596 492.217 881.027 508.917C877.459 525.616 861.697 527.15 846.219 523.843C830.742 520.536 821.088 504.317 824.656 487.617ZM652.188 488.026C654.87 470.843 670.19 457.41 686.117 459.895C704.741 462.801 713.4 489.303 710.719 506.487C708.038 523.671 692.097 526.126 676.171 523.641C660.244 521.156 649.507 505.21 652.188 488.026Z"></path>
<path fill="black" d="M869.046 477.895C871.888 477.248 875.368 481.88 876.818 488.241C878.268 494.604 877.139 500.287 874.296 500.935C871.453 501.582 867.973 496.95 866.524 490.588C865.074 484.226 866.203 478.543 869.046 477.895ZM697.693 475.842C700.588 475.183 704.109 479.797 705.557 486.15C707.004 492.502 705.831 498.187 702.936 498.847C700.041 499.506 696.52 494.892 695.072 488.539C693.624 482.187 694.798 476.502 697.693 475.842Z"></path>
<path fill="#FFCFC2" d="M785.659 526.419C785.659 531.53 776.414 531.65 765.011 531.65C753.608 531.65 744.364 531.53 744.364 526.419C744.364 521.307 753.608 513.139 765.011 513.139C776.414 513.139 785.659 521.307 785.659 526.419Z"></path>
</svg>
