<svg xmlns="http://www.w3.org/2000/svg" fill="none" viewBox="0 0 1600 1600" height="1600" width="1600">
<rect fill="white" height="1600" width="1600"></rect>
<path fill="#D9D9D9" d="M1214 1200.5C1214 1248.27 1007.38 1287 752.5 1287C497.621 1287 291 1248.27 291 1200.5C291 1152.73 497.621 1114 752.5 1114C1007.38 1114 1214 1152.73 1214 1200.5Z"></path>
<path fill="black" d="M578.562 458.335L579.034 458.378L579.513 458.44C584.56 459.123 592.636 461.573 602.081 464.916C612.003 468.428 623.922 473.108 636.424 478.325C657.783 487.24 681.004 497.795 699.082 506.903C715.999 503.742 733.595 502.167 751.646 502.365C770.815 502.576 789.416 504.774 807.188 508.729C825.069 500.214 847.551 490.538 868.265 482.36C880.786 477.416 892.717 472.998 902.64 469.703C912.082 466.568 920.155 464.292 925.183 463.717L925.66 463.667L926.123 463.634C927.481 463.568 928.727 463.795 929.865 464.223C932.471 464.01 934.911 466.472 937.169 470.987C939.189 474.239 940.949 478.457 942.516 483.197C946.069 493.949 949.082 508.781 951.602 525.042C956.296 555.342 959.398 591.431 960.948 617.444C1009.4 675.714 1043.03 796.47 1041.47 919.812C1040.39 1004.9 1063.45 1038.12 1041.47 1136.5C1011.11 1272.35 466.002 1288.61 466 1090.63C466 1040.07 490.149 1009.61 490.149 919.812V917.302C490.147 807.329 490.144 693.936 531.226 631.272C534.534 623.799 538.347 616.542 542.627 609.532C544.8 583.906 548.108 549.535 552.718 520.41C555.325 503.937 558.386 488.896 561.971 478.015C563.748 472.619 565.766 467.892 568.132 464.486C570.285 461.388 573.74 458.003 578.562 458.335Z"></path>
<path fill="white" d="M922.636 498.295C933.357 503.016 941.321 598.995 935.642 591.647C929.962 584.297 895.532 555.013 870.943 539.526C862.648 534.301 905.169 508.332 922.636 498.295ZM582.299 494.564C599.492 504.982 641.308 531.875 632.876 536.917C607.881 551.86 572.681 580.38 566.807 587.604C560.933 594.827 571.454 499.049 582.299 494.564Z" opacity="0.2"></path>
<path fill="white" d="M520.657 723.554C524.912 723.336 533.719 723.951 545.115 725.074C556.543 726.201 570.657 727.846 585.58 729.712C615.426 733.445 648.531 738.063 669.906 741.177C670.452 741.257 670.826 741.764 670.743 742.31C670.659 742.857 670.149 743.235 669.603 743.156C648.236 740.043 615.146 735.428 585.317 731.697C570.401 729.832 556.307 728.188 544.904 727.065C533.47 725.938 524.822 725.342 520.745 725.551C520.194 725.579 519.727 725.156 519.702 724.604C519.678 724.053 520.105 723.583 520.657 723.554Z"></path>
<path fill="white" d="M982.072 720.565C977.685 720.27 968.562 720.724 956.737 721.639C944.881 722.557 930.23 723.946 914.734 725.54C883.741 728.728 849.349 732.742 827.138 735.466C826.589 735.533 826.196 736.033 826.259 736.581C826.323 737.129 826.819 737.518 827.367 737.451C849.569 734.728 883.948 730.716 914.924 727.529C930.413 725.935 945.045 724.549 956.877 723.633C968.74 722.715 977.71 722.277 981.925 722.56C982.475 722.597 982.954 722.18 982.996 721.629C983.037 721.078 982.623 720.602 982.072 720.565Z"></path>
<path fill="white" d="M669.663 751.633C665.417 751.339 656.592 751.797 645.162 752.716C633.701 753.637 619.537 755.03 604.558 756.629C574.598 759.828 541.352 763.853 519.881 766.584C519.333 766.654 518.941 767.154 519.007 767.702C519.073 768.25 519.571 768.637 520.119 768.568C541.581 765.838 574.813 761.815 604.756 758.619C619.728 757.02 633.872 755.629 645.308 754.709C656.776 753.787 665.441 753.346 669.509 753.628C670.06 753.666 670.541 753.251 670.583 752.7C670.626 752.149 670.214 751.671 669.663 751.633Z"></path>
<path fill="white" d="M827.017 747.411C831.413 747.195 840.519 747.813 852.31 748.94C864.133 750.069 878.735 751.72 894.173 753.591C925.053 757.333 959.304 761.961 981.42 765.082C981.966 765.159 982.343 765.666 982.262 766.213C982.18 766.759 981.672 767.14 981.126 767.063C959.019 763.943 924.781 759.316 893.918 755.576C878.486 753.706 863.904 752.057 852.105 750.93C840.276 749.8 831.323 749.202 827.1 749.409C826.548 749.436 826.083 749.011 826.06 748.46C826.037 747.908 826.465 747.439 827.017 747.411Z"></path>
<path fill="white" d="M802.007 668.457C806.921 646.836 830.827 633.803 847.683 637.605C871.435 642.963 878.383 672.64 873.469 694.261C868.555 715.881 845.978 719.531 829.888 715.901C803.837 710.025 797.093 690.078 802.007 668.457ZM622.189 667.704C625.961 645.442 649.534 630.833 666.893 633.741C691.353 637.839 700.102 667.618 696.329 689.88C692.557 712.142 669.802 717.134 653.233 714.358C626.406 709.864 618.416 689.966 622.189 667.704Z"></path>
<path fill="#FED43E" d="M804.357 670.321C808.308 652.94 824.895 640.255 840.975 643.882C859.778 648.123 866.744 675.805 862.794 693.186C858.844 710.568 842.401 711.988 826.32 708.361C810.24 704.734 800.407 687.702 804.357 670.321ZM623.63 669.926C626.663 652.03 642.813 638.19 659.372 640.965C678.736 644.209 687.389 671.958 684.357 689.855C681.324 707.752 664.681 710.13 648.122 707.355C631.563 704.581 620.597 687.823 623.63 669.926Z"></path>
<path fill="black" d="M812.561 668.678C815.532 668.035 819.093 672.907 820.515 679.561C821.937 686.215 820.682 692.131 817.711 692.775C814.741 693.418 811.179 688.545 809.757 681.891C808.335 675.237 809.59 669.322 812.561 668.678ZM639.792 667.967C642.818 667.312 646.422 672.166 647.842 678.81C649.262 685.454 647.961 691.372 644.935 692.027C641.909 692.682 638.305 687.827 636.885 681.183C635.465 674.54 636.767 668.623 639.792 667.967Z"></path>
<path fill="#FFCFC2" d="M774.146 706.649C774.075 711.982 764.442 712.001 752.561 711.871C740.68 711.74 731.05 711.51 731.121 706.177C731.192 700.844 740.937 692.428 752.818 692.558C764.699 692.689 774.217 701.316 774.146 706.649Z"></path>
<path fill="white" d="M700.028 1030.61C702.697 1029.9 705.435 1031.48 706.144 1034.15C714.674 1066.26 725.873 1114.95 731.719 1156.65C734.635 1177.46 736.258 1196.79 735.469 1211.53C735.076 1218.87 734.07 1225.41 732.132 1230.52C730.216 1235.57 726.998 1240.17 721.612 1241.76C711.202 1244.85 699.578 1239.92 688.857 1232.11C677.861 1224.11 666.476 1212.12 655.956 1198.42C634.978 1171.11 616.566 1135.86 611.417 1109.29C610.891 1106.58 612.663 1103.96 615.374 1103.43C618.085 1102.9 620.709 1104.68 621.235 1107.39C625.982 1131.88 643.44 1165.71 663.887 1192.33C674.08 1205.6 684.798 1216.79 694.742 1224.03C704.961 1231.47 713.116 1233.85 718.771 1232.18C719.81 1231.87 721.353 1230.74 722.783 1226.97C724.189 1223.27 725.114 1217.91 725.484 1211C726.221 1197.24 724.705 1178.66 721.815 1158.04C716.045 1116.88 704.952 1068.61 696.48 1036.72C695.771 1034.05 697.359 1031.31 700.028 1030.61Z"></path>
<path fill="black" d="M857 701.999C827.4 710.799 858 835.999 877 897.499C908.667 891.832 970.3 872.899 963.5 842.499C955 804.499 894 690.999 857 701.999Z"></path>
<path fill="white" d="M875.126 904.461C872.457 905.17 869.718 903.582 869.009 900.913C860.479 868.804 849.28 820.115 843.435 778.413C840.518 757.605 838.895 738.271 839.684 723.533C840.077 716.194 841.083 709.653 843.022 704.545C844.937 699.499 848.155 694.9 853.541 693.303C863.951 690.217 875.575 695.148 886.297 702.954C897.293 710.961 908.677 722.951 919.197 736.646C940.176 763.958 958.587 799.209 963.737 825.775C964.262 828.486 962.49 831.111 959.779 831.636C957.068 832.162 954.444 830.39 953.919 827.679C949.171 803.186 931.714 769.358 911.266 742.738C901.073 729.468 890.355 718.279 880.411 711.039C870.192 703.598 862.037 701.214 856.383 702.89C855.343 703.199 853.8 704.327 852.37 708.093C850.964 711.798 850.04 717.157 849.67 724.068C848.932 737.83 850.448 756.404 853.339 777.026C859.108 818.185 870.201 866.452 878.674 898.345C879.383 901.014 877.794 903.752 875.126 904.461Z"></path>
<path fill="black" d="M519.222 1067.69C535.689 1054.32 535.545 1072.92 544.881 1081.26C557.24 1092.3 567.622 1091.75 571.938 1121.81C576.254 1151.87 568.69 1208.56 525.53 1226.84C482.37 1245.11 456.474 1179.09 454.482 1158.46C452.49 1137.83 456.498 1117.27 469.755 1107.77C482.697 1098.49 479.471 1080.64 488.678 1071.81C498.919 1062 507.602 1077.12 519.222 1067.69ZM991.355 1081.26C1000.77 1072.92 1000.63 1054.32 1017.23 1067.69C1028.95 1077.12 1037.7 1062 1048.03 1071.81C1057.32 1080.64 1054.06 1098.49 1067.11 1107.77C1080.48 1117.27 1084.52 1137.83 1082.51 1158.46C1080.51 1179.09 1054.39 1245.11 1010.87 1226.84C967.347 1208.56 959.72 1151.87 964.072 1121.81C968.424 1091.75 978.892 1092.3 991.355 1081.26Z"></path>
<path fill="white" d="M528.847 1055C534.781 1054.98 538.666 1058.43 540.994 1061.36C543.08 1063.99 544.954 1067.61 546.184 1069.75C547.682 1072.36 548.897 1074.12 550.211 1075.29C552.895 1077.69 555.45 1079.45 558.344 1081.5C561.136 1083.48 564.322 1085.79 567.266 1088.93C573.482 1095.57 577.571 1104.75 579.857 1120.67C582.174 1136.81 581.304 1159.77 574.127 1181.28C566.93 1202.84 553.034 1223.88 528.649 1234.2C515.743 1239.67 503.681 1238.89 493.145 1234.03C482.915 1229.3 474.59 1220.94 468.081 1211.92C455.174 1194.02 447.659 1171.02 446.52 1159.23C445.457 1148.22 445.955 1136.92 448.678 1126.85C451.396 1116.81 456.504 1107.42 465.094 1101.27C469.165 1098.35 471.004 1094.01 472.937 1087.38C473.817 1084.36 474.841 1080.44 476.206 1076.94C477.627 1073.3 479.684 1069.35 483.143 1066.04C487.028 1062.31 491.304 1060.57 495.776 1060.36C499.719 1060.19 503.391 1061.29 505.592 1061.9C508.236 1062.65 509.582 1062.96 510.797 1062.93C511.606 1062.91 512.628 1062.74 514.181 1061.48C518.708 1057.8 523.594 1055.01 528.847 1055ZM1007.52 1055C1012.78 1055.01 1017.68 1057.78 1022.25 1061.46C1023.82 1062.72 1024.87 1062.91 1025.72 1062.93C1026.97 1062.96 1028.35 1062.64 1031.01 1061.9C1033.23 1061.28 1036.92 1060.19 1040.87 1060.36C1045.34 1060.56 1049.63 1062.3 1053.54 1066.02C1057.03 1069.33 1059.1 1073.27 1060.54 1076.92C1061.91 1080.42 1062.95 1084.35 1063.83 1087.37C1065.78 1093.98 1067.63 1098.32 1071.75 1101.25C1080.4 1107.4 1085.55 1116.78 1088.3 1126.84C1091.05 1136.91 1091.55 1148.22 1090.48 1159.24C1089.33 1171.04 1081.74 1194.05 1068.73 1211.94C1062.16 1220.97 1053.77 1229.32 1043.48 1234.04C1032.88 1238.89 1020.76 1239.66 1007.77 1234.21C983.213 1223.9 969.197 1202.88 961.934 1181.29C954.694 1159.78 953.815 1136.81 956.154 1120.66C958.461 1104.73 962.588 1095.55 968.854 1088.91C971.821 1085.77 975.03 1083.46 977.844 1081.48C980.762 1079.43 983.341 1077.67 986.049 1075.27C987.379 1074.09 988.605 1072.33 990.114 1069.73C991.354 1067.59 993.244 1063.97 995.348 1061.34C997.701 1058.4 1001.6 1054.98 1007.52 1055ZM544.882 1081.26C535.545 1072.92 535.689 1054.32 519.222 1067.69L518.68 1068.11C507.331 1076.65 498.759 1062.15 488.678 1071.81L488.256 1072.23C479.569 1081.19 482.494 1098.64 469.754 1107.77L469.14 1108.22C456.374 1117.91 452.522 1138.15 454.483 1158.46C456.475 1179.09 482.371 1245.11 525.531 1226.84C568.016 1208.85 576.009 1153.63 572.131 1123.24L571.938 1121.81C567.622 1091.75 557.241 1092.3 544.882 1081.26ZM1017.23 1067.69C1000.62 1054.32 1000.77 1072.92 991.354 1081.26C978.891 1092.3 968.423 1091.75 964.071 1121.81L963.876 1123.24C959.966 1153.63 968.027 1208.85 1010.87 1226.84C1054.39 1245.11 1080.5 1179.09 1082.51 1158.46C1084.49 1138.15 1080.61 1117.91 1067.73 1108.22L1067.11 1107.77C1054.27 1098.64 1057.22 1081.19 1048.46 1072.23L1048.03 1071.81C1037.86 1062.15 1029.22 1076.65 1017.78 1068.11L1017.23 1067.69Z"></path>
<path fill="#FF8F8E" d="M513.121 1144.56C528.061 1138.17 541.994 1146.14 544.242 1162.34C546.49 1178.55 536.202 1196.86 521.263 1203.24C506.323 1209.63 492.389 1201.66 490.141 1185.46C487.892 1169.25 498.181 1150.94 513.121 1144.56ZM992.424 1162.34C994.672 1146.14 1008.61 1138.17 1023.54 1144.56C1038.48 1150.94 1048.77 1169.25 1046.53 1185.46C1044.28 1201.66 1030.34 1209.63 1015.4 1203.24C1000.46 1196.86 990.176 1178.55 992.424 1162.34ZM477.5 1134C481.642 1134 485 1139.59 485 1146.5C485 1153.4 481.642 1159 477.5 1159C473.358 1159 470 1153.4 470 1146.5C470 1139.59 473.358 1134 477.5 1134ZM1059.5 1134C1063.64 1134 1067 1139.59 1067 1146.5C1067 1153.4 1063.64 1159 1059.5 1159C1055.36 1159 1052 1153.4 1052 1146.5C1052 1139.59 1055.36 1134 1059.5 1134ZM506.5 1107C510.642 1107 514 1113.04 514 1120.5C514 1127.95 510.642 1134 506.5 1134C502.358 1134 499 1127.95 499 1120.5C499 1113.04 502.358 1107 506.5 1107ZM1029.5 1107C1033.64 1107 1037 1113.04 1037 1120.5C1037 1127.95 1033.64 1134 1029.5 1134C1025.36 1134 1022 1127.95 1022 1120.5C1022 1113.04 1025.36 1107 1029.5 1107ZM535 1102C538.866 1102 542 1107.59 542 1114.5C542 1121.4 538.866 1127 535 1127C531.134 1127 528 1121.4 528 1114.5C528 1107.59 531.134 1102 535 1102ZM1001.5 1102C1005.64 1102 1009 1107.59 1009 1114.5C1009 1121.4 1005.64 1127 1001.5 1127C997.358 1127 994 1121.4 994 1114.5C994 1107.59 997.358 1102 1001.5 1102Z" opacity="0.4"></path>
<path fill="white" d="M602.862 384.035L726.582 230.732L859.5 441L712.871 620.595L602.862 384.035Z"></path>
<path fill="white" d="M1124.06 582.086L864.782 446.683L719.227 627.043L1004.15 737.217L1124.06 582.086Z"></path>
<path fill="white" d="M476.486 385.758L593.504 386.223L703.78 620.957L582.098 629.887L476.486 385.758Z"></path>
<path fill="white" d="M1111.79 713.025L1012.58 742.917L708.065 630.287L830.816 597.174L1111.79 713.025Z"></path>
<path fill="black" d="M977.206 340.445L1139.83 577.138L1133.26 584.317L1133.18 584.272L1055.71 684.504L1126.64 713.752L1012.41 748.173L711.729 636.961L711.452 637.307L711.2 636.766L696.011 631.147L578.714 639.755L464.673 376.146L596.735 376.671L727.111 215.12L726.707 214.477L977.206 340.445ZM1015.19 736.93L1096.94 712.298L1049.38 692.689L1015.19 736.93ZM731.833 629.034L1004.46 734.452L1039.79 688.736L830.467 602.427L731.833 629.034ZM726.639 620.118L831.165 591.922L1046.12 680.552L1121.4 583.163L864.664 449.089L726.639 620.118ZM585.12 629.297L700.58 620.825L590.547 386.607L479.939 386.167L585.12 629.297ZM604.336 383.176L713.774 618.507L858.758 438.854L726.361 231.973L604.336 383.176Z"></path>
<path fill="white" d="M831.5 602.5L732.5 628.5L1008.5 739L1098 712L831.5 602.5Z"></path>
</svg>
