<?xml version="1.0" standalone="no"?><!DOCTYPE svg PUBLIC "-//W3C//DTD SVG 1.1//EN" "http://www.w3.org/Graphics/SVG/1.1/DTD/svg11.dtd"><svg t="1781702186188" class="icon" viewBox="0 0 1024 1024" version="1.1" xmlns="http://www.w3.org/2000/svg" p-id="6595" xmlns:xlink="http://www.w3.org/1999/xlink" width="200" height="200"><path d="M724.97297 608.283475a94.661583 94.661583 0 0 1-7.967189 6.225789c-1.240605 0.933299-2.515355 1.821072-3.778724 2.731608-181.151108 128.021341-199.578077 277.485801-201.148751 317.219309 0-0.409741 0-0.751192-0.079672-1.13817-10.869522-161.415243-141.042003-272.022586-188.037035-306.873345a341.450944 341.450944 0 1 1 401.011371-18.165191zM512.044161 944.680946s-0.182107-3.676288 0.079672-10.243529C525.258313 1129.735976 512.044161 944.680946 512.044161 944.680946z" fill="#F30000" p-id="6596"></path><path d="M399.888908 213.975925a272.546144 272.546144 0 0 1-89.562583 43.83092v52.355811a142.624059 142.624059 0 0 0 36.091365-9.731352 108.900088 108.900088 0 0 0 30.992364-17.664395v230.331425h61.404261V213.975925h-38.925407zM592.854218 518.197335a90.086141 90.086141 0 0 0 79.171092-39.961143q27.407129-39.972524 27.395747-113.464148 0-149.282353-100.898754-149.282353a92.555969 92.555969 0 0 0-80.878347 40.063577q-27.964832 40.063577-27.964832 116.013649 0 146.641799 103.175094 146.630418z m3.01615-255.837811q41.383854 0 41.383854 104.711623 0 104.2905-42.510642 104.301881-43.250453 0-43.250453-101.297113 0-107.70501 44.388622-107.705009z" fill="#FFFFFF" p-id="6597"></path></svg>