<?xml version="1.0" standalone="no"?><!DOCTYPE svg PUBLIC "-//W3C//DTD SVG 1.1//EN" "http://www.w3.org/Graphics/SVG/1.1/DTD/svg11.dtd"><svg t="1781702157452" class="icon" viewBox="0 0 1024 1024" version="1.1" xmlns="http://www.w3.org/2000/svg" p-id="5219" xmlns:xlink="http://www.w3.org/1999/xlink" width="200" height="200"><path d="M724.97297 608.283475a94.661583 94.661583 0 0 1-7.967189 6.225789c-1.240605 0.933299-2.515355 1.821072-3.778724 2.731608-181.151108 128.021341-199.578077 277.485801-201.148751 317.219309 0-0.409741 0-0.751192-0.079672-1.13817-10.869522-161.415243-141.042003-272.022586-188.037035-306.873345a341.450944 341.450944 0 1 1 401.011371-18.165191zM512.044161 944.680946s-0.182107-3.676288 0.079672-10.243529C525.258313 1129.735976 512.044161 944.680946 512.044161 944.680946z" fill="#F30000" p-id="5220"></path><path d="M489.337673 442.235881a260.936812 260.936812 0 0 1 39.835944-32.688237 279.819049 279.819049 0 0 0 44.7756-37.218153 116.15023 116.15023 0 0 0 21.352066-33.166268 101.854817 101.854817 0 0 0 7.37534-39.585546 77.771143 77.771143 0 0 0-25.517767-61.688804 101.41093 101.41093 0 0 0-69.337305-22.399182 155.587814 155.587814 0 0 0-86.170837 24.755193v54.427281a108.239949 108.239949 0 0 1 72.18273-30.241172q43.091109 0 43.079727 39.494492a59.776679 59.776679 0 0 1-11.381698 34.668653 179.477998 179.477998 0 0 1-39.676599 37.559604 284.633507 284.633507 0 0 0-45.731664 38.265269 133.427647 133.427647 0 0 0-23.138992 35.283264 101.501984 101.501984 0 0 0-8.411075 41.759451v21.727661h194.627038v-50.830663H479.12829a32.893108 32.893108 0 0 1 10.209383-20.122843z" fill="#FFFFFF" p-id="5221"></path></svg>