<?xml version="1.0" standalone="no"?><!DOCTYPE svg PUBLIC "-//W3C//DTD SVG 1.1//EN" "http://www.w3.org/Graphics/SVG/1.1/DTD/svg11.dtd"><svg t="1781702161242" class="icon" viewBox="0 0 1024 1024" version="1.1" xmlns="http://www.w3.org/2000/svg" p-id="5391" xmlns:xlink="http://www.w3.org/1999/xlink" width="200" height="200"><path d="M724.97297 608.283475a94.661583 94.661583 0 0 1-7.967189 6.225789c-1.240605 0.933299-2.515355 1.821072-3.778724 2.731608-181.151108 128.021341-199.578077 277.485801-201.148751 317.219309 0-0.409741 0-0.751192-0.079672-1.13817-10.869522-161.415243-141.042003-272.022586-188.037035-306.873345a341.450944 341.450944 0 1 1 401.011371-18.165191zM512.044161 944.680946s-0.182107-3.676288 0.079672-10.243529C525.258313 1129.735976 512.044161 944.680946 512.044161 944.680946z" fill="#F30000" p-id="5392"></path><path d="M418.281732 503.275928a152.890351 152.890351 0 0 0 72.751814 14.921407 130.1611 130.1611 0 0 0 81.344997-23.423535 77.577655 77.577655 0 0 0 30.514333-65.194367 64.067579 64.067579 0 0 0-18.324534-46.198313 77.395547 77.395547 0 0 0-48.941302-22.3878v-0.944681q58.194623-14.796208 58.194622-72.18273a62.474141 62.474141 0 0 0-25.881981-53.186675 110.470762 110.470762 0 0 0-67.459325-19.189543 152.822061 152.822061 0 0 0-71.238049 15.68398v50.455068a99.237026 99.237026 0 0 1 57.261323-19.269215q45.162578 0 45.151197 37.411642 0 39.6766-58.945815 39.676599h-24.004001v47.05194h26.07547a90.41621 90.41621 0 0 1 48.474653 10.960576 35.362936 35.362936 0 0 1 17.288799 31.743556 36.72874 36.72874 0 0 1-14.557192 31.174471 63.817181 63.817181 0 0 1-39.301003 10.960575 111.017084 111.017084 0 0 1-68.404006-21.92115v53.858195z" fill="#FFFFFF" p-id="5393"></path></svg>