<?xml version="1.0" standalone="no"?><!DOCTYPE svg PUBLIC "-//W3C//DTD SVG 1.1//EN" "http://www.w3.org/Graphics/SVG/1.1/DTD/svg11.dtd"><svg t="1781702173560" class="icon" viewBox="0 0 1024 1024" version="1.1" xmlns="http://www.w3.org/2000/svg" p-id="5907" xmlns:xlink="http://www.w3.org/1999/xlink" width="200" height="200"><path d="M724.97297 608.283475a94.661583 94.661583 0 0 1-7.967189 6.225789c-1.240605 0.933299-2.515355 1.821072-3.778724 2.731608-181.151108 128.021341-199.578077 277.485801-201.148751 317.219309 0-0.409741 0-0.751192-0.079672-1.13817-10.869522-161.415243-141.042003-272.022586-188.037035-306.873345a341.450944 341.450944 0 1 1 401.011371-18.165191zM512.044161 944.680946s-0.182107-3.676288 0.079672-10.243529C525.258313 1129.735976 512.044161 944.680946 512.044161 944.680946z" fill="#F30000" p-id="5908"></path><path d="M592.694874 223.434116a139.721726 139.721726 0 0 0-52.355811-7.967189 113.623493 113.623493 0 0 0-96.459892 46.391802q-34.668653 46.38042-34.668653 120.646 0 63.122898 26.735609 99.39637a89.81298 89.81298 0 0 0 76.997188 36.273472A96.300548 96.300548 0 0 0 584.943938 489.41302a100.158944 100.158944 0 0 0 28.158321-73.024975 97.324901 97.324901 0 0 0-21.625227-65.661017 73.070502 73.070502 0 0 0-58.479165-25.221843 69.428359 69.428359 0 0 0-62.166835 32.119152h-1.13817a109.901677 109.901677 0 0 1 20.316331-68.688548 64.727717 64.727717 0 0 1 54.131357-26.54212 96.744434 96.744434 0 0 1 48.565706 12.656448v-51.581856z m-109.685425 160.607143a37.115718 37.115718 0 0 1 29.592415-13.032045q40.609899 0 40.621281 49.316898a59.594571 59.594571 0 0 1-10.767087 36.421434 36.558014 36.558014 0 0 1-59.332792-1.331658 64.54561 64.54561 0 0 1-11.381698-38.53843 48.542943 48.542943 0 0 1 11.267881-32.836199z" fill="#FFFFFF" p-id="5909"></path></svg>