<?xml version="1.0" standalone="no"?><!DOCTYPE svg PUBLIC "-//W3C//DTD SVG 1.1//EN" "http://www.w3.org/Graphics/SVG/1.1/DTD/svg11.dtd"><svg t="1781702176045" class="icon" viewBox="0 0 1024 1024" version="1.1" xmlns="http://www.w3.org/2000/svg" p-id="6079" xmlns:xlink="http://www.w3.org/1999/xlink" width="200" height="200"><path d="M724.97297 608.283475a94.661583 94.661583 0 0 1-7.967189 6.225789c-1.240605 0.933299-2.515355 1.821072-3.778724 2.731608-181.151108 128.021341-199.578077 277.485801-201.148751 317.219309 0-0.409741 0-0.751192-0.079672-1.13817-10.869522-161.415243-141.042003-272.022586-188.037035-306.873345a341.450944 341.450944 0 1 1 401.011371-18.165191zM512.044161 944.680946s-0.182107-3.676288 0.079672-10.243529C525.258313 1129.735976 512.044161 944.680946 512.044161 944.680946z" fill="#F30000" p-id="6080"></path><path d="M622.02551 220.406584h-204.073848v50.261579H557.570954a852.910314 852.910314 0 0 0-66.01385 126.507575 540.630662 540.630662 0 0 0-33.348375 115.922596h65.569963a545.593082 545.593082 0 0 1 16.82215-77.088242 607.224977 607.224977 0 0 1 28.454245-75.779346q17.482288-38.925408 53.004568-102.594627v-37.229535z" fill="#FFFFFF" p-id="6081"></path></svg>