<?xml version="1.0" standalone="no"?>
<svg
  t="1781702224326"
  class="icon"
  viewBox="0 0 1024 1024"
  version="1.1"
  xmlns="http://www.w3.org/2000/svg"
  xmlns:xlink="http://www.w3.org/1999/xlink"
  width="200"
  height="200"
>
  <!-- 外层轮廓：保留原轮廓，删除底部异常细斜线子路径 -->
  <path
    d="M717.061588 612.801719a79.853288 79.853288 0 0 1-7.879518 6.191049l-3.737143 2.70155C526.287198 748.32943 508.051742 896.126677 506.509607 935.411703c0-0.337694 0-0.675387-0.078795-1.125645-10.749914-159.616524-139.489984-269.029262-185.967884-303.474012a337.783685 337.783685 0 1 1 396.59866-18.010327z"
    fill="#2FBF71"
  />

  <!-- 原高光结构保留，颜色不变 -->
  <path
    d="M517.732293 0.000338a337.603582 337.603582 0 0 1 210.58575 601.544926 79.853288 79.853288 0 0 1-7.879519 6.19105l-3.737142 2.701549a640.998799 640.998799 0 0 0-33.62303 25.552152l-400.842343-540.309814A336.46668 336.46668 0 0 1 517.732293 0.000338z"
    fill="#FFFFFF"
    opacity=".2"
  />

  <!-- 内部图标：X 替换为四宫格 -->
  <g transform="translate(337 180) scale(0.33)">
    <path
      d="M483.2 483.2H243.2C108.8 483.2 3.2 374.4 3.2 243.2S112 3.2 243.2 3.2s240 108.8 240 240v240zM240 64C144 64 64 144 64 240S144 416 240 416H416V240c3.2-96-76.8-176-176-176zM784 483.2H544V243.2C544 108.8 652.8 3.2 784 3.2S1024 112 1024 243.2s-108.8 240-240 240z m-179.2-64h176c96 0 176-80 176-176S880 64 784 64 608 144 608 240v179.2zM240 1024C105.6 1024 0 915.2 0 784S108.8 544 240 544H480v240c3.2 131.2-105.6 240-240 240z m0-419.2c-96 0-176 80-176 176s80 176 176 176 176-80 176-176v-176H240zM784 1024c-134.4 0-240-108.8-240-240V544h240c134.4 0 240 108.8 240 240S915.2 1024 784 1024z m-179.2-419.2v176c0 96 80 176 176 176s176-80 176-176-80-176-176-176h-176z"
      fill="#FFFFFF"
    />
  </g>
</svg>