<?xml version="1.0" standalone="no"?><!DOCTYPE svg PUBLIC "-//W3C//DTD SVG 1.1//EN" "http://www.w3.org/Graphics/SVG/1.1/DTD/svg11.dtd"><svg t="1781702237525" class="icon" viewBox="0 0 1024 1024" version="1.1" xmlns="http://www.w3.org/2000/svg" p-id="7284" xmlns:xlink="http://www.w3.org/1999/xlink" width="200" height="200"><path d="M724.958956 608.283614a94.661552 94.661552 0 0 1-7.967186 6.225787c-1.240605 0.933299-2.515354 1.821071-3.778722 2.731606-181.151047 128.021298-199.57801 277.485708-201.148685 317.219204 0-0.409741 0-0.751192-0.079671-1.13817-10.869518-161.415189-141.041956-272.022495-188.036973-306.873243a341.45083 341.45083 0 1 1 401.011237-18.165184zM512.030218 944.680972s-0.182107-3.676287 0.079672-10.243525C525.244366 1129.73594 512.030218 944.680972 512.030218 944.680972z" fill="#EC563E" p-id="7285"></path><path d="M512.030218 0.000341a341.38254 341.38254 0 0 1 212.928738 608.283273 94.661552 94.661552 0 0 1-7.967186 6.225787c-1.240605 0.933299-2.515354 1.821071-3.778722 2.731606a629.76053 629.76053 0 0 0-33.997121 25.813683L273.959318 96.744743A340.244371 340.244371 0 0 1 512.030218 0.000341z" fill="#FFFFFF" opacity=".2" p-id="7286"></path><path d="M710.379006 334.087216L527.429651 517.03657a22.114632 22.114632 0 0 1-31.276896 0L313.2034 334.087216a22.137396 22.137396 0 0 1 0-31.276896l182.949355-182.949355a22.114632 22.114632 0 0 1 31.276896 0l182.949355 182.949355a22.114632 22.114632 0 0 1 0 31.276896z m-97.962244-34.429626a22.114632 22.114632 0 0 0-22.114632-22.114632h-39.83593v-39.83593a22.10325 22.10325 0 0 0-22.10325-22.114632h-35.385688a22.10325 22.10325 0 0 0-22.114632 22.114632v39.83593h-42.021216a22.114632 22.114632 0 0 0-22.114632 22.114632v35.374306a22.10325 22.10325 0 0 0 22.114632 22.114632h42.021216v42.021216a22.114632 22.114632 0 0 0 22.114632 22.114632h35.385688a22.10325 22.10325 0 0 0 22.10325-22.114632v-42.021216h39.83593a22.10325 22.10325 0 0 0 22.114632-22.114632v-35.374306z" fill="#FFFFFF" p-id="7287"></path></svg>