<?xml version="1.0" standalone="no"?><!DOCTYPE svg PUBLIC "-//W3C//DTD SVG 1.1//EN" "http://www.w3.org/Graphics/SVG/1.1/DTD/svg11.dtd"><svg t="1782397302064" class="icon" viewBox="0 0 1024 1024" version="1.1" xmlns="http://www.w3.org/2000/svg" p-id="3643" xmlns:xlink="http://www.w3.org/1999/xlink" width="200" height="200"><path d="M720.228174 605.985391a91.870609 91.870609 0 0 1-7.791304 6.088348c-1.213217 0.912696-2.459826 1.78087-3.684174 2.671304C531.634087 739.951304 513.613913 886.116174 512.077913 924.93913L512 923.826087c-10.629565-157.851826-137.928348-266.017391-183.885913-300.098783a333.913043 333.913043 0 1 1 392.114087-17.741913zM512 934.956522s-0.178087-3.59513 0.077913-10.017392c12.844522 190.98713-0.077913 10.017391-0.077913 10.017392z" fill="#01B26D" p-id="3644"></path><path d="M512 11.130435a333.846261 333.846261 0 0 1 208.228174 594.854956 91.870609 91.870609 0 0 1-7.791304 6.088348c-1.213217 0.912696-2.459826 1.78087-3.684174 2.671304a615.858087 615.858087 0 0 0-33.246609 25.243827L279.195826 105.73913A332.733217 332.733217 0 0 1 512 11.130435z" fill="#FFFFFF" opacity=".2" p-id="3645"></path><path d="M580.396522 155.826087h20.513391v73.46087h75.230609v275.47826H701.217391V523.130435H322.782609v-18.365218h31.910956V233.883826l132.229565-73.460869V504.765217h18.242783V229.286957h75.230609V155.826087z m-25.07687 128.556522v146.921739h18.231652v-146.921739h-18.231652z m52.435478 0v146.921739h18.242783v-146.921739H607.721739z m-214.305391 32.144695v18.365218h56.998957v-18.365218h-56.987826z m0 41.316174v18.365218h56.998957v-18.365218h-56.987826z m0 41.316174v18.365218h56.998957v-18.365218h-56.987826z m161.869913 68.875131v18.365217h70.667131v-18.365217h-70.667131z" fill="#FFFFFF" p-id="3646"></path></svg>