<?xml version="1.0" standalone="no"?><!DOCTYPE svg PUBLIC "-//W3C//DTD SVG 1.1//EN" "http://www.w3.org/Graphics/SVG/1.1/DTD/svg11.dtd"><svg t="1781702224326" class="icon" viewBox="0 0 1024 1024" version="1.1" xmlns="http://www.w3.org/2000/svg" p-id="6938" xmlns:xlink="http://www.w3.org/1999/xlink" width="200" height="200"><path d="M717.061588 612.801719a79.853288 79.853288 0 0 1-7.879518 6.191049l-3.737143 2.70155C526.287198 748.32943 508.051742 896.126677 506.509607 935.411703c0-0.337694 0-0.675387-0.078795-1.125645-10.749914-159.616524-139.489984-269.029262-185.967884-303.474012a337.783685 337.783685 0 1 1 396.59866-18.010327zM506.475838 945.542512s-0.180103-3.602065 0.078795-10.130809c12.989948 193.160759-0.078795 10.130809-0.078795 10.130809z" fill="#EE6B02" p-id="6939"></path><path d="M517.732293 0.000338a337.603582 337.603582 0 0 1 210.58575 601.544926 79.853288 79.853288 0 0 1-7.879519 6.19105l-3.737142 2.701549a640.998799 640.998799 0 0 0-33.62303 25.552152l-400.842343-540.309814A336.46668 336.46668 0 0 1 517.732293 0.000338z" fill="#FFFFFF" opacity=".2" p-id="6940"></path><path d="M644.626304 180.103609a124.732772 124.732772 0 0 1 18.415559 4.615146 65.287436 65.287436 0 0 0 7.676902 7.654389 14.228158 14.228158 0 0 0 3.073012 6.19105c0.50654 4.052324 1.024337 8.104647 1.530878 12.269536h-1.530878v7.654389c-4.783993 12.494664-22.951911 26.00241-32.238485 35.232702l-15.353804 16.884682c-4.086093 3.602065-8.183442 7.204131-12.280792 10.693632-1.530878 2.138726-3.061756 4.164888-4.60389 6.19105h-3.061756l-32.238485 33.769363-27.634596 26.00241v3.151807a57.565508 57.565508 0 0 1 10.749914 10.693632l23.01945 22.963167q33.769363 33.093976 67.538726 65.962823l12.280792 13.845439c2.048675 1.575904 4.097349 3.039243 6.146024 4.615146a40.793391 40.793391 0 0 0 6.134768 9.230293v6.078485h1.542134a25.214458 25.214458 0 0 1-10.749914 26.114975l-1.530878 3.039242a14.779725 14.779725 0 0 0-6.146024 3.039243 50.912944 50.912944 0 0 1-24.561583-3.039243q-46.804338-46.095181-93.631189-92.077797v-3.039243c-3.061756-2.588985-6.134768-5.065405-9.207779-7.654389-5.549432-5.515663-15.331291-19.361102-23.01945-21.499828a43.967711 43.967711 0 0 1-9.219036 9.230293L472.706475 420.87917c-6.134768 6.641308-12.280792 13.282616-18.41556 20.036489-3.073012 2.47642-6.146024 5.065405-9.219036 7.654389v3.039243c-12.269535 11.706713-24.550327 23.52599-36.831119 35.232702-8.712496 8.780034-21.803752 28.253701-36.842375 29.154217-5.313047 5.065405-16.704578-1.913597-21.488572-3.039243-2.048675-2.588985-4.097349-5.065405-6.146024-7.654389h-1.530878v-3.039242h-1.530878v-3.151808h-1.542134v-4.615146H337.629021l1.530878-15.308778h1.542134v-3.039243h1.530878a160.179347 160.179347 0 0 1 30.696351-32.193459q46.815594-47.614802 93.642445-95.117041a44.508021 44.508021 0 0 1-9.219036-9.230292l-19.946438-19.923925c-9.725577-9.230293-19.451153-18.460585-29.165473-27.578313v-3.151807c-4.60389-4.052324-9.20778-8.104647-13.822926-12.269536-8.689983-9.117728-17.391222-18.348021-26.092462-27.578313-8.12716-8.104647-23.931222-19.135973-27.623339-30.617556v-15.421343a13.192565 13.192565 0 0 0 3.061756-7.654389c1.024337-0.450258 2.048675-1.013081 3.073012-1.463339a30.392427 30.392427 0 0 1 7.676902-7.654389h3.073012v-1.575904h4.60389v-1.575903c16.535732-5.177969 30.392427 13.62031 36.842375 19.923924q39.892875 39.172462 79.808262 78.232359l26.103718 27.690878h3.061756a56.180964 56.180964 0 0 1 10.749914-10.806197l26.092461-26.002409 85.954287-87.462652c4.615146-1.575904 9.219036-3.039243 13.822926-4.615146z" fill="#FFFFFF" p-id="6941"></path></svg>