<?xml version="1.0" standalone="no"?><!DOCTYPE svg PUBLIC "-//W3C//DTD SVG 1.1//EN" "http://www.w3.org/Graphics/SVG/1.1/DTD/svg11.dtd"><svg t="1781702068803" class="icon" viewBox="0 0 1024 1024" version="1.1" xmlns="http://www.w3.org/2000/svg" p-id="3817" xmlns:xlink="http://www.w3.org/1999/xlink" width="200" height="200"><path d="M724.848405 608.07964a94.092936 94.092936 0 0 1-7.964336 6.223559c-1.240161 0.932965-2.514455 1.82042-3.765993 2.73063C532.065973 745.020702 513.645602 894.431637 512.075491 934.116784c0-0.409594 0-0.750923-0.079644-1.137762-10.865629-161.357439-140.991495-271.925173-187.969698-306.763452a341.328669 341.328669 0 1 1 400.822256-18.13593zM511.995847 944.356644s-0.182042-3.674972 0.079644-10.23986C525.205267 1129.345405 511.995847 944.356644 511.995847 944.356644z" fill="#029DBE" p-id="3818"></path><path d="M511.995847 0.013994a341.260403 341.260403 0 0 1 212.852558 608.065646 94.092936 94.092936 0 0 1-7.964336 6.223559c-1.240161 0.932965-2.514455 1.82042-3.765993 2.73063a629.535219 629.535219 0 0 0-33.984957 25.804447L274.010122 96.723784A340.122641 340.122641 0 0 1 511.995847 0.013994z" fill="#FFFFFF" opacity=".2" p-id="3819"></path><path d="M352.709135 166.764427h318.573424a22.755245 22.755245 0 0 1 22.755245 22.755244V477.87413a22.755245 22.755245 0 0 1-22.755245 22.755245H352.709135a22.755245 22.755245 0 0 1-22.755244-22.755245V189.519671a22.755245 22.755245 0 0 1 22.755244-22.755244z m27.806909 30.457895h262.959606a20.229412 20.229412 0 0 1 20.229413 20.229412V227.56644c0 11.172825-9.102098 30.344119-20.229413 30.344119H380.516044c-11.172825 0-20.229412-19.171294-20.229412-30.344119v-10.114706a20.229412 20.229412 0 0 1 20.229412-20.229412zM410.837407 136.545462a20.092881 20.092881 0 0 1 20.092881 20.092881v40.891174a20.092881 20.092881 0 0 1-40.174384 0v-40.891174A20.092881 20.092881 0 0 1 410.837407 136.545462zM603.016825 136.545462a20.229412 20.229412 0 0 1 20.229413 20.229412v40.606734A20.229412 20.229412 0 0 1 603.016825 217.611021a20.229412 20.229412 0 0 1-20.229412-20.229413v-40.606734A20.229412 20.229412 0 0 1 603.016825 136.545462z" fill="#FFFFFF" p-id="3820"></path><path d="M454.481967 362.823614l26.054755 43.621804s42.336133-88.643055 109.10002-118.190741c-1.627 21.105489-8.146378 39.400706 3.254 61.905643-29.308755 5.631923-89.564643 68.948391-109.10002 99.906902-27.681755-29.581818-60.301398-52.064-83.056643-59.095371z" fill="#029DBE" p-id="3821"></path></svg>