<?xml version="1.0" standalone="no"?><!DOCTYPE svg PUBLIC "-//W3C//DTD SVG 1.1//EN" "http://www.w3.org/Graphics/SVG/1.1/DTD/svg11.dtd"><svg t="1781702245684" class="icon" viewBox="0 0 1024 1024" version="1.1" xmlns="http://www.w3.org/2000/svg" p-id="7457" xmlns:xlink="http://www.w3.org/1999/xlink" width="200" height="200"><path d="M724.888924 608.338326a80.720063 80.720063 0 0 1-7.965047 6.258251l-3.777708 2.730874C532.043754 745.337137 513.621738 894.738664 512.051486 934.450113c0-0.341359-0.056893-0.682718-0.07965-1.137864-10.8666-161.349098-141.004092-271.949466-187.986491-306.768101a341.450192 341.450192 0 1 1 400.903579-18.205822zM512.01735 944.690888s-0.182058-3.641164 0.079651-10.240775C525.22795 1129.707554 512.01735 944.690888 512.01735 944.690888z" fill="#EE6B02" p-id="7458"></path><path d="M512.01735 0.263871a341.268134 341.268134 0 0 1 212.871574 608.074455 80.720063 80.720063 0 0 1-7.965047 6.258251l-3.777708 2.730874a647.956584 647.956584 0 0 0-33.987994 25.82951L273.976227 96.9823A340.084755 340.084755 0 0 1 512.01735 0.263871z" fill="#FFFFFF" opacity=".2" p-id="7459"></path><path d="M368.646502 137.148895H409.609601v81.357267h2.560194v-2.617087c2.560194-0.796505 5.120387-1.593009 7.680581-2.5033 3.413592-4.210096 6.827183-8.420193 10.240775-12.744076h5.120388l10.240774-12.630289h5.120388c3.413592-4.323883 6.827183-8.533979 10.240775-12.744075h5.120387c3.413592-4.210096 6.827183-8.533979 10.240775-12.744076h5.120388c2.560194-3.413592 5.120387-6.713397 7.680581-10.126988h5.120387l2.560194-5.120388a115.333882 115.333882 0 0 0 12.800969-10.126988c5.143145 1.479223 2.218835-0.341359 5.120387 2.5033 11.025901 2.84466 8.818445 8.078834 15.361162 12.744076h5.120388c3.413592 4.210096 6.827183 8.420193 10.240775 12.744075h5.120387l10.240775 12.630289h5.120387l2.560194 5.120388h2.560194l2.560194 5.120387h5.120387l10.240775 12.630289h5.120387c3.413592 4.323883 6.827183 8.533979 10.240775 12.744076h5.120388c3.413592 4.210096 6.827183 8.533979 10.240775 12.744075h5.120387l10.240775 12.630289h5.120387c3.413592 4.323883 6.827183 8.533979 10.240775 12.744075h5.120388c3.413592 4.210096 6.827183 8.533979 10.240775 12.744076h5.120387c2.560194 3.413592 5.120387 6.827183 7.680581 10.126988h5.120388l7.680581 10.240775c2.560194 0.796505 5.120387 1.706796 7.680581 2.503301l2.560194 5.120387a59.020999 59.020999 0 0 0 15.361162 10.126989V307.487117a85.499092 85.499092 0 0 0-23.041744 27.991452 63.424532 63.424532 0 0 1-17.921356-10.240775V503.199704H716.832848V546.438531H593.943549V340.48517H430.091151V546.438531H307.201853v-43.238827h40.963099V325.237794h-2.560194c-1.558874 2.730873-10.411454 12.061357-15.361162 10.240775v-2.617087c-4.471805-3.527378-0.261709-2.161941-2.560194-5.006601-1.706796-0.910291-3.413592-1.706796-5.120387-2.617087-1.706796-2.503301-3.413592-5.120387-5.120388-7.623688h-2.560193v-5.120388h-2.560194a19.696424 19.696424 0 0 1-5.120387-10.126988l25.601937-17.750677c1.706796-2.617087 3.413592-5.120387 5.120387-7.623688h5.120388c3.413592-4.323883 6.827183-8.533979 10.240775-12.744075h5.120387c2.560194-3.413592 5.120387-6.827183 7.680581-10.126989h2.560194V137.148895z m102.407749 244.071801h81.926199V546.438531h-81.926199V381.220696z" fill="#FFFFFF" p-id="7460"></path></svg>