<?xml version="1.0" standalone="no"?><!DOCTYPE svg PUBLIC "-//W3C//DTD SVG 1.1//EN" "http://www.w3.org/Graphics/SVG/1.1/DTD/svg11.dtd"><svg t="1781702095610" class="icon" viewBox="0 0 1024 1024" version="1.1" xmlns="http://www.w3.org/2000/svg" p-id="4873" xmlns:xlink="http://www.w3.org/1999/xlink" width="200" height="200"><path d="M724.834258 608.101913a94.292684 94.292684 0 0 1-7.963909 6.223226c-1.240094 0.932915-2.51432 1.820322-3.765791 2.730483C532.06215 745.035641 513.642766 894.438576 512.072738 934.121597L511.993099 932.983896c-10.865047-161.348798-140.983945-271.91061-187.959632-306.747024a341.31039 341.31039 0 1 1 400.800791-18.134959zM511.993099 944.360909s-0.182032-3.674775 0.079639-10.239312C525.201811 1129.339763 511.993099 944.360909 511.993099 944.360909z" fill="#EE6B02" p-id="4874"></path><path d="M511.993099 0.068831a341.242128 341.242128 0 0 1 212.841159 608.033082 94.292684 94.292684 0 0 1-7.963909 6.223226c-1.240094 0.932915-2.51432 1.820322-3.765791 2.730483a629.501506 629.501506 0 0 0-33.983138 25.803066L274.031495 96.773441A340.104426 340.104426 0 0 1 511.993099 0.068831z" fill="#FFFFFF" opacity=".2" p-id="4875"></path><path d="M671.271281 500.657402H352.714917a22.754026 22.754026 0 0 1-22.754026-22.754026V189.564359a22.754026 22.754026 0 0 1 22.754026-22.754026h38.044732v-10.125541a20.091805 20.091805 0 0 1 40.172232 0v10.136918h151.814862v-10.000394A20.228329 20.228329 0 0 1 603.009203 136.592987a20.228329 20.228329 0 0 1 20.228329 20.228329v9.989017H671.271281a22.754026 22.754026 0 0 1 22.754026 22.754026V477.903376a22.754026 22.754026 0 0 1-22.754026 22.754026z m-7.588468-283.162476a20.228329 20.228329 0 0 0-20.228329-20.228329h-20.182821v0.159278A20.228329 20.228329 0 0 1 603.009203 217.654204a20.228329 20.228329 0 0 1-20.228329-20.228329v-0.159278H430.931881v0.295802a20.091805 20.091805 0 0 1-40.172232 0v-0.295802h-10.239312a20.228329 20.228329 0 0 0-20.228329 20.228329V227.609091c0 11.172227 9.10161 30.342494 20.228329 30.342493h262.945524c11.172227 0 20.228329-19.170267 20.228329-30.342493v-10.114165z" fill="#FFFFFF" p-id="4876"></path><path d="M454.482298 362.859021l26.05336 43.619468s42.333865-88.638308 109.094178-118.184411c-1.626913 21.104359-8.145941 39.398596 3.253825 61.902328-29.307185 5.631621-89.559846 68.944699-109.105554 99.901551-27.680273-29.580234-60.298169-52.061211-83.052195-59.092206z" fill="#EE6B02" p-id="4877"></path></svg>