<?xml version="1.0" standalone="no"?><!DOCTYPE svg PUBLIC "-//W3C//DTD SVG 1.1//EN" "http://www.w3.org/Graphics/SVG/1.1/DTD/svg11.dtd"><svg t="1783330998593" class="icon" viewBox="0 0 1204 1024" version="1.1" xmlns="http://www.w3.org/2000/svg" p-id="5788" xmlns:xlink="http://www.w3.org/1999/xlink" width="235.15625" height="200"><path d="M0 768.592538a602.018332 255.407462 0 1 0 1204.036663 0 602.018332 255.407462 0 1 0-1204.036663 0Z" fill="#FF6E83" p-id="5789"></path><path d="M1171.138969 696.160726L1099.750023 176.05481H104.28664L32.897695 696.160726a108.742524 108.742524 0 0 0-3.792242 27.588556C29.105453 857.99463 285.650588 967.021572 602.018332 967.021572s572.912878-108.83733 572.912878-243.082677a104.28664 104.28664 0 0 0-3.792241-27.778169z" fill="#FCF0E6" p-id="5790"></path><path d="M78.973428 155.95593a523.044903 155.95593 0 1 0 1046.089807 0 523.044903 155.95593 0 1 0-1046.089807 0Z" fill="#FF6E83" p-id="5791"></path><path d="M163.730025 143.536339a438.288307 130.642718 0 1 0 876.576613 0 438.288307 130.642718 0 1 0-876.576613 0Z" fill="#F7999F" p-id="5792"></path><path d="M191.034164 143.536339a34.130173 31.09638 90 1 0 62.192759 0 34.130173 31.09638 90 1 0-62.192759 0Z" fill="#FFFFFF" p-id="5793"></path><path d="M466.161281 700.806222a56.883622 56.883622 0 0 1 26.07166-47.403019 48.540691 48.540691 0 0 1 55.177114 7.963707c30.906768 28.441811 22.374225 99.451532-3.792242 111.96593s-78.499398-28.821035-77.456532-72.526618zM673.122859 896.675493c-7.584483 22.753449-54.323859 23.701509-94.332006 24.459957s-83.998148 1.706509-92.151468-19.719655C476.210721 874.01685 522.950097 805.85131 579.170077 805.85131S682.603463 868.802518 673.122859 896.675493zM414.966022 817.512453a48.256273 48.256273 0 0 1 7.015646-50.2472 37.922415 37.922415 0 0 1 46.265346-4.266271c25.408018 15.263772 32.423664 61.434312 15.832608 78.120174s-57.452458 5.119526-69.1136-23.606703zM699.858161 762.050921a32.234052 32.234052 0 0 1 39.72373 7.584483 39.154893 39.154893 0 0 1 3.602629 37.922415c-10.04944 24.175539-45.222479 33.845755-58.779743 19.719655s-6.826035-53.755023 15.453384-65.226553zM616.239237 662.504583c14.789742-12.135173 40.861402-18.107953 59.064161-3.128599A56.883622 56.883622 0 0 1 692.084066 708.959541c-5.309138 41.809462-56.883622 74.327933-80.490325 59.727803s-26.830108-80.679937 4.645496-106.182761z" fill="#F7999F" p-id="5794"></path></svg>