<?xml version="1.0" standalone="no"?><!DOCTYPE svg PUBLIC "-//W3C//DTD SVG 1.1//EN" "http://www.w3.org/Graphics/SVG/1.1/DTD/svg11.dtd"><svg t="1783331596475" class="icon" viewBox="0 0 1024 1024" version="1.1" xmlns="http://www.w3.org/2000/svg" p-id="12782" xmlns:xlink="http://www.w3.org/1999/xlink" width="200" height="200"><path d="M800.0256 564.4544c-42.4448 42.4448-111.2576 42.4448-153.7024 0l-217.216-217.216c-42.4448-42.4448-42.4448-111.2576 0-153.7024s111.2576-42.4448 153.7024 0l217.216 217.216c42.4448 42.4448 42.4448 111.2576 0 153.7024z" fill="#A2A1D1" p-id="12783"></path><path d="M431.6672 192.5888s-17.024 77.44 25.344 119.7824 108.9536 108.9536 108.9536 108.9536l-35.6608 30.5664-124.8256-129.664s-40.1664-60.1856 26.1888-129.6384z" fill="#8B8BC6" p-id="12784"></path><path d="M800.0256 564.4544c-42.4448 42.4448-110.1056 43.5968-151.1168 2.5856l-115.3792-115.3792 153.7024-153.7024 115.3792 115.3792c41.0112 41.0112 39.8592 108.672-2.5856 151.1168z" fill="#BC88B8" p-id="12785"></path><path d="M570.2912 425.9584l115.9424 116.1984s48.3328 39.7056 109.44 13.1072c-28.3136 25.3696-90.3168 59.3152-151.3472 10.624s-108.8512-110.0288-108.8512-110.0288l34.816-29.9008z" fill="#B279B1" p-id="12786"></path><path d="M644.7872 822.8096c-42.4448 42.4448-111.2576 42.4448-153.7024 0l-217.216-217.216c-42.4448-42.4448-42.4448-111.2576 0-153.7024s111.2576-42.4448 153.7024 0l217.216 217.216c42.4448 42.4448 42.4448 111.2576 0 153.7024z" fill="#FFE08A" p-id="12787"></path><path d="M286.9248 453.2736s-12.4928 77.1072 20.8384 111.872c33.3312 34.7648 99.968 104.1152 99.968 104.1152l-33.8944 30.1824-120.32-126.592c-0.0256 0-37.4016-54.8352 33.408-119.5776z" fill="#F4CC69" p-id="12788"></path><path d="M644.7872 822.8096c-42.4448 42.4448-110.1056 43.5968-151.1168 2.5856l-115.3792-115.3792 153.7024-153.7024 115.3792 115.3792c41.0112 41.0112 39.8592 108.672-2.5856 151.1168z" fill="#FFA869" p-id="12789"></path><path d="M420.3008 681.1904l104.448 103.8848c16.0512 15.9744 36.0704 27.6224 58.1376 32.7168 17.792 4.1216 39.4752 4.8384 63.2832-3.3536-26.0352 20.8384-75.648 64.128-145.6128 8.6272-69.9648-55.5008-110.1312-110.1312-110.1312-110.1312l29.8752-31.744z" fill="#F4914E" p-id="12790"></path><path d="M838.016 705.8432m-29.312 0a29.312 29.312 0 1 0 58.624 0 29.312 29.312 0 1 0-58.624 0Z" fill="#FFA869" p-id="12791"></path><path d="M219.4432 316.3648m-27.6736 0a27.6736 27.6736 0 1 0 55.3472 0 27.6736 27.6736 0 1 0-55.3472 0Z" fill="#FFA869" p-id="12792"></path><path d="M258.2272 757.1456m-27.3408 0a27.3408 27.3408 0 1 0 54.6816 0 27.3408 27.3408 0 1 0-54.6816 0Z" fill="#FFA869" p-id="12793"></path><path d="M510.848 48.1792c-256.5376 0-465.2544 208.7168-465.2544 465.2544S254.3104 978.688 510.848 978.688s465.2544-208.7168 465.2544-465.2544S767.3856 48.1792 510.848 48.1792z m0 894.6432c-236.7744 0-429.4144-192.64-429.4144-429.4144S274.0736 84.0192 510.848 84.0192s429.4144 192.64 429.4144 429.4144c0 71.6288-17.664 139.2128-48.8192 198.656 0.2304-2.048 0.384-4.1216 0.384-6.2208 0-29.696-24.1408-53.8368-53.8368-53.8368-29.696 0-53.8368 24.1408-53.8368 53.8368 0 29.696 24.1408 53.8368 53.8368 53.8368 11.6736 0 22.4768-3.7888 31.3088-10.1376-76.8768 116.352-208.8448 193.2544-358.4512 193.2544z m345.1648-236.9792c0 9.9328-8.064 17.9968-17.9968 17.9968s-17.9968-8.064-17.9968-17.9968 8.064-17.9968 17.9968-17.9968 17.9968 8.0896 17.9968 17.9968z" fill="#474E54" p-id="12794"></path><path d="M815.2832 400.6656l-2.5856-2.5856-112.7936-112.7936-104.4224-104.4224c-49.3568-49.3568-129.6896-49.3568-179.0464 0s-49.3568 129.6896 0 179.0464l217.216 217.216 0.0512 0.0512 2.5344 2.5344c22.784 22.8096 53.1968 35.2768 85.8112 35.2768 0.7424 0 1.4592 0 2.2016-0.0256 33.2032-0.5632 64.64-14.0032 88.448-37.8368 49.3824-49.3568 50.5344-128.512 2.5856-176.4608z m-156.2368 151.168l-100.1728-100.1728 128.3584-128.3584 100.1216 100.1216c35.3792 35.3792 35.3792 92.9792 0 128.3584-35.3536 35.3792-92.9024 35.4048-128.3072 0.0512zM441.7792 206.208c17.6896-17.6896 40.9344-26.5472 64.1792-26.5472s46.4896 8.8576 64.1792 26.5472l91.7504 91.7504-128.3584 128.3584-91.7504-91.7504c-35.3792-35.3792-35.3792-92.9792 0-128.3584zM657.4592 656.4352l-112.8192-112.8192-104.4224-104.4224c-49.3568-49.3568-129.6896-49.3568-179.0464 0-23.9104 23.9104-37.0944 55.7056-37.0944 89.5232s13.1584 65.6128 37.0944 89.5232l104.3712 104.3712s0.0256 0.0256 0.0256 0.0512l115.3792 115.3792c23.5008 23.5008 54.528 35.2 85.8624 35.2 28.6464 0 57.5744-9.8048 81.2288-29.2864 0.3584-0.3072 0.7168-0.64 1.1008-0.9472 1.2288-1.024 2.432-2.048 3.6352-3.1488 1.5872-1.4336 3.1232-2.9184 4.6592-4.4288 49.3568-49.3568 50.5088-128.512 2.5856-176.4608l-2.56-2.5344z m-89.5232 180.2752c-24.2432 0-47.0272-9.4464-64.1792-26.5984l-100.1472-100.1216 128.3584-128.3584 100.1472 100.1472c35.3792 35.3792 35.3792 92.9792 0 128.3584-17.1264 17.1264-39.936 26.5728-64.1792 26.5728z m-307.968-307.968c0-24.2432 9.4464-47.0272 26.5984-64.1792 17.6896-17.6896 40.9344-26.5472 64.1792-26.5472s46.4896 8.8576 64.1792 26.5472l91.7504 91.7504-128.3584 128.3584-91.7504-91.7504c-17.1776-17.152-26.5984-39.9616-26.5984-64.1792zM271.2576 316.3648c0-28.5696-23.2448-51.84-51.84-51.84s-51.84 23.2448-51.84 51.84c0 28.5696 23.2448 51.84 51.84 51.84s51.84-23.2448 51.84-51.84z m-67.8144 0c0-8.8064 7.168-16 16-16s16 7.168 16 16c0 8.8064-7.168 16-16 16s-16-7.168-16-16zM258.2272 705.7408c-28.3392 0-51.4048 23.0656-51.4048 51.4048 0 28.3392 23.0656 51.4048 51.4048 51.4048 28.3392 0 51.4048-23.0656 51.4048-51.4048 0-28.3648-23.0656-51.4048-51.4048-51.4048z m0 66.944a15.5904 15.5904 0 0 1-15.5648-15.5648 15.5904 15.5904 0 0 1 15.5648-15.5648 15.5904 15.5904 0 0 1 15.5648 15.5648c0 8.6016-6.9888 15.5648-15.5648 15.5648z" fill="#474E54" p-id="12795"></path><path d="M754.2528 468.0192c-4.608 0-9.2416-1.7664-12.7488-5.3248l-55.3472-55.9616c-6.9632-7.04-6.8864-18.3808 0.128-25.344 7.04-6.9632 18.3808-6.8864 25.344 0.128l55.3472 55.9616c6.9632 7.04 6.8864 18.3808-0.128 25.344a17.73056 17.73056 0 0 1-12.5952 5.1968z" fill="#F7F8F8" p-id="12796"></path><path d="M435.3792 568.9344c-4.608 0-9.2416-1.7664-12.7488-5.3248l-55.3472-55.9616c-6.9632-7.04-6.8864-18.3808 0.128-25.344 7.04-6.9632 18.3808-6.8864 25.344 0.128l55.3472 55.9616c6.9632 7.04 6.8864 18.3808-0.128 25.344a17.73056 17.73056 0 0 1-12.5952 5.1968z" fill="#F7F8F8" p-id="12797"></path></svg>